<svg width="148" height="111" viewBox="0 0 148 111" fill="none" xmlns="http://www.w3.org/2000/svg">
<path d="M54.3143 91.7028C40.4964 91.1713 24.1157 80.4831 22.3058 65.933C20.5785 52.056 31.1634 42.85 43.2216 38.7253C51.97 35.7403 61.4299 34.0662 68.9294 28.6541C74.9054 24.3405 79.2308 17.901 85.629 14.2339C91.0833 11.1542 97.5249 10.3268 103.58 11.928C129.344 18.831 126.941 55.9209 118.184 74.8703C113.365 85.3017 102.095 92.3878 90.9613 94.0146C78.8795 95.7832 66.3932 92.1663 54.3143 91.7028Z" fill="#4F772D"/>
<path opacity="0.9" d="M54.3143 91.7028C40.4964 91.1713 24.1157 80.4831 22.3058 65.933C20.5785 52.056 31.1634 42.85 43.2216 38.7253C51.97 35.7403 61.4299 34.0662 68.9294 28.6541C74.9054 24.3405 79.2308 17.901 85.629 14.2339C91.0833 11.1542 97.5249 10.3268 103.58 11.928C129.344 18.831 126.941 55.9209 118.184 74.8703C113.365 85.3017 102.095 92.3878 90.9613 94.0146C78.8795 95.7832 66.3932 92.1663 54.3143 91.7028Z" fill="white"/>
<path d="M73.8895 110.605C105.506 110.605 131.136 109.109 131.136 107.263C131.136 105.417 105.506 103.92 73.8895 103.92C42.2729 103.92 16.6426 105.417 16.6426 107.263C16.6426 109.109 42.2729 110.605 73.8895 110.605Z" fill="#F5F5F5"/>
<path d="M41.3324 107.263H40.1514" stroke="#4F772D" stroke-linecap="round" stroke-linejoin="round"/>
<path d="M37.919 107.263H7.75879" stroke="#4F772D" stroke-linecap="round" stroke-linejoin="round" stroke-dasharray="7.57 7.57"/>
<path d="M6.64293 107.263H5.46191" stroke="#4F772D" stroke-linecap="round" stroke-linejoin="round"/>
<path d="M111.61 36.5879L77.542 37.1528L77.9498 61.7471L112.017 61.1821L111.61 36.5879Z" fill="#4F772D"/>
<path opacity="0.3" d="M98.1059 36.8089L77.5088 37.1504L77.9166 61.7447L98.5137 61.4031L98.1059 36.8089Z" fill="white"/>
<path opacity="0.3" d="M101.211 38.4661L95.2793 38.5847L95.3124 40.2381L101.244 40.1195L101.211 38.4661Z" fill="white"/>
<path opacity="0.3" d="M101.386 57.5909L95.4551 57.6893L95.4825 59.3425L101.413 59.2441L101.386 57.5909Z" fill="white"/>
<path d="M105.34 52.3306C107.263 52.3306 108.821 50.5672 108.821 48.3919C108.821 46.2166 107.263 44.4532 105.34 44.4532C103.418 44.4532 101.859 46.2166 101.859 48.3919C101.859 50.5672 103.418 52.3306 105.34 52.3306Z" stroke="white" stroke-miterlimit="10"/>
<path d="M105.484 45.0526V45.714" stroke="white" stroke-linecap="round" stroke-linejoin="round"/>
<path d="M105.635 51.1112V51.7726" stroke="white" stroke-linecap="round" stroke-linejoin="round"/>
<path d="M102.404 48.262H103.069" stroke="white" stroke-linecap="round" stroke-linejoin="round"/>
<path d="M107.738 48.2649H108.403" stroke="white" stroke-linecap="round" stroke-linejoin="round"/>
<path d="M105.481 48.262L105.484 46.2247" stroke="white" stroke-width="0.5" stroke-linecap="round" stroke-linejoin="round"/>
<path d="M105.611 48.3949L107.052 49.8357" stroke="white" stroke-width="0.5" stroke-linecap="round" stroke-linejoin="round"/>
<path d="M105.806 48.265C105.806 48.3286 105.787 48.3908 105.752 48.4438C105.716 48.4967 105.666 48.5379 105.607 48.5623C105.548 48.5867 105.484 48.593 105.421 48.5806C105.359 48.5682 105.301 48.5375 105.256 48.4925C105.211 48.4475 105.181 48.3902 105.168 48.3278C105.156 48.2653 105.162 48.2006 105.187 48.1418C105.211 48.083 105.252 48.0327 105.305 47.9974C105.358 47.962 105.42 47.9431 105.484 47.9431C105.526 47.9428 105.568 47.9508 105.608 47.9668C105.647 47.9829 105.682 48.0066 105.712 48.0365C105.742 48.0665 105.766 48.1021 105.782 48.1413C105.798 48.1806 105.806 48.2226 105.806 48.265Z" fill="white"/>
<path opacity="0.3" d="M105.34 53.3728C107.886 53.3728 109.949 51.1428 109.949 48.3919C109.949 45.641 107.886 43.4109 105.34 43.4109C102.795 43.4109 100.731 45.641 100.731 48.3919C100.731 51.1428 102.795 53.3728 105.34 53.3728Z" fill="white"/>
<path d="M67.0635 91.5876C67.5772 91.9803 77.8905 90.8702 75.2243 72.5732C75.2243 72.5732 80.1167 73.8163 80.6422 73.7336C80.6422 73.7336 87.8199 84.7377 82.5939 90.1881C77.3679 95.6385 69.579 95.9722 69.579 95.9722L67.0635 91.5876Z" fill="#4F772D"/>
<path opacity="0.3" d="M67.0635 91.5876C67.5772 91.9803 77.8905 90.8702 75.2243 72.5732C75.2243 72.5732 80.1167 73.8163 80.6422 73.7336C80.6422 73.7336 87.8199 84.7377 82.5939 90.1881C77.3679 95.6385 69.579 95.9722 69.579 95.9722L67.0635 91.5876Z" fill="black"/>
<path d="M78.4923 75.4048C78.5189 75.4048 75.6107 75.4609 74.6363 74.2503C73.662 73.0398 73.0036 70.8756 74.7751 69.3993C76.5466 67.923 86.9484 61.5455 91.8467 61.0436C96.745 60.5416 101.989 63.7009 101.989 63.7009L95.5758 68.4427L81.7667 71.7849L78.4923 75.4048Z" fill="#263238"/>
<path d="M69.0898 88.706L69.3585 91.3515L72.5355 91.0828L72.0571 88.3635L69.0898 88.706Z" fill="#FFC3BD"/>
<path d="M68.4718 91.1595L73.0807 91.0945L73.4085 93.4211C73.4085 93.4211 69.0919 93.4802 67.3174 93.244C65.5429 93.0078 65.8204 92.0836 65.8204 92.0836C65.8204 92.0836 67.899 92.1338 68.4718 91.1595Z" fill="#263238"/>
<path d="M108.694 97.8559C109.382 91.0927 105.299 85.1378 99.5739 84.5552C93.8489 83.9727 88.6501 88.9831 87.9619 95.7464C87.2737 102.51 91.3568 108.465 97.0818 109.047C102.807 109.63 108.006 104.619 108.694 97.8559Z" fill="#263238"/>
<path d="M91.0855 59.151C91.0855 59.151 91.5638 70.1256 85.1804 70.4385C78.797 70.7515 71.9383 70.0518 71.9383 70.0518L73.949 89.7718L67.9641 90.1409C67.9641 90.1409 63.6682 73.4118 62.9921 69.2073C62.3159 65.0029 62.9035 62.0297 67.3412 60.1637C71.7788 58.2977 91.0855 59.151 91.0855 59.151Z" fill="#4F772D"/>
<path d="M55.3625 93.9703L63.3137 70.8755L73.9429 59.1421C73.9429 59.1421 64.666 59.1776 60.2076 61.7404C55.7493 64.3032 55.584 67.3827 54.7661 71.0468C53.9482 74.7109 50.668 92.0541 50.668 92.0541L55.3625 93.9703Z" fill="#4F772D"/>
<path opacity="0.7" d="M91.0853 59.151C91.0853 59.151 81.2061 58.7111 73.9606 59.151C73.9606 59.151 64.6837 59.1864 60.2254 61.7492C55.767 64.312 55.584 67.3827 54.7661 71.0468C53.9482 74.7109 50.668 92.0542 50.668 92.0542L55.3625 93.9704L63.3137 70.8756C64.6512 77.2767 67.964 90.1291 67.964 90.1291L73.9488 89.7718L71.9351 70.0636C71.9351 70.0636 78.791 70.7634 85.1773 70.4504C91.5637 70.1374 91.0853 59.151 91.0853 59.151Z" fill="black"/>
<path d="M74.7756 41.3501L71.1056 41.7959C71.1056 41.7959 70.4679 48.5425 69.8744 49.8534C69.8744 49.8534 58.5868 51.4035 53.9631 51.2706L51.6159 52.865L51.5332 55.6375L53.8332 55.7054L54.5743 53.9486C54.5743 53.9486 56.1274 53.8807 56.4876 53.0067C56.4876 53.0067 68.4808 55.9032 72.8978 52.5963C72.9037 52.5993 75.5669 48.6872 74.7756 41.3501Z" fill="#FFC3BD"/>
<path d="M85.2925 23.2835C85.2925 23.2835 86.441 24.7598 86.0041 26.0382C85.8835 26.4028 85.671 26.7302 85.387 26.9888C85.1031 27.2474 84.7574 27.4284 84.3831 27.5145C84.3831 27.5145 84.1676 29.5606 82.96 29.6197C81.7524 29.6787 82.1569 25.1111 82.1569 25.1111L85.2925 23.2835Z" fill="#263238"/>
<path d="M75.9942 59.2012L75.1881 46.0122L70.1865 42.6876C70.1865 42.6876 71.8222 36.9213 74.9519 35.944C78.0816 34.9667 84.9079 32.7257 89.0474 33.8388C93.1868 34.9519 92.7115 39.8355 91.9999 43.4582L91.2027 43.6472C91.2027 43.6472 91.0787 57.9227 91.0728 59.151L75.9942 59.2012Z" fill="#263238"/>
<path d="M84.9949 34.6538C83.3562 36.2393 80.0139 37.1841 79.0898 36.3958C78.1656 35.6074 79.3319 34.8841 80.2 33.9924C80.6694 33.5023 80.6546 32.584 80.5454 31.8518C80.4879 31.4828 80.403 31.1187 80.2915 30.7623C77.2238 30.594 75.9512 29.1591 75.8243 26.6287C75.6973 24.0984 76.8429 21.1606 76.8429 21.1606L79.0101 19.3123C79.0101 19.3123 81.9626 19.7552 84.3247 21.3791C85.7301 22.3357 85.3138 24.2195 84.7321 25.6101C84.4857 26.2021 84.1894 26.772 83.8463 27.3137C83.5157 30.7771 84.9949 34.6538 84.9949 34.6538Z" fill="#FFC3BD"/>
<path d="M77.5293 27.3255C77.5293 27.3255 78.7103 27.3816 79.227 26.6494" stroke="#263238" stroke-linecap="round" stroke-linejoin="round"/>
<path d="M79.4108 24.3375C79.4108 24.5619 79.275 24.7391 79.1156 24.7361C78.9561 24.7332 78.841 24.5472 78.8469 24.3228C78.8528 24.0984 78.9827 23.9212 79.1422 23.9242C79.3016 23.9271 79.4197 24.1132 79.4108 24.3375Z" fill="#263238"/>
<path d="M76.7184 24.4084C76.7184 24.6328 76.5826 24.8099 76.4232 24.807C76.2638 24.804 76.1486 24.618 76.1545 24.3936C76.1604 24.1692 76.2903 23.9921 76.4498 23.995C76.6092 23.998 76.7273 24.1869 76.7184 24.4084Z" fill="#263238"/>
<path d="M77.6541 26.2419L77.5331 24.432L76.668 26.1504C76.803 26.2651 76.9701 26.3355 77.1466 26.3519C77.323 26.3682 77.5003 26.3298 77.6541 26.2419Z" fill="#ED847E"/>
<path d="M79.2695 22.9203C79.496 22.8581 79.7372 22.8782 79.9502 22.9772C80.1633 23.0761 80.3343 23.2474 80.4328 23.4606" stroke="#263238" stroke-linecap="round" stroke-linejoin="round"/>
<path d="M75.8857 23.254C75.8857 23.254 76.429 22.6634 77.0668 22.814" stroke="#263238" stroke-linecap="round" stroke-linejoin="round"/>
<path d="M84.7525 25.6101C81.3748 25.7311 80.9556 21.9017 80.9556 21.9017C79.2844 22.7874 76.8545 21.1635 76.8545 21.1635L79.0217 19.3093C79.0217 19.3093 81.9742 19.7581 84.3362 21.3761C85.7505 22.3357 85.3342 24.2253 84.7525 25.6101Z" fill="#263238"/>
<path d="M75.7677 22.2855C75.7677 22.2855 74.0198 21.1222 74.7904 20.2837C75.561 19.4452 80.2821 21.0395 83.8104 22.9941C83.8104 22.9941 75.7293 17.588 73.5326 19.2975C71.7168 20.7118 75.7441 22.6752 75.623 22.6723L75.7677 22.2855Z" fill="#4F772D"/>
<path d="M85.6266 21.8899C85.6217 22.5021 85.5056 23.1084 85.2841 23.6791L77.3477 19.8408C77.6765 19.4611 78.0704 19.1432 78.511 18.9019C78.9807 18.6332 79.4914 18.4437 80.0227 18.3409C80.586 18.2332 81.1627 18.2133 81.7322 18.2819C84.6345 18.6155 85.6414 20.8476 85.6266 21.8899Z" fill="#4F772D"/>
<path d="M50.4782 60.9757C50.4782 60.9757 41.5143 73.3764 48.8957 92.4646" stroke="#263238" stroke-linecap="round" stroke-linejoin="round"/>
<path d="M62.3106 67.4181C62.3106 67.4181 62.3106 67.4417 62.3106 67.489C62.3106 67.5362 62.3106 67.5628 62.3106 67.6159V67.6455C62.204 68.8398 62.0065 70.0242 61.7201 71.1885C61.3126 72.9099 60.7723 74.5485 60.3265 75.8654C58.4368 81.4604 58.6553 87.4895 58.6553 87.4895C58.0294 86.71 56.8838 86.155 55.4518 85.7652C50.2376 84.3333 41.3859 85.1009 41.3859 85.1009C39.6498 79.0098 40.2698 69.476 41.9971 64.1378C43.7243 58.7996 48.5133 60.0043 48.5133 60.0043C48.5133 60.0043 53.5681 60.1519 54.2029 60.084C55.3647 59.9431 56.5406 59.9669 57.6958 60.1549C61.599 60.8694 62.5379 63.9548 62.3106 67.4181Z" fill="#4F772D"/>
<path d="M101.228 90.6576C92.3699 98.6531 75.2717 99.4916 62.5492 98.6059L55.4218 85.783L52.5342 80.5894L61.8111 68.0854L62.3012 67.427C62.3012 67.427 62.3012 67.4506 62.3012 67.4979C62.3012 67.5451 62.3012 67.5717 62.3012 67.6248V67.6543C62.1742 69.8835 61.3534 87.773 67.911 92.1605L67.9642 92.1989C68.8515 92.7723 69.8811 93.0872 70.9374 93.1082C82.969 93.4566 82.6324 77.755 79.5736 74.3921L100.451 70.1965C100.451 70.1965 104.573 80.5747 101.228 90.6576Z" fill="#4F772D"/>
<path d="M78.0066 70.9877C78.0066 70.9877 76.0491 72.6116 77.0589 74.7906C78.0686 76.9696 87.8032 72.7386 91.6356 71.968C95.468 71.1974 99.9027 70.4445 101.81 70.0518C103.717 69.6591 103.552 64.188 101.993 63.7038C100.434 63.2196 85.1636 65.9182 82.6303 67.4004C80.9575 68.4163 79.4063 69.6198 78.0066 70.9877Z" fill="#263238"/>
<path d="M82.9066 26.9624C82.7203 26.7618 82.6075 26.504 82.5865 26.2311C82.5656 25.9581 82.6378 25.6861 82.7914 25.4595C83.2638 24.7509 84.2175 23.626 85.1328 24.4675C86.4142 25.6485 84.2263 27.795 83.3199 27.2753C83.1681 27.191 83.0289 27.0856 82.9066 26.9624Z" fill="#FFC3BD"/>
<path opacity="0.2" d="M75.767 22.2855C75.767 22.2855 74.0191 21.1222 74.7897 20.2837C75.1322 19.9117 76.1567 19.9884 77.5415 20.3841C78.4319 20.6238 79.3042 20.9267 80.1515 21.2905C81.368 21.819 82.6612 22.4951 83.8097 22.9941C83.8097 22.9941 75.7286 17.588 73.5319 19.2975C71.7161 20.7118 75.4924 22.5453 75.6253 22.6693L75.6902 22.4302L75.767 22.2855Z" fill="black"/>
<path d="M76.5965 21.7807C76.5965 21.7807 74.8249 22.0759 76.0473 23.9833L76.5965 21.7807Z" fill="#263238"/>
<path d="M78.2947 20.6173C78.2947 20.6173 75.6227 19.6784 74.8786 20.2099C74.1346 20.7413 74.9141 21.754 75.7644 22.2766L76.4464 22.3652L76.848 21.1547L77.8873 21.0277L78.2947 20.6173Z" fill="#263238"/>
<path opacity="0.3" d="M81.9347 19.1736L81.294 20.1213L78.5098 18.9108C78.9795 18.6421 79.4902 18.4526 80.0215 18.3498L81.9347 19.1736Z" fill="white"/>
<path opacity="0.1" d="M81.3156 30.5024C81.1314 30.9925 80.867 31.4484 80.5332 31.8518C80.4757 31.4828 80.3908 31.1186 80.2793 30.7623C80.6373 30.7372 80.9881 30.6493 81.3156 30.5024Z" fill="black"/>
<path d="M54.8462 56.4671C54.7281 58.5132 53.8423 60.1873 52.7558 60.6007C52.5677 60.6731 52.3664 60.7043 52.1652 60.6922C50.8248 60.6154 49.8505 58.6048 49.9863 56.2043C50.1221 53.8039 51.3208 51.9202 52.6613 51.997C53.2075 52.0265 53.6888 52.3778 54.0637 52.9418C54.6159 53.7508 54.9259 55.044 54.8462 56.4671Z" fill="#F5F5F5"/>
<path d="M54.8464 56.4671C54.7283 58.5132 53.8426 60.1873 52.756 60.6007C51.516 60.5298 50.6154 58.6726 50.7424 56.4671C50.8694 54.2615 51.9736 52.5107 53.2137 52.5815C53.5332 52.6054 53.8356 52.7353 54.0729 52.9506C54.6161 53.7508 54.9262 55.044 54.8464 56.4671Z" fill="white"/>
<path d="M102.698 85.47C100.416 83.8667 91.5848 82.293 91.5848 82.293C86.22 82.293 81.5107 87.1204 80.8611 93.5304C80.3297 98.7446 82.6326 103.478 86.344 105.636C86.344 105.636 86.654 105.766 87.1737 105.969C89.14 106.746 94.1299 108.627 97.0794 109.04" fill="#263238"/>
<path opacity="0.3" d="M108.694 97.8559C109.382 91.0927 105.299 85.1378 99.5739 84.5552C93.8489 83.9727 88.6501 88.9831 87.9619 95.7464C87.2737 102.51 91.3568 108.465 97.0818 109.047C102.807 109.63 108.006 104.619 108.694 97.8559Z" fill="black"/>
<path d="M62.7945 97.4623C63.4827 90.6991 59.3995 84.7441 53.6745 84.1616C47.9495 83.5791 42.7506 88.5895 42.0625 95.3528C41.3743 102.116 45.4574 108.071 51.1824 108.653C56.9074 109.236 62.1063 104.226 62.7945 97.4623Z" fill="#263238"/>
<path d="M58.7955 86.4177L53.5164 108.582C52.7462 108.707 51.9629 108.73 51.1868 108.65H51.1278C50.115 108.391 50.5668 108.671 49.5511 108.334C46.9676 107.481 43.2149 105.972 43.2149 105.972C39.2379 104.039 36.991 99.3351 37.5372 93.9615C38.1986 87.4511 42.8695 82.5883 48.3671 82.9869C48.3671 82.9869 50.9772 83.4681 53.664 84.1679C54.845 84.4631 56.026 84.8145 56.9974 85.1806C57.6406 85.5254 58.2436 85.9403 58.7955 86.4177Z" fill="#263238"/>
<path opacity="0.3" d="M62.7936 97.4485C62.2031 103.28 58.2556 107.806 53.5108 108.571C52.7407 108.695 51.9574 108.718 51.1813 108.639H51.1222C50.0412 108.522 48.9906 108.209 48.0221 107.714C44.0332 105.692 41.5087 100.779 42.0609 95.3462C42.7488 88.5879 47.9364 83.5833 53.6585 84.1561H53.6732C54.835 84.2734 55.9625 84.6175 56.9919 85.1688C57.6352 85.5146 58.2382 85.9305 58.79 86.4089C61.6156 88.8654 63.2601 92.9872 62.7936 97.4485Z" fill="black"/>
<path d="M61.3559 89.6833C61.1828 89.4072 60.9852 89.1473 60.7654 88.9067C59.4456 87.1057 56.4281 86.4325 54.4528 86.5919C52.9386 86.7397 51.4848 87.2612 50.2218 88.1096C48.781 89.0426 47.7505 90.4716 46.3215 91.4518C43.6111 93.3237 39.4982 93.2706 36.7759 91.3426C36.6224 91.2334 36.4764 91.1141 36.339 90.9853C36.0615 90.6966 35.8765 90.3316 35.8075 89.9372C35.7033 89.4447 35.7412 88.9327 35.9167 88.4609C36.5073 86.8016 38.4766 85.343 39.7196 84.4543C42.2397 82.6763 45.2039 81.6327 48.282 81.4398C57.0599 80.8345 60.8037 88.331 61.3559 89.6833Z" fill="#4F772D"/>
<path opacity="0.3" d="M60.7476 89.9195C58.8609 87.1972 56.4398 86.4325 54.4645 86.5919C52.9503 86.7397 51.4965 87.2612 50.2335 88.1096C48.7927 89.0426 47.7623 90.4716 46.3332 91.4518C43.6228 93.3237 39.5099 93.2706 36.7877 91.3426C36.6341 91.2334 36.4882 91.1141 36.3507 90.9853C36.0732 90.6966 35.8882 90.3316 35.8192 89.9372C35.7151 89.4447 35.753 88.9327 35.9285 88.4609C36.8408 89.515 39.4981 92.0542 43.0972 90.8229C47.5851 89.2729 48.6805 84.6669 53.4784 84.7082C57.2901 84.7525 59.6374 87.7051 60.7476 89.9195Z" fill="black"/>
<g opacity="0.3">
<path opacity="0.3" d="M41.0049 83.6423C42.2852 82.7325 43.7256 82.0723 45.2506 81.6966C46.7772 81.3081 48.358 81.1783 49.9275 81.3128C51.4944 81.4636 53.0288 81.8539 54.4773 82.4701L55.0147 82.7064L55.5403 82.9691C55.8946 83.1345 56.2282 83.3411 56.5707 83.5301C56.9132 83.7191 57.2291 83.9523 57.5568 84.162C57.8846 84.3716 58.1916 84.6166 58.5046 84.8499C57.217 83.9872 55.8424 83.2618 54.4035 82.6857C52.9674 82.1095 51.4542 81.7484 49.9127 81.6139C48.3744 81.4668 46.8225 81.5665 45.3156 81.9092C44.5591 82.0769 43.8175 82.306 43.0982 82.5942C42.3683 82.8752 41.6672 83.2262 41.0049 83.6423Z" fill="black"/>
</g>
<g opacity="0.3">
<path opacity="0.3" d="M50.5643 81.5312C50.1961 80.2999 49.9751 79.0294 49.9059 77.7461C49.8084 76.4676 49.7878 75.1833 49.8143 73.9078C49.8409 72.6323 49.9295 71.345 50.0476 70.0695L50.2631 68.1621C50.3576 67.5273 50.4403 66.8925 50.5584 66.2607L50.2897 70.099L50.1834 72.0122C50.1657 72.65 50.1273 73.2877 50.1244 73.9255C50.0742 75.201 50.0978 76.4765 50.145 77.7638C50.1657 78.4015 50.2159 79.0363 50.2808 79.6711C50.3327 80.2969 50.4274 80.9184 50.5643 81.5312Z" fill="black"/>
</g>
<path opacity="0.3" d="M67.8957 92.1339C61.7308 88.1686 61.4857 77.938 61.6954 71.1885C61.7338 70.0282 61.781 68.9741 61.8164 68.0677C61.8811 67.1604 61.8811 66.2497 61.8164 65.3425C61.1934 60.707 57.6504 60.149 57.6504 60.149H57.6652C61.5891 60.8694 62.528 63.9548 62.3006 67.4181C62.3006 67.4181 62.3006 67.4417 62.3006 67.489C62.3006 67.5362 62.3006 67.5628 62.3006 67.6159V67.6455C62.1678 69.8746 61.347 87.7641 67.8957 92.1339Z" fill="black"/>
<path opacity="0.2" d="M67.3944 57.1935C66.8777 57.7338 60.1961 56.349 59.0299 56.9691C58.5368 57.2289 58.3213 58.1501 57.8252 59.1598C56.4316 61.3743 54.4711 61.7227 54.3501 61.7404C56.6885 59.9688 57.341 55.7054 56.1807 53.0097C55.0203 50.314 50.8661 51.0138 50.6299 51.0935C51.3383 50.7821 52.1003 50.6106 52.8738 50.5886C55.1207 50.4705 57.8607 51.1024 58.6283 52.5255C60.1873 55.4278 66.8718 54.7753 67.486 55.5371C68.1001 56.2988 67.9111 56.6531 67.3944 57.1935Z" fill="black"/>
<path d="M62.1605 54.6159C61.7544 55.3655 61.5923 56.2233 61.697 57.0695L67.357 57.7072C67.6464 57.3723 67.8602 56.9791 67.984 56.5542C68.1078 56.1293 68.1387 55.6827 68.0745 55.2448C68.0745 55.2448 62.4676 54.6808 62.1605 54.6159Z" fill="#263238"/>
<path d="M44.9751 54.4062C44.9751 54.4062 44.4112 53.2075 45.0873 52.4487C43.5756 52.3129 42.6396 52.1535 41.6653 52.0117C41.5206 52.4517 41.4498 52.8739 41.9606 53.5441C42.4713 54.2143 44.9751 54.4062 44.9751 54.4062Z" fill="#263238"/>
<path d="M41.8301 61.9087C40.8498 63.506 40.0113 66.0629 39.9375 70.1463" stroke="#4F772D" stroke-linecap="round" stroke-linejoin="round"/>
<path d="M45.0577 59.275C44.3445 59.4404 43.6889 59.7942 43.1592 60.2995" stroke="#4F772D" stroke-linecap="round" stroke-linejoin="round"/>
<path d="M89.0899 43.8834L85.3638 44.3381C85.3638 44.3381 84.7142 51.1851 84.1119 52.5167C84.1119 52.5167 72.6531 54.0933 67.9556 53.9545L65.5729 55.5725L65.4902 58.3893L67.8257 58.4572L68.5786 56.6856C68.5786 56.6856 70.1553 56.6177 70.5184 55.729C70.5184 55.729 82.6947 58.6816 87.1796 55.3157C87.1767 55.3039 89.8842 51.3327 89.0899 43.8834Z" fill="#FFC3BD"/>
<path opacity="0.2" d="M58.7488 96.5627C58.6425 100.277 56.2096 103.218 53.3132 103.135C52.9239 103.123 52.5382 103.057 52.1676 102.937C49.8469 102.199 48.1757 99.4621 48.2673 96.2586C48.3588 93.1584 50.0683 90.5956 52.3152 89.884C52.7642 89.7396 53.2344 89.6727 53.7058 89.6862C56.6023 89.7718 58.858 92.8602 58.7488 96.5627Z" fill="#FAFAFA"/>
<path d="M56.0826 96.5627C55.9911 99.7337 54.3111 102.341 52.1676 102.946C49.8469 102.208 48.1757 99.4709 48.2673 96.2674C48.3588 93.1673 50.0683 90.6044 52.3152 89.8929C54.5473 90.4982 56.1742 93.2795 56.0826 96.5627Z" fill="#263238"/>
<path opacity="0.2" d="M104.242 96.858C104.133 100.572 101.7 103.516 98.8066 103.43C98.4171 103.42 98.0312 103.354 97.661 103.232C95.3373 102.494 93.6662 99.7603 93.7606 96.5538C93.8492 93.4566 95.5588 90.8909 97.8056 90.1793C98.2546 90.0349 98.7249 89.968 99.1963 89.9815C102.093 90.0671 104.348 93.1496 104.242 96.858Z" fill="#FAFAFA"/>
<path d="M101.576 96.8579C101.482 100.026 99.8045 102.633 97.661 103.238C95.3373 102.5 93.6662 99.7662 93.7606 96.5597C93.8492 93.4625 95.5588 90.8967 97.8056 90.1852C100.041 90.7905 101.671 93.5718 101.576 96.8579Z" fill="#263238"/>
<path d="M108.806 87.0732C108.856 90.7255 103.297 93.1436 93.9931 94.6672C91.4853 95.1081 88.9225 95.138 86.4051 94.7557C82.2715 94.0737 80.252 92.3258 80.252 92.3258C80.252 92.3258 81.3031 79.7037 91.7049 78.1034C98.791 77.0169 104.123 79.8749 106.828 82.9544C108.1 84.4012 108.791 85.904 108.806 87.0732Z" fill="#4F772D"/>
<path opacity="0.3" d="M108.807 87.0732C108.857 90.7255 103.298 93.1436 93.9943 94.6671C91.4865 95.1081 88.9237 95.138 86.4062 94.7557C86.8521 91.3278 88.8539 82.3373 97.5551 81.4043C101.503 80.9791 104.55 81.7763 106.829 82.9544C108.102 84.4011 108.792 85.904 108.807 87.0732Z" fill="black"/>
<g opacity="0.3">
<path opacity="0.3" d="M80.8535 92.3819C81.0449 90.6637 81.4547 88.977 82.0729 87.3625C82.6808 85.7314 83.5201 84.1961 84.5649 82.8038C85.0928 82.1117 85.686 81.472 86.3364 80.8935C86.9808 80.3056 87.6912 79.7944 88.4534 79.37C89.9699 78.5148 91.6503 77.9905 93.3841 77.8317C92.5345 77.9741 91.6988 78.1894 90.8863 78.4754C90.4759 78.5994 90.0891 78.7913 89.7052 78.9537C89.3201 79.1381 88.9447 79.3421 88.5803 79.5649C88.2083 79.7775 87.8658 80.0343 87.5145 80.2735C87.1631 80.5126 86.8383 80.7961 86.5283 81.0943C85.8978 81.6672 85.3234 82.299 84.8129 82.981C83.7757 84.3464 82.9303 85.8475 82.3003 87.4423C81.9731 88.2366 81.6912 89.0489 81.4558 89.8752C81.2053 90.698 81.0042 91.535 80.8535 92.3819Z" fill="black"/>
</g>
<path d="M66.8955 88.2129L67.5096 90.2974L73.9491 89.76L74.0348 86.8459L66.8955 88.2129Z" fill="#4F772D"/>
<path d="M105.233 73.9964L119.403 73.4206" stroke="#4F772D" stroke-linecap="round" stroke-linejoin="round"/>
<path d="M124.085 70.8401L126.19 70.7545" stroke="#4F772D" stroke-linecap="round" stroke-linejoin="round"/>
<path d="M112.025 71.3302L122.471 70.9051" stroke="#4F772D" stroke-linecap="round" stroke-linejoin="round"/>
<path d="M119.335 78.6644L128.089 78.31" stroke="#4F772D" stroke-linecap="round" stroke-linejoin="round"/>
<path d="M113.922 78.8858L117.737 78.7293" stroke="#4F772D" stroke-linecap="round" stroke-linejoin="round"/>
</svg>
