<svg width="367" height="276" viewBox="0 0 367 276" fill="none" xmlns="http://www.w3.org/2000/svg">
<path d="M322.453 72.7937C322.652 71.6032 322.589 70.3833 322.27 69.22C321.95 68.0566 321.38 66.9783 320.602 66.0609C319.824 65.1435 318.855 64.4095 317.765 63.9106C316.674 63.4118 315.489 63.1602 314.291 63.1737C313.841 63.1753 313.392 63.215 312.948 63.2921C312 61.696 310.608 60.415 308.946 59.6071C307.284 58.7993 305.423 58.5001 303.594 58.7465C301.764 58.9928 300.047 59.774 298.653 60.9934C297.259 62.2129 296.25 63.8172 295.751 65.6083C295.161 65.4264 294.547 65.3341 293.93 65.3345C292.303 65.3345 290.742 65.9863 289.591 67.1465C288.44 68.3066 287.794 69.8802 287.794 71.5209C287.796 71.9587 287.842 72.3952 287.933 72.8233L322.453 72.7937Z" fill="#F0F0F0"/>
<path d="M106.43 39.8563C106.552 39.1226 106.616 38.3802 106.621 37.6363C106.621 33.8308 105.121 30.1812 102.452 27.4903C99.7832 24.7994 96.1632 23.2877 92.3886 23.2877C91.616 23.2929 90.8451 23.3622 90.0838 23.4949C88.4559 20.753 86.0673 18.5517 83.2127 17.1628C80.3581 15.7739 77.1626 15.2581 74.0206 15.6792C70.8786 16.1002 67.9277 17.4396 65.5322 19.5321C63.1366 21.6246 61.4012 24.3785 60.5403 27.4539C58.7799 26.8977 56.9054 26.8173 55.1045 27.221C53.3036 27.6246 51.6394 28.4981 50.2786 29.7539C48.9177 31.0098 47.9079 32.6039 47.3502 34.3769C46.7925 36.1498 46.7065 38.0393 47.1008 39.8563H106.43Z" fill="#F0F0F0"/>
<path d="M367 242.276H0V242.461H367V242.276Z" fill="#EBEBEB"/>
<path d="M330.225 254.183H305.915V254.368H330.225V254.183Z" fill="#EBEBEB"/>
<path d="M243.115 256.195H236.736V256.38H243.115V256.195Z" fill="#EBEBEB"/>
<path d="M305.183 247.315H291.098V247.5H305.183V247.315Z" fill="#EBEBEB"/>
<path d="M70.2083 248.558H38.5068V248.743H70.2083V248.558Z" fill="#EBEBEB"/>
<path d="M81.3943 248.558H76.748V248.743H81.3943V248.558Z" fill="#EBEBEB"/>
<path d="M165.262 251.681H96.501V251.866H165.262V251.681Z" fill="#EBEBEB"/>
<path d="M173.959 209.272H32.2307C31.1204 209.27 30.0562 208.824 29.2718 208.032C28.4874 207.24 28.0469 206.166 28.0469 205.047V4.1884C28.0565 3.07546 28.5014 2.0113 29.2847 1.22708C30.0681 0.442859 31.1267 0.00190653 32.2307 0H173.959C175.07 0 176.136 0.445175 176.922 1.23759C177.708 2.03001 178.15 3.10475 178.15 4.2254V205.047C178.15 206.167 177.708 207.242 176.922 208.034C176.136 208.827 175.07 209.272 173.959 209.272ZM32.2307 0.148001C31.1691 0.149961 30.1516 0.576508 29.4016 1.33402C28.6516 2.09153 28.2304 3.1181 28.2304 4.1884V205.047C28.2304 206.117 28.6516 207.143 29.4016 207.901C30.1516 208.658 31.1691 209.085 32.2307 209.087H173.959C175.021 209.085 176.039 208.659 176.79 207.901C177.542 207.144 177.964 206.118 177.966 205.047V4.1884C177.964 3.11742 177.542 2.09086 176.79 1.33357C176.039 0.576268 175.021 0.149957 173.959 0.148001H32.2307Z" fill="#EBEBEB"/>
<path d="M332.73 209.272H190.995C189.884 209.27 188.819 208.824 188.033 208.032C187.248 207.24 186.806 206.167 186.804 205.047V4.1884C186.815 3.07478 187.262 2.01064 188.046 1.22662C188.831 0.4426 189.89 0.00188573 190.995 0H332.73C333.833 0.00385133 334.89 0.445664 335.671 1.22968C336.453 2.01369 336.897 3.07674 336.907 4.1884V205.047C336.907 206.165 336.467 207.237 335.684 208.029C334.902 208.821 333.839 209.268 332.73 209.272ZM190.995 0.148001C189.933 0.149957 188.914 0.576268 188.163 1.33357C187.412 2.09086 186.989 3.11742 186.987 4.1884V205.047C186.989 206.118 187.412 207.144 188.163 207.901C188.914 208.659 189.933 209.085 190.995 209.087H332.73C333.793 209.085 334.811 208.659 335.562 207.901C336.313 207.144 336.736 206.118 336.738 205.047V4.1884C336.736 3.11742 336.313 2.09086 335.562 1.33357C334.811 0.576268 333.793 0.149957 332.73 0.148001H190.995Z" fill="#EBEBEB"/>
<path d="M27.8262 220.86V171.665H51.3289V158.212H62.5811V118.674L77.1143 104.022H106.621V146.387H147.101V154.756H175.72V143.76H206.467V135.472H230.476V86.395H272.982V117.667H282.766V128.997H305.513V147.578H317.668L327.019 157.006V166.596H336.334V220.86H27.8262Z" fill="#F0F0F0"/>
<path d="M56.4522 171.665H51.7326L51.3289 171.384V171.665H27.8262V220.86H56.4522V171.665Z" fill="#E6E6E6"/>
<path d="M176.13 147.341V154.756H174.97L173.737 162.689L177.224 220.86H216.001V143.76H206.877H176.681L176.13 147.341Z" fill="#E6E6E6"/>
<path d="M266.405 128.997V220.86H336.737V166.596H327.423V157.006L318.072 147.578H305.916V128.997H285.269H283.17H266.405Z" fill="#E6E6E6"/>
<path d="M318.115 152.566H313.865V156.851H318.115V152.566Z" fill="white"/>
<path d="M310.608 152.566H306.358V156.851H310.608V152.566Z" fill="white"/>
<path d="M318.115 160.55H313.865V164.835H318.115V160.55Z" fill="white"/>
<path d="M310.608 160.55H306.358V164.835H310.608V160.55Z" fill="white"/>
<path d="M294.907 132.453H290.657V136.737H294.907V132.453Z" fill="white"/>
<path d="M287.398 132.453H283.148V136.737H287.398V132.453Z" fill="white"/>
<path d="M51.5213 178.599H47.2715V182.884H51.5213V178.599Z" fill="white"/>
<path d="M44.0106 178.599H39.7607V182.884H44.0106V178.599Z" fill="white"/>
<path d="M211.104 160.639V156.355H206.855V160.639H211.104Z" fill="white"/>
<path d="M211.104 153.069V148.784H206.855V153.069H211.104Z" fill="white"/>
<path d="M182.076 275.695C260.675 275.695 324.391 271.944 324.391 267.318C324.391 262.691 260.675 258.941 182.076 258.941C103.477 258.941 39.7607 262.691 39.7607 267.318C39.7607 271.944 103.477 275.695 182.076 275.695Z" fill="#F5F5F5"/>
<path d="M325.55 230.836H285.451V264.269H325.55V230.836Z" fill="#4F772D"/>
<path opacity="0.3" d="M325.55 230.836H285.451V264.269H325.55V230.836Z" fill="white"/>
<path d="M295.339 230.836H264.262V264.269H295.339V230.836Z" fill="#4F772D"/>
<path opacity="0.1" d="M295.339 230.836H264.262V264.269H295.339V230.836Z" fill="white"/>
<path opacity="0.3" d="M284.198 230.836H275.404V241.24H284.198V230.836Z" fill="white"/>
<path opacity="0.1" d="M317.008 230.836H308.215V241.24H317.008V230.836Z" fill="black"/>
<path d="M308.691 250.512H307.532C307.513 250.172 307.513 249.831 307.532 249.491C307.532 248.958 307.935 247.93 308.669 248.396C308.897 248.537 309.161 248.211 308.934 248.07C308.769 247.971 308.583 247.913 308.391 247.904C308.199 247.895 308.008 247.934 307.835 248.018C307.662 248.101 307.512 248.227 307.399 248.383C307.285 248.54 307.213 248.722 307.187 248.914C307.089 249.436 307.064 249.969 307.113 250.498H306.445C306.181 250.498 306.108 250.904 306.379 250.912H307.113C307.113 251.563 307.113 252.214 307.113 252.865C307.113 253.139 307.532 253.087 307.532 252.821C307.532 252.185 307.532 251.556 307.532 250.919H308.618C308.89 250.934 308.963 250.52 308.691 250.512Z" fill="white"/>
<path d="M310.615 249.595C310.586 249.587 310.556 249.587 310.527 249.595C308.626 249.454 308.926 252.592 310.747 252.555C311.136 252.498 311.49 252.298 311.741 251.993C311.992 251.688 312.121 251.3 312.105 250.904C312.111 250.714 312.074 250.524 311.999 250.349C311.923 250.175 311.81 250.019 311.668 249.894C311.525 249.768 311.357 249.676 311.174 249.625C310.992 249.573 310.801 249.563 310.615 249.595ZM310.901 252.103C309.528 252.466 309.088 249.883 310.497 250.039C310.54 250.051 310.586 250.051 310.629 250.039C311.951 249.839 311.951 251.822 310.901 252.103Z" fill="white"/>
<path d="M315.152 250.371C314.587 248.521 311.739 250.038 312.554 251.726C312.762 252.056 313.082 252.3 313.455 252.41C313.827 252.52 314.227 252.49 314.579 252.325C314.756 252.256 314.915 252.149 315.046 252.011C315.176 251.872 315.274 251.707 315.333 251.525C315.392 251.344 315.411 251.152 315.387 250.962C315.363 250.773 315.298 250.591 315.196 250.431L315.152 250.371ZM312.884 251.43C312.495 250.305 314.352 249.21 314.763 250.542C314.768 250.565 314.777 250.587 314.791 250.606C314.805 250.625 314.823 250.641 314.844 250.653C315.563 251.948 313.28 252.599 312.884 251.43Z" fill="white"/>
<path d="M318.335 252.414C318.21 250.712 318.093 249.01 317.968 247.315C317.968 247.042 317.535 247.093 317.55 247.36L317.704 249.506C317.481 249.433 317.245 249.413 317.014 249.446C316.782 249.48 316.561 249.566 316.368 249.699C316.174 249.832 316.013 250.008 315.898 250.213C315.782 250.418 315.715 250.647 315.7 250.882C315.641 252.029 316.963 252.421 317.902 252.296V252.458C317.939 252.725 318.357 252.68 318.335 252.414ZM316.133 251.067C316.121 250.882 316.154 250.697 316.229 250.528C316.304 250.359 316.419 250.21 316.563 250.096C316.708 249.981 316.878 249.904 317.059 249.871C317.24 249.838 317.426 249.85 317.601 249.905C317.642 249.916 317.685 249.916 317.726 249.905C317.777 250.557 317.821 251.208 317.873 251.866C317.234 251.955 316.229 251.822 316.119 251.067H316.133Z" fill="white"/>
<path d="M183.478 29.9773H84.425C78.3444 29.9773 73.415 34.9469 73.415 41.0773V249.417C73.415 255.547 78.3444 260.517 84.425 260.517H183.478C189.559 260.517 194.488 255.547 194.488 249.417V41.0773C194.488 34.9469 189.559 29.9773 183.478 29.9773Z" fill="#263238"/>
<path d="M186.665 45.3472H81.248V230.762H186.665V45.3472Z" fill="#4F772D"/>
<path opacity="0.3" d="M186.665 212.38H81.248V230.754H186.665V212.38Z" fill="white"/>
<path opacity="0.1" d="M186.665 121.641C159.867 148.511 110.241 198.771 81.248 228.201V230.791H140.152L186.665 183.905V121.641Z" fill="white"/>
<path opacity="0.1" d="M81.248 138.587L173.732 45.3472H130.485C119.034 56.8024 99.4733 76.5604 81.248 95.0012V138.587Z" fill="white"/>
<path opacity="0.1" d="M81.248 177.563L186.665 71.2843V48.5441L81.248 154.815V177.563Z" fill="white"/>
<path opacity="0.2" d="M186.665 45.3472H81.248V53.7092H186.665V45.3472Z" fill="black"/>
<path d="M135.116 250.631C139.034 249.99 141.694 246.269 141.058 242.319C140.422 238.37 136.731 235.688 132.814 236.329C128.896 236.97 126.236 240.691 126.872 244.641C127.508 248.59 131.199 251.272 135.116 250.631Z" fill="#4F772D"/>
<g opacity="0.6">
<path opacity="0.6" d="M92.6465 51.4447H94.2393V49.2987H92.6465V51.4447Z" fill="white"/>
<path opacity="0.6" d="M90.0498 51.4447H91.6426V48.5883H90.0498V51.4447Z" fill="white"/>
<path opacity="0.6" d="M87.4492 51.4447H89.042V47.8705H87.4492V51.4447Z" fill="white"/>
<path opacity="0.6" d="M84.8525 51.4447H86.4453V47.1527H84.8525V51.4447Z" fill="white"/>
</g>
<path opacity="0.6" d="M175.477 48.5143H174.53V50.6603H175.477V48.5143Z" fill="white"/>
<path opacity="0.6" d="M176.131 51.4447H183.669V47.7373H176.131V51.4447Z" fill="white"/>
<path opacity="0.4" d="M139.202 156.14C136.787 153.92 133.954 156.88 133.954 156.88C133.954 156.88 131.128 153.92 128.706 156.103C125.256 159.218 130.269 164.791 133.954 165.908C137.639 164.82 142.652 159.248 139.202 156.14Z" fill="white"/>
<path d="M164.147 171.68H103.768C101.942 171.68 100.191 172.411 98.8994 173.713C97.6082 175.015 96.8828 176.78 96.8828 178.621C96.8828 180.462 97.6082 182.228 98.8994 183.529C100.191 184.831 101.942 185.562 103.768 185.562H164.147C165.973 185.562 167.724 184.831 169.015 183.529C170.306 182.228 171.031 180.462 171.031 178.621C171.031 176.78 170.306 175.015 169.015 173.713C167.724 172.411 165.973 171.68 164.147 171.68Z" fill="white"/>
<path d="M114.043 182.314V174.951H116.707C117.241 174.942 117.77 175.043 118.263 175.247C118.687 175.425 119.067 175.693 119.379 176.031C119.68 176.37 119.907 176.768 120.047 177.2C120.37 178.16 120.37 179.201 120.047 180.16C119.888 180.596 119.638 180.993 119.313 181.322C118.992 181.642 118.61 181.894 118.19 182.062C117.722 182.244 117.224 182.335 116.722 182.329L114.043 182.314ZM118.821 178.614C118.822 178.286 118.775 177.959 118.682 177.644C118.593 177.372 118.45 177.121 118.263 176.904C118.077 176.689 117.843 176.519 117.581 176.409C117.293 176.285 116.983 176.224 116.671 176.231H115.445V181.078H116.707C117.025 181.084 117.341 181.021 117.632 180.893C117.889 180.774 118.117 180.6 118.3 180.382C118.488 180.153 118.63 179.889 118.719 179.605C118.801 179.284 118.836 178.953 118.821 178.621V178.614Z" fill="#E0E0E0"/>
<path d="M124.421 182.366C123.914 182.374 123.411 182.265 122.953 182.047C122.531 181.844 122.154 181.557 121.844 181.204C121.22 180.496 120.873 179.583 120.868 178.636C120.866 178.151 120.958 177.671 121.14 177.223C121.309 176.783 121.558 176.379 121.874 176.031C122.192 175.684 122.577 175.405 123.004 175.21C123.448 175.003 123.932 174.899 124.421 174.906C124.917 174.898 125.408 175.01 125.852 175.232C126.284 175.448 126.669 175.75 126.982 176.12C127.298 176.473 127.547 176.882 127.716 177.326C127.888 177.759 127.975 178.221 127.973 178.688C127.976 179.169 127.886 179.647 127.709 180.094C127.538 180.53 127.289 180.931 126.975 181.278C126.66 181.624 126.278 181.901 125.852 182.092C125.402 182.291 124.912 182.385 124.421 182.366ZM122.322 178.666C122.322 178.977 122.372 179.287 122.468 179.583C122.559 179.869 122.698 180.137 122.879 180.375C123.063 180.598 123.287 180.784 123.54 180.923C123.818 181.062 124.125 181.133 124.435 181.13C124.749 181.134 125.059 181.06 125.338 180.915C125.595 180.776 125.82 180.585 125.999 180.353C126.178 180.114 126.314 179.846 126.403 179.561C126.496 179.272 126.543 178.97 126.542 178.666C126.542 178.351 126.493 178.039 126.395 177.741C126.305 177.453 126.163 177.185 125.977 176.949C125.798 176.722 125.573 176.538 125.316 176.409C125.036 176.274 124.731 176.205 124.421 176.205C124.111 176.205 123.805 176.274 123.525 176.409C123.269 176.548 123.044 176.74 122.865 176.971C122.687 177.208 122.551 177.473 122.461 177.755C122.373 178.041 122.326 178.337 122.322 178.636V178.666Z" fill="#E0E0E0"/>
<path d="M130.447 177.6V182.314H129.038V174.951H130.132L133.897 179.783V174.966H135.306V182.314H134.169L130.447 177.6Z" fill="#E0E0E0"/>
<path d="M138.874 174.951H140.115L142.867 182.314H141.399L140.724 180.479H138.199L137.538 182.314H136.07L138.874 174.951ZM140.496 179.472L139.498 176.579L138.456 179.472H140.496Z" fill="#E0E0E0"/>
<path d="M148.357 176.209H146.067V182.314H144.672V176.209H142.36V174.951H148.379L148.357 176.209Z" fill="#E0E0E0"/>
<path d="M154.28 181.056V182.314H149.252V174.951H154.184V176.209H150.661V177.977H153.707V179.139H150.661V181.056H154.28Z" fill="#E0E0E0"/>
<path opacity="0.3" d="M194.495 95.7487L172.38 98.9233L178.156 140.348L194.495 138.676V95.7487Z" fill="#263238"/>
<path opacity="0.7" d="M134.974 147.571C157.456 147.571 175.682 129.196 175.682 106.53C175.682 83.8644 157.456 65.49 134.974 65.49C112.492 65.49 94.2666 83.8644 94.2666 106.53C94.2666 129.196 112.492 147.571 134.974 147.571Z" fill="white"/>
<path d="M149.574 81.437C149.574 81.437 157.89 93.8394 162.558 94.3426C167.227 94.8458 185.488 79.0098 185.488 79.0098L188.586 81.7108C188.586 81.7108 171.212 100.951 163.96 102.076C156.708 103.2 142.924 88.7112 142.924 88.7112L149.574 81.437Z" fill="#E4897B"/>
<path d="M147.593 82.3619C147.593 82.3619 150.529 79.4611 154.566 84.5005C158.603 89.5399 160.262 90.5685 160.262 90.5685L149.986 100.684C149.986 100.684 143.945 85.0555 147.593 82.3619Z" fill="#4F772D"/>
<path d="M184.042 77.8627C184.042 77.8627 184.401 73.2081 185.473 72.9121C186.545 72.6161 186.163 76.0571 186.163 76.0571C186.163 76.0571 191.815 72.5791 192.952 72.8899C194.09 73.2007 193.907 75.4503 193.686 76.0571C191.961 81.2371 185.796 83.3831 185.796 83.3831L183.308 81.0151L184.042 77.8627Z" fill="#E4897B"/>
<path d="M141.662 69.1234C141.662 69.1234 147.336 78.6546 145.596 84.6634C143.857 90.6722 134.909 85.2702 134.909 85.2702L135.019 73.4302L141.662 69.1234Z" fill="#263238"/>
<path d="M126.445 52.6953C126.445 52.6953 118.055 56.9799 121.351 72.0537C126.871 97.3247 135.018 86.8537 135.018 86.8537C135.018 86.8537 134.659 76.8933 131.348 72.0537C128.038 67.2141 128.728 60.3099 128.728 60.3099L126.445 52.6953Z" fill="#263238"/>
<path d="M150.778 119.458L125.624 121.678C125.38 115.392 124.482 109.149 122.945 103.052C122.343 100.625 121.594 97.9094 120.625 94.7792C120.104 93.0994 119.532 91.3012 118.893 89.3698C118.416 87.8898 117.895 86.3432 117.322 84.693C120.739 83.5918 124.23 82.7386 127.767 82.14C131.496 81.4667 135.269 81.0661 139.056 80.9412C143.952 80.8968 149.574 81.4519 149.574 81.4519C149.574 81.4519 150.374 81.6442 150.881 86.876C151.336 91.76 151.784 101.595 150.778 119.458Z" fill="#4F772D"/>
<path opacity="0.2" d="M150.778 119.458L125.624 121.678C125.38 115.392 124.482 109.149 122.945 103.052C122.343 100.625 121.594 97.9094 120.625 94.7792C120.104 93.0994 119.532 91.3012 118.893 89.3698C118.416 87.8898 117.895 86.3432 117.322 84.693C120.739 83.5918 124.23 82.7386 127.767 82.14C131.496 81.4667 135.269 81.0661 139.056 80.9412C143.952 80.8968 149.574 81.4519 149.574 81.4519C149.574 81.4519 150.374 81.6442 150.881 86.876C151.336 91.76 151.784 101.595 150.778 119.458Z" fill="white"/>
<path opacity="0.2" d="M125.515 119.747C129.544 118.163 142.83 111.607 142.83 111.607L125.214 115.617C125.295 116.964 125.405 118.326 125.515 119.747Z" fill="black"/>
<path d="M136.984 86.5207C130.782 85.7215 128.91 83.0575 128.91 83.0575C132.844 79.3131 129.578 72.8307 129.578 72.8307L137.036 74.2367C136.865 75.2841 136.769 76.3426 136.749 77.4039C136.691 81.9697 138.738 82.0141 138.738 82.0141C140.052 84.4857 136.984 86.5207 136.984 86.5207Z" fill="#E4897B"/>
<path opacity="0.2" d="M137.047 74.2367C136.877 75.2841 136.781 76.3426 136.761 77.4039C131.718 77.4039 129.59 72.8307 129.59 72.8307L137.047 74.2367Z" fill="black"/>
<path d="M133.698 53.1764C140.186 52.8138 141.654 55.9513 142.506 62.6631C143.563 71.0547 142.065 77.4113 133.859 76.0645C124.853 74.5845 122.328 60.2063 127.745 54.7081C129.015 53.4057 131.635 53.28 133.698 53.1764Z" fill="#E4897B"/>
<path d="M138.314 63.514C138.886 64.4615 139.569 65.3361 140.348 66.1188C140.174 66.4 139.926 66.6269 139.632 66.7746C139.338 66.9222 139.009 66.9847 138.681 66.955L138.314 63.514Z" fill="#DE5753"/>
<path d="M134.388 62.7594C134.662 62.6195 134.884 62.3935 135.019 62.1156L133.896 62.6632C133.733 62.7592 133.603 62.9039 133.524 63.0775C133.445 63.251 133.421 63.445 133.456 63.6326C133.493 64.1728 133.816 64.5798 134.19 64.5576C134.564 64.5354 134.799 64.0692 134.763 63.5364C134.745 63.2377 134.61 62.9583 134.388 62.7594Z" fill="#263238"/>
<path d="M140.686 62.1599C140.96 62.02 141.182 61.794 141.317 61.5161L140.202 62.0637C140.038 62.1615 139.907 62.3073 139.827 62.4818C139.747 62.6563 139.721 62.8511 139.754 63.0405C139.798 63.5807 140.121 63.9877 140.488 63.9581C140.855 63.9285 141.097 63.4771 141.053 62.9369C141.048 62.7889 141.013 62.6434 140.95 62.5097C140.887 62.376 140.797 62.2569 140.686 62.1599Z" fill="#263238"/>
<path d="M134.38 59.7402C133.864 59.707 133.347 59.7931 132.868 59.9919C132.39 60.1906 131.963 60.4969 131.62 60.8872" stroke="#263238" stroke-width="0.707336" stroke-linecap="round" stroke-linejoin="round"/>
<path d="M138.322 59.4737C138.722 59.2467 139.167 59.1135 139.624 59.084C140.082 59.0545 140.54 59.1296 140.965 59.3035" stroke="#263238" stroke-width="0.707336" stroke-linecap="round" stroke-linejoin="round"/>
<path d="M123.174 83.7458C123.174 83.7458 130.455 89.7028 137.23 89.6066C144.005 89.5104 146.39 81.8292 146.39 81.8292C146.39 81.8292 135.879 78.6916 123.174 83.7458Z" fill="#E4897B"/>
<path d="M112.464 98.6199C112.464 98.6199 110.174 112.236 110.445 116.113C110.717 119.991 116.53 120.109 119.804 119.717C123.569 119.266 143.204 111.437 143.204 111.437L142.293 107.522C142.293 107.522 126.924 111.74 120.376 112.48C120.07 112.512 119.761 112.472 119.473 112.365C119.184 112.258 118.924 112.086 118.711 111.861C118.499 111.637 118.34 111.367 118.247 111.072C118.154 110.776 118.129 110.463 118.174 110.156L119.694 100.048L112.464 98.6199Z" fill="#E4897B"/>
<path d="M117.323 84.6633C117.323 84.6633 121.338 83.7679 122.116 90.1985C122.587 94.0928 122.082 98.0439 120.648 101.691L110.475 99.8407C110.475 99.8407 112.816 84.9963 117.323 84.6633Z" fill="#4F772D"/>
<path d="M147.305 103.6C147.055 103.446 146.759 103.386 146.468 103.43C145.265 103.741 141.609 107.389 141.396 107.87L142.336 111.326C142.336 111.326 144.259 112.362 145.191 112.066C146.123 111.77 150.85 108.262 150.858 107.418C150.863 107.372 150.863 107.324 150.858 107.278C151.027 107.152 151.166 107.048 151.261 106.989C152.062 106.486 149.103 104.259 147.305 103.6Z" fill="#E4897B"/>
<path d="M133.317 53.1986C133.317 53.1986 134.147 61.3978 127.365 61.6938C120.583 61.9898 126.249 54.3456 126.249 54.3456L133.317 53.1986Z" fill="#263238"/>
<path d="M131.864 50.6677C120.715 51.0229 121.639 67.4657 127.666 72.0537C127.666 72.0537 124.73 68.0725 126.432 64.6093C126.432 64.6093 128.634 59.2517 127.9 55.1299C129.624 54.3758 131.454 53.8988 133.325 53.7165C134.58 55.2557 137.729 59.9325 141.854 59.8363C142.092 60.5614 142.276 61.3035 142.404 62.0563C142.404 62.0563 143.028 50.3199 131.864 50.6677Z" fill="#263238"/>
<path d="M140.003 70.1077C139.372 70.446 138.671 70.6291 137.956 70.642C137.242 70.6548 136.535 70.4971 135.892 70.1817C135.874 70.1717 135.858 70.1581 135.846 70.1418C135.833 70.1256 135.824 70.1069 135.818 70.0869C135.813 70.0669 135.811 70.046 135.814 70.0254C135.816 70.0048 135.823 69.985 135.834 69.9671C135.842 69.9494 135.854 69.9337 135.869 69.9209C135.884 69.9082 135.901 69.8988 135.92 69.8932C135.938 69.8876 135.958 69.886 135.977 69.8886C135.997 69.8911 136.015 69.8977 136.032 69.9079C136.63 70.1965 137.287 70.3395 137.95 70.3253C138.613 70.3112 139.263 70.1403 139.849 69.8265C139.884 69.8076 139.925 69.8033 139.963 69.8143C140.001 69.8254 140.034 69.8509 140.054 69.8857C140.072 69.9201 140.077 69.9603 140.066 69.9978C140.055 70.0352 140.029 70.0667 139.995 70.0855L140.003 70.1077Z" fill="#263238"/>
<path d="M127.569 65.934C127.465 65.1807 127.069 64.4997 126.467 64.0405C125.866 63.5812 125.108 63.3813 124.361 63.4846C122.365 63.8102 121.631 68.0282 126.688 68.7534C127.407 68.857 127.774 68.1244 127.569 65.934Z" fill="#E4897B"/>
<path d="M126.815 95.8375L133.568 94.8755C133.568 94.8755 135.77 102.135 131.763 102.912C127.381 103.77 126.815 95.8375 126.815 95.8375Z" fill="#4F772D"/>
<path d="M152.254 134.954C151.916 131.594 151.388 127.021 150.713 123.424L150.779 119.458L125.625 121.678L125.397 125.378C124.81 126.473 122.241 131.897 121.081 145.166C126.312 147.079 131.877 147.891 137.431 147.553C142.986 147.214 148.413 145.732 153.377 143.197L152.254 134.954Z" fill="#263238"/>
<path d="M216.045 122.707L203.251 125.977C202.263 125.361 201.089 125.12 199.941 125.297C198.128 125.637 193.592 129.374 193.768 129.922C193.944 130.469 199.412 133.007 200.198 132.8C203.016 132.06 205.923 128.752 205.923 128.752L217.358 126.377L216.045 122.707Z" fill="#E4897B"/>
<path d="M248.09 76.3232C245.492 79.113 238.607 78.8762 238.607 78.8762C238.607 78.8762 236.339 79.076 235.773 77.1372C238.262 76.5156 238.643 74.71 239.032 73.1486C239.224 72.1838 239.224 71.1904 239.032 70.2256C238.952 69.6815 238.84 69.1428 238.695 68.6124L246.688 61.6046C245.947 65.8596 245.154 73.5112 248.09 76.3232Z" fill="#E4897B"/>
<path opacity="0.2" d="M245.09 65.7856C245.156 70.9656 241.082 72.6973 239.057 73.1487C239.248 72.1839 239.248 71.1904 239.057 70.2256L245.09 65.7856Z" fill="black"/>
<path d="M245.749 66.9254C244.971 68.3119 243.764 69.4026 242.312 70.0296C240.86 70.6567 239.243 70.7854 237.711 70.396C235.719 69.9351 233.978 68.7223 232.845 67.0068C232.682 66.77 232.535 66.5228 232.405 66.2668C229.946 61.5456 228.617 53.0578 233.491 49.4466C234.563 48.6359 235.823 48.1166 237.151 47.9384C238.48 47.7603 239.831 47.9294 241.076 48.4294C242.32 48.9295 243.417 49.7437 244.26 50.7939C245.102 51.8441 245.663 53.0951 245.888 54.4268C246.945 60.0878 247.841 63.366 245.749 66.9254Z" fill="#E4897B"/>
<path d="M237.542 58.4968C237.62 58.6693 237.629 58.8652 237.567 59.0441C237.506 59.2231 237.379 59.3715 237.212 59.4588C236.918 59.5328 236.588 59.222 236.478 58.7706C236.368 58.3192 236.515 57.8826 236.808 57.8086C237.102 57.7346 237.425 58.038 237.542 58.4968Z" fill="#263238"/>
<path d="M232.589 59.5475C232.735 59.9915 232.552 60.4355 232.266 60.5095C231.979 60.5835 231.634 60.2727 231.532 59.8213C231.429 59.3699 231.568 58.9333 231.862 58.8593C232.156 58.7853 232.478 59.1183 232.589 59.5475Z" fill="#263238"/>
<path d="M234.372 59.6881C234.231 61.1755 233.883 62.6354 233.337 64.0245C234.071 64.3205 235.099 63.8543 235.796 63.4695L234.372 59.6881Z" fill="#DE5753"/>
<path d="M239.012 56.0694C238.965 56.0877 238.915 56.0932 238.866 56.0854C238.817 56.0776 238.771 56.0568 238.733 56.025C238.47 55.8028 238.159 55.6456 237.825 55.5659C237.491 55.4862 237.143 55.4863 236.81 55.5662C236.775 55.5814 236.738 55.5891 236.7 55.5889C236.662 55.5887 236.625 55.5805 236.59 55.5649C236.556 55.5494 236.525 55.5267 236.5 55.4984C236.474 55.4701 236.455 55.4368 236.443 55.4006C236.431 55.3644 236.427 55.3261 236.431 55.2882C236.435 55.2503 236.446 55.2136 236.465 55.1804C236.483 55.1473 236.509 55.1184 236.539 55.0956C236.569 55.0728 236.604 55.0567 236.641 55.0482C237.06 54.9406 237.498 54.9341 237.92 55.0293C238.343 55.1244 238.736 55.3185 239.07 55.5958C239.099 55.6176 239.123 55.6449 239.141 55.676C239.159 55.7072 239.171 55.7417 239.175 55.7774C239.18 55.8132 239.178 55.8495 239.169 55.8844C239.159 55.9193 239.143 55.952 239.122 55.9806C239.09 56.0162 239.053 56.0462 239.012 56.0694Z" fill="#263238"/>
<path d="M236.847 65.7117C237.515 65.6398 238.157 65.4092 238.72 65.0387C239.282 64.6682 239.75 64.1685 240.084 63.5805C240.092 63.5636 240.098 63.5451 240.099 63.5261C240.1 63.5071 240.098 63.488 240.092 63.4701C240.085 63.4521 240.076 63.4355 240.063 63.4214C240.05 63.4074 240.035 63.396 240.018 63.3881C240.002 63.3793 239.985 63.3738 239.967 63.372C239.949 63.3702 239.93 63.3721 239.913 63.3777C239.896 63.3832 239.88 63.3923 239.867 63.4042C239.853 63.4162 239.842 63.4309 239.834 63.4473C239.517 63.9881 239.079 64.4469 238.556 64.7874C238.032 65.1278 237.437 65.3404 236.817 65.4083C236.799 65.4092 236.78 65.414 236.763 65.4224C236.746 65.4309 236.731 65.4427 236.718 65.4573C236.706 65.4718 236.696 65.4888 236.691 65.5071C236.685 65.5254 236.683 65.5447 236.685 65.5637C236.687 65.5822 236.693 65.6002 236.701 65.6165C236.71 65.6329 236.722 65.6474 236.736 65.6591C236.751 65.6708 236.767 65.6795 236.785 65.6847C236.803 65.6899 236.821 65.6916 236.84 65.6895L236.847 65.7117Z" fill="#263238"/>
<path d="M230.094 58.2228C230.05 58.2586 229.995 58.2771 229.939 58.2746C229.904 58.2685 229.871 58.2552 229.841 58.2357C229.811 58.2163 229.786 58.1909 229.766 58.1612C229.746 58.1315 229.732 58.098 229.726 58.0629C229.719 58.0277 229.719 57.9915 229.727 57.9565C229.806 57.5262 229.986 57.1212 230.251 56.775C230.517 56.4288 230.86 56.1514 231.253 55.9659C231.287 55.9527 231.322 55.9463 231.358 55.9469C231.393 55.9476 231.429 55.9554 231.461 55.9698C231.494 55.9843 231.524 56.0051 231.548 56.0311C231.573 56.0571 231.593 56.0877 231.606 56.1212C231.619 56.1548 231.625 56.1906 231.624 56.2266C231.624 56.2626 231.616 56.2981 231.602 56.3311C231.587 56.3641 231.567 56.3939 231.541 56.4189C231.515 56.4438 231.485 56.4634 231.451 56.4765C231.145 56.6316 230.878 56.8569 230.673 57.1344C230.467 57.4119 230.329 57.734 230.27 58.0748C230.252 58.1104 230.227 58.1419 230.197 58.1674C230.167 58.1929 230.131 58.2117 230.094 58.2228Z" fill="#263238"/>
<path d="M249.44 58.3858C249.139 59.8065 248.295 61.0506 247.091 61.849C245.484 62.885 244.155 61.5752 244.097 59.7548C244.097 58.1342 244.889 55.5886 246.732 55.3148C248.574 55.041 249.778 56.6394 249.44 58.3858Z" fill="#E4897B"/>
<path d="M224.163 80.7189C221.413 83.3592 219.39 86.6739 218.291 90.3389C216.911 94.7789 215.619 105.235 214.988 110.911C214.856 112.007 214.376 113.031 213.622 113.83C212.867 114.63 211.876 115.163 210.797 115.351L195.339 118.067L196.572 125.992L216.155 124.09C218.251 123.887 220.226 123.007 221.786 121.582C223.346 120.157 224.409 118.262 224.816 116.18C226.013 110.075 227.613 101.224 228.339 94.2165C229.573 82.3099 228.273 79.4905 224.163 80.7189Z" fill="#4F772D"/>
<path opacity="0.1" d="M224.163 80.7189C221.413 83.3592 219.39 86.6739 218.291 90.3389C216.911 94.7789 215.619 105.235 214.988 110.911C214.856 112.007 214.376 113.031 213.622 113.83C212.867 114.63 211.876 115.163 210.797 115.351L195.339 118.067L196.572 125.992L216.155 124.09C218.251 123.887 220.226 123.007 221.786 121.582C223.346 120.157 224.409 118.262 224.816 116.18C226.013 110.075 227.613 101.224 228.339 94.2165C229.573 82.3099 228.273 79.4905 224.163 80.7189Z" fill="black"/>
<path d="M213.308 256.854L207.495 255.411L210.805 242.853L216.619 244.296L213.308 256.854Z" fill="#E4897B"/>
<path d="M207.553 253.383L214.159 255.781C214.267 255.82 214.358 255.897 214.417 255.996C214.476 256.096 214.499 256.214 214.482 256.328L213.814 261.59C213.783 261.816 213.664 262.021 213.484 262.159C213.304 262.298 213.077 262.359 212.852 262.33C212.789 262.321 212.727 262.303 212.669 262.278C210.547 261.471 209.043 260.798 206.364 259.799C204.712 259.192 199.67 257.579 197.394 256.728C195.119 255.877 195.633 253.524 196.66 253.65C201.174 254.256 204.778 254.131 206.547 253.405C206.868 253.271 207.227 253.263 207.553 253.383Z" fill="#2E353A"/>
<path d="M205.408 253.686C205.028 253.585 204.695 253.352 204.468 253.028C204.4 252.907 204.364 252.771 204.364 252.632C204.364 252.493 204.4 252.357 204.468 252.236C204.494 252.16 204.54 252.092 204.603 252.043C204.666 251.993 204.741 251.962 204.821 251.955C205.555 251.859 206.898 253.583 207.023 253.783C207.039 253.804 207.048 253.83 207.048 253.857C207.048 253.883 207.039 253.91 207.023 253.931C207.012 253.956 206.993 253.977 206.969 253.99C206.945 254.003 206.918 254.009 206.891 254.005C206.386 253.953 205.889 253.846 205.408 253.686ZM205.004 252.258C204.946 252.243 204.886 252.243 204.828 252.258C204.828 252.258 204.733 252.258 204.689 252.377C204.647 252.459 204.625 252.55 204.625 252.643C204.625 252.736 204.647 252.827 204.689 252.909C205.2 253.407 205.879 253.692 206.59 253.709C206.157 253.128 205.619 252.636 205.004 252.258Z" fill="#4F772D"/>
<path d="M206.869 253.997H206.803C206.355 253.487 205.702 251.888 206.018 251.355C206.071 251.266 206.154 251.197 206.251 251.162C206.349 251.127 206.456 251.128 206.554 251.163C206.656 251.184 206.754 251.228 206.839 251.29C206.923 251.353 206.994 251.433 207.045 251.526C207.486 252.266 207.045 253.894 207.045 253.975C207.038 253.998 207.025 254.019 207.007 254.035C206.989 254.05 206.966 254.061 206.943 254.064C206.926 254.059 206.911 254.05 206.899 254.039C206.886 254.027 206.876 254.013 206.869 253.997ZM206.568 251.385H206.509C206.341 251.326 206.297 251.422 206.275 251.452C206.076 251.785 206.443 252.932 206.847 253.575C207.045 252.942 207.045 252.263 206.847 251.629C206.82 251.571 206.781 251.52 206.733 251.478C206.685 251.436 206.629 251.404 206.568 251.385Z" fill="#4F772D"/>
<path opacity="0.2" d="M216.618 244.296L210.804 242.853L209.102 249.335L214.915 250.771L216.618 244.296Z" fill="black"/>
<path d="M251.798 256.795L245.853 257.505L244.568 244.577L250.514 243.867L251.798 256.795Z" fill="#E4897B"/>
<path d="M245.201 255.588L252.21 255.492C252.326 255.492 252.438 255.532 252.529 255.605C252.619 255.677 252.683 255.778 252.71 255.892L253.913 261.072C253.962 261.294 253.921 261.527 253.8 261.72C253.679 261.912 253.488 262.049 253.267 262.1C253.204 262.108 253.14 262.108 253.077 262.1C250.809 262.1 249.157 261.975 246.309 262.012C244.555 262.012 239.27 262.285 236.848 262.322C234.426 262.359 234.073 259.94 235.064 259.71C239.468 258.674 242.83 257.276 244.239 255.966C244.498 255.718 244.844 255.583 245.201 255.588Z" fill="#2E353A"/>
<path d="M243.304 256.632C242.911 256.671 242.517 256.571 242.189 256.35C242.08 256.263 241.996 256.149 241.945 256.02C241.893 255.89 241.876 255.749 241.895 255.61C241.891 255.53 241.91 255.45 241.951 255.38C241.991 255.31 242.051 255.254 242.123 255.218C242.761 254.878 244.64 256.01 244.846 256.136C244.869 256.148 244.889 256.168 244.9 256.191C244.912 256.215 244.916 256.243 244.912 256.269C244.909 256.297 244.898 256.324 244.88 256.345C244.861 256.366 244.836 256.381 244.809 256.387C244.319 256.528 243.814 256.609 243.304 256.632ZM242.431 255.44C242.37 255.433 242.308 255.446 242.255 255.477C242.218 255.477 242.174 255.529 242.167 255.64C242.157 255.732 242.169 255.825 242.202 255.911C242.235 255.998 242.289 256.075 242.358 256.136C243.009 256.422 243.743 256.448 244.413 256.21C243.808 255.827 243.135 255.565 242.431 255.44Z" fill="#4F772D"/>
<path d="M244.775 256.41H244.709C244.114 256.091 242.947 254.826 243.057 254.19C243.074 254.086 243.127 253.993 243.207 253.925C243.286 253.857 243.386 253.82 243.49 253.82C243.593 253.805 243.698 253.813 243.798 253.842C243.898 253.871 243.991 253.922 244.07 253.99C244.745 254.53 244.907 256.21 244.914 256.276C244.915 256.301 244.91 256.326 244.898 256.348C244.886 256.371 244.869 256.389 244.848 256.402L244.775 256.41ZM243.586 254.064H243.519C243.343 254.064 243.329 254.167 243.329 254.204C243.255 254.582 244.004 255.544 244.606 255.988C244.551 255.322 244.295 254.689 243.872 254.175C243.794 254.103 243.691 254.063 243.586 254.064Z" fill="#4F772D"/>
<path opacity="0.2" d="M250.514 243.867L244.568 244.577L245.236 251.245L251.182 250.534L250.514 243.867Z" fill="black"/>
<path d="M224.146 138.646C224.146 138.646 209.187 212.38 208.673 240.692L218.641 245.184C218.641 245.184 226.759 213.194 229.394 195.219C229.394 195.219 236.381 180.945 238.26 169.319C238.26 169.319 237.871 220.379 243.119 247.323L252.471 246.583C252.471 246.583 261.903 150.797 260.2 135.464L224.146 138.646Z" fill="#4F772D"/>
<path opacity="0.6" d="M224.146 138.646C224.146 138.646 209.187 212.38 208.673 240.692L218.641 245.184C218.641 245.184 226.759 213.194 229.394 195.219C229.394 195.219 236.381 180.945 238.26 169.319C238.26 169.319 237.871 220.379 243.119 247.323L252.471 246.583C252.471 246.583 261.903 150.797 260.2 135.464L224.146 138.646Z" fill="white"/>
<path opacity="0.2" d="M236.64 150.708C236.64 150.708 235.532 168.239 237.11 174.677C237.587 172.864 237.983 171.058 238.262 169.312L236.64 150.708Z" fill="black"/>
<path d="M241.931 249.461L254.769 247.537L254.372 243.956L241.028 245.717L241.931 249.461Z" fill="#4F772D"/>
<path d="M206.987 243.452L219.385 247.3L220.566 243.904L207.773 239.678L206.987 243.452Z" fill="#4F772D"/>
<path d="M224.163 80.7189C224.163 80.7189 225.748 77.5591 239.679 76.7451C253.611 75.9311 259.835 78.0105 259.835 78.0105C259.835 78.0105 258.573 107.744 260.187 135.472C260.187 135.472 236.89 143.841 224.133 138.646C224.148 138.646 214.591 102.734 224.163 80.7189Z" fill="#4F772D"/>
<path opacity="0.2" d="M244.671 76.5675C243.13 76.5675 241.471 76.6415 239.68 76.7451C238.601 76.8117 237.61 76.8857 236.678 76.9745C236.678 76.9745 237.867 79.2463 239.68 79.2463C240.666 79.2493 241.638 79.0063 242.509 78.539C243.38 78.0716 244.123 77.3943 244.671 76.5675Z" fill="black"/>
<path opacity="0.3" d="M259.475 115.203L238.263 126.014C238.263 126.014 251.636 126.429 259.629 122.055C259.566 119.742 259.514 117.458 259.475 115.203Z" fill="black"/>
<path opacity="0.1" d="M239.408 85.0701L246.946 118.881L245.273 123.254L239.408 85.0701Z" fill="black"/>
<path d="M239.467 86.0159L199.77 92.0798L205.518 130.329L245.215 124.265L239.467 86.0159Z" fill="#4F772D"/>
<path opacity="0.1" d="M239.467 86.0159L199.77 92.0798L205.518 130.329L245.215 124.265L239.467 86.0159Z" fill="white"/>
<path d="M209.551 89.722L178.839 94.5153L184.702 132.696L215.413 127.903L209.551 89.722Z" fill="#4F772D"/>
<path opacity="0.3" d="M209.551 89.722L178.839 94.5153L184.702 132.696L215.413 127.903L209.551 89.722Z" fill="white"/>
<path opacity="0.3" d="M198.546 91.4349L189.856 92.7911L191.435 103.073L200.125 101.717L198.546 91.4349Z" fill="white"/>
<path opacity="0.1" d="M230.97 86.3829L222.28 87.7391L223.859 98.0211L232.549 96.6648L230.97 86.3829Z" fill="black"/>
<path opacity="0.2" d="M212.275 120.272L202.78 121.754L203.675 127.583L213.17 126.101L212.275 120.272Z" fill="white"/>
<path opacity="0.2" d="M227.106 125.711L226.13 124.409L222.981 125.089C222.814 125.63 222.749 126.197 222.791 126.762L227.195 126.081L227.106 125.711Z" fill="#2E353A"/>
<path d="M221.668 109.683C220.934 109.934 219.906 109.919 219.803 108.943C219.722 108.129 220.677 107.463 221.403 107.596C221.46 107.606 221.518 107.592 221.565 107.559C221.611 107.526 221.643 107.475 221.653 107.418C221.663 107.361 221.65 107.303 221.616 107.256C221.583 107.208 221.533 107.176 221.477 107.167C221.217 107.13 220.952 107.149 220.7 107.223C220.448 107.298 220.215 107.425 220.016 107.597C219.817 107.77 219.656 107.983 219.545 108.222C219.433 108.462 219.374 108.722 219.37 108.987C219.495 110.275 220.838 110.467 221.829 110.097C222.115 110.001 221.961 109.586 221.668 109.683Z" fill="white"/>
<path d="M222.4 105.613C222.334 105.339 221.901 105.383 221.96 105.657C222.278 107.068 222.588 108.476 222.892 109.882C222.95 110.156 223.384 110.119 223.325 109.838L222.4 105.613Z" fill="white"/>
<path d="M225.007 106.441C224.977 106.449 224.951 106.468 224.933 106.493C222.973 106.871 224.126 109.956 225.946 109.387C226.32 109.223 226.621 108.925 226.791 108.55C226.96 108.176 226.986 107.752 226.864 107.359C226.82 107.164 226.733 106.981 226.61 106.825C226.487 106.668 226.331 106.541 226.153 106.453C225.975 106.365 225.779 106.318 225.581 106.316C225.383 106.314 225.186 106.357 225.007 106.441ZM225.975 108.891C224.691 109.631 223.553 107.174 225.014 106.922C225.059 106.917 225.1 106.896 225.131 106.863C226.438 106.316 226.974 108.314 225.975 108.891Z" fill="white"/>
<path d="M228.67 105.272L227.87 105.413L227.738 104.54C227.694 104.258 227.261 104.303 227.305 104.584C227.349 104.865 227.393 105.183 227.444 105.487L226.651 105.62C226.38 105.672 226.416 106.108 226.695 106.064L227.51 105.923L227.995 109.098C228.039 109.372 228.472 109.327 228.428 109.046C228.266 107.981 228.097 106.915 227.936 105.849L228.721 105.709C229.007 105.664 228.949 105.22 228.67 105.272Z" fill="white"/>
<path d="M231.737 105.857C231.471 105.698 231.164 105.619 230.854 105.631C230.544 105.643 230.245 105.744 229.991 105.923C229.888 105.346 229.778 104.769 229.66 104.192C229.601 103.918 229.168 103.962 229.227 104.244C229.526 105.724 229.77 107.204 229.961 108.684C230.005 108.965 230.438 108.92 230.394 108.639C230.291 107.899 230.174 107.159 230.049 106.419C230.163 106.305 230.298 106.216 230.448 106.158C230.597 106.1 230.757 106.073 230.917 106.08C231.077 106.087 231.234 106.127 231.377 106.199C231.521 106.27 231.649 106.37 231.752 106.493C232.018 107.057 232.156 107.674 232.156 108.299C232.169 108.35 232.2 108.395 232.243 108.425C232.286 108.456 232.339 108.469 232.391 108.464C232.444 108.458 232.492 108.434 232.529 108.396C232.565 108.358 232.586 108.307 232.589 108.254C232.545 107.455 232.515 106.279 231.737 105.857Z" fill="white"/>
<path d="M233.587 105.013C233.411 105.108 233.256 105.239 233.134 105.398C233.011 105.558 232.924 105.741 232.878 105.937C232.831 106.133 232.826 106.337 232.864 106.535C232.901 106.733 232.98 106.92 233.095 107.085C233.19 107.285 233.325 107.464 233.492 107.609C233.658 107.754 233.853 107.862 234.063 107.928C234.274 107.993 234.495 108.014 234.714 107.988C234.933 107.963 235.144 107.892 235.334 107.781C235.584 107.655 235.429 107.241 235.18 107.366C234.976 107.513 234.729 107.585 234.479 107.57C234.23 107.555 233.992 107.455 233.807 107.285C233.665 107.153 233.546 106.998 233.455 106.826C234.101 106.878 235.283 106.745 235.312 106.034C235.349 105.124 234.314 104.725 233.587 105.013ZM234.82 106.101C234.754 106.205 234.453 106.271 234.336 106.308C234.004 106.416 233.65 106.437 233.308 106.367C233.286 106.249 233.288 106.127 233.313 106.008C233.338 105.89 233.386 105.778 233.455 105.679C233.56 105.547 233.703 105.451 233.865 105.403C234.026 105.355 234.198 105.359 234.358 105.413C234.571 105.465 235.026 105.82 234.82 106.101Z" fill="white"/>
<path d="M238.549 105.872C238.428 105.661 238.239 105.497 238.014 105.407C237.789 105.317 237.541 105.306 237.309 105.376C236.956 105.45 236.105 105.805 236.296 105.102C236.413 104.636 237.03 104.458 237.463 104.495C237.742 104.495 237.815 104.088 237.529 104.059C236.795 103.992 235.378 104.658 235.833 105.627C236.046 106.079 236.567 106.027 236.993 105.923C237.226 105.827 237.476 105.779 237.727 105.783C237.819 105.789 237.908 105.821 237.983 105.876C238.058 105.93 238.117 106.004 238.153 106.09C238.189 106.176 238.2 106.27 238.186 106.362C238.171 106.454 238.132 106.541 238.072 106.612C237.764 107.019 237.162 106.945 236.722 106.871C236.666 106.865 236.611 106.881 236.567 106.915C236.523 106.949 236.493 106.999 236.483 107.054C236.474 107.11 236.486 107.167 236.517 107.213C236.547 107.26 236.594 107.294 236.648 107.307C236.923 107.386 237.212 107.402 237.493 107.355C237.775 107.307 238.043 107.198 238.278 107.033C238.437 106.892 238.549 106.704 238.598 106.496C238.646 106.288 238.629 106.07 238.549 105.872Z" fill="white"/>
<path d="M245.326 118.089L232.503 121.241C231.522 120.607 230.348 120.345 229.193 120.501C227.387 120.827 222.814 124.52 222.983 125.067C223.152 125.615 227.387 128.96 228.172 128.715C228.958 128.471 233.898 124.949 233.898 124.949L246.111 123.92L245.326 118.089Z" fill="#E4897B"/>
<path d="M259.019 77.9661C259.019 77.9661 253.631 79.4091 254.395 89.4879C254.732 93.8687 254.901 98.5455 254.989 102.438C255.042 105.042 254.36 107.607 253.021 109.835C251.683 112.063 249.743 113.86 247.429 115.018L236.903 119.354L238.261 126.014C238.261 126.014 253.558 124.601 258.938 120.265C264.318 115.928 266.19 106.671 265.316 98.9969C264.098 88.3409 264.502 77.5369 259.019 77.9661Z" fill="#4F772D"/>
<path opacity="0.1" d="M259.019 77.9661C259.019 77.9661 253.631 79.4091 254.395 89.4879C254.732 93.8687 254.901 98.5455 254.989 102.438C255.042 105.042 254.36 107.607 253.021 109.835C251.683 112.063 249.743 113.86 247.429 115.018L236.903 119.354L238.261 126.014C238.261 126.014 253.558 124.601 258.938 120.265C264.318 115.928 266.19 106.671 265.316 98.9969C264.098 88.3409 264.502 77.5369 259.019 77.9661Z" fill="black"/>
<path d="M237.903 117.667L238.798 126.932L236.325 127.169L235.011 118.496L237.903 117.667Z" fill="#4F772D"/>
<path opacity="0.6" d="M237.903 117.667L238.798 126.932L236.325 127.169L235.011 118.496L237.903 117.667Z" fill="white"/>
<path opacity="0.4" d="M250.839 92.2225L242.308 92.9917L242.429 94.3626L250.961 93.5935L250.839 92.2225Z" fill="white"/>
<path d="M239.68 76.7452L242.44 80.4452L248.26 76.575V76.2198C248.274 75.9092 248.215 75.5998 248.087 75.3169C247.96 75.0339 247.767 74.7854 247.526 74.5918C247.248 74.419 246.932 74.3173 246.606 74.2954C246.28 74.2735 245.953 74.332 245.654 74.466L239.68 76.7452Z" fill="#4F772D"/>
<path d="M235.796 77.041L236.479 75.9014C237.337 74.8802 238.02 75.4056 238.02 75.4056L239.679 76.745L237.257 80.445L235.796 77.041Z" fill="#4F772D"/>
<path opacity="0.6" d="M239.68 76.7452L242.44 80.4452L248.26 76.575V76.2198C248.274 75.9092 248.215 75.5998 248.087 75.3169C247.96 75.0339 247.767 74.7854 247.526 74.5918C247.248 74.419 246.932 74.3173 246.606 74.2954C246.28 74.2735 245.953 74.332 245.654 74.466L239.68 76.7452Z" fill="white"/>
<path opacity="0.6" d="M235.796 77.041L236.479 75.9014C237.337 74.8802 238.02 75.4056 238.02 75.4056L239.679 76.745L237.257 80.445L235.796 77.041Z" fill="white"/>
<path d="M249.295 58.2377C249.684 55.7069 247.945 55.3591 246.8 55.6625C245.655 55.9659 244.414 57.8011 244.414 57.8011C243.298 55.9807 242.667 51.3705 242.667 51.3705C241.249 52.1606 239.668 52.6079 238.049 52.6773C236.43 52.7466 234.818 52.4361 233.338 51.7701C232.768 53.3248 231.701 54.6444 230.307 55.5219C230.307 55.5219 228.237 54.5673 229.389 49.7721C230.696 44.3183 238.821 39.0421 247.005 44.4811C255.189 49.9201 250.235 60.0211 250.235 60.0211C250.235 60.0211 248.378 63.3289 246.734 64.5721C246.873 63.5905 246.873 62.5938 246.734 61.6121C247.401 61.3022 247.983 60.8329 248.429 60.2449C248.875 59.6568 249.173 58.9679 249.295 58.2377Z" fill="#2E353A"/>
<path d="M232.369 50.416C232.843 50.999 233.391 51.5166 233.998 51.9552C234.618 52.4004 235.288 52.7682 235.995 53.0504C236.701 53.3309 237.442 53.5126 238.197 53.5906C238.97 53.6646 239.749 53.6422 240.516 53.524C239.754 53.7038 238.973 53.7883 238.19 53.7756C237.395 53.761 236.607 53.634 235.848 53.3982C235.075 53.1687 234.334 52.8378 233.646 52.414C232.947 51.992 232.308 51.4767 231.745 50.8822L232.369 50.416Z" fill="#2E353A"/>
<path d="M326.752 92.2337C320.807 86.8761 313.863 94.1429 313.863 94.1429C313.863 94.1429 306.912 86.8761 300.974 92.2337C292.503 99.8779 304.82 113.568 313.863 116.306C322.906 113.568 335.222 99.9001 326.752 92.2337Z" fill="#4F772D"/>
<path opacity="0.6" d="M326.752 92.2337C320.807 86.8761 313.863 94.1429 313.863 94.1429C313.863 94.1429 306.912 86.8761 300.974 92.2337C292.503 99.8779 304.82 113.568 313.863 116.306C322.906 113.568 335.222 99.9001 326.752 92.2337Z" fill="white"/>
<path d="M206.745 20.9716C200.8 15.614 193.856 22.8808 193.856 22.8808C193.856 22.8808 186.905 15.614 180.967 20.9716C172.497 28.6084 184.813 42.2984 193.856 45.0438C202.899 42.2984 215.215 28.6084 206.745 20.9716Z" fill="#4F772D"/>
<path opacity="0.6" d="M206.745 20.9716C200.8 15.614 193.856 22.8808 193.856 22.8808C193.856 22.8808 186.905 15.614 180.967 20.9716C172.497 28.6084 184.813 42.2984 193.856 45.0438C202.899 42.2984 215.215 28.6084 206.745 20.9716Z" fill="white"/>
<path d="M276.598 43.2159C274.169 40.9959 271.328 44.0003 271.328 44.0003C271.328 44.0003 268.495 41.0403 266.065 43.2159C262.601 46.3387 267.636 51.9331 271.328 53.0579C275.027 51.9331 280.055 46.3387 276.598 43.2159Z" fill="#4F772D"/>
<path opacity="0.6" d="M276.598 43.2159C274.169 40.9959 271.328 44.0003 271.328 44.0003C271.328 44.0003 268.495 41.0403 266.065 43.2159C262.601 46.3387 267.636 51.9331 271.328 53.0579C275.027 51.9331 280.055 46.3387 276.598 43.2159Z" fill="white"/>
<path d="M54.6596 102.016C52.23 99.7964 49.3968 102.801 49.3968 102.801C49.3968 102.801 46.5562 99.8408 44.1267 102.016C40.6695 105.139 45.6974 110.734 49.3968 111.851C53.0888 110.734 58.1241 105.139 54.6596 102.016Z" fill="#4F772D"/>
<path opacity="0.6" d="M54.6596 102.016C52.23 99.7964 49.3968 102.801 49.3968 102.801C49.3968 102.801 46.5562 99.8408 44.1267 102.016C40.6695 105.139 45.6974 110.734 49.3968 111.851C53.0888 110.734 58.1241 105.139 54.6596 102.016Z" fill="white"/>
</svg>
