<svg width="141" height="105" viewBox="0 0 141 105" fill="none" xmlns="http://www.w3.org/2000/svg">
<path d="M70.755 104.825C100.738 104.825 125.044 103.406 125.044 101.655C125.044 99.9048 100.738 98.4858 70.755 98.4858C40.7719 98.4858 16.4658 99.9048 16.4658 101.655C16.4658 103.406 40.7719 104.825 70.755 104.825Z" fill="#F5F5F5"/>
<path d="M28.1943 14.3822C26.7661 16.2905 25.6028 18.3834 24.7363 20.6038C17.6159 38.731 26.7523 59.8934 42.2475 70.4438C55.0295 79.1518 71.1379 82.7358 86.4315 80.6526C101.059 78.659 125.631 67.7726 117.64 48.629C113.379 38.437 102.125 37.527 92.7791 35.1162C87.9631 33.8758 83.3487 31.9438 79.8711 28.2898C76.0407 24.2746 74.1143 18.865 70.3371 14.7994C66.7867 10.9746 61.8195 7.91141 56.9279 6.15861C46.0499 2.25821 34.7239 5.71901 28.1943 14.3822Z" fill="#4F772D"/>
<path opacity="0.9" d="M28.1943 14.3822C26.7661 16.2905 25.6028 18.3834 24.7363 20.6038C17.6159 38.731 26.7523 59.8934 42.2475 70.4438C55.0295 79.1518 71.1379 82.7358 86.4315 80.6526C101.059 78.659 125.631 67.7726 117.64 48.629C113.379 38.437 102.125 37.527 92.7791 35.1162C87.9631 33.8758 83.3487 31.9438 79.8711 28.2898C76.0407 24.2746 74.1143 18.865 70.3371 14.7994C66.7867 10.9746 61.8195 7.91141 56.9279 6.15861C46.0499 2.25821 34.7239 5.71901 28.1943 14.3822Z" fill="white"/>
<path d="M42.6066 10.1906C42.6066 10.1906 42.0662 8.869 38.737 9.261C35.4078 9.653 35.0634 14.0602 33.4002 17.1934C31.737 20.3266 29.9702 21.847 29.9702 21.847C29.9702 21.847 29.7266 23.7566 33.3498 24.8346C36.973 25.9126 44.0738 24.1122 44.0738 24.1122C44.0738 24.1122 44.9922 15.771 43.6286 13.2258C42.265 10.6806 42.6066 10.1906 42.6066 10.1906Z" fill="#263238"/>
<path d="M52.3391 93.5102L47.8283 93.7902C47.8283 93.7902 45.9159 76.4078 43.8103 63.7518C43.8103 63.7098 43.8103 63.6622 43.7907 63.6146C42.9283 58.4486 42.0351 54.0946 41.2287 52.0534C41.2287 52.0534 40.1927 68.257 39.8847 75.4502C39.5767 82.6434 38.1403 95.2294 38.1403 95.2294L33.9711 95.8482C33.9711 95.8482 33.2823 70.7938 33.6911 66.0618C34.0999 61.3298 32.2379 43.8018 35.4467 39.4618H47.0527C47.0527 39.4618 51.5467 64.085 51.8715 70.9114C52.1963 77.7378 52.3391 93.5102 52.3391 93.5102Z" fill="#263238"/>
<path d="M37.1603 95.2854L37.0931 96.6294L36.9363 99.7402L34.6011 100.087L34.5479 96.7302L34.5283 95.4394L37.1603 95.2854Z" fill="#FF8B7B"/>
<path d="M51.3372 98.693L48.7248 99.421C48.7248 99.421 48.6632 97.8502 48.6016 96.341C48.5624 95.3694 48.5232 94.423 48.498 93.9386C48.498 93.751 48.4812 93.6362 48.4756 93.611L51.2924 93.331V94.2158L51.312 96.215L51.3372 98.693Z" fill="#FF8B7B"/>
<path d="M37.8779 99.0514C37.8779 99.0514 38.3119 97.3126 38.9979 97.3994C39.6839 97.4862 37.8779 99.0514 37.8779 99.0514Z" stroke="#4F772D" stroke-miterlimit="10"/>
<path d="M38.0732 99.0514C38.0732 99.0514 39.7056 97.9006 40.008 98.4914C40.3104 99.0822 38.0732 99.0514 38.0732 99.0514Z" stroke="#4F772D" stroke-miterlimit="10"/>
<path d="M52.3398 99.2278C52.3398 99.2278 52.7038 97.3882 53.1154 97.3882C53.527 97.3882 52.3398 99.2278 52.3398 99.2278Z" stroke="#4F772D" stroke-miterlimit="10"/>
<path d="M52.2529 99.799C52.2529 99.799 53.2105 97.9146 53.7117 98.3206C54.2129 98.7266 52.2529 99.799 52.2529 99.799Z" stroke="#4F772D" stroke-miterlimit="10"/>
<path d="M39.9163 101.308C39.9163 101.308 34.9379 101.437 34.5767 101.392C34.2155 101.347 33.8151 101.328 33.7871 100.936C33.7871 100.745 33.9579 99.589 33.9859 99.1858C34.0139 98.7826 33.9131 98.5726 34.4199 98.4438C34.9267 98.315 37.3879 98.0294 37.6847 98.3346C37.9815 98.6398 38.9951 99.8018 39.7455 99.9362C40.4959 100.071 41.1259 100.017 41.1791 100.443C41.2323 100.869 41.2491 101.277 39.9163 101.308Z" fill="#263238"/>
<path d="M54.2488 101.308C54.2488 101.308 49.2732 101.437 48.9092 101.392C48.5452 101.347 48.1868 101.238 48.128 101.056C48.0692 100.874 48.2932 99.589 48.3184 99.1858C48.3436 98.7826 48.2456 98.5726 48.7524 98.4438C49.2592 98.315 51.7204 98.0294 52.0172 98.3346C52.314 98.6398 53.3276 99.8018 54.0808 99.9362C54.834 100.071 55.4584 100.017 55.5116 100.443C55.5648 100.869 55.5816 101.277 54.2488 101.308Z" fill="#263238"/>
<path opacity="0.3" d="M43.7905 63.6118C42.9281 58.4458 42.0349 54.0918 41.2285 52.0506L41.7633 49.1162C41.7633 49.1162 43.1493 59.5882 43.7905 63.6118Z" fill="black"/>
<path opacity="0.2" d="M37.1554 95.2854L37.0882 96.6294C36.433 96.6546 35.1282 96.7022 34.543 96.7302L34.5234 95.4394L37.1554 95.2854Z" fill="black"/>
<path opacity="0.2" d="M51.3176 96.2122L48.6016 96.341C48.5624 95.3694 48.5232 94.423 48.498 93.9386L51.298 94.2186L51.3176 96.2122Z" fill="black"/>
<path d="M53.1098 93.3282L52.6926 95.459L47.7198 95.8454L47.0674 93.3282H53.1098Z" fill="#4F772D"/>
<path d="M38.8096 94.0226L38.3728 96.1282L33.1816 96.3746L33.1844 94.0226H38.8096Z" fill="#4F772D"/>
<path d="M54.2073 32.9574C53.0873 33.4922 50.0073 34.0774 50.0073 34.0774C50.0073 34.0774 47.9913 28.8666 47.4593 25.9042C47.2923 24.8451 46.7865 23.8688 46.0176 23.1216C45.2487 22.3744 44.2583 21.8967 43.1949 21.7602C41.8341 21.5838 36.0885 21.6426 34.0725 22.057C32.0565 22.4714 31.7065 25.431 31.5273 27.209C31.3481 28.987 30.2253 35.609 31.1717 37.569C32.1181 39.529 35.4361 38.7506 35.4361 38.7506V39.4618H47.0449L46.7649 34.0298C46.7649 34.0298 47.8625 36.9138 49.5649 37.0314C51.2673 37.149 55.1313 34.3098 55.1313 34.3098L54.2073 32.9574ZM33.7673 35.9954C33.7673 35.9954 33.8961 32.613 34.1257 31.6386L34.4757 33.4446L34.9685 35.9954H33.7673Z" fill="#4F772D"/>
<path d="M41.151 35.2282L42.9766 33.019L45.5386 32.627L45.9306 34.9034L43.9706 35.6202C43.9706 35.6202 43.027 36.757 41.1426 36.561L41.151 35.2282Z" fill="#FF8B7B"/>
<path d="M54.207 32.9574L55.1562 31.2158L57.4718 30.2414L58.3482 32.613L56.4302 33.3606C56.4302 33.3606 55.929 34.4638 55.1562 34.321L54.207 32.9574Z" fill="#FF8B7B"/>
<path d="M41.1894 19.6378C41.1768 19.8392 41.1768 20.0412 41.1894 20.2426C41.2174 20.6262 41.1446 21.329 41.8978 21.6986C41.5086 22.5386 40.5706 24.6442 40.0022 25.3582C39.137 24.6498 37.1042 21.791 37.1042 21.791C37.1042 21.791 38.5322 20.2426 37.5074 17.325C37.5074 17.325 36.0682 16.2722 36.3566 15.6926C36.687 15.0178 37.625 15.3818 37.8238 15.6674C37.6138 15.3594 36.6366 11.9798 37.8238 10.7366C38.563 9.96099 39.3022 9.95259 40.6798 9.89659H40.7946C41.6766 9.86579 42.3318 9.89659 42.3318 9.89659C42.6312 10.2192 42.895 10.5731 43.1186 10.9522C43.7433 11.9721 44.1264 13.1214 44.2386 14.3122C44.499 17.087 43.953 19.3354 41.1894 19.6378Z" fill="#FF8B7B"/>
<path d="M41.951 16.1882C41.951 16.1882 40.6966 16.6138 40.2402 15.6618" stroke="#263238" stroke-width="0.5" stroke-linecap="round" stroke-linejoin="round"/>
<path d="M40.4369 12.1842C40.2271 12.178 40.0198 12.2309 39.8386 12.3368C39.6574 12.4428 39.5096 12.5975 39.4121 12.7834" stroke="#263238" stroke-linecap="round" stroke-linejoin="round"/>
<path d="M43.6291 11.8958C43.5274 11.7846 43.4043 11.695 43.2672 11.6324C43.13 11.5699 42.9817 11.5357 42.8311 11.5318" stroke="#263238" stroke-linecap="round" stroke-linejoin="round"/>
<path d="M42.4749 15.673L42.2285 13.5758L43.4633 15.1606C43.4633 15.1606 43.3429 15.7066 42.4749 15.673Z" fill="#FF5652"/>
<path d="M40.4482 13.5926C40.4622 13.8054 40.5882 13.9706 40.7282 13.9622C40.8682 13.9538 40.9662 13.7718 40.9494 13.5562C40.9326 13.3406 40.8122 13.1782 40.6694 13.1894C40.5266 13.2006 40.4314 13.3882 40.4482 13.5926Z" fill="#263238"/>
<path d="M42.8891 13.2426C42.9059 13.4582 43.0291 13.6234 43.1691 13.6122C43.3091 13.601 43.4071 13.4218 43.3903 13.2062C43.3735 12.9906 43.2503 12.8282 43.1103 12.8394C42.9703 12.8506 42.8751 13.0298 42.8891 13.2426Z" fill="#263238"/>
<path d="M36.9726 14.1162C36.9726 14.1162 35.5418 12.1982 36.7234 10.955C37.4626 10.1794 39.4506 9.6726 40.8254 9.6138C40.7946 9.9386 40.8254 12.7834 36.9726 14.1162Z" fill="#263238"/>
<path d="M43.1411 10.9606C42.2621 10.8718 41.4371 10.4947 40.7947 9.8882L40.6855 9.7734C41.237 9.75061 41.7893 9.79006 42.3319 9.891C42.6314 10.2136 42.8952 10.5675 43.1187 10.9466L43.1411 10.9606Z" fill="#263238"/>
<path opacity="0.2" d="M41.1987 20.2426C40.5901 20.0576 40.0503 19.696 39.6475 19.2038C40.1297 19.4445 40.6532 19.5917 41.1903 19.6378C41.1805 19.8394 41.1833 20.0414 41.1987 20.2426Z" fill="black"/>
<path opacity="0.2" d="M34.4779 33.4446L34.1279 31.6386V29.0458C34.1279 29.0458 34.5311 31.7814 34.4779 33.4446Z" fill="black"/>
<path d="M85.9355 25.0564L65.5254 26.2118L66.4146 41.9198L86.8247 40.7644L85.9355 25.0564Z" fill="#4F772D"/>
<path opacity="0.3" d="M85.9355 25.0564L65.5254 26.2118L66.4146 41.9198L86.8247 40.7644L85.9355 25.0564Z" fill="black"/>
<path d="M78.5175 25.4777L58.1074 26.6331L58.9966 42.3411L79.4068 41.1857L78.5175 25.4777Z" fill="#4F772D"/>
<path opacity="0.3" d="M78.5175 25.4777L58.1074 26.6331L58.9966 42.3411L79.4068 41.1857L78.5175 25.4777Z" fill="white"/>
<path opacity="0.3" d="M81.0424 26.8351L76.6855 27.0966L76.7737 28.5666L81.1306 28.3051L81.0424 26.8351Z" fill="black"/>
<path opacity="0.5" d="M63.7317 28.2804L59.3818 28.5267L59.5164 30.9029L63.8662 30.6566L63.7317 28.2804Z" fill="white"/>
<path opacity="0.3" d="M65.2509 34.4769L58.5752 34.8548L58.6801 36.7082L65.3558 36.3303L65.2509 34.4769Z" fill="black"/>
<path d="M91.8329 12.1086L90.7129 13.5366C91.0232 13.7532 91.3799 13.8942 91.7545 13.9482L91.8329 12.1086Z" fill="#A02724"/>
<path d="M111.164 99.687L107.91 99.5022L107.25 96.7274L106.888 95.207L106.754 94.647L109.257 94.4762L109.436 94.4622L109.968 96.0722L111.164 99.687Z" fill="#B55B52"/>
<path d="M92.4546 100.143C92.5162 100.365 89.4334 99.9698 89.4334 99.9698L89.3242 97.3798L89.2402 95.3806V95.2714H89.2654L92.3958 95.5822C92.3958 95.5822 92.3958 96.4222 92.3958 97.377C92.4014 98.6034 92.4182 100.023 92.4546 100.143Z" fill="#B55B52"/>
<path d="M98.9834 19.6182C98.9834 19.6182 94.5874 20.8082 94.9122 19.9458C95.0759 19.4238 95.1414 18.8761 95.1054 18.3302C95.1054 17.9718 95.0606 17.717 95.0606 17.717C93.4702 17.8094 92.4006 16.6586 91.9246 15.2418C91.3114 13.4246 91.5354 11.3946 92.2802 9.66981C92.339 9.52981 92.507 8.93621 92.6554 8.86341L94.3802 8.06821C94.3802 8.06821 96.0602 9.16861 96.9338 9.85181C97.8074 10.535 98.5102 13.7102 98.5102 16.1798C98.5102 18.6494 98.9834 19.6182 98.9834 19.6182Z" fill="#B55B52"/>
<path d="M91.7013 11.585C91.6236 11.6062 91.5547 11.6516 91.5044 11.7144C91.4541 11.7773 91.425 11.8546 91.4213 11.935C91.4098 12.0097 91.4214 12.0862 91.4544 12.1542C91.4874 12.2222 91.5403 12.2786 91.6061 12.3158L91.7013 11.585Z" fill="#263238"/>
<path d="M91.7012 10.1626C91.8841 10.1585 92.0642 10.2082 92.2192 10.3054" stroke="#263238" stroke-linecap="round" stroke-linejoin="round"/>
<path d="M93.2303 14.707C93.2303 14.707 94.5071 16.7006 96.5399 17.157C98.5727 17.6134 99.2139 16.9078 99.4855 15.757C99.7209 14.6719 100.242 13.6695 100.995 12.8534C101.698 12.1282 101.275 10.1598 100.382 8.5414C100.382 8.5414 101.339 7.7378 99.7963 6.965C98.2535 6.1922 97.6851 7.4774 96.3467 6.727C95.0083 5.9766 96.7947 5.7274 95.5319 8.0682C94.2691 10.409 93.5719 8.7066 93.3843 9.7482C93.1967 10.7898 92.2195 12.5986 93.2303 14.707Z" fill="#263238"/>
<path d="M93.3843 10.2326C93.2583 10.1906 89.2095 8.7262 89.1703 8.0626C89.1311 7.399 92.3091 8.6058 92.4295 8.6534L93.2499 9.9498L93.3843 10.2326Z" fill="#4F772D"/>
<path d="M101.554 11.837C101.515 11.9574 101.274 12.7554 101.17 12.7554L100.832 12.7358C100.516 12.7097 100.203 12.6733 99.8908 12.6266C99.5464 12.5734 99.2076 12.5062 98.8744 12.4278H98.8604C98.5216 12.3466 98.1884 12.257 97.8636 12.1478C97.0664 11.9071 96.2839 11.6201 95.52 11.2882C95.0888 11.1006 94.708 10.9186 94.4 10.7618C93.77 10.4482 93.3948 10.227 93.3948 10.227L93.3388 10.1346L93.1092 9.7734L92.6192 8.9978L92.4512 8.7374V8.7178C92.4433 8.69417 92.4433 8.66862 92.4512 8.645C92.468 8.3482 93.0756 7.525 93.1848 7.385C93.6346 6.78392 94.2073 6.28565 94.8648 5.9234C95.7664 5.425 96.7828 5.6434 97.7404 5.8114C98.0572 5.87718 98.366 5.97668 98.6616 6.1082L98.8492 6.1894L98.8856 6.2062C98.9192 6.2258 98.9556 6.2398 98.9892 6.2566L99.0508 6.2874C99.7624 6.62063 100.41 7.07652 100.963 7.6342C102.223 9.0482 101.711 11.3806 101.554 11.837Z" fill="#4F772D"/>
<path d="M100.185 21.1218C100.185 21.1218 99.9831 19.7218 99.5435 19.4418C99.1039 19.1618 94.7359 19.2038 94.0555 19.6826C93.3751 20.1614 93.4955 21.7266 93.4955 21.7266L100.185 21.1218Z" fill="#4F772D"/>
<path d="M92.4321 12.495C92.4321 12.495 93.1769 11.5318 93.9749 12.1282C94.7729 12.7246 94.1401 14.1386 93.2021 14.5362C93.2021 14.5362 91.9897 14.931 91.8329 13.6962C91.6761 12.4614 92.4321 12.495 92.4321 12.495Z" fill="#B55B52"/>
<path d="M89.4444 46.0166C89.4444 46.0166 87.7784 61.957 87.3136 69.2874C86.8488 76.6178 88.5568 95.3638 88.5568 95.3638H92.6084C92.6084 95.3638 93.0732 76.741 93.7732 71.155C94.4732 65.569 96.7972 57.995 96.7972 57.995C96.7972 57.995 98.1972 69.9818 99.5972 74.8706C100.997 79.7594 105.544 94.6946 105.544 94.6946L110.209 93.7986C110.209 93.7986 104.609 74.6382 104.609 68.7022C104.609 62.7662 104.662 50.7822 103.268 46.0222L89.4444 46.0166Z" fill="#4F772D"/>
<path opacity="0.3" d="M110.201 93.8042L105.539 94.703C105.539 94.703 100.994 79.7678 99.5944 74.879C98.8244 72.191 98.0572 67.3498 97.5224 63.539C97.0744 60.4282 96.7944 58.0034 96.7944 58.0034C96.7944 58.0034 94.4676 65.5634 93.7676 71.1634C93.0676 76.7634 92.6056 95.3722 92.6056 95.3722H88.5568C88.5568 95.3722 86.8488 76.629 87.3136 69.2986C87.7784 61.9682 89.4444 46.025 89.4444 46.025H103.254C104.654 50.785 104.598 62.783 104.598 68.705C104.598 74.627 110.201 93.8042 110.201 93.8042Z" fill="black"/>
<path opacity="0.3" d="M97.5191 63.539C97.0739 60.4282 96.7939 58.0034 96.7939 58.0034L97.0739 53.6522L97.5191 63.539Z" fill="black"/>
<path d="M88.1172 94.5854H92.9724L92.7344 96.5846H88.3076L88.1172 94.5854Z" fill="#263238"/>
<path d="M104.953 94.2942L110.203 92.3426L110.867 95.1818L105.743 96.5846L104.953 94.2942Z" fill="#263238"/>
<path opacity="0.2" d="M109.257 94.4762L106.889 95.207L107.25 96.7274L109.969 96.0722L109.257 94.4762Z" fill="black"/>
<path opacity="0.2" d="M92.3955 97.3882H89.3155L89.2314 95.389L89.251 95.2826L92.3814 95.5934C92.3814 95.5934 92.3899 96.4222 92.3955 97.3882Z" fill="black"/>
<path d="M87.8343 101.137C87.8539 101.191 85.8967 100.051 86.4343 99.519C86.9719 98.987 87.8343 101.137 87.8343 101.137Z" stroke="#4F772D" stroke-miterlimit="10"/>
<path d="M88.1139 101.056C88.0999 101.112 87.0219 99.1214 87.7555 98.945C88.4891 98.7686 88.1139 101.056 88.1139 101.056Z" stroke="#4F772D" stroke-miterlimit="10"/>
<path d="M107.46 99.9278C107.46 99.9278 106.819 97.8642 106.197 98.203C105.575 98.5418 107.46 99.9278 107.46 99.9278Z" stroke="#4F772D" stroke-miterlimit="10"/>
<path d="M107.286 100.107C107.286 100.107 105.838 98.5082 105.415 99.0682C104.993 99.6282 107.286 100.107 107.286 100.107Z" stroke="#4F772D" stroke-miterlimit="10"/>
<path d="M111.285 99.4966H107.807C107.807 99.4966 105.797 100.706 104.915 100.818C104.033 100.93 103.515 100.983 103.54 101.616C103.565 102.249 104.1 102.305 105.906 102.277C107.712 102.249 111.296 102.47 111.685 102.112C112.074 101.753 111.828 101.079 111.285 99.4966Z" fill="#263238"/>
<path d="M92.4541 99.9278L89.0941 99.953C89.0941 99.953 87.0837 101.163 86.2045 101.275C85.3253 101.387 84.8045 101.44 84.8269 102.073C84.8493 102.705 85.3869 102.761 87.1957 102.733C89.0045 102.705 92.1937 102.966 92.5829 102.607C92.9721 102.249 92.7565 101.661 92.4541 99.9278Z" fill="#263238"/>
<path opacity="0.3" d="M92.4295 8.65339C92.5163 9.09859 92.6059 9.44019 93.3423 10.2158C92.4071 9.86859 89.2039 8.631 89.1703 8.0626C89.1367 7.4942 91.6231 8.34819 92.4295 8.65339Z" fill="black"/>
<path opacity="0.3" d="M92.4288 8.7234C92.4209 8.69978 92.4209 8.67423 92.4288 8.6506C92.4288 8.6506 92.4288 8.6814 92.4288 8.7402V8.7234Z" fill="black"/>
<path opacity="0.3" d="M93.3837 10.2326L93.2969 10.199C93.3013 10.1873 93.307 10.176 93.3137 10.1654L93.3837 10.2326Z" fill="black"/>
<path d="M101.554 11.837C101.515 11.9574 101.274 12.7554 101.17 12.7554L100.832 12.7358C100.516 12.7097 100.203 12.6733 99.8908 12.6266C99.5464 12.5734 99.2076 12.5062 98.8744 12.4278H98.8604C98.5216 12.3466 98.1884 12.257 97.8636 12.1478C97.0664 11.9071 96.2839 11.6201 95.52 11.2882C95.0888 11.1006 94.708 10.9186 94.4 10.7618C93.77 10.4482 93.3948 10.227 93.3948 10.227L93.3388 10.1346L93.1092 9.7734L92.6192 8.9978L92.4512 8.7374V8.7178C92.4433 8.69417 92.4433 8.66862 92.4512 8.645C92.468 8.3482 93.0756 7.525 93.1848 7.385C93.6346 6.78392 94.2073 6.28565 94.8648 5.9234C95.7664 5.425 96.7828 5.6434 97.7404 5.8114C98.0572 5.87718 98.366 5.97668 98.6616 6.1082L98.8492 6.1894L98.8856 6.2062C98.9192 6.2258 98.9556 6.2398 98.9892 6.2566L99.0508 6.2874C99.7624 6.62063 100.41 7.07652 100.963 7.6342C102.223 9.0482 101.711 11.3806 101.554 11.837Z" fill="#4F772D"/>
<path opacity="0.2" d="M96.0471 17.4482C95.7491 17.7583 95.435 18.0527 95.1063 18.3302C95.1063 17.9718 95.0615 17.717 95.0615 17.717C95.3993 17.6656 95.73 17.5754 96.0471 17.4482Z" fill="black"/>
<path d="M89.4442 46.1734V31.8318L86.8262 30.765C86.8262 30.765 87.3274 23.1126 91.0542 21.9058C94.781 20.699 101.414 20.1922 103.24 21.9058C104.393 22.995 104.547 24.7422 104.589 26.2402C104.679 29.2922 103.881 32.277 103.705 35.3122C103.565 37.7818 103.481 40.2514 103.425 42.7238C103.425 42.9142 103.352 46.1734 103.346 46.1734H89.4442Z" fill="#263238"/>
<path d="M90.878 32.3218C90.878 32.3218 88.9404 38.7226 87.0252 39.123C85.11 39.5234 78.5692 35.9534 78.5692 35.9534H75.6488L75.2344 33.3858C75.2344 33.3858 77.9532 32.3778 79.7648 33.5846C79.7648 33.5846 83.9956 35.4298 85.404 35.9674L87.4452 31.0282L90.878 32.3218Z" fill="#B55B52"/>
</svg>
