<svg width="309" height="211" viewBox="0 0 309 211" fill="none" xmlns="http://www.w3.org/2000/svg">
<path d="M255.166 104.047C250.441 83.2893 233.434 64.9969 213.665 54.8439C203.727 49.7674 193.37 48.6393 182.304 46.5071C166.803 43.5064 160.48 36.5233 149.334 27.5661C116.894 1.51799 75.0467 23.3977 55.3569 47.0768C31.4109 75.8719 31.9044 116.326 56.5043 143.153C73.0666 161.202 92.6762 173.984 115.641 179.1C133.579 183.093 145.645 174.509 159.974 164.891C170.917 157.559 182.464 148.742 195.93 146.057C208.267 143.598 210.778 153.864 221.998 154.75C250.57 157 259.12 121.532 255.166 104.047Z" fill="#4F772D"/>
<path opacity="0.9" d="M255.166 104.047C250.441 83.2893 233.434 64.9969 213.665 54.8439C203.727 49.7674 193.37 48.6393 182.304 46.5071C166.803 43.5064 160.48 36.5233 149.334 27.5661C116.894 1.51799 75.0467 23.3977 55.3569 47.0768C31.4109 75.8719 31.9044 116.326 56.5043 143.153C73.0666 161.202 92.6762 173.984 115.641 179.1C133.579 183.093 145.645 174.509 159.974 164.891C170.917 157.559 182.464 148.742 195.93 146.057C208.267 143.598 210.778 153.864 221.998 154.75C250.57 157 259.12 121.532 255.166 104.047Z" fill="white"/>
<path d="M154.211 210.839C220.264 210.839 273.811 207.981 273.811 204.454C273.811 200.928 220.264 198.069 154.211 198.069C88.1573 198.069 34.6104 200.928 34.6104 204.454C34.6104 207.981 88.1573 210.839 154.211 210.839Z" fill="#F5F5F5"/>
<path d="M270.731 69.6167C271.693 71.4386 272.582 73.2605 273.39 75.1219C274.198 76.9833 274.987 78.8672 275.66 80.8358C275.746 81.084 275.826 81.3322 275.906 81.586L276.024 81.9583L276.085 82.1613L276.165 82.4772C276.353 83.2795 276.328 84.1112 276.091 84.9026C275.695 86.1405 274.987 87.2764 274.025 88.2193C272.42 89.8139 270.512 91.1288 268.393 92.1L266.925 90.1202C268.371 88.8637 269.662 87.4658 270.774 85.9518C271.205 85.3688 271.497 84.7097 271.632 84.0171C271.655 83.843 271.629 83.6664 271.558 83.5038L271.336 82.9848C271.249 82.7649 271.157 82.5505 271.052 82.3249C270.281 80.565 269.417 78.7826 268.547 77.0058L265.944 71.6586L270.731 69.6167Z" fill="#7F3E3B"/>
<path d="M266.813 89.8156L263.278 91.7954L267.047 94.7511C267.047 94.7511 269.607 92.8558 269.564 90.6335L267.898 89.793C267.732 89.7076 267.543 89.6646 267.352 89.6686C267.161 89.6726 266.975 89.7233 266.813 89.8156Z" fill="#7F3E3B"/>
<path d="M262.544 95.6591L265.529 96.9395L267.047 94.7679L263.278 91.8123L262.544 95.6591Z" fill="#7F3E3B"/>
<path d="M258.553 199.908C259.013 199.898 259.47 199.841 259.916 199.739C259.94 199.734 259.962 199.723 259.978 199.707C259.995 199.691 260.006 199.671 260.009 199.649C260.015 199.627 260.012 199.604 260.002 199.584C259.992 199.563 259.975 199.546 259.953 199.536C259.781 199.429 258.208 198.504 257.609 198.752C257.542 198.779 257.483 198.823 257.441 198.879C257.399 198.935 257.374 199 257.369 199.068C257.342 199.174 257.346 199.284 257.381 199.388C257.416 199.492 257.48 199.586 257.566 199.66C257.853 199.847 258.202 199.935 258.553 199.908ZM259.571 199.581C258.67 199.745 257.998 199.716 257.721 199.496C257.663 199.445 257.622 199.381 257.6 199.311C257.579 199.241 257.578 199.167 257.597 199.096C257.598 199.066 257.608 199.038 257.625 199.013C257.643 198.988 257.667 198.968 257.696 198.955C258.029 198.825 258.93 199.243 259.571 199.581Z" fill="#4F772D"/>
<path d="M259.893 199.739H259.955C259.972 199.729 259.987 199.714 259.996 199.698C260.006 199.681 260.011 199.662 260.011 199.643C260.011 199.581 260.011 198.222 259.443 197.77C259.375 197.711 259.293 197.666 259.203 197.639C259.114 197.613 259.018 197.606 258.925 197.618C258.828 197.619 258.735 197.651 258.661 197.707C258.587 197.764 258.536 197.842 258.518 197.928C258.401 198.492 259.338 199.48 259.832 199.739C259.852 199.745 259.873 199.745 259.893 199.739ZM259.011 197.827C259.112 197.828 259.208 197.862 259.283 197.923C259.606 198.363 259.773 198.882 259.764 199.412C259.27 199.051 258.684 198.284 258.752 197.962C258.752 197.911 258.802 197.844 258.956 197.827H259.011Z" fill="#4F772D"/>
<path d="M259.437 53.191C258.82 56.0113 257.586 61.6519 259.715 63.5415C259.715 63.5415 258.876 66.3618 253.176 66.3618C246.915 66.3618 250.184 63.5415 250.184 63.5415C253.602 62.7969 253.515 60.4786 252.923 58.2957L259.437 53.191Z" fill="#7F3E3B"/>
<path d="M253.02 61.0485C252.631 61.5393 252.317 62.2444 252.619 62.2331C257.8 62.03 259.059 62.3008 258.985 61.7649C258.911 61.229 258.985 60.6763 258.701 60.6763C258.417 60.6763 253.205 60.8342 253.02 61.0485Z" fill="#4F772D"/>
<path d="M258.486 62.2275C258.84 62.3321 259.212 62.3742 259.584 62.3516C259.819 62.4137 260.018 62.5574 260.139 62.752C260.191 62.4267 260.106 62.0954 259.901 61.8253C259.696 61.5552 259.386 61.3662 259.035 61.2968C257.721 60.9696 258.06 62.0695 258.486 62.2275Z" fill="#4F772D"/>
<path d="M257.886 60.9809C258.232 60.3435 259.12 60.0727 259.391 60.4958C259.663 60.9188 259.175 61.2742 258.559 61.3306C257.942 61.387 257.646 61.4265 257.886 60.9809Z" fill="#4F772D"/>
<path d="M258.221 61.0149C258.838 60.5919 259.757 60.7047 259.806 61.201C259.856 61.6974 259.226 61.8046 258.647 61.6015C258.067 61.3984 257.783 61.3138 258.221 61.0149Z" fill="#4F772D"/>
<path d="M248.939 47.2069C248.9 47.2016 248.863 47.1881 248.831 47.1676C248.799 47.147 248.772 47.1199 248.754 47.0884C248.621 46.8359 248.425 46.6156 248.182 46.4451C247.938 46.2746 247.655 46.1588 247.354 46.107C247.319 46.1076 247.284 46.1015 247.252 46.089C247.22 46.0765 247.191 46.0579 247.167 46.0344C247.143 46.011 247.125 45.9832 247.114 45.9529C247.103 45.9226 247.099 45.8904 247.103 45.8587C247.106 45.8269 247.117 45.7961 247.135 45.7685C247.152 45.7408 247.176 45.7169 247.204 45.6982C247.233 45.6796 247.265 45.6666 247.299 45.6603C247.333 45.6539 247.369 45.6543 247.403 45.6614C247.785 45.7223 248.147 45.8649 248.457 46.0776C248.768 46.2903 249.02 46.567 249.192 46.8854C249.22 46.9379 249.225 46.9985 249.205 47.0542C249.186 47.11 249.143 47.1567 249.087 47.1843C249.041 47.2053 248.99 47.2132 248.939 47.2069Z" fill="#263238"/>
<path d="M247.139 49.6771C246.664 50.5012 246.067 51.2606 245.362 51.9334C245.557 52.0933 245.788 52.2125 246.038 52.2827C246.288 52.3528 246.553 52.3722 246.812 52.3395L247.139 49.6771Z" fill="#630F0F"/>
<path d="M247.584 49.0681C247.541 49.446 247.282 49.728 247.01 49.6998C246.739 49.6716 246.56 49.3445 246.603 48.9666C246.646 48.5886 246.905 48.301 247.177 48.3292C247.448 48.3574 247.633 48.6902 247.584 49.0681Z" fill="#263238"/>
<path d="M247.295 48.3631L246.333 47.9965C246.333 47.9965 246.734 48.7636 247.295 48.3631Z" fill="#263238"/>
<path d="M265.899 199.632H260.729L261.137 188.689H266.3L265.899 199.632Z" fill="#7F3E3B"/>
<path d="M260.306 199.085H266.111C266.211 199.082 266.308 199.114 266.385 199.173C266.461 199.233 266.511 199.315 266.524 199.406L267.184 203.603C267.197 203.709 267.186 203.816 267.15 203.918C267.114 204.02 267.055 204.113 266.977 204.193C266.899 204.272 266.804 204.335 266.697 204.379C266.59 204.422 266.474 204.444 266.358 204.443C264.328 204.415 263.354 204.302 260.806 204.302C259.239 204.302 256.944 204.454 254.773 204.454C252.602 204.454 252.491 202.491 253.391 202.317C257.444 201.516 258.086 200.421 259.449 199.372C259.69 199.189 259.993 199.087 260.306 199.085Z" fill="#263238"/>
<g opacity="0.2">
<path opacity="0.2" d="M266.308 188.689H261.138L260.929 194.329H266.098L266.308 188.689Z" fill="black"/>
</g>
<path d="M261.669 49.2034C260.787 53.823 260.521 55.7972 257.659 57.9181C253.341 61.1106 247.339 59.1082 246.698 54.342C246.118 50.0495 247.666 43.2188 252.866 41.8763C254.013 41.5758 255.225 41.5484 256.386 41.7968C257.547 42.0451 258.62 42.5609 259.502 43.2951C260.384 44.0293 261.046 44.9576 261.426 45.9917C261.805 47.0258 261.888 48.1314 261.669 49.2034Z" fill="#7F3E3B"/>
<path d="M249.463 93.2676C249.463 93.2676 252.461 125.695 255.57 143.971C258.086 158.732 260.066 193.241 260.066 193.241H267.092C267.092 193.241 269.424 160.001 268.53 145.375C266.408 110.686 272.114 103.257 264.884 93.2676H249.463Z" fill="#4F772D"/>
<path opacity="0.2" d="M257.358 110.77C257.062 120.472 255.057 126.479 253.484 129.717C252.658 123.388 251.899 116.783 251.264 110.956C253.429 104.357 257.586 103.466 257.358 110.77Z" fill="black"/>
<path d="M252.805 197.618C252.814 197.6 252.818 197.581 252.818 197.562C252.818 197.542 252.814 197.523 252.805 197.505C252.797 197.484 252.782 197.465 252.762 197.451C252.742 197.437 252.719 197.428 252.694 197.426C252.435 197.426 250.121 197.347 249.696 197.878C249.655 197.927 249.629 197.985 249.62 198.046C249.612 198.108 249.621 198.17 249.646 198.227C249.679 198.324 249.737 198.411 249.816 198.482C249.894 198.553 249.991 198.605 250.097 198.633C250.819 198.836 252.077 198.069 252.762 197.629L252.805 197.618ZM249.936 197.99C250.208 197.714 251.429 197.635 252.342 197.641C251.386 198.244 250.596 198.532 250.195 198.419C250.126 198.401 250.063 198.367 250.011 198.321C249.959 198.274 249.921 198.217 249.899 198.154C249.884 198.133 249.875 198.109 249.875 198.083C249.875 198.058 249.884 198.034 249.899 198.013L249.936 197.99Z" fill="#4F772D"/>
<path d="M252.803 197.618C252.815 197.601 252.822 197.582 252.822 197.562C252.822 197.542 252.815 197.522 252.803 197.505C252.803 197.46 252.082 196.377 251.261 196.157C251.143 196.128 251.02 196.121 250.899 196.136C250.779 196.152 250.662 196.19 250.558 196.247C250.268 196.405 250.25 196.586 250.287 196.71C250.447 197.234 252.026 197.68 252.698 197.674C252.72 197.674 252.741 197.669 252.759 197.659C252.777 197.649 252.793 197.635 252.803 197.618ZM250.576 196.49L250.694 196.411C250.77 196.367 250.856 196.338 250.945 196.327C251.035 196.317 251.126 196.324 251.212 196.349C251.747 196.571 252.192 196.942 252.483 197.409C251.755 197.342 250.632 196.935 250.533 196.62C250.53 196.597 250.532 196.574 250.539 196.553C250.546 196.531 250.559 196.512 250.576 196.496V196.49Z" fill="#4F772D"/>
<path d="M258.494 196.219L253.609 197.776L251.869 193.625L249.599 188.187L249.334 187.555L254.213 185.993L254.515 186.704L256.711 191.972L258.494 196.219Z" fill="#7F3E3B"/>
<path opacity="0.2" d="M256.71 191.972L251.868 193.624L249.598 188.187L254.514 186.703L256.71 191.972Z" fill="black"/>
<path d="M243.921 93.2676C243.921 93.2676 236.185 125.498 236.191 142.087C236.191 157.074 249.984 192.073 249.984 192.073L256.529 189.608C256.529 189.608 250.182 151.958 248.707 143.254C252.285 129.717 258.453 110.686 258.453 93.2676H243.921Z" fill="#4F772D"/>
<path d="M252.768 196.913L258.024 194.657C258.115 194.619 258.217 194.611 258.313 194.636C258.41 194.661 258.493 194.716 258.548 194.792L261.09 198.34C261.15 198.431 261.189 198.533 261.203 198.639C261.218 198.745 261.208 198.852 261.174 198.954C261.141 199.056 261.084 199.151 261.008 199.232C260.931 199.312 260.837 199.378 260.732 199.423C258.881 200.179 257.95 200.455 255.637 201.442C254.218 202.052 251.633 204.014 249.505 204.398C247.377 204.782 246.847 202.881 247.692 202.548C251.498 201.042 251.393 198.983 252.121 197.505C252.254 197.244 252.483 197.035 252.768 196.913Z" fill="#263238"/>
<path d="M249.48 193.263L257.9 190.42L257.104 187.312L248.086 190.353L249.48 193.263Z" fill="#263238"/>
<path d="M259.102 193.365H268.078L268.546 190.489L259.047 190.195L259.102 193.365Z" fill="#263238"/>
<path d="M273.067 72.11L267.88 75.8891L264.795 78.1454C264.795 78.1454 264.468 77.35 264.074 76.2107C263.315 74.0108 262.34 70.525 263.019 68.923C264.086 66.3848 266.103 64.0947 268.657 64.6024C270.791 65.048 273.067 72.11 273.067 72.11Z" fill="#263238"/>
<path opacity="0.2" d="M267.201 76.3794L264.765 78.1618C264.765 78.1618 264.438 77.3665 264.043 76.2271L265.894 67.8508L267.201 76.3794Z" fill="black"/>
<path d="M241.448 64.7546C241.448 64.7546 238.981 65.5442 243.915 93.2676H264.888C264.536 85.4611 264.53 80.644 268.589 64.6135C265.65 64.0591 262.671 63.7009 259.676 63.5418C256.503 63.3329 253.318 63.3329 250.145 63.5418C246.117 63.869 241.448 64.7546 241.448 64.7546Z" fill="#263238"/>
<path d="M243.649 70.7165C243.187 73.187 242.638 75.5956 241.99 78.0492C241.375 80.5383 240.581 82.9878 239.615 85.3819C239.321 86.0799 238.966 86.7552 238.554 87.4013C238.405 87.6246 238.238 87.8376 238.054 88.0386C237.878 88.2406 237.684 88.4293 237.475 88.6027C237.019 88.9773 236.495 89.2752 235.926 89.4826C235.336 89.6878 234.707 89.7874 234.076 89.7759C233.521 89.7585 232.973 89.6673 232.447 89.5052C231.601 89.2344 230.811 88.836 230.109 88.3263C228.94 87.4688 227.903 86.4708 227.025 85.3594C226.593 84.8348 226.199 84.2989 225.829 83.7518C225.443 83.2048 225.089 82.64 224.768 82.0596L226.951 80.7398C227.79 81.5858 228.715 82.4319 229.641 83.2216C230.501 83.9701 231.448 84.6302 232.466 85.1902C232.85 85.3971 233.266 85.5492 233.7 85.6414C234.039 85.6922 234.137 85.6414 234.15 85.5737C234.162 85.506 234.205 85.5229 234.267 85.4496C234.305 85.4064 234.34 85.3612 234.372 85.3143C234.372 85.3143 234.372 85.3142 234.434 85.1958C234.657 84.763 234.847 84.3163 235.001 83.859C235.377 82.8155 235.704 81.6648 236.007 80.5141C236.309 79.3635 236.623 78.1902 236.889 77.017C237.431 74.6649 237.962 72.2733 238.468 69.9211L243.649 70.7165Z" fill="#7F3E3B"/>
<path d="M241.45 64.7545C238.884 65.3186 235.787 73.8358 235.787 73.8358L244.627 79.5666C244.627 79.5666 248.149 70.7617 247.304 68.2855C246.428 65.6683 244.565 64.0607 241.45 64.7545Z" fill="#263238"/>
<path d="M250.08 49.6772C247.508 48.6168 248.174 45.9093 249.821 46.4339C243.924 42.5588 247.101 40.7425 248.877 41.6902C248.1 40.6467 245.454 37.6741 245.706 34.8876C245.959 32.1012 251.61 33.4098 254.182 36.9352C253.164 34.16 256.464 33.8893 258.919 37.268C259.908 38.6642 260.638 40.2004 261.078 41.8143C261.078 41.8143 263.903 37.7361 264.625 41.645C265.421 45.977 263.034 47.5169 263.034 47.5169C263.034 47.5169 267.173 47.8553 265.094 50.3766C264.486 51.0014 263.794 51.553 263.034 52.018C263.034 52.018 264.551 52.9657 262.516 54.7988C260.819 56.3274 259.123 57.7094 256.193 57.8504C252.905 58.014 248.636 54.7142 250.08 49.6772Z" fill="#263238"/>
<path d="M261.078 41.9551C261.039 41.9552 261.001 41.942 260.973 41.9179C260.944 41.8938 260.926 41.8608 260.923 41.8254C260.733 40.1888 260.249 38.5919 259.492 37.0986C258.376 34.9778 256.729 34.0076 255.791 34.2783C255.174 34.4532 254.965 35.1244 255.174 36.0664C255.18 36.0852 255.181 36.1049 255.178 36.1242C255.175 36.1436 255.167 36.1621 255.156 36.1786C255.145 36.1951 255.13 36.2093 255.112 36.2203C255.094 36.2312 255.074 36.2387 255.053 36.2422C255.032 36.2458 255.011 36.2453 254.99 36.2408C254.969 36.2363 254.95 36.2279 254.933 36.2161C254.916 36.2044 254.901 36.1895 254.891 36.1725C254.881 36.1554 254.874 36.1366 254.872 36.1172C254.644 35.0229 254.965 34.2332 255.717 34.0076C256.778 33.6917 258.567 34.6168 259.801 36.9576C260.576 38.4822 261.07 40.1137 261.263 41.7859C261.264 41.8044 261.262 41.8231 261.256 41.8408C261.249 41.8585 261.239 41.8749 261.226 41.8891C261.213 41.9032 261.197 41.9148 261.179 41.9233C261.161 41.9317 261.141 41.9368 261.121 41.9382L261.078 41.9551Z" fill="#263238"/>
<path d="M251.8 50.1004C251.567 50.962 251.021 51.7257 250.252 52.2664C249.209 52.994 248.358 52.3679 248.37 51.3357C248.37 50.4106 248.932 48.9102 250.116 48.5774C251.3 48.2447 252.047 49.0795 251.8 50.1004Z" fill="#7F3E3B"/>
<path d="M227.534 80.7231L225.097 79.595L224.129 83.5998C224.129 83.5998 227.077 84.0623 228.336 82.3983L227.534 80.7231Z" fill="#7F3E3B"/>
<path d="M222.234 80.0628L221.753 83.4528L224.134 83.5882L225.096 79.5834L222.234 80.0628Z" fill="#7F3E3B"/>
<path d="M265.239 92.145L266.189 93.8371C266.263 93.9725 266.09 94.1079 265.843 94.1079H243.816C243.624 94.1079 243.47 94.0233 243.458 93.9105L243.267 92.2183C243.267 92.0998 243.421 91.9983 243.624 91.9983H264.875C264.944 91.9878 265.016 91.9961 265.081 92.0222C265.145 92.0482 265.2 92.0909 265.239 92.145Z" fill="#4F772D"/>
<path opacity="0.2" d="M265.239 92.145L266.189 93.8371C266.263 93.9725 266.09 94.1079 265.843 94.1079H243.816C243.624 94.1079 243.47 94.0233 243.458 93.9105L243.267 92.2183C243.267 92.0998 243.421 91.9983 243.624 91.9983H264.875C264.944 91.9878 265.016 91.9961 265.081 92.0222C265.145 92.0482 265.2 92.0909 265.239 92.145Z" fill="white"/>
<path d="M262.366 94.328H262.933C263.044 94.328 263.13 94.2716 263.124 94.2095L262.859 91.9533C262.859 91.8856 262.754 91.8348 262.637 91.8348H262.069C261.958 91.8348 261.872 91.8856 261.878 91.9533L262.143 94.2095C262.156 94.2603 262.248 94.328 262.366 94.328Z" fill="#4F772D"/>
<path d="M248.586 94.328H249.16C249.271 94.328 249.357 94.2716 249.351 94.2095L249.08 91.9533C249.08 91.8856 248.975 91.8348 248.864 91.8348H248.296C248.179 91.8348 248.093 91.8856 248.099 91.9533L248.37 94.2095C248.358 94.2603 248.457 94.328 248.586 94.328Z" fill="#4F772D"/>
<path d="M205.406 44.008C205.764 45.4069 207.355 47.099 209.231 46.8283C207.719 46.1796 207.244 42.9871 207.244 42.9871L205.406 44.008Z" fill="#263238"/>
<path d="M205.59 44.0084C205.59 45.4411 206.675 47.4323 208.563 47.5733C207.274 46.6144 206.935 43.6249 206.935 43.6249L205.59 44.0084Z" fill="#263238"/>
<path d="M167.007 196.665L162.115 195.976L162.553 185.429L167.445 186.117L167.007 196.665Z" fill="#FFC3BD"/>
<path d="M197.559 199.829H192.612L191.292 189.343H196.245L197.559 199.829Z" fill="#FFC3BD"/>
<path d="M192.137 199.304H198.176C198.273 199.304 198.367 199.335 198.441 199.392C198.516 199.449 198.566 199.528 198.583 199.615L199.379 203.642C199.396 203.742 199.389 203.844 199.359 203.941C199.328 204.037 199.275 204.127 199.203 204.203C199.131 204.28 199.041 204.341 198.94 204.382C198.84 204.423 198.731 204.444 198.62 204.443C196.677 204.415 195.265 204.308 192.816 204.308C191.311 204.308 186.771 204.454 184.692 204.454C182.613 204.454 182.422 202.576 183.285 202.401C187.135 201.64 190.071 200.59 191.304 199.581C191.535 199.398 191.832 199.299 192.137 199.304Z" fill="#263238"/>
<path d="M162.226 195.463L167.574 196.213C167.671 196.227 167.76 196.271 167.826 196.338C167.893 196.405 167.932 196.49 167.938 196.58L168.234 200.692C168.241 200.791 168.223 200.891 168.182 200.983C168.142 201.075 168.078 201.157 167.998 201.224C167.917 201.291 167.821 201.34 167.717 201.368C167.612 201.396 167.502 201.402 167.395 201.386C165.477 201.087 162.707 200.59 160.283 200.258C157.451 199.857 155.78 199.694 152.455 199.225C150.45 198.943 150.203 197.009 151.073 196.969C155.027 196.738 157.365 197.065 160.992 195.661C161.374 195.489 161.802 195.421 162.226 195.463Z" fill="#263238"/>
<path d="M187.424 65.0983C186.64 66.8751 185.789 68.4826 184.913 70.1748C184.037 71.867 183.063 73.4576 182.057 75.0539C181.052 76.6502 179.972 78.2464 178.769 79.7976C177.555 81.3904 176.212 82.8987 174.754 84.3101L174.686 84.3777L174.569 84.4849L174.334 84.6936C174.18 84.829 173.977 84.97 173.798 85.1054C173.619 85.2407 173.384 85.3705 173.181 85.4889C172.944 85.6163 172.699 85.7293 172.447 85.8274C171.382 86.2413 170.205 86.3476 169.073 86.132C168.189 85.9556 167.351 85.6242 166.605 85.1561C166.033 84.7975 165.502 84.3875 165.02 83.9321C164.208 83.1667 163.481 82.3297 162.849 81.4334C162.232 80.5929 161.72 79.7412 161.233 78.9064C159.392 75.5928 157.928 72.1149 156.865 68.5277L160.338 67.3263C161.22 68.8436 162.133 70.4117 163.102 71.9008C164.07 73.3899 165.032 74.879 166.081 76.244C166.999 77.5321 168.091 78.709 169.332 79.7468C169.549 79.9147 169.785 80.0621 170.035 80.1868C170.226 80.277 170.337 80.2658 170.263 80.2319C170.097 80.1816 169.917 80.1816 169.751 80.2319C169.721 80.237 169.692 80.2465 169.665 80.2601H169.634C169.634 80.2601 169.634 80.2601 169.634 80.2319L169.702 80.1586C171.925 77.5237 173.876 74.7065 175.531 71.7429C176.413 70.2312 177.258 68.6857 178.085 67.1289C178.911 65.5721 179.719 63.9645 180.472 62.4585L187.424 65.0983Z" fill="#FFC3BD"/>
<path d="M189.564 62.8534C190.446 67.1008 184.672 73.1757 184.672 73.1757L176.19 69.8364C176.19 69.8364 177.066 64.9686 180.459 61.4546C184.61 57.1508 188.595 58.2281 189.564 62.8534Z" fill="#263238"/>
<path opacity="0.2" d="M184.982 64.3538C187.295 63.5979 189.004 63.8461 189.621 64.3538C189.201 68.3924 184.686 73.1531 184.686 73.1531L178.678 70.7897C179.122 68.9114 181.349 65.5609 184.982 64.3538Z" fill="black"/>
<path d="M160.633 68.5447L160.442 65.1604L155.47 65.905C155.47 65.905 154.551 69.137 158.073 69.8534L160.633 68.5447Z" fill="#FFC3BD"/>
<path d="M159.938 63.7731L155.829 64.5289L155.472 65.877L160.443 65.1324L159.938 63.7731Z" fill="#FFC3BD"/>
<path opacity="0.2" d="M162.551 185.434L162.323 190.866L167.221 191.554L167.449 186.122L162.551 185.434Z" fill="black"/>
<path opacity="0.2" d="M196.245 189.349H191.292L191.971 194.753H196.924L196.245 189.349Z" fill="black"/>
<path d="M211.784 62.9156C204.641 79.5609 203.765 97.8251 202.902 101.458L176.803 97.3174C176.186 74.8228 182.355 62.391 184.008 59.4749C184.126 59.266 184.303 59.089 184.519 58.9614C184.735 58.8338 184.984 58.7599 185.241 58.7472C189.633 58.5573 194.035 58.7083 198.399 59.1985C202.717 59.7343 211.803 62.9156 211.803 62.9156" fill="#263238"/>
<path d="M188.251 98.1521C188.251 97.949 187.868 77.4399 192.92 64.5005L193.216 64.5907C188.177 77.4851 188.559 97.9434 188.559 98.1465L188.251 98.1521Z" fill="white"/>
<path d="M194.486 66.3506C194.356 66.7511 194.091 67.0444 193.869 66.9993C193.647 66.9542 193.591 66.5875 193.715 66.1814C193.838 65.7753 194.109 65.4876 194.332 65.5327C194.554 65.5779 194.609 65.9445 194.486 66.3506Z" fill="white"/>
<path d="M193.27 71.0265C193.172 71.4382 192.925 71.7428 192.709 71.709C192.493 71.6751 192.401 71.3141 192.499 70.9024C192.598 70.4906 192.845 70.1917 193.061 70.2255C193.277 70.2594 193.369 70.6373 193.27 71.0265Z" fill="white"/>
<path d="M192.329 75.8776C192.236 76.2893 191.996 76.5939 191.78 76.5657C191.564 76.5375 191.465 76.1765 191.552 75.7648C191.638 75.353 191.885 75.0428 192.101 75.0766C192.317 75.1105 192.415 75.4658 192.329 75.8776Z" fill="white"/>
<path d="M191.525 80.6268C191.463 81.0442 191.241 81.3657 191.025 81.3488C190.809 81.3319 190.686 80.9765 190.747 80.5591C190.809 80.1417 191.031 79.8202 191.247 79.8428C191.463 79.8654 191.586 80.2264 191.525 80.6268Z" fill="white"/>
<path opacity="0.2" d="M209.248 69.6108C208.384 72.2167 207.644 74.8114 207.021 77.3271C206.201 72.7752 205.837 68.0991 205.837 68.0991L209.248 69.6108Z" fill="black"/>
<path d="M204.246 48.9944C202.926 52.1475 201.224 57.7034 203.302 60.2755C202.118 61.8492 197.899 64.2239 193.069 64.5454C189.621 63.2199 190.756 59.9653 192.144 58.7356C196.289 58.4931 196.641 55.8759 196.431 53.2304L204.246 48.9944Z" fill="#FFC3BD"/>
<path opacity="0.2" d="M201.086 50.7261L196.46 53.2305C196.519 53.8479 196.519 54.4688 196.46 55.0862C198.014 55.1257 200.395 53.9299 200.833 52.4972C201.035 51.9259 201.121 51.3256 201.086 50.7261Z" fill="black"/>
<path d="M195.296 37.8204C190.54 37.2563 191.644 43.2466 193.489 45.5028C199.614 41.9887 198.177 38.1701 195.296 37.8204Z" fill="#263238"/>
<path d="M194.264 39.1406C194.159 41.2558 192.345 44.0874 189.551 44.1494C190.798 43.2717 191.719 42.0646 192.191 40.6918L194.264 39.1406Z" fill="#263238"/>
<path d="M205.603 44.1549C204.468 48.5264 204.048 51.1379 201.174 53.0163C196.856 55.8365 191.274 52.8752 190.959 48.2838C190.675 44.1493 192.581 37.6908 197.646 36.6868C198.761 36.4591 199.921 36.4962 201.017 36.7944C202.112 37.0926 203.106 37.6421 203.903 38.3905C204.701 39.139 205.275 40.0616 205.573 41.0706C205.871 42.0795 205.881 43.1413 205.603 44.1549Z" fill="#FFC3BD"/>
<path d="M206.059 39.6483C201.297 39.0842 202.401 45.0689 204.246 47.3251C210.186 44.3356 208.934 39.9923 206.059 39.6483Z" fill="#263238"/>
<path d="M205.796 40.3363C203.063 41.8536 200.213 39.6143 198.906 38.6441C197.598 37.6739 194.656 39.5692 191.171 38.8133C189.11 38.3621 188.82 36.5063 188.82 35.3218C190.319 37.8375 192.799 38.2098 194.273 37.1437C195.748 36.0777 197.524 34.1317 199.652 35.1357C201.78 36.1397 204.797 37.3919 206.16 37.0817C208.535 36.5345 208.88 38.6215 205.796 40.3363Z" fill="#263238"/>
<path d="M198.551 37.9222C196.781 39.8344 192.845 41.3066 190.181 39.5016C192.042 39.5025 193.86 38.9808 195.387 38.0069L198.551 37.9222Z" fill="#263238"/>
<path d="M201.123 38.6443C200.821 40.7426 202.054 43.8223 204.793 44.3356C203.735 43.2704 203.061 41.9333 202.862 40.5057L201.123 38.6443Z" fill="#263238"/>
<path d="M206.437 43.9403C205.623 45.9201 202.946 48.103 200.269 47.3698C202.606 46.6873 203.674 44.149 203.674 44.149L206.437 43.9403Z" fill="#263238"/>
<path d="M194.837 36.275C195.09 35.8182 196.687 34.1429 200.228 33.5958C205.619 32.7723 208.697 36.8109 211.418 34.5603C212.213 33.906 213.009 35.3387 212.084 36.2525C211.27 37.0816 211.745 43.416 208.204 42.8125C206.02 42.4345 194.837 36.275 194.837 36.275Z" fill="#4F772D"/>
<path opacity="0.2" d="M194.837 36.275C195.09 35.8182 196.687 34.1429 200.228 33.5958C205.619 32.7723 208.697 36.8109 211.418 34.5603C212.213 33.906 213.009 35.3387 212.084 36.2525C211.27 37.0816 211.745 43.416 208.204 42.8125C206.02 42.4345 194.837 36.275 194.837 36.275Z" fill="white"/>
<path d="M192.656 37.7245C191.663 37.5215 194.278 35.8293 194.969 35.8067C195.66 35.7842 208.441 39.6141 208.749 42.9985C208.551 43.5257 208.288 44.0309 207.966 44.5045C207.936 44.5472 207.896 44.5838 207.85 44.6121C207.804 44.6405 207.751 44.66 207.697 44.6695C207.642 44.679 207.586 44.6782 207.531 44.6673C207.477 44.6564 207.425 44.6356 207.38 44.606C205.77 43.5625 198.676 38.9598 192.656 37.7245Z" fill="#4F772D"/>
<path d="M212.506 37.2678C213.944 37.2678 215.11 36.2021 215.11 34.8875C215.11 33.5729 213.944 32.5072 212.506 32.5072C211.069 32.5072 209.903 33.5729 209.903 34.8875C209.903 36.2021 211.069 37.2678 212.506 37.2678Z" fill="#4F772D"/>
<path d="M206.831 48.3798C206.209 49.2464 205.238 49.8542 204.13 50.072C202.686 50.3314 202.131 49.0849 202.668 47.8552C203.161 46.7271 204.518 45.2888 205.882 45.599C207.245 45.9092 207.609 47.3081 206.831 48.3798Z" fill="#FFC3BD"/>
<path d="M161.078 189.569L169.368 190.731C169.368 190.731 171.077 164.322 174.081 150.485C175 146.272 177.535 140.896 179.793 134.692C182.636 126.891 186.054 118.492 188.811 111.921C191.723 105 193.869 100.03 193.869 100.03L176.801 97.3173C176.801 97.3173 162.089 133.761 160.041 147.451C157.907 161.687 161.078 189.569 161.078 189.569Z" fill="#4F772D"/>
<path opacity="0.3" d="M161.078 189.569L169.368 190.731C169.368 190.731 171.077 164.322 174.081 150.485C175 146.272 177.535 140.896 179.793 134.692C182.636 126.891 186.054 118.492 188.811 111.921C191.723 105 193.869 100.03 193.869 100.03L176.801 97.3173C176.801 97.3173 162.089 133.761 160.041 147.451C157.907 161.687 161.078 189.569 161.078 189.569Z" fill="black"/>
<path opacity="0.2" d="M179.792 134.692C182.636 126.891 186.053 118.492 188.81 111.921L187.416 108.22C182.611 112.473 179.841 126.783 179.792 134.692Z" fill="black"/>
<path d="M184.931 98.609C184.931 98.609 183.543 137.597 184.16 150.846C184.839 165.365 189.681 193.715 189.681 193.715H198.748C198.748 193.715 196.731 168.011 196.898 153.847C197.12 137.715 202.875 101.469 202.875 101.469L184.931 98.609Z" fill="#4F772D"/>
<path opacity="0.3" d="M184.931 98.609C184.931 98.609 183.543 137.597 184.16 150.846C184.839 165.365 189.681 193.715 189.681 193.715H198.748C198.748 193.715 196.731 168.011 196.898 153.847C197.12 137.715 202.875 101.469 202.875 101.469L184.931 98.609Z" fill="black"/>
<path d="M188.596 193.884H199.274V190.968L187.338 190.776L188.596 193.884Z" fill="#4F772D"/>
<path d="M160.011 189.597L169.887 190.984L170.374 188.068L159.363 186.365L160.011 189.597Z" fill="#4F772D"/>
<path d="M198.446 44.2902C198.378 44.6512 198.113 44.9051 197.829 44.8543C197.545 44.8035 197.416 44.4877 197.484 44.1323C197.551 43.777 197.817 43.5118 198.1 43.5683C198.384 43.6247 198.514 43.9293 198.446 44.2902Z" fill="#263238"/>
<path d="M194 43.5626C193.932 43.9236 193.667 44.1774 193.414 44.1266C193.161 44.0759 193 43.76 193.068 43.4047C193.136 43.0493 193.401 42.7842 193.685 42.8406C193.969 42.897 194.068 43.2242 194 43.5626Z" fill="#263238"/>
<path d="M194.966 43.9236C194.29 44.9494 193.459 45.8835 192.499 46.6987C192.738 46.9211 193.028 47.0925 193.348 47.2007C193.668 47.3089 194.01 47.3513 194.35 47.3248L194.966 43.9236Z" fill="#ED847E"/>
<path d="M195.802 48.5488C196.253 48.5725 196.705 48.5112 197.13 48.3685C197.554 48.2259 197.942 48.005 198.269 47.7196C198.28 47.7096 198.289 47.6978 198.295 47.6847C198.301 47.6716 198.304 47.6576 198.304 47.6434C198.304 47.6293 198.301 47.6153 198.295 47.6022C198.289 47.5891 198.28 47.5773 198.269 47.5673C198.246 47.5483 198.217 47.5377 198.186 47.5377C198.155 47.5377 198.125 47.5483 198.103 47.5673C197.737 47.8753 197.298 48.1001 196.82 48.2236C196.342 48.3471 195.839 48.3657 195.351 48.278C195.321 48.2746 195.289 48.2821 195.264 48.2988C195.239 48.3155 195.222 48.3403 195.216 48.3683C195.21 48.3959 195.217 48.4244 195.234 48.4476C195.252 48.4708 195.278 48.4869 195.308 48.4924C195.471 48.5207 195.636 48.5396 195.802 48.5488Z" fill="#263238"/>
<path d="M199.657 43.1282C199.696 43.1366 199.736 43.1366 199.775 43.1282C199.829 43.1017 199.87 43.0571 199.89 43.0036C199.909 42.95 199.906 42.8917 199.88 42.8406C199.716 42.5348 199.475 42.2689 199.177 42.0649C198.879 41.861 198.532 41.7247 198.165 41.6673C198.103 41.6613 198.04 41.6782 197.992 41.7141C197.943 41.7501 197.912 41.8023 197.906 41.8591C197.899 41.916 197.917 41.9728 197.957 42.0173C197.996 42.0617 198.053 42.09 198.115 42.096C198.405 42.1432 198.678 42.2528 198.911 42.4156C199.145 42.5784 199.333 42.7898 199.46 43.0323C199.481 43.0625 199.51 43.0871 199.545 43.1039C199.58 43.1207 199.618 43.1291 199.657 43.1282Z" fill="#263238"/>
<path d="M191.941 41.8143C191.979 41.8163 192.017 41.8097 192.051 41.7949C192.086 41.7801 192.116 41.7577 192.138 41.7297C192.302 41.5052 192.523 41.32 192.782 41.1894C193.04 41.0589 193.329 40.9869 193.625 40.9795C193.687 40.981 193.748 40.96 193.795 40.921C193.841 40.8821 193.868 40.8281 193.871 40.7708C193.872 40.7143 193.848 40.66 193.805 40.6191C193.763 40.5781 193.705 40.5537 193.643 40.5508C193.271 40.5558 192.907 40.6425 192.579 40.8035C192.252 40.9645 191.971 41.1951 191.762 41.4758C191.743 41.4982 191.729 41.5238 191.721 41.5511C191.713 41.5785 191.712 41.607 191.716 41.635C191.721 41.6629 191.732 41.6897 191.748 41.7138C191.764 41.7378 191.786 41.7586 191.811 41.7748C191.849 41.8004 191.894 41.8143 191.941 41.8143Z" fill="#263238"/>
<path d="M190.464 200.1C190.903 200.088 191.339 200.033 191.765 199.936C191.788 199.93 191.809 199.918 191.825 199.902C191.841 199.886 191.853 199.867 191.858 199.846C191.861 199.825 191.858 199.805 191.85 199.786C191.841 199.767 191.827 199.751 191.809 199.739C191.63 199.637 190.075 198.74 189.514 198.994C189.453 199.024 189.401 199.067 189.365 199.121C189.328 199.174 189.307 199.236 189.304 199.299C189.285 199.402 189.295 199.507 189.333 199.606C189.371 199.705 189.435 199.793 189.52 199.863C189.796 200.038 190.129 200.121 190.464 200.1ZM191.432 199.784C190.581 199.936 189.94 199.908 189.674 199.699C189.618 199.651 189.575 199.591 189.55 199.524C189.525 199.457 189.519 199.385 189.532 199.316C189.533 199.289 189.54 199.264 189.554 199.241C189.568 199.218 189.588 199.199 189.613 199.186C189.903 199.05 190.797 199.44 191.432 199.806V199.784Z" fill="#4F772D"/>
<path d="M191.735 199.936C191.757 199.942 191.781 199.942 191.803 199.936C191.823 199.92 191.836 199.899 191.842 199.876C191.847 199.853 191.844 199.828 191.834 199.806C191.834 199.75 191.772 198.441 191.217 198.013C191.15 197.959 191.072 197.919 190.987 197.896C190.901 197.872 190.812 197.866 190.724 197.877C190.635 197.877 190.549 197.904 190.479 197.954C190.41 198.004 190.361 198.075 190.341 198.154C190.212 198.661 191.155 199.654 191.655 199.908L191.735 199.936ZM190.822 198.114C190.921 198.114 191.016 198.148 191.088 198.21C191.419 198.62 191.6 199.116 191.606 199.626C191.112 199.271 190.514 198.498 190.594 198.227C190.594 198.199 190.594 198.131 190.767 198.114H190.822Z" fill="#4F772D"/>
<path d="M161.645 196.016C161.667 196.011 161.686 196.001 161.703 195.987C161.719 195.973 161.731 195.956 161.738 195.937C161.744 195.915 161.743 195.893 161.736 195.872C161.728 195.851 161.714 195.832 161.694 195.818C161.491 195.683 159.677 194.498 159.03 194.718C158.97 194.739 158.916 194.773 158.874 194.817C158.832 194.862 158.803 194.915 158.789 194.972C158.759 195.069 158.756 195.171 158.779 195.27C158.803 195.368 158.853 195.46 158.925 195.536C159.387 196.044 160.819 196.067 161.633 196.033L161.645 196.016ZM159.178 194.888C159.566 194.826 160.572 195.345 161.287 195.79C160.183 195.79 159.381 195.649 159.122 195.361C159.077 195.312 159.046 195.253 159.032 195.19C159.018 195.127 159.021 195.062 159.042 195C159.045 194.978 159.054 194.957 159.07 194.939C159.085 194.921 159.105 194.907 159.128 194.899L159.178 194.888Z" fill="#4F772D"/>
<path d="M161.645 196.016H161.682C161.7 196.007 161.714 195.994 161.725 195.978C161.736 195.962 161.742 195.944 161.744 195.926C161.744 195.875 161.818 194.651 161.275 194.092C161.198 194.011 161.103 193.945 160.997 193.899C160.891 193.852 160.776 193.826 160.658 193.822C160.337 193.822 160.22 193.94 160.177 194.059C160.004 194.549 161.01 195.683 161.565 196.01C161.591 196.017 161.618 196.019 161.645 196.016ZM160.529 194.03H160.646C160.732 194.033 160.817 194.053 160.894 194.088C160.972 194.123 161.041 194.173 161.096 194.233C161.398 194.673 161.543 195.187 161.509 195.706C160.966 195.288 160.276 194.414 160.405 194.121C160.411 194.092 160.424 194.047 160.529 194.03Z" fill="#4F772D"/>
<path d="M212.579 65.6682C213.35 67.1517 213.979 68.5675 214.627 70.034C215.275 71.5006 215.861 72.9727 216.404 74.4675C217.537 77.5031 218.42 80.6123 219.044 83.7688C219.185 84.5923 219.327 85.4046 219.401 86.2563L219.469 86.888V87.046V87.3675C219.485 87.5948 219.485 87.8227 219.469 88.05C219.356 88.9827 218.968 89.8698 218.347 90.6164C217.85 91.1974 217.242 91.6905 216.552 92.0717C216.022 92.3637 215.462 92.6074 214.88 92.7993C213.909 93.1172 212.904 93.3385 211.882 93.4593C210.077 93.6796 208.253 93.7419 206.435 93.6454C204.677 93.5693 202.927 93.3808 201.198 93.0814L201.396 89.697C204.52 89.4216 207.614 88.9142 210.648 88.1797C211.267 88.0069 211.868 87.7841 212.443 87.5141C212.925 87.2998 213.196 86.9783 213.005 87.0854C212.881 87.213 212.798 87.3691 212.764 87.5367C212.764 87.5762 212.764 87.6213 212.764 87.6495V87.6833V87.5593L212.665 87.0572C212.554 86.3917 212.376 85.7091 212.209 85.0266C211.851 83.6616 211.432 82.274 210.938 80.8921C210.445 79.5102 209.927 78.1169 209.378 76.7406C208.829 75.3644 208.23 73.9768 207.644 72.6005C207.058 71.2242 206.411 69.831 205.794 68.5336L212.579 65.6682Z" fill="#FFC3BD"/>
<path d="M211.784 62.9154C214.344 64.1845 216.102 71.8105 216.102 71.8105L208.515 76.0748C208.515 76.0748 206.553 72.5551 205.11 69.6502C202.371 64.1055 206.738 60.4222 211.784 62.9154Z" fill="#263238"/>
<path d="M202.038 89.6181L197.048 89.4207L199.238 93.7639C199.238 93.7639 203.944 93.5044 203.321 91.4456L202.038 89.6181Z" fill="#FFC3BD"/>
<path d="M193.759 92.4098L196.245 95.2414L199.255 93.741L197.04 89.4147L193.759 92.4098Z" fill="#FFC3BD"/>
<path d="M77.4539 68.4493C77.7561 69.8877 78.0707 71.4332 78.484 72.911C78.8973 74.3889 79.2612 75.8949 79.7177 77.3614C79.9398 78.1004 80.1803 78.8336 80.4271 79.5556C80.6738 80.2776 80.9206 81.0052 81.1858 81.7272C81.451 82.4492 81.7286 83.1543 82.0309 83.8481C82.1789 84.2034 82.327 84.5532 82.4935 84.8916L82.7341 85.4049L82.8575 85.6587L82.9191 85.7884V85.8561L82.8883 85.8054C82.839 85.732 82.7834 85.67 82.7032 85.5741C82.6141 85.4934 82.5193 85.418 82.4195 85.3485C82.2324 85.2329 82.0231 85.1506 81.8026 85.1059C81.4634 85.0665 81.4079 85.1059 81.4202 85.1059C81.6355 85.0526 81.8427 84.9749 82.0371 84.8747C82.6987 84.5461 83.33 84.1688 83.9246 83.7466C85.2138 82.8779 86.5092 81.8965 87.7737 80.8812C89.0383 79.8659 90.3151 78.828 91.5612 77.7676C92.8072 76.7071 94.0656 75.6298 95.3054 74.5637L97.2608 76.1431C96.2122 77.4348 95.1204 78.6588 94.0039 79.8884C92.8874 81.1181 91.7154 82.3026 90.5187 83.4871C89.2987 84.6865 88.0097 85.8256 86.6572 86.8996C85.9209 87.4866 85.1374 88.0221 84.3132 88.5016C83.7736 88.8149 83.1879 89.0561 82.5737 89.2179C82.0344 89.359 81.4675 89.3879 80.9144 89.3025C80.47 89.2329 80.0484 89.0729 79.6807 88.8343C79.314 88.6039 79.0084 88.3013 78.7863 87.9488L78.7122 87.8303L78.6629 87.7457L78.6259 87.6724L78.5519 87.537L78.3977 87.255L78.1016 86.6909C77.8918 86.3187 77.7068 85.9464 77.5279 85.5628C77.1455 84.8126 76.8062 84.0568 76.4731 83.3066C75.8131 81.7893 75.2394 80.2494 74.7089 78.6982C74.1784 77.1471 73.7096 75.5903 73.2963 74.0166C72.883 72.4429 72.5253 70.8917 72.2354 69.2221L77.4539 68.4493Z" fill="#B55B52"/>
<path d="M75.3802 63.2092C78.3595 63.7732 80.1854 77.1245 80.1854 77.1245L72.481 77.4178C72.481 77.4178 69.4893 69.1431 70.3837 65.8208C71.0314 63.401 72.2528 62.6395 75.3802 63.2092Z" fill="#4F772D"/>
<path d="M72.1685 76.9892C72.1335 77.3825 72.1881 77.7782 72.3288 78.1512C72.5139 78.4671 79.4781 77.7112 80.0456 77.5533C80.6131 77.3954 80.6624 76.4252 80.6624 76.239C80.6624 76.0529 72.1685 76.5042 72.1685 76.9892Z" fill="#4F772D"/>
<path opacity="0.1" d="M72.1685 76.9892C72.1335 77.3825 72.1881 77.7782 72.3288 78.1512C72.5139 78.4671 79.4781 77.7112 80.0456 77.5533C80.6131 77.3954 80.6624 76.4252 80.6624 76.239C80.6624 76.0529 72.1685 76.5042 72.1685 76.9892Z" fill="black"/>
<path opacity="0.2" d="M78.2989 77.1976L78.0337 76.2726L76.2325 69.91L75.6712 76.4249L75.5972 77.2992L75.5293 78.0776C76.5409 77.993 77.6142 77.8802 78.4655 77.7786L78.2989 77.1976Z" fill="black"/>
<path d="M94.542 75.7141L94.8257 73.7681L98.5947 73.1589C98.5947 73.1589 98.2061 76.1597 96.2136 76.8761L94.542 75.7141Z" fill="#B55B52"/>
<path d="M95.0288 70.9989L98.9211 70.7225L98.5941 73.1311L94.8252 73.7402L95.0288 70.9989Z" fill="#B55B52"/>
<path d="M70.0762 198.617H75.2207L75.9979 187.719H70.8534L70.0762 198.617Z" fill="#B55B52"/>
<path d="M40.1865 189.056L45.1953 190.133L49.5318 179.873L44.523 178.796L40.1865 189.056Z" fill="#B55B52"/>
<path d="M45.9706 189.744L40.7891 187.397C40.7007 187.356 40.5991 187.346 40.5028 187.367C40.4066 187.389 40.3221 187.442 40.2647 187.516L37.6246 191.007C37.5625 191.097 37.5217 191.198 37.5048 191.303C37.488 191.408 37.4955 191.515 37.527 191.617C37.5584 191.719 37.613 191.814 37.6872 191.896C37.7614 191.977 37.8536 192.043 37.9577 192.09C39.8083 192.88 40.7027 193.173 42.985 194.206C44.3853 194.837 47.7471 197.11 49.684 197.985C51.6209 198.859 52.6695 197.156 51.9478 196.637C49.6124 194.986 47.7672 192.825 46.5813 190.353C46.4611 190.091 46.2452 189.876 45.9706 189.744Z" fill="#263238"/>
<path d="M75.6155 198.07H69.8357C69.7359 198.069 69.6392 198.1 69.5632 198.16C69.4873 198.219 69.4372 198.301 69.4224 198.391L68.7623 202.576C68.7502 202.682 68.7626 202.789 68.7986 202.89C68.8347 202.991 68.8936 203.084 68.9716 203.163C69.0496 203.241 69.1449 203.304 69.2513 203.347C69.3577 203.39 69.4727 203.412 69.5889 203.411C71.606 203.377 72.5745 203.27 75.1405 203.27C76.7073 203.27 79.9396 203.417 82.0986 203.417C84.2575 203.417 84.3747 201.465 83.4741 201.29C79.4461 200.495 77.8547 199.401 76.4976 198.357C76.2505 198.168 75.9376 198.066 75.6155 198.07Z" fill="#263238"/>
<g opacity="0.2">
<path opacity="0.2" d="M75.9986 187.719L75.5976 193.337H70.4531L70.8541 187.719H75.9986Z" fill="black"/>
<path opacity="0.2" d="M44.5214 178.796L49.5302 179.879L47.143 185.519L42.2822 184.087L44.5214 178.796Z" fill="black"/>
</g>
<path d="M75.3783 63.2091C75.3783 63.2091 77.8889 63.8408 75.1069 91.6939L54.276 93.0364C54.0293 85.2524 53.6592 80.4692 48.3975 64.8336C51.2719 64.0944 54.2015 63.5477 57.1629 63.1978C60.2921 62.7789 63.4504 62.5678 66.613 62.566C70.7026 62.645 75.3783 63.2091 75.3783 63.2091Z" fill="#4F772D"/>
<path opacity="0.2" d="M49.8269 68.5901L49.7158 68.8665C52.0783 76.2331 53.1578 80.8527 53.6883 84.8518C54.6022 83.4469 55.1273 81.8592 55.2181 80.2266C55.5512 74.586 52.6397 68.9454 49.8269 68.5901Z" fill="black"/>
<path d="M51.5341 45.2213C49.5417 46.8684 51.6019 48.9159 51.09 51.0142C50.578 53.1125 51.7068 53.6145 51.4971 54.9626C51.333 56.2659 50.8751 57.5239 50.1523 58.6571C50.1523 58.6571 67.9854 60.0391 71.4151 57.529C73.1299 56.2768 69.1204 51.1101 69.7002 49.1641C70.2801 47.2181 71.9024 44.6516 69.9716 42.0795C67.5043 38.808 60.1514 36.6928 54.3469 41.1714C50.4053 41.6847 51.5341 45.2213 51.5341 45.2213Z" fill="#263238"/>
<path d="M57.7217 53.3663C58.5359 56.1133 60.1891 61.5677 58.1843 63.5645C58.1843 63.5645 60.3433 64.1285 63.3288 64.811C65.4878 63.8916 66.0244 63.1866 66.0244 63.1866C63.5571 62.583 63.4584 59.7345 63.884 57.546L57.7217 53.3663Z" fill="#B55B52"/>
<path d="M57.7216 63.1132C58.0485 62.5887 57.444 61.3083 57.3391 60.2253C57.2343 59.1423 58.4926 59.4525 59.9854 59.7797C61.4782 60.1068 65.2841 58.6516 65.4383 59.8981C65.5925 61.1447 65.6912 62.6225 66.2587 62.8368C66.8262 63.0512 65.8701 64.6926 63.2732 65.2115C60.6763 65.7305 56.9814 64.2978 57.7216 63.1132Z" fill="#4F772D"/>
<path opacity="0.1" d="M57.9316 60.9474C59.8982 61.2618 61.9007 61.3452 63.8904 61.1956C63.0453 61.7089 59.5354 61.9909 57.9316 60.9474Z" fill="black"/>
<path opacity="0.2" d="M60.2382 55.0643L63.8837 57.5293C63.773 58.0422 63.7131 58.5633 63.7048 59.0861C62.3971 58.9958 60.2813 58.1159 59.8989 56.8298C59.72 56.2432 60.1456 55.3633 60.2382 55.0643Z" fill="black"/>
<path d="M53.8729 48.177C55.0141 52.729 55.3903 54.675 58.3574 56.6379C62.8233 59.6104 68.6834 57.3317 69.0535 52.5597C69.3866 48.2673 67.462 41.5437 62.2065 40.4607C61.0481 40.2159 59.8404 40.2463 58.6984 40.5491C57.5565 40.8519 56.5184 41.417 55.6829 42.1906C54.8474 42.9641 54.2425 43.9204 53.9256 44.9683C53.6088 46.0162 53.5906 47.1209 53.8729 48.177Z" fill="#B55B52"/>
<path d="M55.9772 40.9796C58.7715 40.2745 64.28 37.4768 68.0982 43.1964C67.7405 43.9804 63.9592 44.3245 63.9592 44.3245C63.9592 44.3245 63.4287 42.2995 62.3616 41.6565C62.7218 42.5998 62.9922 43.5698 63.1696 44.5557C63.1696 44.5557 58.6543 46.0166 56.5509 45.8869C54.4474 45.7572 53.4605 41.6114 55.9772 40.9796Z" fill="#263238"/>
<path d="M75.1094 91.6937C75.1094 91.6937 81.9379 127.59 82.6966 141.895C83.4923 156.808 76.6947 192.22 76.6947 192.22H69.7366C69.7366 192.22 71.7537 158.433 70.0142 143.852C68.1205 127.985 59.8301 92.6752 59.8301 92.6752L75.1094 91.6937Z" fill="#263238"/>
<path d="M69.1403 192.48H77.3011L77.8995 190.099L68.7578 189.806L69.1403 192.48Z" fill="#4F772D"/>
<path opacity="0.2" d="M66.8103 101.272C72.658 110.359 69.8945 127.782 68.5621 134.314C66.8966 124.77 64.4292 113.134 62.5479 104.594C62.9488 99.6698 64.1146 97.0807 66.8103 101.272Z" fill="black"/>
<path d="M69.602 92.0719C69.602 92.0719 67.7514 129.965 65.1298 142.273C61.9963 156.871 48.7772 184.397 48.7772 184.397L42.1338 182.191C42.1338 182.191 49.3941 153.424 51.6394 144.117C55.7168 127.196 49.5483 103.934 54.261 93.0703L69.602 92.0719Z" fill="#263238"/>
<path d="M41.0361 182.473L49.1847 185.26L51.0167 183.212L41.5851 179.535L41.0361 182.473Z" fill="#4F772D"/>
<path d="M62.1136 48.1825C62.1814 48.5548 62.4528 48.8255 62.7304 48.7861C63.008 48.7466 63.1622 48.4081 63.0944 48.0359C63.0265 47.6636 62.7551 47.3872 62.4775 47.4323C62.1999 47.4774 62.0457 47.8046 62.1136 48.1825Z" fill="#263238"/>
<path d="M66.7386 47.5114C66.8064 47.8837 67.0778 48.1545 67.3554 48.115C67.633 48.0755 67.7872 47.737 67.7194 47.3648C67.6515 46.9925 67.3801 46.7161 67.1025 46.7556C66.8249 46.7951 66.6707 47.1053 66.7386 47.5114Z" fill="#263238"/>
<path d="M66.9863 46.767L67.9239 46.3608C67.9239 46.3608 67.5477 47.1392 66.9863 46.767Z" fill="#263238"/>
<path d="M65.4385 48.3689C65.9539 49.1697 66.5892 49.9006 67.326 50.5405C67.142 50.7079 66.9203 50.8365 66.6763 50.9173C66.4323 50.9982 66.172 51.0294 65.9135 51.0087L65.4385 48.3689Z" fill="#A02724"/>
<path d="M63.9448 52.8136C64.1516 52.8128 64.358 52.7958 64.5617 52.7628C64.5771 52.7606 64.5918 52.7556 64.6051 52.7482C64.6184 52.7407 64.63 52.731 64.6391 52.7194C64.6483 52.7079 64.6549 52.6949 64.6585 52.681C64.6622 52.6672 64.6628 52.6528 64.6604 52.6387C64.6579 52.6246 64.6525 52.6111 64.6444 52.599C64.6362 52.5868 64.6256 52.5763 64.613 52.5679C64.6004 52.5595 64.5861 52.5535 64.5709 52.5501C64.5558 52.5468 64.5401 52.5462 64.5247 52.5485C64.0167 52.6344 63.4937 52.6103 62.9977 52.478C62.5017 52.3458 62.0466 52.1091 61.6687 51.787C61.6585 51.7738 61.6454 51.7627 61.6302 51.7546C61.615 51.7464 61.5981 51.7413 61.5806 51.7396C61.563 51.7379 61.5453 51.7397 61.5286 51.7448C61.5119 51.7499 61.4965 51.7583 61.4836 51.7693C61.4707 51.7802 61.4606 51.7936 61.4538 51.8085C61.447 51.8234 61.4438 51.8394 61.4444 51.8555C61.445 51.8717 61.4493 51.8875 61.4572 51.9019C61.465 51.9164 61.4761 51.9291 61.4898 51.9393C61.8148 52.2271 62.1993 52.4527 62.6209 52.6028C63.0425 52.7529 63.4926 52.8246 63.9448 52.8136Z" fill="#263238"/>
<path d="M55.4393 51.3921C57.8512 48.758 58.647 44.3865 55.3098 41.6847C53.1508 43.6815 51.2448 49.7676 55.4393 51.3921Z" fill="#263238"/>
<path d="M53.0437 51.99C53.4802 52.7989 54.2466 53.4187 55.178 53.716C56.4117 54.0939 57.1026 53.0955 56.8126 51.99C56.5536 50.9972 55.5789 49.6096 54.3452 49.7055C54.0672 49.731 53.8004 49.8194 53.569 49.9626C53.3375 50.1059 53.1488 50.2996 53.0196 50.5262C52.8905 50.7529 52.8251 51.0053 52.8293 51.2609C52.8335 51.5164 52.9072 51.767 53.0437 51.99Z" fill="#B55B52"/>
<path d="M60.2692 47.0603C60.321 47.066 60.3733 47.0558 60.418 47.0313C60.4627 47.0068 60.4972 46.9694 60.516 46.9249C60.9663 45.983 62.3665 45.7066 62.4035 45.7009C62.4346 45.6956 62.4643 45.6846 62.4906 45.6685C62.5169 45.6524 62.5394 45.6316 62.5567 45.6073C62.574 45.5831 62.5857 45.5559 62.5912 45.5274C62.5967 45.4989 62.5958 45.4697 62.5886 45.4415C62.5842 45.4113 62.5731 45.3822 62.5558 45.3562C62.5386 45.3302 62.5156 45.3077 62.4883 45.2902C62.4611 45.2727 62.4301 45.2606 62.3975 45.2546C62.3649 45.2486 62.3312 45.2488 62.2987 45.2553C62.2308 45.2553 60.6147 45.5825 60.0657 46.7388C60.0524 46.7654 60.045 46.7942 60.0441 46.8234C60.0431 46.8527 60.0485 46.8818 60.06 46.9092C60.0715 46.9365 60.0888 46.9614 60.111 46.9825C60.1331 47.0036 60.1597 47.0205 60.1891 47.0321C60.2126 47.0478 60.2403 47.0575 60.2692 47.0603Z" fill="#263238"/>
<path d="M68.394 45.2045C68.4359 45.21 68.4787 45.2051 68.5178 45.1902C68.5569 45.1753 68.5909 45.151 68.6161 45.1198C68.6354 45.0966 68.6494 45.0701 68.6573 45.0418C68.6653 45.0136 68.667 44.9841 68.6624 44.9553C68.6578 44.9264 68.647 44.8987 68.6306 44.8736C68.6142 44.8486 68.5925 44.8269 68.5667 44.8096C68.2662 44.5868 67.9114 44.4336 67.5324 44.3629C67.1533 44.2922 66.7612 44.3061 66.3893 44.4035C66.3287 44.4229 66.2791 44.4636 66.2514 44.5165C66.2236 44.5694 66.2199 44.6302 66.2412 44.6855C66.2625 44.7409 66.3069 44.7862 66.3648 44.8116C66.4226 44.837 66.4891 44.8403 66.5496 44.8209C66.8459 44.7502 67.1562 44.7445 67.4552 44.8043C67.7543 44.8641 68.0337 44.9877 68.2706 45.165C68.3067 45.1888 68.3496 45.2026 68.394 45.2045Z" fill="#263238"/>
<path d="M48.11 191.385H48.1717C48.2842 191.354 48.3859 191.296 48.4669 191.218C48.5479 191.14 48.6056 191.044 48.6343 190.94C48.6611 190.877 48.6694 190.809 48.6586 190.743C48.6478 190.677 48.6181 190.614 48.5726 190.562C48.1532 190.094 46.3088 190.291 46.1053 190.313C46.0807 190.314 46.0571 190.322 46.0381 190.337C46.0191 190.351 46.0058 190.371 46.0004 190.392C45.994 190.414 45.9947 190.437 46.0024 190.458C46.0101 190.479 46.0244 190.497 46.0436 190.511C46.5247 190.878 47.4932 191.498 48.11 191.385ZM46.4198 190.488C47.1601 190.432 48.1655 190.438 48.3814 190.686C48.3992 190.71 48.4087 190.738 48.4087 190.768C48.4087 190.797 48.3992 190.825 48.3814 190.849C48.3647 190.92 48.3279 190.985 48.2749 191.039C48.2218 191.092 48.1543 191.132 48.0792 191.154C47.7399 191.25 47.1292 190.996 46.4013 190.488H46.4198Z" fill="#4F772D"/>
<path d="M46.2903 190.494C46.9071 190.381 48.0113 189.93 48.1408 189.434C48.1669 189.348 48.1596 189.257 48.1202 189.176C48.0808 189.094 48.0118 189.028 47.9249 188.988C47.8462 188.942 47.7577 188.911 47.6652 188.899C47.5727 188.886 47.4783 188.892 47.3882 188.915C46.6665 189.095 46.0065 190.302 45.9757 190.359C45.9654 190.375 45.96 190.394 45.96 190.412C45.96 190.431 45.9654 190.45 45.9757 190.466C45.9871 190.482 46.0027 190.495 46.021 190.504C46.0393 190.513 46.0598 190.517 46.0805 190.517C46.151 190.515 46.2212 190.508 46.2903 190.494ZM47.524 189.124C47.5744 189.112 47.6269 189.111 47.678 189.12C47.7291 189.128 47.7775 189.147 47.82 189.174C47.9557 189.253 47.9496 189.327 47.9372 189.377C47.8447 189.693 46.9503 190.144 46.3396 190.263C46.5863 189.874 47.0551 189.236 47.4869 189.135L47.524 189.124Z" fill="#4F772D"/>
<path d="M77.5449 198.893C77.9797 198.926 78.4142 198.825 78.7786 198.605C78.8634 198.535 78.9279 198.447 78.9667 198.349C79.0054 198.25 79.0171 198.145 79.0007 198.041C78.9958 197.98 78.974 197.921 78.9373 197.87C78.9006 197.818 78.8502 197.777 78.7909 197.748C78.1741 197.432 76.1138 198.391 75.8794 198.498C75.8575 198.51 75.84 198.528 75.829 198.549C75.818 198.57 75.8141 198.594 75.8177 198.617C75.8201 198.639 75.8305 198.66 75.8472 198.676C75.8639 198.692 75.8861 198.703 75.9102 198.707C76.4476 198.815 76.9949 198.878 77.5449 198.893ZM78.464 197.917C78.541 197.915 78.6174 197.93 78.6861 197.962C78.7115 197.972 78.7333 197.989 78.7486 198.01C78.7639 198.031 78.7722 198.055 78.7724 198.081C78.7826 198.146 78.775 198.213 78.7503 198.275C78.7255 198.337 78.6844 198.392 78.6305 198.436C78.316 198.696 77.4709 198.741 76.3297 198.566C76.9958 198.241 77.7175 198.021 78.464 197.917Z" fill="#4F772D"/>
<path d="M75.9477 198.729H75.9971C76.6139 198.475 77.8476 197.46 77.7304 196.924C77.7304 196.8 77.6132 196.642 77.274 196.614C77.1525 196.601 77.0292 196.611 76.9123 196.644C76.7954 196.677 76.6874 196.732 76.5954 196.806C75.9786 197.297 75.8305 198.566 75.8305 198.616C75.8271 198.636 75.8299 198.656 75.8387 198.674C75.8474 198.692 75.8618 198.707 75.8799 198.718C75.901 198.727 75.9244 198.731 75.9477 198.729ZM77.1814 196.817H77.2554C77.4775 196.817 77.4898 196.919 77.496 196.947C77.5515 197.268 76.7311 198.075 76.1081 198.408C76.1533 197.874 76.3822 197.366 76.762 196.958C76.8774 196.868 77.0237 196.818 77.1753 196.817H77.1814Z" fill="#4F772D"/>
<path d="M62.3604 47.4665L63.298 47.0604C63.298 47.0604 62.9155 47.8388 62.3604 47.4665Z" fill="#263238"/>
<path d="M53.8653 91.9364L53.4644 93.6793C53.3965 93.8147 53.5816 93.9388 53.8221 93.9219L75.2514 92.5456C75.4426 92.5456 75.5907 92.4384 75.5907 92.3312L75.6524 90.6109C75.6524 90.4924 75.4858 90.4021 75.2761 90.4134L54.1676 91.7728C54.1063 91.775 54.0466 91.7912 53.9939 91.8197C53.9411 91.8483 53.8969 91.8884 53.8653 91.9364Z" fill="white"/>
<path d="M56.938 93.9106L56.3705 93.9445C56.2595 93.9445 56.167 93.905 56.1731 93.8373L56.2657 91.5811C56.2657 91.519 56.3644 91.457 56.4754 91.4513L57.0429 91.4119C57.1539 91.4119 57.2403 91.457 57.2403 91.519L57.1478 93.7753C57.1416 93.843 57.0491 93.8994 56.938 93.9106Z" fill="#263238"/>
<path d="M73.7027 92.8335L73.1352 92.8673C73.0242 92.8673 72.9316 92.8278 72.9378 92.7602L73.0303 90.5039C73.0303 90.4419 73.129 90.3798 73.24 90.3742L73.8075 90.3347C73.9186 90.3347 74.0111 90.3742 74.0049 90.4419L73.9124 92.6981C73.9062 92.7658 73.8137 92.8222 73.7027 92.8335Z" fill="#263238"/>
<path d="M65.3831 93.369L64.8217 93.4029C64.7045 93.4029 64.6182 93.3634 64.6182 93.2957L64.7169 91.0395C64.7169 90.9774 64.8094 90.9154 64.9266 90.9097L65.4879 90.8702C65.6051 90.8702 65.6915 90.9154 65.6915 90.9774L65.5928 93.2336C65.5619 93.3013 65.4694 93.3577 65.3831 93.369Z" fill="#263238"/>
<path d="M51.6274 70.4683C51.8372 71.9066 52.0346 73.407 52.2875 74.8679C52.5404 76.3288 52.7624 77.8066 53.0647 79.245C53.367 80.6833 53.6815 82.1048 54.1133 83.419C54.2946 84.0098 54.5256 84.5868 54.8042 85.145C54.8659 85.2747 54.9214 85.3312 54.9708 85.4214C54.9967 85.4626 55.0255 85.5022 55.0571 85.5399C55.1698 85.6521 55.3062 85.7423 55.4581 85.805C55.9957 86.0319 56.5675 86.184 57.1544 86.2562C57.8731 86.3563 58.5987 86.4091 59.3257 86.4141C60.8941 86.4225 62.4616 86.3453 64.0199 86.1829C65.6114 86.0306 67.2152 85.8106 68.819 85.5455C70.4228 85.2804 72.0389 84.9814 73.6119 84.6994L74.4014 86.9556C72.8038 87.5479 71.2123 88.0273 69.59 88.4955C67.9677 88.9637 66.3207 89.336 64.6553 89.6688C62.9349 90.0216 61.1887 90.2591 59.4306 90.3795C58.4983 90.4413 57.5623 90.4413 56.6301 90.3795C55.5705 90.3127 54.5293 90.0918 53.5458 89.7252C52.9334 89.4884 52.3668 89.1627 51.868 88.7606C51.5991 88.5358 51.3514 88.2905 51.1278 88.0273C50.9551 87.7961 50.7577 87.5479 50.6343 87.3392C50.1369 86.554 49.7238 85.7266 49.4006 84.8686C48.828 83.3496 48.3603 81.7991 48.0004 80.2264C47.6303 78.6922 47.3219 77.1636 47.0504 75.635C46.779 74.1064 46.5631 72.5835 46.4336 71.0098L51.6274 70.4683Z" fill="#B55B52"/>
<path d="M48.3822 64.811C43.6386 66.0294 46.7229 81.3999 46.7229 81.3999L54.0757 79.5611C54.0757 79.5611 55.3773 71.3597 54.3101 68.9455C53.1998 66.4355 50.7817 64.1905 48.3822 64.811Z" fill="#4F772D"/>
<path d="M46.39 80.5425C46.4067 80.9502 46.5115 81.3509 46.6984 81.7214C46.9143 82.0147 53.4467 80.2154 53.9587 79.9672C54.4707 79.719 54.3967 78.6981 54.372 78.5232C54.3473 78.3483 46.3283 80.0462 46.39 80.5425Z" fill="#4F772D"/>
<path opacity="0.1" d="M46.39 80.5425C46.4067 80.9502 46.5115 81.3509 46.6984 81.7214C46.9143 82.0147 53.4467 80.2154 53.9587 79.9672C54.4707 79.719 54.3967 78.6981 54.372 78.5232C54.3473 78.3483 46.3283 80.0462 46.39 80.5425Z" fill="black"/>
<path d="M174.607 71.907C167.068 66.9205 157.671 64.8769 148.483 66.2256C139.296 67.5743 131.071 72.2048 125.617 79.0987C118.075 74.1441 108.691 72.1261 99.5244 73.487C90.3574 74.8478 82.1544 79.4766 76.7133 86.3586C71.2721 93.2407 69.0368 101.815 70.4972 110.201C71.9577 118.588 76.9947 126.103 84.5043 131.099L141.365 168.699L182.484 116.704C187.936 109.809 190.169 101.215 188.692 92.8139C187.215 84.4128 182.148 76.8923 174.607 71.907Z" fill="#4F772D"/>
<path opacity="0.2" d="M174.607 71.907C167.068 66.9205 157.671 64.8769 148.483 66.2256C139.296 67.5743 131.071 72.2048 125.617 79.0987C118.075 74.1441 108.691 72.1261 99.5244 73.487C90.3574 74.8478 82.1544 79.4766 76.7133 86.3586C71.2721 93.2407 69.0368 101.815 70.4972 110.201C71.9577 118.588 76.9947 126.103 84.5043 131.099L141.365 168.699L182.484 116.704C187.936 109.809 190.169 101.215 188.692 92.8139C187.215 84.4128 182.148 76.8923 174.607 71.907Z" fill="white"/>
<path d="M81.6678 85.3936L79.4533 88.8512L75.3574 87.96L77.757 83.707L81.6678 85.3936Z" fill="#B55B52"/>
<path d="M72.8386 84.7392L77.7733 83.7126L75.3738 87.9656C75.3738 87.9656 72.0675 88.0446 71.0127 86.3468L72.0243 85.2187C72.2299 84.9806 72.5164 84.8119 72.8386 84.7392Z" fill="#B55B52"/>
</svg>
