<svg width="21" height="20" viewBox="0 0 21 20" fill="none" xmlns="http://www.w3.org/2000/svg">
<g clip-path="url(#clip0_64_4031)">
<path d="M20.4894 10.1871C20.4894 9.36767 20.4214 8.76973 20.2741 8.14966H10.6992V11.848H16.3195C16.2062 12.7671 15.5943 14.1512 14.2345 15.0813L14.2155 15.2051L17.2429 17.4969L17.4526 17.5174C19.3789 15.7789 20.4894 13.221 20.4894 10.1871Z" fill="#4285F4"/>
<path d="M10.6992 19.9315C13.4527 19.9315 15.7643 19.0456 17.4527 17.5176L14.2346 15.0814C13.3734 15.6683 12.2176 16.078 10.6992 16.078C8.00241 16.078 5.7135 14.3396 4.89757 11.9368L4.77797 11.9467L1.63 14.3274L1.58884 14.4392C3.26585 17.6947 6.71059 19.9315 10.6992 19.9315Z" fill="#34A853"/>
<path d="M4.89754 11.9366C4.68225 11.3165 4.55765 10.6521 4.55765 9.96559C4.55765 9.27902 4.68225 8.61467 4.88621 7.9946L4.88051 7.86254L1.6931 5.4436L1.58882 5.49208C0.897637 6.84299 0.501038 8.36002 0.501038 9.96559C0.501038 11.5712 0.897637 13.0881 1.58882 14.439L4.89754 11.9366Z" fill="#FBBC05"/>
<path d="M10.6992 3.85336C12.6142 3.85336 13.9059 4.66168 14.6425 5.33718L17.5206 2.59107C15.753 0.985496 13.4527 0 10.6992 0C6.71057 0 3.26585 2.23672 1.58884 5.49214L4.88623 7.99466C5.71349 5.59183 8.00239 3.85336 10.6992 3.85336Z" fill="#EB4335"/>
</g>
<defs>
<clipPath id="clip0_64_4031">
<rect width="20" height="20" fill="white" transform="translate(0.5)"/>
</clipPath>
</defs>
</svg>
