<svg width="380" height="424" viewBox="0 0 380 424" fill="none" xmlns="http://www.w3.org/2000/svg">
<path d="M90.9375 419L93.3594 407.578H94.1562L91.8906 418.266H96.8281L96.6719 419H90.9375ZM101.891 419.156C101.333 419.156 100.826 419.039 100.367 418.805C99.9141 418.57 99.5521 418.214 99.2812 417.734C99.0156 417.255 98.8828 416.648 98.8828 415.914C98.8828 415.169 98.9896 414.464 99.2031 413.797C99.4167 413.13 99.7161 412.539 100.102 412.023C100.487 411.503 100.943 411.094 101.469 410.797C101.995 410.495 102.573 410.344 103.203 410.344C103.88 410.344 104.409 410.516 104.789 410.859C105.174 411.203 105.367 411.661 105.367 412.234C105.367 412.719 105.245 413.138 105 413.492C104.76 413.846 104.411 414.138 103.953 414.367C103.495 414.596 102.948 414.768 102.312 414.883C101.677 414.997 100.966 415.055 100.18 415.055H99.7422C99.7266 415.159 99.7135 415.289 99.7031 415.445C99.6927 415.596 99.6875 415.745 99.6875 415.891C99.6875 416.719 99.8932 417.357 100.305 417.805C100.716 418.247 101.292 418.469 102.031 418.469C102.469 418.469 102.87 418.411 103.234 418.297C103.604 418.177 103.945 418.044 104.258 417.898V418.609C103.961 418.76 103.612 418.891 103.211 419C102.81 419.104 102.37 419.156 101.891 419.156ZM99.8594 414.375H100.383C101.18 414.375 101.893 414.305 102.523 414.164C103.159 414.018 103.661 413.792 104.031 413.484C104.401 413.177 104.586 412.779 104.586 412.289C104.586 411.924 104.464 411.625 104.219 411.391C103.979 411.151 103.617 411.031 103.133 411.031C102.685 411.031 102.24 411.161 101.797 411.422C101.354 411.682 100.961 412.062 100.617 412.562C100.273 413.062 100.021 413.667 99.8594 414.375ZM108.453 419.156C107.911 419.156 107.49 419.023 107.188 418.758C106.885 418.492 106.734 418.086 106.734 417.539C106.734 417.393 106.745 417.234 106.766 417.062C106.786 416.891 106.818 416.714 106.859 416.531L107.992 411.156H106.727L106.828 410.695L108.141 410.438L108.844 408.461H109.367L108.93 410.508H111.367L111.227 411.156H108.789L107.656 416.508C107.62 416.674 107.589 416.839 107.562 417C107.542 417.161 107.531 417.312 107.531 417.453C107.531 417.766 107.609 418.016 107.766 418.203C107.922 418.385 108.182 418.477 108.547 418.477C108.781 418.477 108.992 418.458 109.18 418.422C109.372 418.385 109.56 418.336 109.742 418.273V418.922C109.586 418.979 109.396 419.031 109.172 419.078C108.953 419.13 108.714 419.156 108.453 419.156ZM111.938 411.492C112.156 411.102 112.375 410.674 112.594 410.211C112.812 409.747 113.013 409.286 113.195 408.828C113.383 408.37 113.534 407.953 113.648 407.578H114.422L114.5 407.734C114.339 408.146 114.154 408.57 113.945 409.008C113.737 409.445 113.513 409.875 113.273 410.297C113.034 410.719 112.789 411.117 112.539 411.492H111.938ZM115.797 419.156C115.255 419.156 114.781 419.096 114.375 418.977C113.974 418.857 113.643 418.727 113.383 418.586V417.797C113.68 417.974 114.039 418.133 114.461 418.273C114.883 418.409 115.326 418.477 115.789 418.477C116.315 418.477 116.742 418.404 117.07 418.258C117.398 418.112 117.641 417.911 117.797 417.656C117.958 417.396 118.039 417.096 118.039 416.758C118.039 416.456 117.969 416.203 117.828 416C117.688 415.797 117.49 415.615 117.234 415.453C116.984 415.286 116.695 415.112 116.367 414.93C115.997 414.721 115.667 414.516 115.375 414.312C115.083 414.109 114.854 413.878 114.688 413.617C114.521 413.352 114.438 413.029 114.438 412.648C114.438 412.138 114.56 411.714 114.805 411.375C115.055 411.036 115.393 410.781 115.82 410.609C116.247 410.432 116.729 410.344 117.266 410.344C117.771 410.344 118.227 410.396 118.633 410.5C119.039 410.604 119.391 410.727 119.688 410.867L119.43 411.539C119.159 411.404 118.836 411.286 118.461 411.188C118.091 411.089 117.69 411.039 117.258 411.039C116.669 411.039 116.182 411.167 115.797 411.422C115.417 411.677 115.227 412.07 115.227 412.602C115.227 412.867 115.292 413.096 115.422 413.289C115.557 413.477 115.747 413.648 115.992 413.805C116.242 413.961 116.534 414.13 116.867 414.312C117.216 414.51 117.542 414.711 117.844 414.914C118.146 415.117 118.388 415.359 118.57 415.641C118.758 415.917 118.852 416.271 118.852 416.703C118.852 417.188 118.737 417.615 118.508 417.984C118.284 418.354 117.943 418.643 117.484 418.852C117.031 419.055 116.469 419.156 115.797 419.156ZM124.961 419L127.383 407.578H128.188L127.109 412.641H133.203L134.281 407.578H135.07L132.656 419H131.859L133.055 413.375H126.953L125.766 419H124.961ZM139.016 419.156C138.458 419.156 137.951 419.039 137.492 418.805C137.039 418.57 136.677 418.214 136.406 417.734C136.141 417.255 136.008 416.648 136.008 415.914C136.008 415.169 136.115 414.464 136.328 413.797C136.542 413.13 136.841 412.539 137.227 412.023C137.612 411.503 138.068 411.094 138.594 410.797C139.12 410.495 139.698 410.344 140.328 410.344C141.005 410.344 141.534 410.516 141.914 410.859C142.299 411.203 142.492 411.661 142.492 412.234C142.492 412.719 142.37 413.138 142.125 413.492C141.885 413.846 141.536 414.138 141.078 414.367C140.62 414.596 140.073 414.768 139.438 414.883C138.802 414.997 138.091 415.055 137.305 415.055H136.867C136.852 415.159 136.839 415.289 136.828 415.445C136.818 415.596 136.812 415.745 136.812 415.891C136.812 416.719 137.018 417.357 137.43 417.805C137.841 418.247 138.417 418.469 139.156 418.469C139.594 418.469 139.995 418.411 140.359 418.297C140.729 418.177 141.07 418.044 141.383 417.898V418.609C141.086 418.76 140.737 418.891 140.336 419C139.935 419.104 139.495 419.156 139.016 419.156ZM136.984 414.375H137.508C138.305 414.375 139.018 414.305 139.648 414.164C140.284 414.018 140.786 413.792 141.156 413.484C141.526 413.177 141.711 412.779 141.711 412.289C141.711 411.924 141.589 411.625 141.344 411.391C141.104 411.151 140.742 411.031 140.258 411.031C139.81 411.031 139.365 411.161 138.922 411.422C138.479 411.682 138.086 412.062 137.742 412.562C137.398 413.062 137.146 413.667 136.984 414.375ZM143.492 419L146.07 406.844H146.859L144.281 419H143.492ZM146.328 422.758L148.922 410.508H149.578L149.227 412.492H149.273C149.492 412.138 149.758 411.799 150.07 411.477C150.388 411.148 150.75 410.88 151.156 410.672C151.562 410.458 152.013 410.352 152.508 410.352C153.008 410.352 153.438 410.471 153.797 410.711C154.161 410.945 154.443 411.286 154.641 411.734C154.844 412.177 154.945 412.708 154.945 413.328C154.945 413.891 154.885 414.451 154.766 415.008C154.646 415.56 154.471 416.086 154.242 416.586C154.013 417.081 153.724 417.523 153.375 417.914C153.026 418.299 152.622 418.604 152.164 418.828C151.711 419.047 151.201 419.156 150.633 419.156C150.154 419.156 149.753 419.068 149.43 418.891C149.107 418.708 148.849 418.477 148.656 418.195C148.469 417.909 148.333 417.609 148.25 417.297H148.203C148.167 417.583 148.117 417.901 148.055 418.25C147.992 418.599 147.93 418.917 147.867 419.203L147.109 422.758H146.328ZM150.609 418.469C151.068 418.469 151.482 418.372 151.852 418.18C152.221 417.982 152.547 417.714 152.828 417.375C153.115 417.031 153.354 416.638 153.547 416.195C153.74 415.753 153.885 415.286 153.984 414.797C154.083 414.307 154.133 413.812 154.133 413.312C154.133 412.594 153.974 412.036 153.656 411.641C153.339 411.24 152.88 411.039 152.281 411.039C151.964 411.039 151.651 411.107 151.344 411.242C151.042 411.372 150.753 411.56 150.477 411.805C150.206 412.044 149.956 412.328 149.727 412.656C149.497 412.984 149.299 413.344 149.133 413.734C148.966 414.12 148.836 414.529 148.742 414.961C148.648 415.393 148.602 415.831 148.602 416.273C148.602 416.987 148.781 417.531 149.141 417.906C149.5 418.281 149.99 418.469 150.609 418.469ZM165.305 419.156C164.352 419.156 163.573 418.958 162.969 418.562C162.365 418.167 161.922 417.63 161.641 416.953C161.359 416.271 161.219 415.5 161.219 414.641C161.219 414.026 161.271 413.424 161.375 412.836C161.484 412.242 161.643 411.674 161.852 411.133C162.06 410.591 162.32 410.094 162.633 409.641C162.951 409.188 163.318 408.794 163.734 408.461C164.156 408.122 164.625 407.862 165.141 407.68C165.661 407.492 166.234 407.398 166.859 407.398C168.083 407.398 169.052 407.776 169.766 408.531C170.484 409.286 170.844 410.404 170.844 411.883C170.844 412.388 170.799 412.917 170.711 413.469C170.628 414.021 170.495 414.57 170.312 415.117C170.13 415.659 169.893 416.172 169.602 416.656C169.315 417.141 168.966 417.57 168.555 417.945C168.148 418.32 167.674 418.617 167.133 418.836C166.596 419.049 165.987 419.156 165.305 419.156ZM165.336 418.438C165.888 418.438 166.385 418.341 166.828 418.148C167.276 417.956 167.672 417.69 168.016 417.352C168.365 417.013 168.664 416.628 168.914 416.195C169.164 415.763 169.37 415.302 169.531 414.812C169.693 414.323 169.812 413.828 169.891 413.328C169.969 412.823 170.008 412.339 170.008 411.875C170.008 410.708 169.737 409.792 169.195 409.125C168.659 408.458 167.859 408.125 166.797 408.125C166.245 408.125 165.742 408.216 165.289 408.398C164.841 408.576 164.44 408.823 164.086 409.141C163.737 409.458 163.435 409.828 163.18 410.25C162.924 410.672 162.714 411.125 162.547 411.609C162.38 412.094 162.255 412.591 162.172 413.102C162.094 413.612 162.055 414.117 162.055 414.617C162.055 415.378 162.172 416.044 162.406 416.617C162.646 417.19 163.008 417.638 163.492 417.961C163.977 418.279 164.591 418.438 165.336 418.438ZM174 419.156C173.458 419.156 173.036 419.023 172.734 418.758C172.432 418.492 172.281 418.086 172.281 417.539C172.281 417.393 172.292 417.234 172.312 417.062C172.333 416.891 172.365 416.714 172.406 416.531L173.539 411.156H172.273L172.375 410.695L173.688 410.438L174.391 408.461H174.914L174.477 410.508H176.914L176.773 411.156H174.336L173.203 416.508C173.167 416.674 173.135 416.839 173.109 417C173.089 417.161 173.078 417.312 173.078 417.453C173.078 417.766 173.156 418.016 173.312 418.203C173.469 418.385 173.729 418.477 174.094 418.477C174.328 418.477 174.539 418.458 174.727 418.422C174.919 418.385 175.107 418.336 175.289 418.273V418.922C175.133 418.979 174.943 419.031 174.719 419.078C174.5 419.13 174.26 419.156 174 419.156ZM177.016 419L179.586 406.844H180.375L179.688 410.047C179.63 410.312 179.568 410.586 179.5 410.867C179.438 411.148 179.372 411.427 179.305 411.703C179.237 411.974 179.172 412.237 179.109 412.492H179.156C179.349 412.174 179.599 411.852 179.906 411.523C180.214 411.195 180.578 410.919 181 410.695C181.427 410.466 181.904 410.352 182.43 410.352C182.888 410.352 183.276 410.432 183.594 410.594C183.917 410.75 184.164 410.984 184.336 411.297C184.508 411.609 184.594 412 184.594 412.469C184.594 412.641 184.578 412.826 184.547 413.023C184.521 413.216 184.487 413.417 184.445 413.625L183.305 419H182.516L183.672 413.531C183.719 413.333 183.75 413.154 183.766 412.992C183.786 412.826 183.797 412.68 183.797 412.555C183.797 412.044 183.664 411.664 183.398 411.414C183.133 411.164 182.75 411.039 182.25 411.039C181.745 411.039 181.247 411.201 180.758 411.523C180.273 411.841 179.846 412.289 179.477 412.867C179.107 413.44 178.839 414.109 178.672 414.875L177.805 419H177.016ZM189.453 419.156C188.896 419.156 188.388 419.039 187.93 418.805C187.477 418.57 187.115 418.214 186.844 417.734C186.578 417.255 186.445 416.648 186.445 415.914C186.445 415.169 186.552 414.464 186.766 413.797C186.979 413.13 187.279 412.539 187.664 412.023C188.049 411.503 188.505 411.094 189.031 410.797C189.557 410.495 190.135 410.344 190.766 410.344C191.443 410.344 191.971 410.516 192.352 410.859C192.737 411.203 192.93 411.661 192.93 412.234C192.93 412.719 192.807 413.138 192.562 413.492C192.323 413.846 191.974 414.138 191.516 414.367C191.057 414.596 190.51 414.768 189.875 414.883C189.24 414.997 188.529 415.055 187.742 415.055H187.305C187.289 415.159 187.276 415.289 187.266 415.445C187.255 415.596 187.25 415.745 187.25 415.891C187.25 416.719 187.456 417.357 187.867 417.805C188.279 418.247 188.854 418.469 189.594 418.469C190.031 418.469 190.432 418.411 190.797 418.297C191.167 418.177 191.508 418.044 191.82 417.898V418.609C191.523 418.76 191.174 418.891 190.773 419C190.372 419.104 189.932 419.156 189.453 419.156ZM187.422 414.375H187.945C188.742 414.375 189.456 414.305 190.086 414.164C190.721 414.018 191.224 413.792 191.594 413.484C191.964 413.177 192.148 412.779 192.148 412.289C192.148 411.924 192.026 411.625 191.781 411.391C191.542 411.151 191.18 411.031 190.695 411.031C190.247 411.031 189.802 411.161 189.359 411.422C188.917 411.682 188.523 412.062 188.18 412.562C187.836 413.062 187.583 413.667 187.422 414.375ZM193.938 419L195.734 410.508H196.391L196.047 412.484H196.094C196.281 412.182 196.516 411.867 196.797 411.539C197.078 411.211 197.404 410.932 197.773 410.703C198.148 410.474 198.568 410.359 199.031 410.359C199.198 410.359 199.362 410.372 199.523 410.398C199.685 410.419 199.833 410.451 199.969 410.492L199.797 411.203C199.677 411.172 199.547 411.146 199.406 411.125C199.271 411.104 199.122 411.094 198.961 411.094C198.581 411.094 198.211 411.195 197.852 411.398C197.492 411.602 197.161 411.88 196.859 412.234C196.557 412.589 196.297 412.992 196.078 413.445C195.865 413.893 195.703 414.367 195.594 414.867L194.727 419H193.938ZM205.039 419L204.578 410.508H205.352L205.617 415.945C205.643 416.419 205.654 416.831 205.648 417.18C205.648 417.529 205.646 417.841 205.641 418.117H205.68C205.758 417.93 205.841 417.729 205.93 417.516C206.023 417.302 206.128 417.076 206.242 416.836C206.357 416.591 206.487 416.328 206.633 416.047L209.406 410.508H210.18L210.672 415.945C210.698 416.346 210.719 416.732 210.734 417.102C210.755 417.466 210.766 417.805 210.766 418.117H210.805C210.878 417.909 210.958 417.69 211.047 417.461C211.141 417.232 211.247 416.982 211.367 416.711C211.487 416.435 211.62 416.133 211.766 415.805L214.242 410.508H215.07L211.078 419H210.211L209.719 413.367C209.698 413.148 209.682 412.943 209.672 412.75C209.661 412.552 209.654 412.352 209.648 412.148C209.643 411.94 209.638 411.711 209.633 411.461H209.594C209.505 411.68 209.417 411.885 209.328 412.078C209.245 412.271 209.156 412.466 209.062 412.664C208.974 412.857 208.87 413.073 208.75 413.312L205.891 419H205.039ZM215.047 419L216.844 410.508H217.633L215.836 419H215.047ZM217.727 408.656C217.57 408.656 217.443 408.615 217.344 408.531C217.25 408.443 217.203 408.318 217.203 408.156C217.203 408.026 217.227 407.901 217.273 407.781C217.326 407.661 217.401 407.565 217.5 407.492C217.599 407.414 217.719 407.375 217.859 407.375C218.031 407.375 218.156 407.422 218.234 407.516C218.312 407.604 218.352 407.719 218.352 407.859C218.352 408.073 218.292 408.26 218.172 408.422C218.052 408.578 217.904 408.656 217.727 408.656ZM220.75 419.156C220.208 419.156 219.786 419.023 219.484 418.758C219.182 418.492 219.031 418.086 219.031 417.539C219.031 417.393 219.042 417.234 219.062 417.062C219.083 416.891 219.115 416.714 219.156 416.531L220.289 411.156H219.023L219.125 410.695L220.438 410.438L221.141 408.461H221.664L221.227 410.508H223.664L223.523 411.156H221.086L219.953 416.508C219.917 416.674 219.885 416.839 219.859 417C219.839 417.161 219.828 417.312 219.828 417.453C219.828 417.766 219.906 418.016 220.062 418.203C220.219 418.385 220.479 418.477 220.844 418.477C221.078 418.477 221.289 418.458 221.477 418.422C221.669 418.385 221.857 418.336 222.039 418.273V418.922C221.883 418.979 221.693 419.031 221.469 419.078C221.25 419.13 221.01 419.156 220.75 419.156ZM223.766 419L226.336 406.844H227.125L226.438 410.047C226.38 410.312 226.318 410.586 226.25 410.867C226.188 411.148 226.122 411.427 226.055 411.703C225.987 411.974 225.922 412.237 225.859 412.492H225.906C226.099 412.174 226.349 411.852 226.656 411.523C226.964 411.195 227.328 410.919 227.75 410.695C228.177 410.466 228.654 410.352 229.18 410.352C229.638 410.352 230.026 410.432 230.344 410.594C230.667 410.75 230.914 410.984 231.086 411.297C231.258 411.609 231.344 412 231.344 412.469C231.344 412.641 231.328 412.826 231.297 413.023C231.271 413.216 231.237 413.417 231.195 413.625L230.055 419H229.266L230.422 413.531C230.469 413.333 230.5 413.154 230.516 412.992C230.536 412.826 230.547 412.68 230.547 412.555C230.547 412.044 230.414 411.664 230.148 411.414C229.883 411.164 229.5 411.039 229 411.039C228.495 411.039 227.997 411.201 227.508 411.523C227.023 411.841 226.596 412.289 226.227 412.867C225.857 413.44 225.589 414.109 225.422 414.875L224.555 419H223.766ZM238.867 419L238.336 407.578H239.102L239.461 415.617C239.477 415.977 239.484 416.346 239.484 416.727C239.484 417.102 239.479 417.466 239.469 417.82H239.516C239.651 417.482 239.794 417.128 239.945 416.758C240.096 416.388 240.276 415.99 240.484 415.562L244.289 407.578H245.086L245.562 415.555C245.589 415.93 245.604 416.326 245.609 416.742C245.62 417.154 245.625 417.526 245.625 417.859H245.672C245.755 417.641 245.841 417.411 245.93 417.172C246.018 416.932 246.115 416.688 246.219 416.438C246.323 416.182 246.432 415.919 246.547 415.648L250.164 407.578H251.016L245.812 419H245.039L244.539 410.438C244.529 410.229 244.518 410.026 244.508 409.828C244.497 409.625 244.49 409.427 244.484 409.234C244.484 409.042 244.484 408.852 244.484 408.664H244.445C244.346 408.945 244.247 409.206 244.148 409.445C244.049 409.68 243.93 409.948 243.789 410.25L239.641 419H238.867ZM253.766 419.156C253.208 419.156 252.701 419.039 252.242 418.805C251.789 418.57 251.427 418.214 251.156 417.734C250.891 417.255 250.758 416.648 250.758 415.914C250.758 415.169 250.865 414.464 251.078 413.797C251.292 413.13 251.591 412.539 251.977 412.023C252.362 411.503 252.818 411.094 253.344 410.797C253.87 410.495 254.448 410.344 255.078 410.344C255.755 410.344 256.284 410.516 256.664 410.859C257.049 411.203 257.242 411.661 257.242 412.234C257.242 412.719 257.12 413.138 256.875 413.492C256.635 413.846 256.286 414.138 255.828 414.367C255.37 414.596 254.823 414.768 254.188 414.883C253.552 414.997 252.841 415.055 252.055 415.055H251.617C251.602 415.159 251.589 415.289 251.578 415.445C251.568 415.596 251.562 415.745 251.562 415.891C251.562 416.719 251.768 417.357 252.18 417.805C252.591 418.247 253.167 418.469 253.906 418.469C254.344 418.469 254.745 418.411 255.109 418.297C255.479 418.177 255.82 418.044 256.133 417.898V418.609C255.836 418.76 255.487 418.891 255.086 419C254.685 419.104 254.245 419.156 253.766 419.156ZM251.734 414.375H252.258C253.055 414.375 253.768 414.305 254.398 414.164C255.034 414.018 255.536 413.792 255.906 413.484C256.276 413.177 256.461 412.779 256.461 412.289C256.461 411.924 256.339 411.625 256.094 411.391C255.854 411.151 255.492 411.031 255.008 411.031C254.56 411.031 254.115 411.161 253.672 411.422C253.229 411.682 252.836 412.062 252.492 412.562C252.148 413.062 251.896 413.667 251.734 414.375ZM258.242 419L260.82 406.844H261.609L259.031 419H258.242ZM260.391 422.844C260.219 422.844 260.039 422.826 259.852 422.789C259.664 422.758 259.513 422.721 259.398 422.68V421.977C259.544 422.029 259.701 422.07 259.867 422.102C260.029 422.133 260.185 422.148 260.336 422.148C260.716 422.148 261.018 422.005 261.242 421.719C261.466 421.432 261.638 421.021 261.758 420.484L263.727 411.156H262.242L262.32 410.719L263.867 410.492L264.102 409.391C264.201 408.938 264.326 408.547 264.477 408.219C264.633 407.885 264.818 407.612 265.031 407.398C265.25 407.18 265.508 407.018 265.805 406.914C266.107 406.81 266.453 406.758 266.844 406.758C267.099 406.758 267.344 406.784 267.578 406.836C267.812 406.883 268.01 406.94 268.172 407.008L267.953 407.656C267.792 407.589 267.617 407.536 267.43 407.5C267.247 407.458 267.057 407.438 266.859 407.438C266.297 407.438 265.862 407.591 265.555 407.898C265.253 408.206 265.029 408.716 264.883 409.43L264.656 410.508H266.539L266.414 411.156H264.523L262.523 420.578C262.414 421.083 262.263 421.503 262.07 421.836C261.883 422.174 261.651 422.427 261.375 422.594C261.099 422.76 260.771 422.844 260.391 422.844ZM269.055 419.156C268.565 419.156 268.146 419.036 267.797 418.797C267.448 418.557 267.182 418.216 267 417.773C266.818 417.326 266.727 416.794 266.727 416.18C266.727 415.612 266.786 415.049 266.906 414.492C267.031 413.935 267.211 413.409 267.445 412.914C267.685 412.414 267.977 411.971 268.32 411.586C268.664 411.201 269.06 410.898 269.508 410.68C269.956 410.456 270.448 410.344 270.984 410.344C271.438 410.344 271.815 410.44 272.117 410.633C272.419 410.82 272.656 411.057 272.828 411.344C273 411.63 273.125 411.919 273.203 412.211H273.258L273.711 410.508H274.336L272.539 419H271.898L272.25 417.016H272.211C272.008 417.333 271.747 417.659 271.43 417.992C271.117 418.32 270.758 418.596 270.352 418.82C269.951 419.044 269.518 419.156 269.055 419.156ZM269.266 418.469C269.714 418.469 270.167 418.307 270.625 417.984C271.089 417.656 271.503 417.214 271.867 416.656C272.232 416.094 272.492 415.461 272.648 414.758C272.721 414.44 272.771 414.159 272.797 413.914C272.828 413.669 272.844 413.443 272.844 413.234C272.844 412.547 272.682 412.01 272.359 411.625C272.036 411.234 271.594 411.039 271.031 411.039C270.594 411.039 270.193 411.135 269.828 411.328C269.464 411.521 269.141 411.786 268.859 412.125C268.578 412.464 268.339 412.852 268.141 413.289C267.948 413.727 267.799 414.193 267.695 414.688C267.591 415.182 267.539 415.682 267.539 416.188C267.539 416.906 267.685 417.466 267.977 417.867C268.268 418.268 268.698 418.469 269.266 418.469ZM275.297 419L277.094 410.508H277.75L277.406 412.484H277.453C277.641 412.182 277.875 411.867 278.156 411.539C278.438 411.211 278.763 410.932 279.133 410.703C279.508 410.474 279.927 410.359 280.391 410.359C280.557 410.359 280.721 410.372 280.883 410.398C281.044 410.419 281.193 410.451 281.328 410.492L281.156 411.203C281.036 411.172 280.906 411.146 280.766 411.125C280.63 411.104 280.482 411.094 280.32 411.094C279.94 411.094 279.57 411.195 279.211 411.398C278.852 411.602 278.521 411.88 278.219 412.234C277.917 412.589 277.656 412.992 277.438 413.445C277.224 413.893 277.062 414.367 276.953 414.867L276.086 419H275.297ZM284.812 419.156C284.255 419.156 283.747 419.039 283.289 418.805C282.836 418.57 282.474 418.214 282.203 417.734C281.938 417.255 281.805 416.648 281.805 415.914C281.805 415.169 281.911 414.464 282.125 413.797C282.339 413.13 282.638 412.539 283.023 412.023C283.409 411.503 283.865 411.094 284.391 410.797C284.917 410.495 285.495 410.344 286.125 410.344C286.802 410.344 287.331 410.516 287.711 410.859C288.096 411.203 288.289 411.661 288.289 412.234C288.289 412.719 288.167 413.138 287.922 413.492C287.682 413.846 287.333 414.138 286.875 414.367C286.417 414.596 285.87 414.768 285.234 414.883C284.599 414.997 283.888 415.055 283.102 415.055H282.664C282.648 415.159 282.635 415.289 282.625 415.445C282.615 415.596 282.609 415.745 282.609 415.891C282.609 416.719 282.815 417.357 283.227 417.805C283.638 418.247 284.214 418.469 284.953 418.469C285.391 418.469 285.792 418.411 286.156 418.297C286.526 418.177 286.867 418.044 287.18 417.898V418.609C286.883 418.76 286.534 418.891 286.133 419C285.732 419.104 285.292 419.156 284.812 419.156ZM282.781 414.375H283.305C284.102 414.375 284.815 414.305 285.445 414.164C286.081 414.018 286.583 413.792 286.953 413.484C287.323 413.177 287.508 412.779 287.508 412.289C287.508 411.924 287.385 411.625 287.141 411.391C286.901 411.151 286.539 411.031 286.055 411.031C285.607 411.031 285.161 411.161 284.719 411.422C284.276 411.682 283.883 412.062 283.539 412.562C283.195 413.062 282.943 413.667 282.781 414.375Z" fill="black"/>
<path d="M332.424 242.387C332.424 242.387 371.252 198.748 358.91 122.816C346.568 46.8845 283.161 18.9089 241.11 33.5237C199.059 48.1385 189.574 73.5757 155.23 88.1221C120.886 102.668 55.6244 92.6821 22.99 141.542C-9.6444 190.403 32.0188 271.366 85.0592 322.134C138.1 372.902 273.448 341.118 332.424 242.387Z" fill="#90A955"/>
<path opacity="0.7" d="M332.424 242.387C332.424 242.387 371.252 198.748 358.91 122.816C346.568 46.8845 283.161 18.9089 241.11 33.5237C199.059 48.1385 189.574 73.5757 155.23 88.1221C120.886 102.668 55.6244 92.6821 22.99 141.542C-9.6444 190.403 32.0188 271.366 85.0592 322.134C138.1 372.902 273.448 341.118 332.424 242.387Z" fill="white"/>
<path d="M29.07 251.454L38.684 343.55" stroke="#263238" stroke-linecap="round" stroke-linejoin="round"/>
<path d="M37.3084 330.524L33.0296 326.017" stroke="#263238" stroke-linecap="round" stroke-linejoin="round"/>
<path d="M34.4432 327.492C34.433 326.74 34.2623 325.999 33.9425 325.319C33.6227 324.639 33.1611 324.035 32.5888 323.547C31.3956 322.483 25.1104 319.838 24.5176 322.027C23.8716 324.459 30.3012 329.186 34.4432 327.492Z" fill="#90A955" stroke="#263238" stroke-linecap="round" stroke-linejoin="round"/>
<path d="M34.4432 327.492L28.462 323.768" stroke="#263238" stroke-linecap="round" stroke-linejoin="round"/>
<path d="M38.3724 340.678L34.1924 337.197" stroke="#263238" stroke-linecap="round" stroke-linejoin="round"/>
<path d="M35.606 338.671C35.5982 337.92 35.4294 337.179 35.1108 336.498C34.7922 335.818 34.3313 335.214 33.7592 334.727C32.566 333.655 26.2808 331.018 25.688 333.207C25.0344 335.631 31.464 340.358 35.606 338.671Z" fill="#90A955" stroke="#263238" stroke-linecap="round" stroke-linejoin="round"/>
<path d="M35.606 338.671L29.6248 334.939" stroke="#263238" stroke-linecap="round" stroke-linejoin="round"/>
<path d="M34.4052 302.541L30.1796 298.741" stroke="#263238" stroke-linecap="round" stroke-linejoin="round"/>
<path d="M31.5932 300.2C31.5854 299.448 31.4166 298.708 31.098 298.027C30.7794 297.347 30.3185 296.743 29.7464 296.255C28.5456 295.191 22.268 292.547 21.6676 294.735C21.0216 297.16 27.4512 301.902 31.5932 300.2Z" fill="#90A955" stroke="#263238" stroke-linecap="round" stroke-linejoin="round"/>
<path d="M31.5932 300.215L25.612 296.491" stroke="#263238" stroke-linecap="round" stroke-linejoin="round"/>
<path d="M35.5832 314.427L31.35 309.92" stroke="#263238" stroke-linecap="round" stroke-linejoin="round"/>
<path d="M32.7636 311.395C32.7534 310.643 32.5827 309.902 32.2629 309.222C31.9431 308.542 31.4815 307.938 30.9092 307.45C29.716 306.379 23.4308 303.741 22.838 305.93C22.192 308.355 28.6216 313.12 32.7636 311.395Z" fill="#90A955" stroke="#263238" stroke-linecap="round" stroke-linejoin="round"/>
<path d="M32.7636 311.395L26.7824 307.663" stroke="#263238" stroke-linecap="round" stroke-linejoin="round"/>
<path d="M32.5204 284.901L28.2872 280.584" stroke="#263238" stroke-linecap="round" stroke-linejoin="round"/>
<path d="M29.7008 282.059C29.6906 281.307 29.5199 280.566 29.2001 279.886C28.8803 279.206 28.4187 278.602 27.8464 278.114C26.6532 277.043 20.3756 274.406 19.7752 276.594C19.1292 279.019 25.5588 283.746 29.7008 282.059Z" fill="#90A955" stroke="#263238" stroke-linecap="round" stroke-linejoin="round"/>
<path d="M29.7008 282.059L23.7196 278.327" stroke="#263238" stroke-linecap="round" stroke-linejoin="round"/>
<path d="M30.4836 265.483L26.3796 262.344" stroke="#263238" stroke-linecap="round" stroke-linejoin="round"/>
<path d="M27.7932 263.819C27.7855 263.067 27.6166 262.326 27.298 261.646C26.9794 260.966 26.5185 260.361 25.9464 259.874C24.7532 258.81 18.468 256.166 17.8752 258.354C17.2216 260.786 23.6512 265.514 27.7932 263.819Z" fill="#90A955" stroke="#263238" stroke-linecap="round" stroke-linejoin="round"/>
<path d="M27.7932 263.819L21.812 260.095" stroke="#263238" stroke-linecap="round" stroke-linejoin="round"/>
<path d="M36.898 324.315L40.432 318.554" stroke="#263238" stroke-linecap="round" stroke-linejoin="round"/>
<path d="M39.3528 320.287C39.209 319.549 39.2234 318.788 39.395 318.056C39.5666 317.324 39.8916 316.636 40.3484 316.038C41.2984 314.754 46.8996 310.87 47.9484 312.915C49.0656 315.134 43.7532 321.085 39.3528 320.287Z" fill="#90A955" stroke="#263238" stroke-linecap="round" stroke-linejoin="round"/>
<path d="M39.3528 320.287L43.5632 316.335" stroke="#263238" stroke-linecap="round" stroke-linejoin="round"/>
<path d="M33.8276 294.903L37.3616 289.134" stroke="#263238" stroke-linecap="round" stroke-linejoin="round"/>
<path d="M36.2824 290.867C36.1368 290.13 36.1502 289.37 36.3219 288.639C36.4936 287.908 36.8196 287.221 37.278 286.626C38.228 285.334 42.598 282.104 43.6468 284.149C44.7792 286.368 40.6828 291.665 36.2824 290.867Z" fill="#90A955" stroke="#263238" stroke-linecap="round" stroke-linejoin="round"/>
<path d="M36.2824 290.867L41.6708 285.722" stroke="#263238" stroke-linecap="round" stroke-linejoin="round"/>
<path d="M32.4748 281.975L36.0164 276.207" stroke="#263238" stroke-linecap="round" stroke-linejoin="round"/>
<path d="M34.96 277.94C34.8119 277.203 34.8241 276.443 34.9959 275.711C35.1677 274.979 35.495 274.293 35.9556 273.699C36.898 272.407 42.4992 268.531 43.5556 270.568C44.65 272.787 39.3376 278.738 34.96 277.94Z" fill="#90A955" stroke="#263238" stroke-linecap="round" stroke-linejoin="round"/>
<path d="M34.9372 277.94L40.318 272.794" stroke="#263238" stroke-linecap="round" stroke-linejoin="round"/>
<path d="M30.4988 263.021L34.0328 257.26" stroke="#263238" stroke-linecap="round" stroke-linejoin="round"/>
<path d="M32.9536 258.993C32.808 258.256 32.8214 257.496 32.9931 256.765C33.1648 256.033 33.4908 255.347 33.9492 254.752C34.8992 253.46 40.5004 249.576 41.5492 251.621C42.674 253.84 37.354 259.791 32.9536 258.993Z" fill="#90A955" stroke="#263238" stroke-linecap="round" stroke-linejoin="round"/>
<path d="M32.9536 258.993L38.342 253.84" stroke="#263238" stroke-linecap="round" stroke-linejoin="round"/>
<path d="M28.9864 250.906C28.8408 250.169 28.8542 249.41 29.0259 248.678C29.1976 247.947 29.5236 247.261 29.982 246.666C30.932 245.374 36.5332 241.498 37.582 243.534C38.7068 245.754 33.3868 251.704 28.9864 250.906Z" fill="#90A955" stroke="#263238" stroke-linecap="round" stroke-linejoin="round"/>
<path d="M28.9864 250.906L34.3748 245.761" stroke="#263238" stroke-linecap="round" stroke-linejoin="round"/>
<path d="M29.298 251.127C28.5504 251.195 27.7968 251.103 27.0877 250.857C26.3786 250.61 25.7303 250.215 25.1864 249.698C24.0008 248.619 20.7252 242.637 22.8684 241.817C25.194 240.92 30.5596 246.84 29.298 251.127Z" fill="#90A955" stroke="#263238" stroke-linecap="round" stroke-linejoin="round"/>
<path d="M29.298 251.127L24.7456 245.237" stroke="#263238" stroke-linecap="round" stroke-linejoin="round"/>
<path d="M44.4372 224.968V343.322" stroke="#263238" stroke-linecap="round" stroke-linejoin="round"/>
<path d="M56.126 264.989L47.9484 343.778" stroke="#263238" stroke-linecap="round" stroke-linejoin="round"/>
<path d="M48.0852 343.201L45.7216 340.503" stroke="#263238" stroke-linecap="round" stroke-linejoin="round"/>
<path d="M45.7216 340.48C45.8672 339.743 45.8538 338.983 45.682 338.252C45.5103 337.521 45.1844 336.834 44.726 336.239C43.776 334.947 38.1748 331.071 37.126 333.116C36.0012 335.358 41.3212 341.308 45.7216 340.48Z" fill="#90A955" stroke="#263238" stroke-linecap="round" stroke-linejoin="round"/>
<path d="M45.7216 340.503L40.6372 335.624" stroke="#263238" stroke-linecap="round" stroke-linejoin="round"/>
<path d="M50.9656 315.142L47.462 312.216" stroke="#263238" stroke-linecap="round" stroke-linejoin="round"/>
<path d="M48.5564 313.226C48.702 312.489 48.6878 311.729 48.5147 310.997C48.3417 310.266 48.0138 309.58 47.5532 308.986C46.6032 307.694 41.002 303.818 39.9532 305.854C38.836 308.081 44.156 314.024 48.5564 313.226Z" fill="#90A955" stroke="#263238" stroke-linecap="round" stroke-linejoin="round"/>
<path d="M48.5564 313.226L43.472 308.347" stroke="#263238" stroke-linecap="round" stroke-linejoin="round"/>
<path d="M49.856 328.434L46.3144 322.673" stroke="#263238" stroke-linecap="round" stroke-linejoin="round"/>
<path d="M47.3936 324.406C47.5392 323.669 47.5258 322.909 47.3541 322.178C47.1824 321.447 46.8564 320.76 46.398 320.165C45.448 318.873 39.8468 314.997 38.798 317.034C37.6732 319.261 42.9932 325.204 47.3936 324.406Z" fill="#90A955" stroke="#263238" stroke-linecap="round" stroke-linejoin="round"/>
<path d="M47.3936 324.406L42.3092 319.527" stroke="#263238" stroke-linecap="round" stroke-linejoin="round"/>
<path d="M52.7364 297.228L49.362 293.337" stroke="#263238" stroke-linecap="round" stroke-linejoin="round"/>
<path d="M50.4412 295.062C50.5868 294.325 50.5726 293.565 50.3995 292.833C50.2265 292.102 49.8986 291.416 49.438 290.822C48.488 289.537 42.8868 285.654 41.838 287.698C40.7208 289.917 46.0408 295.868 50.4412 295.062Z" fill="#90A955" stroke="#263238" stroke-linecap="round" stroke-linejoin="round"/>
<path d="M50.4412 295.062L45.3568 290.191" stroke="#263238" stroke-linecap="round" stroke-linejoin="round"/>
<path d="M54.5072 280.159L51.2544 275.097" stroke="#263238" stroke-linecap="round" stroke-linejoin="round"/>
<path d="M52.3336 276.83C52.4792 276.093 52.465 275.332 52.2919 274.601C52.1189 273.869 51.791 273.183 51.3304 272.589C50.3804 271.297 44.7792 267.421 43.7304 269.458C42.6132 271.685 47.9332 277.628 52.3336 276.83Z" fill="#90A955" stroke="#263238" stroke-linecap="round" stroke-linejoin="round"/>
<path d="M52.3336 276.83L47.2492 271.951" stroke="#263238" stroke-linecap="round" stroke-linejoin="round"/>
<path d="M48.7768 337.904L53.428 332.986" stroke="#263238" stroke-linecap="round" stroke-linejoin="round"/>
<path d="M52.0144 334.461C52.0222 333.709 52.191 332.968 52.5096 332.288C52.8282 331.608 53.2891 331.003 53.8612 330.516C55.0544 329.452 61.3396 326.8 61.9324 328.996C62.586 331.421 56.1564 336.148 52.0144 334.461Z" fill="#90A955" stroke="#263238" stroke-linecap="round" stroke-linejoin="round"/>
<path d="M52.0144 334.461L58.3452 330.531" stroke="#263238" stroke-linecap="round" stroke-linejoin="round"/>
<path d="M51.832 308.484L56.4756 303.574" stroke="#263238" stroke-linecap="round" stroke-linejoin="round"/>
<path d="M55.0696 305.041C55.0773 304.29 55.2462 303.549 55.5648 302.868C55.8834 302.188 56.3443 301.584 56.9164 301.097C58.1096 300.033 64.3872 297.388 64.9876 299.577C65.6336 302.001 59.2116 306.736 55.0696 305.041Z" fill="#90A955" stroke="#263238" stroke-linecap="round" stroke-linejoin="round"/>
<path d="M55.0696 305.041L61.4004 301.12" stroke="#263238" stroke-linecap="round" stroke-linejoin="round"/>
<path d="M53.1772 295.556L57.8208 290.647" stroke="#263238" stroke-linecap="round" stroke-linejoin="round"/>
<path d="M56.4072 292.114C56.4193 291.363 56.5902 290.624 56.9085 289.944C57.2268 289.264 57.6853 288.659 58.254 288.169C59.4472 287.105 65.7324 284.46 66.3252 286.649C66.9788 289.074 60.5492 293.808 56.4072 292.114Z" fill="#90A955" stroke="#263238" stroke-linecap="round" stroke-linejoin="round"/>
<path d="M56.4072 292.113L62.738 288.192" stroke="#263238" stroke-linecap="round" stroke-linejoin="round"/>
<path d="M55.0848 275.637L59.7892 271.692" stroke="#263238" stroke-linecap="round" stroke-linejoin="round"/>
<path d="M58.3756 273.167C58.3833 272.415 58.5522 271.675 58.8708 270.994C59.1894 270.314 59.6503 269.709 60.2224 269.222C61.4156 268.151 67.7008 265.506 68.2936 267.702C68.9472 270.127 62.5176 274.854 58.3756 273.167Z" fill="#90A955" stroke="#263238" stroke-linecap="round" stroke-linejoin="round"/>
<path d="M58.3756 273.167L64.7064 269.238" stroke="#263238" stroke-linecap="round" stroke-linejoin="round"/>
<path d="M56.1564 264.434C56.1646 263.683 56.3337 262.942 56.6523 262.262C56.9709 261.582 57.4315 260.977 58.0032 260.49C59.1964 259.426 65.474 256.781 66.0744 258.97C66.7204 261.394 60.2984 266.129 56.1564 264.434Z" fill="#90A955" stroke="#263238" stroke-linecap="round" stroke-linejoin="round"/>
<path d="M56.1564 264.434L62.4872 260.513" stroke="#263238" stroke-linecap="round" stroke-linejoin="round"/>
<path d="M56.4148 264.716C55.6657 264.626 54.9447 264.375 54.3008 263.982C53.6569 263.588 53.1052 263.061 52.6832 262.436C51.7484 261.136 49.7724 254.615 52.0372 254.25C54.4996 253.893 58.52 260.779 56.4148 264.716Z" fill="#90A955" stroke="#263238" stroke-linecap="round" stroke-linejoin="round"/>
<path d="M56.4148 264.715L53.1696 258.012" stroke="#263238" stroke-linecap="round" stroke-linejoin="round"/>
<path d="M44.27 330.341L40.4244 325.204" stroke="#263238" stroke-linecap="round" stroke-linejoin="round"/>
<path d="M41.6784 326.8C41.7498 326.057 41.662 325.307 41.4209 324.601C41.1797 323.895 40.7908 323.248 40.28 322.704C39.2084 321.518 33.2348 318.235 32.4064 320.378C31.4792 322.704 37.3844 328.069 41.6784 326.8Z" fill="#90A955" stroke="#263238" stroke-linecap="round" stroke-linejoin="round"/>
<path d="M41.6784 326.815L36.1152 322.491" stroke="#263238" stroke-linecap="round" stroke-linejoin="round"/>
<path d="M44.4068 305.558L40.4244 301.849" stroke="#263238" stroke-linecap="round" stroke-linejoin="round"/>
<path d="M41.6784 303.46C41.7521 302.714 41.6655 301.96 41.4244 301.25C41.1832 300.539 40.793 299.889 40.28 299.341C39.2084 298.156 33.2348 294.88 32.4064 297.016C31.4792 299.341 37.3844 304.707 41.6784 303.46Z" fill="#90A955" stroke="#263238" stroke-linecap="round" stroke-linejoin="round"/>
<path d="M41.6784 303.46L36.1152 299.128" stroke="#263238" stroke-linecap="round" stroke-linejoin="round"/>
<path d="M44.536 279.786L40.4244 274.421" stroke="#263238" stroke-linecap="round" stroke-linejoin="round"/>
<path d="M41.6784 276.032C41.752 275.287 41.6653 274.534 41.4241 273.825C41.1829 273.116 40.7928 272.466 40.28 271.92C39.2084 270.735 33.2348 267.452 32.4064 269.595C31.4792 271.92 37.3844 277.286 41.6784 276.032Z" fill="#90A955" stroke="#263238" stroke-linecap="round" stroke-linejoin="round"/>
<path d="M41.6784 276.032L36.1152 271.708" stroke="#263238" stroke-linecap="round" stroke-linejoin="round"/>
<path d="M44.27 259.631L40.4244 256.166" stroke="#263238" stroke-linecap="round" stroke-linejoin="round"/>
<path d="M41.6784 257.777C41.7521 257.03 41.6655 256.276 41.4244 255.566C41.1832 254.856 40.793 254.205 40.28 253.658C39.2084 252.48 33.2348 249.196 32.4064 251.332C31.4792 253.658 37.3844 259.031 41.6784 257.777Z" fill="#90A955" stroke="#263238" stroke-linecap="round" stroke-linejoin="round"/>
<path d="M41.6784 257.777L36.1152 253.445" stroke="#263238" stroke-linecap="round" stroke-linejoin="round"/>
<path d="M44.4904 241.368L40.5004 238.442" stroke="#263238" stroke-linecap="round" stroke-linejoin="round"/>
<path d="M41.6784 239.438C41.752 238.692 41.6653 237.94 41.4241 237.231C41.1829 236.522 40.7928 235.872 40.28 235.326C39.2084 234.141 33.2348 230.857 32.4064 233.001C31.4792 235.326 37.3844 240.692 41.6784 239.438Z" fill="#90A955" stroke="#263238" stroke-linecap="round" stroke-linejoin="round"/>
<path d="M41.6784 239.438L36.1152 235.114" stroke="#263238" stroke-linecap="round" stroke-linejoin="round"/>
<path d="M45.2428 336.551L48.564 332.34" stroke="#263238" stroke-linecap="round" stroke-linejoin="round"/>
<path d="M47.31 333.952C47.2448 333.204 47.3384 332.452 47.5847 331.743C47.8309 331.034 48.2242 330.386 48.7388 329.84C49.818 328.654 55.7916 325.379 56.6124 327.514C57.5092 329.84 51.604 335.198 47.31 333.952Z" fill="#90A955" stroke="#263238" stroke-linecap="round" stroke-linejoin="round"/>
<path d="M47.31 333.952L53.2 329.392" stroke="#263238" stroke-linecap="round" stroke-linejoin="round"/>
<path d="M44.4448 300.557L48.564 295.184" stroke="#263238" stroke-linecap="round" stroke-linejoin="round"/>
<path d="M47.31 296.795C47.2414 296.048 47.3334 295.294 47.5798 294.585C47.8262 293.876 48.2214 293.228 48.7388 292.684C49.818 291.498 55.7916 288.215 56.6124 290.358C57.5092 292.684 51.604 298.049 47.31 296.795Z" fill="#90A955" stroke="#263238" stroke-linecap="round" stroke-linejoin="round"/>
<path d="M47.31 296.795L53.2 292.235" stroke="#263238" stroke-linecap="round" stroke-linejoin="round"/>
<path d="M44.4448 282.218L48.564 276.853" stroke="#263238" stroke-linecap="round" stroke-linejoin="round"/>
<path d="M47.31 278.464C47.2459 277.718 47.34 276.967 47.5863 276.259C47.8325 275.552 48.2252 274.905 48.7388 274.36C49.818 273.174 55.7916 269.899 56.6124 272.034C57.5092 274.36 51.604 279.68 47.31 278.464Z" fill="#90A955" stroke="#263238" stroke-linecap="round" stroke-linejoin="round"/>
<path d="M47.31 278.464L53.2 273.904" stroke="#263238" stroke-linecap="round" stroke-linejoin="round"/>
<path d="M44.4448 257.982L48.564 252.616" stroke="#263238" stroke-linecap="round" stroke-linejoin="round"/>
<path d="M47.31 254.227C47.2437 253.479 47.3368 252.725 47.583 252.015C47.8293 251.305 48.2232 250.655 48.7388 250.108C49.818 248.923 55.7916 245.647 56.6124 247.783C57.5092 250.108 51.604 255.481 47.31 254.227Z" fill="#90A955" stroke="#263238" stroke-linecap="round" stroke-linejoin="round"/>
<path d="M47.31 254.227L53.2 249.667" stroke="#263238" stroke-linecap="round" stroke-linejoin="round"/>
<path d="M44.6272 237.067L48.6552 233.92" stroke="#263238" stroke-linecap="round" stroke-linejoin="round"/>
<path d="M47.31 235.174C47.2415 234.423 47.3335 233.666 47.5798 232.953C47.8261 232.241 48.2212 231.588 48.7388 231.04C49.818 229.854 55.7916 226.579 56.6124 228.714C57.5092 231.04 51.604 236.421 47.31 235.174Z" fill="#90A955" stroke="#263238" stroke-linecap="round" stroke-linejoin="round"/>
<path d="M47.31 235.174L53.2 230.614" stroke="#263238" stroke-linecap="round" stroke-linejoin="round"/>
<path d="M44.2016 226.723C44.1313 225.977 44.2195 225.224 44.4605 224.514C44.7015 223.804 45.0898 223.153 45.6 222.604C46.6792 221.418 52.6528 218.143 53.4736 220.278C54.4008 222.604 48.4956 228 44.2016 226.723Z" fill="#90A955" stroke="#263238" stroke-linecap="round" stroke-linejoin="round"/>
<path d="M44.2016 226.723L50.0916 222.163" stroke="#263238" stroke-linecap="round" stroke-linejoin="round"/>
<path d="M44.4904 226.974C43.7388 226.964 42.998 226.793 42.3177 226.473C41.6374 226.153 41.0333 225.692 40.546 225.12C39.482 223.926 36.8448 217.641 39.026 217.048C41.4656 216.402 46.1852 222.832 44.4904 226.974Z" fill="#90A955" stroke="#263238" stroke-linecap="round" stroke-linejoin="round"/>
<path d="M44.4904 226.974L40.5688 220.635" stroke="#263238" stroke-linecap="round" stroke-linejoin="round"/>
<path opacity="0.2" d="M70.9156 119.761L113.856 126.715L184.019 117.04L236.33 130.933L289.096 119.16L338.018 212.732L259.175 231.336L183.517 223.539L95.0912 231.876L39.3528 209.646L70.9156 119.761Z" fill="black"/>
<path d="M58.7708 81.4417L106.134 89.1101L183.54 78.4397L241.239 93.7613L299.448 80.7729L353.423 184.004L266.448 204.524L182.985 195.921L85.4392 205.117L23.9552 180.599L58.7708 81.4417Z" fill="white" stroke="#263238" stroke-linecap="round" stroke-linejoin="round"/>
<path d="M67.7768 88.1069L104.774 94.7721L183.114 84.7781L242.448 98.7773L293.786 87.1113L337.797 180.234L263.538 198.702L183.525 191.026L86.108 197.782L39.5732 177.148L67.7768 88.1069Z" fill="#90A955" stroke="#263238" stroke-linecap="round" stroke-linejoin="round"/>
<g opacity="0.64">
<path opacity="0.64" d="M278.502 129.291L249.82 136.8H241.095C241.095 136.8 252.32 147.607 273.927 149.682C295.534 151.757 300.527 147.607 300.527 147.607L278.502 129.291Z" fill="white"/>
<path opacity="0.64" d="M153.816 91.4736L134.695 95.6308L132.202 102.281L144.256 99.788L141.345 114.745L155.481 113.088L157.974 96.0412L153.816 91.4736Z" fill="white"/>
<path opacity="0.64" d="M141.763 117.238L140.516 124.724L148.831 123.059V116.827L141.763 117.238Z" fill="white"/>
<path opacity="0.64" d="M136.777 117.238L135.113 125.552L118.902 127.634L119.32 121.813L136.777 117.238Z" fill="white"/>
<path opacity="0.64" d="M232.56 154.234C224.641 154.234 218.219 158.323 218.219 163.354C218.219 168.386 224.641 172.474 232.56 172.474C240.479 172.474 246.901 168.378 246.901 163.354C246.901 158.331 240.494 154.234 232.56 154.234ZM232.56 167.527C228.958 167.527 226.039 165.672 226.039 163.377C226.039 161.082 228.958 159.22 232.56 159.22C236.162 159.22 239.096 161.12 239.096 163.4C239.096 165.68 236.178 167.527 232.56 167.527Z" fill="white"/>
<path opacity="0.64" d="M118.902 187.066L130.127 159.63L105.192 160.884L101.445 170.438H113.08L104.356 190.388L118.902 187.066Z" fill="white"/>
<path opacity="0.64" d="M167.116 127.216L183.738 123.477L205.352 130.127L188.723 133.03L184.156 129.291L167.116 132.62V127.216Z" fill="white"/>
<path opacity="0.64" d="M167.945 111.424L168.363 122.231L175.841 120.566L174.595 111.006L167.945 111.424Z" fill="white"/>
<path opacity="0.64" d="M64.4556 117.238L57.8056 136.359L84.8236 143.427L88.9808 128.463L77.3452 117.656L64.4556 117.238Z" fill="white"/>
</g>
<path d="M332.12 168.211L321.366 157.571C323.22 157.335 325.014 157.077 326.732 156.811L325.386 153.953C323.236 154.273 320.978 154.577 318.622 154.85L286.566 123.12C295.085 121.851 303.179 120.757 309.366 120.118L307.99 117.215C301.302 117.929 292.79 119.107 284.02 120.43L284.111 119.875L283.085 119.715L271.784 108.528L297.16 94.187L295.86 91.4358L269.564 106.301L258.316 95.175L254.805 95.935L278.008 118.887L204.212 107.343C203.855 106.529 203.498 105.716 203.171 104.88C201.061 99.5233 199.423 93.9923 198.276 88.3502L195.008 87.5902C196.209 93.8475 197.99 99.9793 200.328 105.906L200.693 106.795L183.403 104.082L165.558 105.64L164.92 87.0962L161.88 87.4838L163.544 138.214C162.511 138.214 161.477 138.214 160.504 138.168C132.422 137.355 102.091 129.162 97.5992 126.715C94.5592 125.035 87.7192 117.124 84.0788 112.632C91.5192 112.245 98.7164 111.241 102.972 109.03C108.809 105.99 122.618 97.9718 134.482 90.9798L126.821 91.9602C116.69 97.8958 106.392 103.839 101.582 106.332C92.9708 110.801 69.9124 109.873 61.0584 109.326L60.1084 112.321C63.4068 112.541 69.1676 112.845 75.5516 112.845C77.0716 112.845 78.7056 112.845 80.3092 112.784C81.4492 114.228 91.4432 126.814 96.1476 129.383C100.852 131.951 131.389 140.365 160.421 141.201C161.49 141.231 162.577 141.246 163.681 141.246L163.909 148.185L140.676 148.861L140.326 148.74L140.281 148.869L94.1336 150.214L51.528 139.422L50.6084 142.325L76.8512 148.96L52.5312 182.879L55.3736 184.133L80.0432 149.766L93.8296 153.254L139.224 151.932L126.008 189.24L110.481 196.08L119.434 195.465L183.517 167.253L229.246 142.759C234.451 146.229 240.068 149.037 245.966 151.119C251.318 152.995 256.783 154.531 262.329 155.717L255.626 169.131L228 195.32L232.013 195.7L257.914 171.152L258.104 170.97L265.415 156.347C273.111 157.807 280.905 158.701 288.732 159.023L282.576 193.983L285.806 193.185L291.84 159.106C293.428 159.144 295.002 159.175 296.56 159.175C303.56 159.167 310.554 158.784 317.513 158.027L335.928 176.267L332.12 168.211ZM129.823 187.576L142.454 151.856L164.008 151.24L164.7 172.239L129.823 187.576ZM276.017 121.699C258.385 124.481 241.551 127.49 237.888 128.22L234.848 128.835C231.595 129.512 226.526 130.568 220.37 131.723C214.303 125.594 209.333 118.468 205.679 110.656L276.017 121.699ZM165.68 108.68L183.274 107.16L202.076 110.109C205.748 118.308 210.759 125.839 216.904 132.392C206.568 134.269 193.8 136.291 181.359 137.393L181.23 137.203L180.88 137.439C176.016 137.857 171.213 138.138 166.622 138.199L165.68 108.68ZM166.744 141.208C169.693 141.163 172.733 141.026 175.811 140.828L166.934 146.817L166.744 141.208ZM182.263 164.479L167.717 170.879L167.048 150.412L181.944 140.357C195.259 139.156 208.886 136.937 219.541 134.961C221.728 137.049 224.046 138.996 226.48 140.79L182.263 164.479ZM247 148.2C238.209 145.17 230.1 140.439 223.136 134.277C228.342 133.281 232.621 132.392 235.494 131.792L238.48 131.176C243.907 130.089 263.864 126.616 282.811 123.69L314.731 155.253C295.541 157.1 270.917 156.651 247 148.2Z" fill="white" stroke="#263238" stroke-linecap="round" stroke-linejoin="round"/>
<path d="M90.6452 171.616L85.7736 200.116" stroke="#263238" stroke-linecap="round" stroke-linejoin="round"/>
<path d="M104.112 92.7732L91.6332 165.824" stroke="#263238" stroke-linecap="round" stroke-linejoin="round"/>
<path d="M182.909 81.4949L183.327 111.006" stroke="#263238" stroke-linecap="round" stroke-linejoin="round"/>
<path d="M244.408 116.508L261.463 188.313" stroke="#263238" stroke-linecap="round" stroke-linejoin="round"/>
<path d="M239.848 97.2876L243.595 113.08" stroke="#263238" stroke-linecap="round" stroke-linejoin="round"/>
<path d="M183.738 193.716L183.327 176.259" stroke="#263238" stroke-linecap="round" stroke-linejoin="round"/>
<path d="M278.47 55.7098C283.914 54.4169 287.279 48.9559 285.986 43.5122C284.693 38.0685 279.232 34.7036 273.788 35.9965C268.344 37.2893 264.98 42.7504 266.272 48.194C267.565 53.6377 273.026 57.0026 278.47 55.7098Z" fill="#263238"/>
<path d="M281.025 44.9311C281.027 43.8681 280.713 42.8285 280.123 41.9438C279.534 41.0592 278.695 40.3693 277.714 39.9615C276.732 39.5536 275.651 39.4461 274.608 39.6526C273.566 39.8591 272.607 40.3702 271.855 41.1214C271.103 41.8725 270.591 42.8299 270.383 43.8724C270.175 44.9149 270.281 45.9957 270.687 46.978C271.094 47.9602 271.782 48.7999 272.666 49.3906C273.55 49.9814 274.589 50.2967 275.652 50.2967C277.076 50.2967 278.441 49.7316 279.449 48.7256C280.456 47.7196 281.023 46.3548 281.025 44.9311Z" stroke="white" stroke-width="2" stroke-linecap="round" stroke-linejoin="round"/>
<path d="M279.33 49.1643L282.72 52.2727" stroke="white" stroke-width="2" stroke-linecap="round" stroke-linejoin="round"/>
<path d="M250.853 57H89.2772C87.8311 57 86.3992 56.7148 85.0635 56.1607C83.7277 55.6066 82.5144 54.7945 81.4929 53.7709C80.4714 52.7473 79.6619 51.5323 79.1106 50.1954C78.5592 48.8585 78.277 47.4261 78.28 45.98C78.277 44.5339 78.5592 43.1014 79.1106 41.7645C79.6619 40.4276 80.4714 39.2126 81.4929 38.189C82.5144 37.1654 83.7277 36.3533 85.0635 35.7993C86.3992 35.2452 87.8311 34.96 89.2772 34.96H250.853C252.3 34.959 253.733 35.2434 255.069 35.7971C256.406 36.3507 257.62 37.1626 258.642 38.1863C259.665 39.21 260.475 40.4254 261.027 41.7628C261.579 43.1001 261.861 44.5332 261.858 45.98C261.861 47.4267 261.579 48.8598 261.027 50.1972C260.475 51.5345 259.665 52.7499 258.642 53.7736C257.62 54.7973 256.406 55.6092 255.069 56.1629C253.733 56.7165 252.3 57.001 250.853 57Z" fill="white" stroke="#263238" stroke-linecap="round" stroke-linejoin="round"/>
<path d="M335.548 273.729H290.708C288.474 273.724 286.323 274.573 284.696 276.104C283.069 277.635 282.09 279.73 281.96 281.96L278.487 343.52H340.868L344.28 282.963C344.347 281.775 344.171 280.586 343.763 279.468C343.354 278.351 342.722 277.329 341.904 276.464C341.087 275.599 340.101 274.911 339.008 274.441C337.915 273.971 336.737 273.728 335.548 273.729Z" fill="#263238" stroke="#263238" stroke-linecap="round" stroke-linejoin="round"/>
<path d="M249.052 251.484C249.052 251.484 226.252 256.31 224.291 258.886C222.33 261.463 183.768 325.136 183.768 325.136C183.768 325.136 185.372 340.898 187.948 340.571C190.524 340.244 189.878 342.502 198.588 336.718C207.298 330.934 224.322 316.776 224.322 316.776L233.32 343.467H308.56C308.56 343.467 309.198 259.525 306.949 253.741C304.699 247.958 286.049 243.77 279.589 243.77C273.129 243.77 249.052 251.484 249.052 251.484Z" fill="white" stroke="#263238" stroke-linecap="round" stroke-linejoin="round"/>
<path d="M247.228 280.44L252.373 285.585L274.649 244.439C265.263 246.309 249.052 251.492 249.052 251.492C249.052 251.492 237.599 253.916 230.234 256.242L220.484 264.906C211.911 278.753 191.604 312.178 185.524 322.233L187.956 340.579C190.509 340.267 189.886 342.502 198.55 336.726C207.214 330.95 224.284 316.783 224.284 316.783L228.547 329.437C227.514 324.117 223.425 302.632 224.922 298.878C226.647 294.584 247.228 280.44 247.228 280.44Z" fill="#263238" stroke="#263238" stroke-linecap="round" stroke-linejoin="round"/>
<path d="M244.226 261.562L224.504 290.297V274.003L244.226 261.562Z" fill="white" stroke="#263238" stroke-linecap="round" stroke-linejoin="round"/>
<path d="M252.715 294.964C252.715 294.964 250.359 313.53 250.656 316.776C250.952 320.021 256.249 339.758 256.249 339.758" fill="white"/>
<path d="M252.715 294.964C252.715 294.964 250.359 313.53 250.656 316.776C250.952 320.021 256.249 339.758 256.249 339.758" stroke="#263238" stroke-linecap="round" stroke-linejoin="round"/>
<path d="M250.04 249.637C250.04 249.637 244.538 260.171 240.358 269.496C236.178 278.821 236.17 285.578 236.17 285.578C236.17 285.578 250.321 276.253 251.932 275.287C253.544 274.322 256.758 272.711 256.758 272.711L274.77 285.578C274.77 285.578 276.374 270.781 277.05 255.026C277.727 239.271 272.224 233.153 267.725 232.834C263.226 232.515 250.04 249.637 250.04 249.637Z" fill="white" stroke="#263238" stroke-linecap="round" stroke-linejoin="round"/>
<path d="M206.933 217.732C206.933 217.732 198.664 237.226 201.02 242.151C203.376 247.076 209.099 239.005 209.099 239.005C209.099 239.005 211.66 256.53 216.19 255.147C220.719 253.764 227.59 248.254 227.59 248.254C227.59 248.254 234.878 259.874 239.803 259.874C244.728 259.874 250.04 249.637 250.04 249.637C250.04 249.637 257.526 219.898 257.921 216.752C258.316 213.606 256.933 193.116 245.51 189.179C234.088 185.242 217.36 195.875 212.64 202.16C207.921 208.445 206.933 217.732 206.933 217.732Z" fill="#263238" stroke="#263238" stroke-linecap="round" stroke-linejoin="round"/>
<path d="M218.5 234.118C218.5 234.118 215.924 243.124 215.924 246.02C215.924 248.915 215.285 259.206 214.958 261.136C214.632 263.066 181.838 303.27 177.012 311.296C172.186 319.322 169.617 326.739 174.435 333.169C179.254 339.598 184.087 341.856 187.948 340.564C191.809 339.272 191.482 340.244 197.592 333.488C203.703 326.732 222.034 271.738 222.034 271.738C222.034 271.738 227.825 268.85 230.394 266.92C232.963 264.989 237.47 254.372 237.47 254.372L218.5 234.118Z" fill="#ADADAD" stroke="#263238" stroke-linecap="round" stroke-linejoin="round"/>
<path d="M174.435 333.177C179.261 339.606 184.087 341.863 187.948 340.571C191.809 339.279 191.482 340.252 197.592 333.496C198.907 332.044 200.792 328.358 202.912 323.464C195.518 325.288 186.816 326.504 185.03 325.455C179.884 322.415 176.989 311.304 176.989 311.304C172.186 319.345 169.617 326.747 174.435 333.177Z" fill="white" stroke="#263238" stroke-linecap="round" stroke-linejoin="round"/>
<path d="M215.407 212.99C215.407 212.99 218.447 219.769 218.447 223.843C218.447 227.916 214.039 233.677 216.752 238.085C219.465 242.493 227.939 259.783 227.939 259.783C227.939 259.783 232.347 262.162 236.763 259.783C241.178 257.404 250.321 253.004 250.321 253.004C250.321 253.004 248.968 276.739 250.663 282.507C252.358 288.276 253.376 290.981 253.376 290.981C253.376 290.981 257.784 271.654 262.496 262.861C267.208 254.068 269.618 238.442 269.618 238.442C269.618 238.442 269.276 232.362 269.618 226.237C269.96 220.111 260.46 196.734 245.199 191.649C229.938 186.565 221.464 191.649 217.39 197.729C213.317 203.809 215.407 212.99 215.407 212.99Z" fill="#ADADAD" stroke="#263238" stroke-linecap="round" stroke-linejoin="round"/>
<path d="M224.907 233.32C224.907 233.32 229.991 239.765 236.778 234.338" stroke="#263238" stroke-linecap="round" stroke-linejoin="round"/>
<path d="M229.991 242.151C229.991 242.151 240.502 244.864 245.951 234.688" stroke="#263238" stroke-linecap="round" stroke-linejoin="round"/>
<path d="M239.62 223.44C239.62 224.793 238.914 225.895 238.047 225.895C237.181 225.895 236.466 224.793 236.466 223.44C236.466 222.087 237.173 220.978 238.047 220.978C238.921 220.978 239.62 222.087 239.62 223.44Z" fill="#263238"/>
<path d="M224.656 223.44C224.656 224.793 223.949 225.895 223.083 225.895C222.216 225.895 221.502 224.793 221.502 223.44C221.502 222.087 222.209 220.978 223.083 220.978C223.957 220.978 224.656 222.087 224.656 223.44Z" fill="#263238"/>
<path d="M236.862 211.432C236.862 211.432 241.589 210.839 244.743 213.401" stroke="#263238" stroke-width="2" stroke-linecap="round" stroke-linejoin="round"/>
<path d="M225.834 211.432C223.517 211.434 221.28 212.273 219.534 213.796" stroke="#263238" stroke-width="2" stroke-linecap="round" stroke-linejoin="round"/>
<path d="M250.336 253.004L259.905 248.254L250.055 262.633L250.336 253.004Z" fill="#263238" stroke="#263238" stroke-linecap="round" stroke-linejoin="round"/>
<path d="M257.458 166.866C257.458 166.866 244.91 158.392 238.131 159.744C231.352 161.097 214.73 172.664 211.683 173.652C208.635 174.64 192.348 182.468 192.348 188.229C192.348 193.99 199.812 196.369 199.812 196.369C199.812 196.369 181.496 212.329 186.246 215.369C190.996 218.409 202.867 211.979 202.867 211.979C202.867 211.979 195.404 223.85 200.154 224.861C204.904 225.872 212.04 218.074 212.04 218.074C212.04 218.074 213.735 220.788 218.827 215.703C223.919 210.619 230.356 200.442 230.356 200.442C230.356 200.442 229.68 207.222 233.396 206.203C237.112 205.185 241.878 198.406 241.878 198.406C241.878 198.406 244.918 229.604 249.675 227.232C254.433 224.861 254.425 221.806 254.425 221.806C254.425 221.806 254.76 234.354 257.815 233.335C260.87 232.317 262.565 228.927 262.565 228.927C262.565 228.927 265.954 241.809 270.02 241.475C271.147 241.405 272.221 240.969 273.078 240.234C273.935 239.499 274.53 238.505 274.77 237.401C274.77 237.401 275.789 251.644 284.605 248.596C293.421 245.548 294.781 236.048 294.781 236.048C294.781 236.048 301.218 243.512 304.95 238.085C308.682 232.659 306.28 225.872 306.28 225.872C306.28 225.872 312.36 225.196 311.706 220.111C311.053 215.027 299.159 199.766 299.159 199.766C299.159 199.766 306.614 200.777 301.53 192.303C296.446 183.829 287.288 176.343 280.843 172.292C277.068 169.883 272.954 168.054 268.637 166.866C268.637 166.866 278.806 163.142 271.008 162.123C263.211 161.105 257.458 166.866 257.458 166.866Z" fill="#263238" stroke="#263238" stroke-linecap="round" stroke-linejoin="round"/>
<path d="M284.536 282.15L286.056 309.054C286.056 309.054 279.976 308.089 279.976 309.054C279.976 310.019 281.2 322.24 281.2 322.24C281.2 322.24 292.775 328.996 298.885 330.6C304.996 332.204 304.03 337.676 306.926 336.68C309.822 335.684 316.251 334.75 317.566 328.958C318.881 323.167 315.286 312.238 314.99 310.946C314.693 309.654 312.71 259.814 308.56 251.127C304.41 242.44 296.978 242.44 292.159 244.37C287.341 246.301 282.188 255.01 282.188 255.01" fill="white"/>
<path d="M284.536 282.15L286.056 309.054C286.056 309.054 279.976 308.089 279.976 309.054C279.976 310.019 281.2 322.24 281.2 322.24C281.2 322.24 292.775 328.996 298.885 330.6C304.996 332.204 304.03 337.676 306.926 336.68C309.822 335.684 316.251 334.75 317.566 328.958C318.881 323.167 315.286 312.238 314.99 310.946C314.693 309.654 312.71 259.814 308.56 251.127C304.41 242.44 296.978 242.44 292.159 244.37C287.341 246.301 282.188 255.01 282.188 255.01" stroke="#263238" stroke-linecap="round" stroke-linejoin="round"/>
<path d="M312.649 317.262C314.169 319.352 315.309 320.956 315.309 320.956" stroke="#263238" stroke-linecap="round" stroke-linejoin="round"/>
<path d="M288.929 307.8C288.929 307.8 301.477 307.154 304.046 307.8C305.368 308.127 308.294 311.6 310.832 314.876" stroke="#263238" stroke-linecap="round" stroke-linejoin="round"/>
<path d="M305.338 303.24C309.191 304.524 310.156 306.128 310.156 306.128" stroke="#263238" stroke-linecap="round" stroke-linejoin="round"/>
<path d="M290.221 304.874C293.032 304.178 295.879 303.632 298.748 303.24" stroke="#263238" stroke-linecap="round" stroke-linejoin="round"/>
<path d="M312.117 330.843C312.466 325.128 305.953 314.42 298.262 313.234C289.902 311.95 275.743 318.379 256.774 320.636C237.804 322.894 229.11 323.532 222.68 323.532C216.25 323.532 201.453 319.344 198.884 319.99C196.316 320.636 184.406 333.176 181.838 336.072C179.269 338.968 179.824 339.872 180.394 340.153C180.964 340.434 182.4 339.72 182.4 339.72C182.4 339.72 183.532 341.278 184.946 341.278C185.879 341.231 186.772 340.884 187.492 340.29C188.422 340.857 189.53 341.058 190.6 340.852C192.158 340.427 201.24 334.347 201.917 334.066C202.593 333.784 207.009 332.508 207.009 332.508C204.562 334.42 201.958 336.123 199.226 337.6C195.974 339.12 193.435 340.571 195.13 341.4C196.825 342.228 199.69 341.263 201.917 340.275C204.144 339.287 207.009 337.995 207.997 337.866C208.985 337.736 216.6 333.929 216.6 333.929C216.6 333.929 222.961 335.342 225.933 335.631C228.904 335.92 235.41 333.222 235.41 333.222C235.41 333.222 258.886 337.326 270.765 338.033C282.644 338.74 301.591 341.422 307.952 338.17C307.944 338.2 311.76 336.68 312.117 330.843Z" fill="#ADADAD" stroke="#263238" stroke-linecap="round" stroke-linejoin="round"/>
<path d="M187.462 340.298C187.462 340.298 197.273 330.494 198.345 329.658C199.416 328.822 205.633 327.081 205.633 327.081" stroke="#263238" stroke-linecap="round" stroke-linejoin="round"/>
<path d="M182.4 339.72C182.4 339.72 192.797 328.776 194.089 327.271C195.381 325.767 200.093 323.844 200.093 323.844" stroke="#263238" stroke-linecap="round" stroke-linejoin="round"/>
<path d="M78.356 109.949C77.4282 109.949 76.5094 110.132 75.6523 110.487C74.7952 110.843 74.0166 111.363 73.3609 112.02C72.7051 112.676 72.1852 113.456 71.8309 114.313C71.4765 115.17 71.2946 116.089 71.2956 117.017C71.2956 120.916 78.356 128.189 78.356 128.189C78.356 128.189 85.424 120.916 85.424 117.017C85.424 115.143 84.6793 113.345 83.3538 112.019C82.0283 110.694 80.2306 109.949 78.356 109.949ZM78.356 119.829C77.8822 119.829 77.419 119.689 77.0252 119.425C76.6313 119.162 76.3245 118.787 76.1435 118.35C75.9625 117.912 75.9156 117.43 76.0086 116.965C76.1016 116.501 76.3303 116.074 76.6659 115.74C77.0015 115.405 77.4287 115.178 77.8936 115.086C78.3585 114.995 78.8401 115.043 79.2774 115.226C79.7147 115.408 80.0881 115.716 80.3502 116.111C80.6124 116.505 80.7515 116.969 80.75 117.443C80.746 118.075 80.492 118.68 80.0435 119.126C79.5949 119.571 78.9883 119.822 78.356 119.822V119.829Z" fill="#263238" stroke="#263238" stroke-linecap="round" stroke-linejoin="round"/>
<path d="M151.696 77.2693C150.768 77.2693 149.849 77.4522 148.992 77.8075C148.135 78.1627 147.357 78.6835 146.701 79.3399C146.045 79.9963 145.525 80.7756 145.171 81.6331C144.816 82.4905 144.635 83.4095 144.636 84.3373C144.636 88.2361 151.696 95.5093 151.696 95.5093C151.696 95.5093 158.764 88.2361 158.764 84.3373C158.764 82.4627 158.019 80.665 156.694 79.3395C155.368 78.0139 153.571 77.2693 151.696 77.2693ZM151.696 87.1493C151.222 87.1493 150.759 87.0087 150.365 86.7453C149.971 86.4819 149.664 86.1076 149.484 85.6697C149.303 85.2318 149.256 84.75 149.349 84.2854C149.442 83.8208 149.67 83.3943 150.006 83.0598C150.341 82.7253 150.769 82.4979 151.234 82.4064C151.699 82.3149 152.18 82.3633 152.617 82.5457C153.055 82.7281 153.428 83.0361 153.69 83.4308C153.952 83.8255 154.091 84.2891 154.09 84.7629C154.086 85.3952 153.832 86.0002 153.383 86.4459C152.935 86.8916 152.328 87.1417 151.696 87.1417V87.1493Z" fill="#263238" stroke="#263238" stroke-linecap="round" stroke-linejoin="round"/>
<path d="M139.734 127.042C138.806 127.041 137.887 127.223 137.029 127.577C136.172 127.931 135.393 128.451 134.736 129.107C134.08 129.763 133.559 130.541 133.204 131.398C132.848 132.256 132.666 133.174 132.666 134.102C132.666 138.009 139.734 145.274 139.734 145.274C139.734 145.274 146.794 138.009 146.794 134.102C146.794 132.23 146.05 130.434 144.726 129.11C143.402 127.786 141.606 127.042 139.734 127.042ZM139.734 136.922C139.262 136.922 138.801 136.782 138.409 136.521C138.017 136.259 137.711 135.887 137.53 135.452C137.349 135.017 137.301 134.538 137.392 134.075C137.483 133.613 137.709 133.188 138.041 132.853C138.373 132.519 138.797 132.29 139.259 132.197C139.721 132.103 140.2 132.148 140.636 132.326C141.073 132.505 141.446 132.808 141.71 133.199C141.974 133.589 142.117 134.049 142.12 134.52C142.12 135.153 141.869 135.76 141.421 136.208C140.974 136.655 140.367 136.907 139.734 136.907V136.922Z" fill="#263238" stroke="#263238" stroke-linecap="round" stroke-linejoin="round"/>
<path d="M281.474 122.482C280.546 122.481 279.627 122.663 278.769 123.017C277.912 123.371 277.133 123.891 276.476 124.547C275.82 125.203 275.299 125.981 274.944 126.838C274.588 127.696 274.406 128.614 274.406 129.542C274.406 133.448 281.474 140.714 281.474 140.714C281.474 140.714 288.534 133.448 288.534 129.542C288.534 127.67 287.79 125.874 286.466 124.55C285.142 123.226 283.346 122.482 281.474 122.482ZM281.474 132.362C281.002 132.362 280.541 132.222 280.149 131.961C279.757 131.699 279.451 131.327 279.27 130.892C279.089 130.457 279.041 129.978 279.132 129.515C279.223 129.053 279.449 128.628 279.781 128.293C280.113 127.959 280.537 127.73 280.999 127.637C281.461 127.543 281.94 127.588 282.376 127.766C282.813 127.944 283.186 128.248 283.45 128.638C283.714 129.029 283.857 129.489 283.86 129.96C283.86 130.593 283.609 131.2 283.161 131.648C282.714 132.095 282.106 132.346 281.474 132.346V132.362Z" fill="#263238" stroke="#263238" stroke-linecap="round" stroke-linejoin="round"/>
<path d="M200.534 144.902C199.606 144.901 198.687 145.083 197.829 145.437C196.972 145.791 196.193 146.311 195.536 146.967C194.88 147.623 194.359 148.401 194.004 149.258C193.648 150.115 193.466 151.034 193.466 151.962C193.466 155.868 200.534 163.134 200.534 163.134C200.534 163.134 207.594 155.868 207.594 151.962C207.594 151.035 207.411 150.117 207.057 149.26C206.702 148.404 206.182 147.625 205.526 146.97C204.87 146.314 204.092 145.794 203.235 145.439C202.379 145.084 201.461 144.902 200.534 144.902ZM200.534 154.782C200.062 154.782 199.601 154.642 199.209 154.38C198.817 154.119 198.511 153.747 198.33 153.312C198.149 152.877 198.101 152.398 198.192 151.935C198.283 151.473 198.509 151.047 198.841 150.713C199.173 150.379 199.597 150.15 200.059 150.057C200.521 149.963 201 150.008 201.436 150.186C201.873 150.364 202.246 150.668 202.51 151.058C202.774 151.449 202.917 151.909 202.92 152.38C202.92 153.013 202.669 153.62 202.221 154.067C201.773 154.515 201.166 154.766 200.534 154.766V154.782Z" fill="#263238" stroke="#263238" stroke-linecap="round" stroke-linejoin="round"/>
<path d="M230.174 83.7217C229.246 83.7207 228.327 83.9026 227.469 84.2569C226.612 84.6113 225.833 85.1312 225.176 85.7869C224.52 86.4427 223.999 87.2213 223.644 88.0784C223.288 88.9355 223.106 89.8543 223.106 90.7821C223.106 94.6885 230.174 101.954 230.174 101.954C230.174 101.954 237.234 94.6885 237.234 90.7821C237.234 88.9095 236.49 87.1137 235.166 85.7896C233.842 84.4655 232.046 83.7217 230.174 83.7217ZM230.174 93.6017C229.702 93.6017 229.241 93.4621 228.849 93.2005C228.457 92.939 228.151 92.5672 227.97 92.132C227.789 91.6968 227.741 91.2178 227.832 90.7553C227.923 90.2928 228.149 89.8676 228.481 89.5332C228.813 89.1989 229.237 88.9704 229.699 88.8766C230.161 88.7828 230.64 88.8279 231.076 89.0062C231.513 89.1845 231.886 89.488 232.15 89.8784C232.414 90.2689 232.557 90.7288 232.56 91.2001C232.56 91.833 232.309 92.44 231.861 92.8875C231.414 93.3351 230.807 93.5865 230.174 93.5865V93.6017Z" fill="#263238" stroke="#263238" stroke-linecap="round" stroke-linejoin="round"/>
<path d="M206.857 339.834H62.7912V343.953H206.857V339.834Z" fill="#263238" stroke="#263238" stroke-linecap="round" stroke-linejoin="round"/>
<path d="M206.857 339.834H156.286V343.953H206.857V339.834Z" fill="#90A955" stroke="#263238" stroke-linecap="round" stroke-linejoin="round"/>
<path d="M160.36 339.834H66.8192L61.4156 277.62C61.341 276.937 61.4129 276.245 61.6264 275.592C61.84 274.938 62.1903 274.337 62.6541 273.83C63.1178 273.322 63.6844 272.919 64.3161 272.648C64.9478 272.376 65.6301 272.242 66.3176 272.255H149.158C150.617 272.281 152.017 272.841 153.091 273.83C154.166 274.819 154.84 276.168 154.987 277.62L160.36 339.834Z" fill="white" stroke="#263238" stroke-linecap="round" stroke-linejoin="round"/>
<path d="M158.566 339.834H65.0256L59.622 277.62C59.5474 276.937 59.6193 276.245 59.8328 275.592C60.0464 274.938 60.3967 274.337 60.8605 273.83C61.3242 273.322 61.8908 272.919 62.5225 272.648C63.1542 272.376 63.8365 272.242 64.524 272.255H147.364C148.824 272.281 150.224 272.841 151.298 273.83C152.372 274.819 153.046 276.168 153.193 277.62L158.566 339.834Z" fill="#90A955" stroke="#263238" stroke-linecap="round" stroke-linejoin="round"/>
<path d="M154.402 291.855L65.0256 339.834H158.566L154.402 291.855Z" fill="#263238" stroke="#263238" stroke-linecap="round" stroke-linejoin="round"/>
<path d="M109.73 308.334C111.875 306.093 111.634 302.381 109.19 300.041C106.747 297.701 103.027 297.62 100.882 299.86C98.7363 302.101 98.9779 305.814 101.421 308.153C103.865 310.493 107.585 310.574 109.73 308.334Z" fill="#263238" stroke="#263238" stroke-linecap="round" stroke-linejoin="round"/>
<path d="M357.39 316.236C355.52 313.698 349.501 312.261 347.601 313.196V318.03C356.516 316.791 357.93 325.592 355.026 330.098C354.229 331.295 353.107 332.239 351.792 332.819C350.476 333.399 349.022 333.592 347.601 333.374V337.539C349.121 338.071 351.91 338.299 355.368 335.494C360.772 331.094 361.616 321.951 357.39 316.236Z" fill="white" stroke="#263238" stroke-linecap="round" stroke-linejoin="round"/>
<path d="M348.27 306.158H321.936V343.581H348.27V306.158Z" fill="white" stroke="#263238" stroke-linecap="round" stroke-linejoin="round"/>
<path d="M327.256 284.24C327.035 283.089 327.141 281.899 327.56 280.805" stroke="white" stroke-linecap="round" stroke-linejoin="round"/>
<path d="M327.56 302.1C327.56 302.1 332.88 298.68 330.98 293.74C329.992 291.179 328.7 288.815 327.894 286.611" stroke="white" stroke-linecap="round" stroke-linejoin="round"/>
<path d="M333.64 302.1C333.64 302.1 338.96 298.68 337.06 293.74C336.482 292.22 335.806 290.822 335.183 289.461" stroke="white" stroke-linecap="round" stroke-linejoin="round"/>
<path d="M342 291.08C340.267 287.28 338.481 283.936 339.72 280.843" stroke="white" stroke-linecap="round" stroke-linejoin="round"/>
<path d="M339.72 302.1C339.72 302.1 344.212 299.212 343.467 294.91" stroke="white" stroke-linecap="round" stroke-linejoin="round"/>
<path d="M11.4 343.566H370.12" stroke="#263238" stroke-linecap="round" stroke-linejoin="round"/>
<path d="M94.6794 51L92.5218 43.3636H94.3563L95.6986 48.733H95.7682L97.1404 43.3636H98.955L100.327 48.7031H100.402L101.724 43.3636H103.564L101.401 51H99.5267L98.0949 45.8395H97.9905L96.5587 51H94.6794ZM106.62 46.5256V51H104.82V40.8182H106.58V44.6612H106.67C106.849 44.2304 107.125 43.8906 107.5 43.642C107.878 43.3902 108.358 43.2642 108.942 43.2642C109.472 43.2642 109.934 43.3752 110.329 43.5973C110.723 43.8194 111.028 44.1442 111.244 44.5717C111.462 44.9993 111.572 45.5213 111.572 46.1378V51H109.772V46.4162C109.772 45.9025 109.639 45.5031 109.374 45.218C109.112 44.9297 108.744 44.7855 108.271 44.7855C107.952 44.7855 107.667 44.8551 107.415 44.9943C107.167 45.1302 106.971 45.3274 106.829 45.5859C106.69 45.8445 106.62 46.1577 106.62 46.5256ZM116.787 51.1491C116.021 51.1491 115.36 50.9901 114.803 50.6719C114.25 50.3504 113.824 49.8963 113.525 49.3097C113.227 48.7197 113.078 48.0253 113.078 47.2266C113.078 46.4411 113.227 45.7517 113.525 45.1584C113.827 44.5618 114.248 44.0978 114.788 43.7663C115.329 43.4316 115.963 43.2642 116.692 43.2642C117.163 43.2642 117.607 43.3404 118.025 43.4929C118.446 43.642 118.817 43.8741 119.138 44.1889C119.463 44.5038 119.718 44.9048 119.904 45.392C120.09 45.8759 120.182 46.4527 120.182 47.1222V47.674H113.923V46.4609H118.457C118.454 46.1162 118.379 45.8097 118.234 45.5412C118.088 45.2694 117.884 45.0556 117.622 44.8999C117.364 44.7441 117.062 44.6662 116.717 44.6662C116.349 44.6662 116.026 44.7557 115.748 44.9347C115.469 45.1103 115.252 45.3423 115.097 45.6307C114.944 45.9157 114.866 46.2289 114.863 46.5703V47.6293C114.863 48.0734 114.944 48.4545 115.106 48.7727C115.269 49.0876 115.496 49.3295 115.788 49.4986C116.079 49.6643 116.421 49.7472 116.812 49.7472C117.074 49.7472 117.311 49.7107 117.523 49.6378C117.735 49.5616 117.919 49.4505 118.074 49.3047C118.23 49.1589 118.348 48.9782 118.427 48.7628L120.108 48.9517C120.002 49.3958 119.8 49.7836 119.501 50.1151C119.206 50.4432 118.829 50.6984 118.368 50.8807C117.907 51.0597 117.38 51.1491 116.787 51.1491ZM123.902 51.1541C123.419 51.1541 122.983 51.0679 122.595 50.8956C122.21 50.7199 121.906 50.4614 121.68 50.12C121.458 49.7786 121.347 49.3577 121.347 48.8572C121.347 48.4264 121.427 48.0701 121.586 47.7884C121.745 47.5066 121.962 47.2812 122.237 47.1122C122.512 46.9432 122.822 46.8156 123.167 46.7294C123.515 46.6399 123.874 46.5753 124.245 46.5355C124.693 46.4891 125.056 46.4477 125.334 46.4112C125.613 46.3714 125.815 46.3118 125.941 46.2322C126.07 46.1494 126.135 46.0218 126.135 45.8494V45.8196C126.135 45.4451 126.024 45.1551 125.802 44.9496C125.58 44.7441 125.26 44.6413 124.842 44.6413C124.401 44.6413 124.052 44.7375 123.793 44.9297C123.538 45.1219 123.366 45.349 123.276 45.6108L121.596 45.3722C121.728 44.9081 121.947 44.5204 122.252 44.2088C122.557 43.8939 122.93 43.6586 123.37 43.5028C123.811 43.3438 124.299 43.2642 124.832 43.2642C125.2 43.2642 125.566 43.3073 125.931 43.3935C126.295 43.4796 126.629 43.6222 126.93 43.821C127.232 44.0166 127.474 44.2834 127.656 44.6214C127.842 44.9595 127.934 45.3821 127.934 45.8892V51H126.204V49.951H126.145C126.035 50.1631 125.881 50.362 125.682 50.5476C125.487 50.7299 125.24 50.8774 124.941 50.9901C124.647 51.0994 124.3 51.1541 123.902 51.1541ZM124.37 49.8317C124.731 49.8317 125.044 49.7604 125.309 49.6179C125.575 49.4721 125.778 49.2798 125.921 49.0412C126.067 48.8026 126.14 48.5424 126.14 48.2607V47.3608C126.083 47.4072 125.987 47.4503 125.851 47.4901C125.719 47.5298 125.57 47.5646 125.404 47.5945C125.238 47.6243 125.074 47.6508 124.912 47.674C124.749 47.6972 124.608 47.7171 124.489 47.7337C124.221 47.7701 123.98 47.8298 123.768 47.9126C123.556 47.9955 123.389 48.1115 123.266 48.2607C123.143 48.4065 123.082 48.5954 123.082 48.8274C123.082 49.1589 123.203 49.4091 123.445 49.5781C123.687 49.7472 123.995 49.8317 124.37 49.8317ZM133.557 43.3636V44.7557H129.167V43.3636H133.557ZM130.251 41.5341H132.051V48.7031C132.051 48.9451 132.087 49.1307 132.16 49.2599C132.236 49.3859 132.336 49.4721 132.459 49.5185C132.581 49.5649 132.717 49.5881 132.866 49.5881C132.979 49.5881 133.082 49.5798 133.174 49.5632C133.271 49.5466 133.343 49.5317 133.393 49.5185L133.696 50.9254C133.6 50.9586 133.463 50.995 133.284 51.0348C133.108 51.0746 132.893 51.0978 132.638 51.1044C132.187 51.1177 131.781 51.0497 131.419 50.9006C131.058 50.7481 130.772 50.5128 130.559 50.1946C130.351 49.8764 130.248 49.4787 130.251 49.0014V41.5341ZM138.615 51V40.8182H140.414V44.6264H140.489C140.582 44.4408 140.713 44.2436 140.882 44.0348C141.051 43.8227 141.279 43.642 141.568 43.4929C141.856 43.3404 142.224 43.2642 142.671 43.2642C143.261 43.2642 143.793 43.415 144.267 43.7166C144.745 44.0149 145.122 44.4574 145.401 45.044C145.683 45.6274 145.823 46.3433 145.823 47.1918C145.823 48.0303 145.686 48.7429 145.411 49.3295C145.136 49.9162 144.761 50.3636 144.287 50.6719C143.813 50.9801 143.276 51.1342 142.676 51.1342C142.239 51.1342 141.876 51.0613 141.588 50.9155C141.299 50.7696 141.067 50.594 140.892 50.3885C140.719 50.1797 140.585 49.9825 140.489 49.7969H140.384V51H138.615ZM140.38 47.1818C140.38 47.6757 140.449 48.1082 140.588 48.4794C140.731 48.8506 140.935 49.1406 141.2 49.3494C141.468 49.5549 141.793 49.6577 142.174 49.6577C142.572 49.6577 142.905 49.5516 143.174 49.3395C143.442 49.1241 143.644 48.8307 143.78 48.4595C143.919 48.085 143.989 47.6591 143.989 47.1818C143.989 46.7079 143.921 46.2869 143.785 45.919C143.649 45.5511 143.447 45.2628 143.179 45.054C142.91 44.8452 142.575 44.7408 142.174 44.7408C141.79 44.7408 141.463 44.8419 141.195 45.044C140.926 45.2462 140.723 45.5296 140.583 45.8942C140.447 46.2588 140.38 46.688 140.38 47.1818ZM147.353 51V43.3636H149.098V44.6364H149.178C149.317 44.1955 149.556 43.8558 149.894 43.6172C150.235 43.3752 150.625 43.2543 151.062 43.2543C151.162 43.2543 151.273 43.2592 151.395 43.2692C151.521 43.2758 151.626 43.2874 151.709 43.304V44.9595C151.632 44.933 151.511 44.9098 151.346 44.8899C151.183 44.8667 151.026 44.8551 150.873 44.8551C150.545 44.8551 150.25 44.9264 149.988 45.0689C149.73 45.2081 149.526 45.402 149.377 45.6506C149.228 45.8991 149.153 46.1858 149.153 46.5107V51H147.353ZM155.97 51.1491C155.205 51.1491 154.544 50.9901 153.987 50.6719C153.433 50.3504 153.007 49.8963 152.709 49.3097C152.411 48.7197 152.262 48.0253 152.262 47.2266C152.262 46.4411 152.411 45.7517 152.709 45.1584C153.011 44.5618 153.432 44.0978 153.972 43.7663C154.512 43.4316 155.147 43.2642 155.876 43.2642C156.347 43.2642 156.791 43.3404 157.208 43.4929C157.629 43.642 158.001 43.8741 158.322 44.1889C158.647 44.5038 158.902 44.9048 159.088 45.392C159.273 45.8759 159.366 46.4527 159.366 47.1222V47.674H153.107V46.4609H157.641C157.638 46.1162 157.563 45.8097 157.417 45.5412C157.271 45.2694 157.068 45.0556 156.806 44.8999C156.547 44.7441 156.246 44.6662 155.901 44.6662C155.533 44.6662 155.21 44.7557 154.931 44.9347C154.653 45.1103 154.436 45.3423 154.28 45.6307C154.128 45.9157 154.05 46.2289 154.046 46.5703V47.6293C154.046 48.0734 154.128 48.4545 154.29 48.7727C154.452 49.0876 154.679 49.3295 154.971 49.4986C155.263 49.6643 155.604 49.7472 155.995 49.7472C156.257 49.7472 156.494 49.7107 156.706 49.6378C156.918 49.5616 157.102 49.4505 157.258 49.3047C157.414 49.1589 157.532 48.9782 157.611 48.7628L159.291 48.9517C159.185 49.3958 158.983 49.7836 158.685 50.1151C158.39 50.4432 158.012 50.6984 157.551 50.8807C157.091 51.0597 156.564 51.1491 155.97 51.1491ZM163.086 51.1541C162.602 51.1541 162.166 51.0679 161.778 50.8956C161.394 50.7199 161.089 50.4614 160.864 50.12C160.642 49.7786 160.531 49.3577 160.531 48.8572C160.531 48.4264 160.61 48.0701 160.769 47.7884C160.928 47.5066 161.145 47.2812 161.421 47.1122C161.696 46.9432 162.006 46.8156 162.35 46.7294C162.698 46.6399 163.058 46.5753 163.429 46.5355C163.877 46.4891 164.239 46.4477 164.518 46.4112C164.796 46.3714 164.998 46.3118 165.124 46.2322C165.254 46.1494 165.318 46.0218 165.318 45.8494V45.8196C165.318 45.4451 165.207 45.1551 164.985 44.9496C164.763 44.7441 164.443 44.6413 164.026 44.6413C163.585 44.6413 163.235 44.7375 162.977 44.9297C162.721 45.1219 162.549 45.349 162.46 45.6108L160.779 45.3722C160.912 44.9081 161.131 44.5204 161.435 44.2088C161.74 43.8939 162.113 43.6586 162.554 43.5028C162.995 43.3438 163.482 43.2642 164.016 43.2642C164.384 43.2642 164.75 43.3073 165.114 43.3935C165.479 43.4796 165.812 43.6222 166.114 43.821C166.415 44.0166 166.657 44.2834 166.84 44.6214C167.025 44.9595 167.118 45.3821 167.118 45.8892V51H165.388V49.951H165.328C165.219 50.1631 165.065 50.362 164.866 50.5476C164.67 50.7299 164.423 50.8774 164.125 50.9901C163.83 51.0994 163.484 51.1541 163.086 51.1541ZM163.553 49.8317C163.915 49.8317 164.228 49.7604 164.493 49.6179C164.758 49.4721 164.962 49.2798 165.104 49.0412C165.25 48.8026 165.323 48.5424 165.323 48.2607V47.3608C165.267 47.4072 165.171 47.4503 165.035 47.4901C164.902 47.5298 164.753 47.5646 164.587 47.5945C164.422 47.6243 164.258 47.6508 164.095 47.674C163.933 47.6972 163.792 47.7171 163.673 47.7337C163.404 47.7701 163.164 47.8298 162.952 47.9126C162.74 47.9955 162.572 48.1115 162.45 48.2607C162.327 48.4065 162.266 48.5954 162.266 48.8274C162.266 49.1589 162.387 49.4091 162.629 49.5781C162.871 49.7472 163.179 49.8317 163.553 49.8317ZM171.761 51.1342C171.162 51.1342 170.625 50.9801 170.151 50.6719C169.677 50.3636 169.302 49.9162 169.027 49.3295C168.752 48.7429 168.614 48.0303 168.614 47.1918C168.614 46.3433 168.754 45.6274 169.032 45.044C169.314 44.4574 169.693 44.0149 170.171 43.7166C170.648 43.415 171.18 43.2642 171.766 43.2642C172.214 43.2642 172.582 43.3404 172.87 43.4929C173.158 43.642 173.387 43.8227 173.556 44.0348C173.725 44.2436 173.856 44.4408 173.949 44.6264H174.024V40.8182H175.828V51H174.058V49.7969H173.949C173.856 49.9825 173.722 50.1797 173.546 50.3885C173.371 50.594 173.139 50.7696 172.85 50.9155C172.562 51.0613 172.199 51.1342 171.761 51.1342ZM172.264 49.6577C172.645 49.6577 172.97 49.5549 173.238 49.3494C173.506 49.1406 173.71 48.8506 173.85 48.4794C173.989 48.1082 174.058 47.6757 174.058 47.1818C174.058 46.688 173.989 46.2588 173.85 45.8942C173.714 45.5296 173.511 45.2462 173.243 45.044C172.978 44.8419 172.651 44.7408 172.264 44.7408C171.863 44.7408 171.528 44.8452 171.259 45.054C170.991 45.2628 170.789 45.5511 170.653 45.919C170.517 46.2869 170.449 46.7079 170.449 47.1818C170.449 47.6591 170.517 48.085 170.653 48.4595C170.792 48.8307 170.996 49.1241 171.264 49.3395C171.536 49.5516 171.869 49.6577 172.264 49.6577Z" fill="black"/>
</svg>
