<svg width="154" height="44" viewBox="0 0 154 44" fill="none" xmlns="http://www.w3.org/2000/svg">
<path d="M16.4996 8.17859C15.9577 8.08101 15.4098 8.02174 14.8598 8.0012C14.6657 8.0012 14.469 8.0012 14.2667 8.0012C13.1565 7.98094 12.0563 8.21793 11.05 8.69411C10.1178 9.14445 9.34081 9.86876 8.8199 10.7729C8.2733 11.6968 8 12.8599 8 14.2624V35H13.2802V14.3511C13.2474 13.8018 13.4103 13.2588 13.7393 12.8211C14.0454 12.4553 14.5892 12.2668 15.3654 12.2668H15.595L15.8328 12.2834H16.0678C16.4187 12.3067 16.771 12.2965 17.12 12.2529L18 8.49455C17.5054 8.36376 17.0046 8.25831 16.4996 8.17859ZM8.00821 15.6621V19.6921H17.09V15.651L8.00821 15.6621Z" fill="#383838"/>
<path d="M0 13.8374C1.19065 13.1528 2.60425 12.8749 3.99444 13.0521C5.38463 13.2294 6.66325 13.8505 7.60747 14.8073C7.85179 15.0494 8.06962 15.3131 8.25789 15.5946L8.38637 15.7823L8.51478 15.9727L10 18.162C8.65138 18.9373 7.02398 19.1878 5.47516 18.8583C3.92634 18.5289 2.58267 17.6465 1.73924 16.4049L0 13.8374Z" fill="#507737"/>
<path d="M27.8155 35.3835C25.8297 35.3835 24.1123 34.9616 22.6635 34.1179C21.2231 33.2656 20.1109 32.081 19.3268 30.5639C18.5427 29.0384 18.1507 27.2699 18.1507 25.2585C18.1507 23.2301 18.5427 21.4574 19.3268 19.9403C20.1109 18.4148 21.2231 17.2301 22.6635 16.3864C24.1123 15.5341 25.8297 15.108 27.8155 15.108C29.8013 15.108 31.5143 15.5341 32.9547 16.3864C34.4035 17.2301 35.52 18.4148 36.3041 19.9403C37.0882 21.4574 37.4802 23.2301 37.4802 25.2585C37.4802 27.2699 37.0882 29.0384 36.3041 30.5639C35.52 32.081 34.4035 33.2656 32.9547 34.1179C31.5143 34.9616 29.8013 35.3835 27.8155 35.3835ZM27.841 31.1648C28.7445 31.1648 29.4987 30.9091 30.1038 30.3977C30.7089 29.8778 31.1649 29.1705 31.4717 28.2756C31.7871 27.3807 31.9447 26.3622 31.9447 25.2202C31.9447 24.0781 31.7871 23.0597 31.4717 22.1648C31.1649 21.2699 30.7089 20.5625 30.1038 20.0426C29.4987 19.5227 28.7445 19.2628 27.841 19.2628C26.9291 19.2628 26.1621 19.5227 25.5399 20.0426C24.9263 20.5625 24.4618 21.2699 24.1464 22.1648C23.8396 23.0597 23.6862 24.0781 23.6862 25.2202C23.6862 26.3622 23.8396 27.3807 24.1464 28.2756C24.4618 29.1705 24.9263 29.8778 25.5399 30.3977C26.1621 30.9091 26.9291 31.1648 27.841 31.1648ZM49.8936 35.3835C47.9078 35.3835 46.1905 34.9616 44.7416 34.1179C43.3013 33.2656 42.1891 32.081 41.405 30.5639C40.6209 29.0384 40.2288 27.2699 40.2288 25.2585C40.2288 23.2301 40.6209 21.4574 41.405 19.9403C42.1891 18.4148 43.3013 17.2301 44.7416 16.3864C46.1905 15.5341 47.9078 15.108 49.8936 15.108C51.8794 15.108 53.5925 15.5341 55.0328 16.3864C56.4817 17.2301 57.5981 18.4148 58.3822 19.9403C59.1663 21.4574 59.5584 23.2301 59.5584 25.2585C59.5584 27.2699 59.1663 29.0384 58.3822 30.5639C57.5981 32.081 56.4817 33.2656 55.0328 34.1179C53.5925 34.9616 51.8794 35.3835 49.8936 35.3835ZM49.9192 31.1648C50.8226 31.1648 51.5768 30.9091 52.182 30.3977C52.7871 29.8778 53.243 29.1705 53.5498 28.2756C53.8652 27.3807 54.0229 26.3622 54.0229 25.2202C54.0229 24.0781 53.8652 23.0597 53.5498 22.1648C53.243 21.2699 52.7871 20.5625 52.182 20.0426C51.5768 19.5227 50.8226 19.2628 49.9192 19.2628C49.0072 19.2628 48.2402 19.5227 47.618 20.0426C47.0044 20.5625 46.5399 21.2699 46.2246 22.1648C45.9177 23.0597 45.7643 24.0781 45.7643 25.2202C45.7643 26.3622 45.9177 27.3807 46.2246 28.2756C46.5399 29.1705 47.0044 29.8778 47.618 30.3977C48.2402 30.9091 49.0072 31.1648 49.9192 31.1648ZM70.3354 35.3196C68.8439 35.3196 67.493 34.9361 66.2828 34.169C65.0811 33.3935 64.1266 32.2557 63.4192 30.7557C62.7203 29.2472 62.3709 27.3977 62.3709 25.2074C62.3709 22.9574 62.7331 21.0866 63.4575 19.5952C64.182 18.0952 65.145 16.9744 66.3467 16.233C67.557 15.483 68.8822 15.108 70.3226 15.108C71.422 15.108 72.3382 15.2955 73.0712 15.6705C73.8126 16.0369 74.4092 16.4972 74.8609 17.0511C75.3212 17.5966 75.6706 18.1335 75.9092 18.6619H76.0754V8.81818H81.5087V35H76.1393V31.8551H75.9092C75.6535 32.4006 75.2913 32.9418 74.8226 33.4787C74.3623 34.0071 73.7615 34.446 73.02 34.7955C72.2871 35.1449 71.3922 35.3196 70.3354 35.3196ZM72.0612 30.9858C72.9391 30.9858 73.6805 30.7472 74.2856 30.2699C74.8993 29.7841 75.368 29.1065 75.6919 28.2372C76.0243 27.3679 76.1905 26.3494 76.1905 25.1818C76.1905 24.0142 76.0285 23 75.7047 22.1392C75.3808 21.2784 74.9121 20.6136 74.2984 20.1449C73.6848 19.6761 72.9391 19.4418 72.0612 19.4418C71.1663 19.4418 70.4121 19.6847 69.7984 20.1705C69.1848 20.6562 68.7203 21.3295 68.405 22.1903C68.0896 23.0511 67.932 24.0483 67.932 25.1818C67.932 26.3239 68.0896 27.3338 68.405 28.2116C68.7288 29.081 69.1933 29.7628 69.7984 30.2571C70.4121 30.7429 71.1663 30.9858 72.0612 30.9858Z" fill="#31572C"/>
<path d="M96.5459 15.3636V19.4545H84.4266V15.3636H96.5459ZM87.2008 35V13.9446C87.2008 12.5213 87.4778 11.3409 88.0317 10.4034C88.5942 9.46591 89.3613 8.76278 90.3329 8.29403C91.3045 7.82528 92.4082 7.59091 93.644 7.59091C94.4792 7.59091 95.242 7.65483 95.9323 7.78267C96.6312 7.91051 97.1511 8.02557 97.492 8.12784L96.5204 12.2188C96.3073 12.1506 96.0431 12.0866 95.7278 12.027C95.4209 11.9673 95.1056 11.9375 94.7817 11.9375C93.9806 11.9375 93.4224 12.125 93.107 12.5C92.7917 12.8665 92.634 13.3821 92.634 14.0469V35H87.2008ZM104.769 35.3707C103.516 35.3707 102.4 35.1534 101.42 34.7188C100.44 34.2756 99.6642 33.6236 99.0932 32.7628C98.5307 31.8935 98.2494 30.8111 98.2494 29.5156C98.2494 28.4247 98.4497 27.5085 98.8503 26.767C99.2508 26.0256 99.7963 25.429 100.487 24.9773C101.177 24.5256 101.961 24.1847 102.839 23.9545C103.725 23.7244 104.654 23.5625 105.626 23.4688C106.768 23.3494 107.688 23.2386 108.387 23.1364C109.086 23.0256 109.593 22.8636 109.909 22.6506C110.224 22.4375 110.382 22.1222 110.382 21.7045V21.6278C110.382 20.8182 110.126 20.1918 109.614 19.7486C109.112 19.3054 108.396 19.0838 107.467 19.0838C106.487 19.0838 105.707 19.3011 105.127 19.7358C104.548 20.1619 104.164 20.6989 103.977 21.3466L98.9398 20.9375C99.1954 19.7443 99.6983 18.7131 100.448 17.8438C101.198 16.9659 102.166 16.2926 103.35 15.8239C104.543 15.3466 105.924 15.108 107.492 15.108C108.583 15.108 109.627 15.2358 110.624 15.4915C111.63 15.7472 112.521 16.1435 113.296 16.6804C114.08 17.2173 114.698 17.9077 115.15 18.7514C115.602 19.5866 115.828 20.5881 115.828 21.7557V35H110.663V32.277H110.509C110.194 32.8906 109.772 33.4318 109.244 33.9006C108.715 34.3608 108.08 34.723 107.339 34.9872C106.597 35.2429 105.741 35.3707 104.769 35.3707ZM106.329 31.6122C107.13 31.6122 107.837 31.4545 108.451 31.1392C109.065 30.8153 109.546 30.3807 109.896 29.8352C110.245 29.2898 110.42 28.6719 110.42 27.9815V25.8977C110.249 26.0085 110.015 26.1108 109.717 26.2045C109.427 26.2898 109.099 26.3707 108.732 26.4474C108.366 26.5156 107.999 26.5795 107.633 26.6392C107.266 26.6903 106.934 26.7372 106.636 26.7798C105.997 26.8736 105.438 27.0227 104.961 27.2273C104.484 27.4318 104.113 27.7088 103.849 28.0582C103.585 28.3991 103.453 28.8253 103.453 29.3366C103.453 30.0781 103.721 30.6449 104.258 31.0369C104.803 31.4205 105.494 31.6122 106.329 31.6122ZM120.053 35V15.3636H125.333V18.7898H125.537C125.895 17.571 126.496 16.6506 127.34 16.0284C128.183 15.3977 129.155 15.0824 130.254 15.0824C130.527 15.0824 130.821 15.0994 131.136 15.1335C131.452 15.1676 131.729 15.2145 131.967 15.2741V20.1065C131.712 20.0298 131.358 19.9616 130.906 19.902C130.455 19.8423 130.041 19.8125 129.666 19.8125C128.865 19.8125 128.149 19.9872 127.519 20.3366C126.896 20.6776 126.402 21.1548 126.036 21.7685C125.678 22.3821 125.499 23.0895 125.499 23.8906V35H120.053ZM142.818 35.3835C140.798 35.3835 139.059 34.9744 137.602 34.1562C136.153 33.3295 135.037 32.1619 134.253 30.6534C133.469 29.1364 133.076 27.3423 133.076 25.2713C133.076 23.2514 133.469 21.4787 134.253 19.9531C135.037 18.4276 136.14 17.2386 137.564 16.3864C138.996 15.5341 140.674 15.108 142.601 15.108C143.896 15.108 145.102 15.3168 146.219 15.7344C147.344 16.1435 148.324 16.7614 149.159 17.5881C150.003 18.4148 150.659 19.4545 151.128 20.7074C151.596 21.9517 151.831 23.4091 151.831 25.0795V26.5753H135.25V23.2003H146.704C146.704 22.4162 146.534 21.7216 146.193 21.1165C145.852 20.5114 145.379 20.0384 144.774 19.6974C144.177 19.348 143.483 19.1733 142.69 19.1733C141.863 19.1733 141.13 19.3651 140.491 19.7486C139.861 20.1236 139.366 20.6307 139.008 21.2699C138.65 21.9006 138.467 22.6037 138.459 23.3793V26.5881C138.459 27.5597 138.638 28.3991 138.996 29.1065C139.362 29.8139 139.878 30.3594 140.542 30.7429C141.207 31.1264 141.996 31.3182 142.907 31.3182C143.513 31.3182 144.067 31.233 144.569 31.0625C145.072 30.892 145.503 30.6364 145.861 30.2955C146.219 29.9545 146.491 29.5369 146.679 29.0426L151.716 29.375C151.46 30.5852 150.936 31.642 150.143 32.5455C149.359 33.4403 148.345 34.1392 147.101 34.642C145.865 35.1364 144.437 35.3835 142.818 35.3835Z" fill="#507737"/>
</svg>
