<svg width="404" height="458" viewBox="0 0 404 458" fill="none" xmlns="http://www.w3.org/2000/svg">
<path d="M137.547 453.156C136.906 453.156 136.37 453.107 135.938 453.008C135.505 452.914 135.112 452.789 134.758 452.633V451.812C135.112 451.99 135.518 452.141 135.977 452.266C136.435 452.385 136.961 452.445 137.555 452.445C137.909 452.445 138.266 452.401 138.625 452.312C138.99 452.219 139.323 452.073 139.625 451.875C139.932 451.677 140.177 451.422 140.359 451.109C140.547 450.792 140.641 450.409 140.641 449.961C140.641 449.549 140.552 449.198 140.375 448.906C140.198 448.615 139.94 448.352 139.602 448.117C139.263 447.883 138.857 447.643 138.383 447.398C138.013 447.195 137.664 446.971 137.336 446.727C137.013 446.477 136.753 446.18 136.555 445.836C136.357 445.492 136.258 445.078 136.258 444.594C136.258 444.042 136.359 443.565 136.562 443.164C136.771 442.763 137.049 442.435 137.398 442.18C137.753 441.919 138.148 441.727 138.586 441.602C139.023 441.477 139.474 441.414 139.938 441.414C140.521 441.414 141.021 441.471 141.438 441.586C141.854 441.695 142.26 441.846 142.656 442.039L142.344 442.742C141.969 442.555 141.589 442.409 141.203 442.305C140.823 442.195 140.396 442.141 139.922 442.141C139.604 442.141 139.279 442.185 138.945 442.273C138.617 442.357 138.312 442.492 138.031 442.68C137.75 442.867 137.523 443.115 137.352 443.422C137.18 443.724 137.094 444.096 137.094 444.539C137.094 444.94 137.177 445.273 137.344 445.539C137.51 445.805 137.734 446.036 138.016 446.234C138.297 446.427 138.609 446.617 138.953 446.805C139.432 447.065 139.862 447.331 140.242 447.602C140.622 447.867 140.922 448.182 141.141 448.547C141.365 448.906 141.477 449.362 141.477 449.914C141.477 450.487 141.365 450.979 141.141 451.391C140.922 451.802 140.625 452.138 140.25 452.398C139.875 452.659 139.453 452.852 138.984 452.977C138.521 453.096 138.042 453.156 137.547 453.156ZM142.961 453L145.531 440.844H146.32L145.633 444.047C145.576 444.312 145.513 444.586 145.445 444.867C145.383 445.148 145.318 445.427 145.25 445.703C145.182 445.974 145.117 446.237 145.055 446.492H145.102C145.294 446.174 145.544 445.852 145.852 445.523C146.159 445.195 146.523 444.919 146.945 444.695C147.372 444.466 147.849 444.352 148.375 444.352C148.833 444.352 149.221 444.432 149.539 444.594C149.862 444.75 150.109 444.984 150.281 445.297C150.453 445.609 150.539 446 150.539 446.469C150.539 446.641 150.523 446.826 150.492 447.023C150.466 447.216 150.432 447.417 150.391 447.625L149.25 453H148.461L149.617 447.531C149.664 447.333 149.695 447.154 149.711 446.992C149.732 446.826 149.742 446.68 149.742 446.555C149.742 446.044 149.609 445.664 149.344 445.414C149.078 445.164 148.695 445.039 148.195 445.039C147.69 445.039 147.193 445.201 146.703 445.523C146.219 445.841 145.792 446.289 145.422 446.867C145.052 447.44 144.784 448.109 144.617 448.875L143.75 453H142.961ZM154.609 453.156C154.12 453.156 153.701 453.036 153.352 452.797C153.003 452.557 152.737 452.216 152.555 451.773C152.372 451.326 152.281 450.794 152.281 450.18C152.281 449.612 152.341 449.049 152.461 448.492C152.586 447.935 152.766 447.409 153 446.914C153.24 446.414 153.531 445.971 153.875 445.586C154.219 445.201 154.615 444.898 155.062 444.68C155.51 444.456 156.003 444.344 156.539 444.344C156.992 444.344 157.37 444.44 157.672 444.633C157.974 444.82 158.211 445.057 158.383 445.344C158.555 445.63 158.68 445.919 158.758 446.211H158.812L159.266 444.508H159.891L158.094 453H157.453L157.805 451.016H157.766C157.562 451.333 157.302 451.659 156.984 451.992C156.672 452.32 156.312 452.596 155.906 452.82C155.505 453.044 155.073 453.156 154.609 453.156ZM154.82 452.469C155.268 452.469 155.721 452.307 156.18 451.984C156.643 451.656 157.057 451.214 157.422 450.656C157.786 450.094 158.047 449.461 158.203 448.758C158.276 448.44 158.326 448.159 158.352 447.914C158.383 447.669 158.398 447.443 158.398 447.234C158.398 446.547 158.237 446.01 157.914 445.625C157.591 445.234 157.148 445.039 156.586 445.039C156.148 445.039 155.747 445.135 155.383 445.328C155.018 445.521 154.695 445.786 154.414 446.125C154.133 446.464 153.893 446.852 153.695 447.289C153.503 447.727 153.354 448.193 153.25 448.688C153.146 449.182 153.094 449.682 153.094 450.188C153.094 450.906 153.24 451.466 153.531 451.867C153.823 452.268 154.253 452.469 154.82 452.469ZM160.852 453L162.648 444.508H163.305L162.961 446.484H163.008C163.195 446.182 163.43 445.867 163.711 445.539C163.992 445.211 164.318 444.932 164.688 444.703C165.062 444.474 165.482 444.359 165.945 444.359C166.112 444.359 166.276 444.372 166.438 444.398C166.599 444.419 166.747 444.451 166.883 444.492L166.711 445.203C166.591 445.172 166.461 445.146 166.32 445.125C166.185 445.104 166.036 445.094 165.875 445.094C165.495 445.094 165.125 445.195 164.766 445.398C164.406 445.602 164.076 445.88 163.773 446.234C163.471 446.589 163.211 446.992 162.992 447.445C162.779 447.893 162.617 448.367 162.508 448.867L161.641 453H160.852ZM170.367 453.156C169.81 453.156 169.302 453.039 168.844 452.805C168.391 452.57 168.029 452.214 167.758 451.734C167.492 451.255 167.359 450.648 167.359 449.914C167.359 449.169 167.466 448.464 167.68 447.797C167.893 447.13 168.193 446.539 168.578 446.023C168.964 445.503 169.419 445.094 169.945 444.797C170.471 444.495 171.049 444.344 171.68 444.344C172.357 444.344 172.885 444.516 173.266 444.859C173.651 445.203 173.844 445.661 173.844 446.234C173.844 446.719 173.721 447.138 173.477 447.492C173.237 447.846 172.888 448.138 172.43 448.367C171.971 448.596 171.424 448.768 170.789 448.883C170.154 448.997 169.443 449.055 168.656 449.055H168.219C168.203 449.159 168.19 449.289 168.18 449.445C168.169 449.596 168.164 449.745 168.164 449.891C168.164 450.719 168.37 451.357 168.781 451.805C169.193 452.247 169.768 452.469 170.508 452.469C170.945 452.469 171.346 452.411 171.711 452.297C172.081 452.177 172.422 452.044 172.734 451.898V452.609C172.438 452.76 172.089 452.891 171.688 453C171.286 453.104 170.846 453.156 170.367 453.156ZM168.336 448.375H168.859C169.656 448.375 170.37 448.305 171 448.164C171.635 448.018 172.138 447.792 172.508 447.484C172.878 447.177 173.062 446.779 173.062 446.289C173.062 445.924 172.94 445.625 172.695 445.391C172.456 445.151 172.094 445.031 171.609 445.031C171.161 445.031 170.716 445.161 170.273 445.422C169.831 445.682 169.438 446.062 169.094 446.562C168.75 447.062 168.497 447.667 168.336 448.375ZM179.008 453L180.805 444.508H181.594L179.797 453H179.008ZM181.688 442.656C181.531 442.656 181.404 442.615 181.305 442.531C181.211 442.443 181.164 442.318 181.164 442.156C181.164 442.026 181.188 441.901 181.234 441.781C181.286 441.661 181.362 441.565 181.461 441.492C181.56 441.414 181.68 441.375 181.82 441.375C181.992 441.375 182.117 441.422 182.195 441.516C182.273 441.604 182.312 441.719 182.312 441.859C182.312 442.073 182.253 442.26 182.133 442.422C182.013 442.578 181.865 442.656 181.688 442.656ZM184.711 453.156C184.169 453.156 183.747 453.023 183.445 452.758C183.143 452.492 182.992 452.086 182.992 451.539C182.992 451.393 183.003 451.234 183.023 451.062C183.044 450.891 183.076 450.714 183.117 450.531L184.25 445.156H182.984L183.086 444.695L184.398 444.438L185.102 442.461H185.625L185.188 444.508H187.625L187.484 445.156H185.047L183.914 450.508C183.878 450.674 183.846 450.839 183.82 451C183.799 451.161 183.789 451.312 183.789 451.453C183.789 451.766 183.867 452.016 184.023 452.203C184.18 452.385 184.44 452.477 184.805 452.477C185.039 452.477 185.25 452.458 185.438 452.422C185.63 452.385 185.818 452.336 186 452.273V452.922C185.844 452.979 185.654 453.031 185.43 453.078C185.211 453.13 184.971 453.156 184.711 453.156ZM186.531 455.062C186.766 454.583 186.982 454.117 187.18 453.664C187.372 453.216 187.552 452.781 187.719 452.359C187.885 451.938 188.036 451.531 188.172 451.141H189.016L189.047 451.328C188.891 451.719 188.711 452.13 188.508 452.562C188.305 452.995 188.086 453.424 187.852 453.852C187.622 454.284 187.391 454.688 187.156 455.062H186.531ZM197.938 453.156C197.422 453.156 196.987 453.039 196.633 452.805C196.279 452.565 196.01 452.224 195.828 451.781C195.651 451.339 195.562 450.805 195.562 450.18C195.562 449.622 195.622 449.065 195.742 448.508C195.862 447.951 196.036 447.422 196.266 446.922C196.5 446.422 196.789 445.979 197.133 445.594C197.482 445.208 197.883 444.906 198.336 444.688C198.794 444.464 199.307 444.352 199.875 444.352C200.354 444.352 200.755 444.445 201.078 444.633C201.401 444.815 201.656 445.049 201.844 445.336C202.036 445.617 202.169 445.909 202.242 446.211H202.289C202.326 445.971 202.362 445.732 202.398 445.492C202.44 445.247 202.484 445.008 202.531 444.773C202.583 444.534 202.633 444.297 202.68 444.062L203.367 440.844H204.148L201.57 453H200.914L201.266 450.992H201.219C200.984 451.346 200.706 451.69 200.383 452.023C200.06 452.352 199.693 452.622 199.281 452.836C198.875 453.049 198.427 453.156 197.938 453.156ZM198.141 452.469C198.438 452.469 198.737 452.406 199.039 452.281C199.341 452.151 199.63 451.971 199.906 451.742C200.188 451.508 200.448 451.229 200.688 450.906C200.927 450.583 201.138 450.227 201.32 449.836C201.503 449.445 201.643 449.031 201.742 448.594C201.846 448.156 201.898 447.703 201.898 447.234C201.898 446.521 201.719 445.977 201.359 445.602C201.005 445.227 200.518 445.039 199.898 445.039C199.44 445.039 199.026 445.138 198.656 445.336C198.286 445.529 197.958 445.797 197.672 446.141C197.391 446.484 197.154 446.875 196.961 447.312C196.768 447.75 196.622 448.216 196.523 448.711C196.424 449.206 196.375 449.698 196.375 450.188C196.375 450.917 196.521 451.479 196.812 451.875C197.109 452.271 197.552 452.469 198.141 452.469ZM207.773 453.141C207.117 453.141 206.565 453.005 206.117 452.734C205.669 452.464 205.331 452.083 205.102 451.594C204.878 451.104 204.766 450.536 204.766 449.891C204.766 449.271 204.831 448.685 204.961 448.133C205.096 447.581 205.289 447.076 205.539 446.617C205.794 446.154 206.099 445.755 206.453 445.422C206.812 445.083 207.216 444.823 207.664 444.641C208.117 444.453 208.604 444.359 209.125 444.359C209.771 444.359 210.315 444.497 210.758 444.773C211.201 445.049 211.536 445.432 211.766 445.922C212 446.406 212.117 446.969 212.117 447.609C212.117 448.182 212.055 448.74 211.93 449.281C211.81 449.823 211.63 450.328 211.391 450.797C211.151 451.266 210.854 451.674 210.5 452.023C210.151 452.372 209.747 452.646 209.289 452.844C208.836 453.042 208.331 453.141 207.773 453.141ZM207.844 452.461C208.26 452.461 208.646 452.383 209 452.227C209.359 452.065 209.68 451.839 209.961 451.547C210.247 451.255 210.49 450.906 210.688 450.5C210.891 450.094 211.044 449.641 211.148 449.141C211.253 448.641 211.305 448.107 211.305 447.539C211.305 447.081 211.227 446.664 211.07 446.289C210.914 445.909 210.674 445.607 210.352 445.383C210.034 445.159 209.622 445.047 209.117 445.047C208.701 445.047 208.312 445.122 207.953 445.273C207.594 445.424 207.266 445.643 206.969 445.93C206.677 446.216 206.427 446.56 206.219 446.961C206.01 447.362 205.849 447.812 205.734 448.312C205.625 448.807 205.57 449.341 205.57 449.914C205.57 450.701 205.76 451.323 206.141 451.781C206.526 452.234 207.094 452.461 207.844 452.461ZM213.422 453L215.227 444.492H215.914L215.57 446.469H215.594C215.781 446.156 216.029 445.836 216.336 445.508C216.643 445.18 217.008 444.901 217.43 444.672C217.857 444.443 218.333 444.328 218.859 444.328C219.323 444.328 219.716 444.409 220.039 444.57C220.367 444.732 220.615 444.969 220.781 445.281C220.953 445.594 221.039 445.977 221.039 446.43C221.039 446.622 221.023 446.823 220.992 447.031C220.966 447.24 220.932 447.44 220.891 447.633L219.75 453H218.922L220.086 447.523C220.128 447.326 220.159 447.146 220.18 446.984C220.201 446.818 220.211 446.667 220.211 446.531C220.211 446.031 220.078 445.661 219.812 445.422C219.547 445.177 219.169 445.055 218.68 445.055C218.174 445.055 217.68 445.214 217.195 445.531C216.716 445.849 216.292 446.294 215.922 446.867C215.552 447.44 215.286 448.109 215.125 448.875L214.242 453H213.422ZM222.93 445.492C223.148 445.102 223.367 444.674 223.586 444.211C223.805 443.747 224.005 443.286 224.188 442.828C224.375 442.37 224.526 441.953 224.641 441.578H225.414L225.492 441.734C225.331 442.146 225.146 442.57 224.938 443.008C224.729 443.445 224.505 443.875 224.266 444.297C224.026 444.719 223.781 445.117 223.531 445.492H222.93ZM226.789 453.156C226.247 453.156 225.826 453.023 225.523 452.758C225.221 452.492 225.07 452.086 225.07 451.539C225.07 451.393 225.081 451.234 225.102 451.062C225.122 450.891 225.154 450.714 225.195 450.531L226.328 445.156H225.062L225.164 444.695L226.477 444.438L227.18 442.461H227.703L227.266 444.508H229.703L229.562 445.156H227.125L225.992 450.508C225.956 450.674 225.924 450.839 225.898 451C225.878 451.161 225.867 451.312 225.867 451.453C225.867 451.766 225.945 452.016 226.102 452.203C226.258 452.385 226.518 452.477 226.883 452.477C227.117 452.477 227.328 452.458 227.516 452.422C227.708 452.385 227.896 452.336 228.078 452.273V452.922C227.922 452.979 227.732 453.031 227.508 453.078C227.289 453.13 227.049 453.156 226.789 453.156ZM234.812 453L234.352 444.508H235.125L235.391 449.945C235.417 450.419 235.427 450.831 235.422 451.18C235.422 451.529 235.419 451.841 235.414 452.117H235.453C235.531 451.93 235.615 451.729 235.703 451.516C235.797 451.302 235.901 451.076 236.016 450.836C236.13 450.591 236.26 450.328 236.406 450.047L239.18 444.508H239.953L240.445 449.945C240.471 450.346 240.492 450.732 240.508 451.102C240.529 451.466 240.539 451.805 240.539 452.117H240.578C240.651 451.909 240.732 451.69 240.82 451.461C240.914 451.232 241.021 450.982 241.141 450.711C241.26 450.435 241.393 450.133 241.539 449.805L244.016 444.508H244.844L240.852 453H239.984L239.492 447.367C239.471 447.148 239.456 446.943 239.445 446.75C239.435 446.552 239.427 446.352 239.422 446.148C239.417 445.94 239.411 445.711 239.406 445.461H239.367C239.279 445.68 239.19 445.885 239.102 446.078C239.018 446.271 238.93 446.466 238.836 446.664C238.747 446.857 238.643 447.073 238.523 447.312L235.664 453H234.812ZM247.453 453.156C246.964 453.156 246.544 453.036 246.195 452.797C245.846 452.557 245.581 452.216 245.398 451.773C245.216 451.326 245.125 450.794 245.125 450.18C245.125 449.612 245.185 449.049 245.305 448.492C245.43 447.935 245.609 447.409 245.844 446.914C246.083 446.414 246.375 445.971 246.719 445.586C247.062 445.201 247.458 444.898 247.906 444.68C248.354 444.456 248.846 444.344 249.383 444.344C249.836 444.344 250.214 444.44 250.516 444.633C250.818 444.82 251.055 445.057 251.227 445.344C251.398 445.63 251.523 445.919 251.602 446.211H251.656L252.109 444.508H252.734L250.938 453H250.297L250.648 451.016H250.609C250.406 451.333 250.146 451.659 249.828 451.992C249.516 452.32 249.156 452.596 248.75 452.82C248.349 453.044 247.917 453.156 247.453 453.156ZM247.664 452.469C248.112 452.469 248.565 452.307 249.023 451.984C249.487 451.656 249.901 451.214 250.266 450.656C250.63 450.094 250.891 449.461 251.047 448.758C251.12 448.44 251.169 448.159 251.195 447.914C251.227 447.669 251.242 447.443 251.242 447.234C251.242 446.547 251.081 446.01 250.758 445.625C250.435 445.234 249.992 445.039 249.43 445.039C248.992 445.039 248.591 445.135 248.227 445.328C247.862 445.521 247.539 445.786 247.258 446.125C246.977 446.464 246.737 446.852 246.539 447.289C246.346 447.727 246.198 448.193 246.094 448.688C245.99 449.182 245.938 449.682 245.938 450.188C245.938 450.906 246.083 451.466 246.375 451.867C246.667 452.268 247.096 452.469 247.664 452.469ZM255.773 453.156C255.232 453.156 254.758 453.096 254.352 452.977C253.951 452.857 253.62 452.727 253.359 452.586V451.797C253.656 451.974 254.016 452.133 254.438 452.273C254.859 452.409 255.302 452.477 255.766 452.477C256.292 452.477 256.719 452.404 257.047 452.258C257.375 452.112 257.617 451.911 257.773 451.656C257.935 451.396 258.016 451.096 258.016 450.758C258.016 450.456 257.945 450.203 257.805 450C257.664 449.797 257.466 449.615 257.211 449.453C256.961 449.286 256.672 449.112 256.344 448.93C255.974 448.721 255.643 448.516 255.352 448.312C255.06 448.109 254.831 447.878 254.664 447.617C254.497 447.352 254.414 447.029 254.414 446.648C254.414 446.138 254.536 445.714 254.781 445.375C255.031 445.036 255.37 444.781 255.797 444.609C256.224 444.432 256.706 444.344 257.242 444.344C257.747 444.344 258.203 444.396 258.609 444.5C259.016 444.604 259.367 444.727 259.664 444.867L259.406 445.539C259.135 445.404 258.812 445.286 258.438 445.188C258.068 445.089 257.667 445.039 257.234 445.039C256.646 445.039 256.159 445.167 255.773 445.422C255.393 445.677 255.203 446.07 255.203 446.602C255.203 446.867 255.268 447.096 255.398 447.289C255.534 447.477 255.724 447.648 255.969 447.805C256.219 447.961 256.51 448.13 256.844 448.312C257.193 448.51 257.518 448.711 257.82 448.914C258.122 449.117 258.365 449.359 258.547 449.641C258.734 449.917 258.828 450.271 258.828 450.703C258.828 451.188 258.714 451.615 258.484 451.984C258.26 452.354 257.919 452.643 257.461 452.852C257.008 453.055 256.445 453.156 255.773 453.156ZM262.602 453.156C262.06 453.156 261.638 453.023 261.336 452.758C261.034 452.492 260.883 452.086 260.883 451.539C260.883 451.393 260.893 451.234 260.914 451.062C260.935 450.891 260.966 450.714 261.008 450.531L262.141 445.156H260.875L260.977 444.695L262.289 444.438L262.992 442.461H263.516L263.078 444.508H265.516L265.375 445.156H262.938L261.805 450.508C261.768 450.674 261.737 450.839 261.711 451C261.69 451.161 261.68 451.312 261.68 451.453C261.68 451.766 261.758 452.016 261.914 452.203C262.07 452.385 262.331 452.477 262.695 452.477C262.93 452.477 263.141 452.458 263.328 452.422C263.521 452.385 263.708 452.336 263.891 452.273V452.922C263.734 452.979 263.544 453.031 263.32 453.078C263.102 453.13 262.862 453.156 262.602 453.156ZM269.039 453.156C268.482 453.156 267.974 453.039 267.516 452.805C267.062 452.57 266.701 452.214 266.43 451.734C266.164 451.255 266.031 450.648 266.031 449.914C266.031 449.169 266.138 448.464 266.352 447.797C266.565 447.13 266.865 446.539 267.25 446.023C267.635 445.503 268.091 445.094 268.617 444.797C269.143 444.495 269.721 444.344 270.352 444.344C271.029 444.344 271.557 444.516 271.938 444.859C272.323 445.203 272.516 445.661 272.516 446.234C272.516 446.719 272.393 447.138 272.148 447.492C271.909 447.846 271.56 448.138 271.102 448.367C270.643 448.596 270.096 448.768 269.461 448.883C268.826 448.997 268.115 449.055 267.328 449.055H266.891C266.875 449.159 266.862 449.289 266.852 449.445C266.841 449.596 266.836 449.745 266.836 449.891C266.836 450.719 267.042 451.357 267.453 451.805C267.865 452.247 268.44 452.469 269.18 452.469C269.617 452.469 270.018 452.411 270.383 452.297C270.753 452.177 271.094 452.044 271.406 451.898V452.609C271.109 452.76 270.76 452.891 270.359 453C269.958 453.104 269.518 453.156 269.039 453.156ZM267.008 448.375H267.531C268.328 448.375 269.042 448.305 269.672 448.164C270.307 448.018 270.81 447.792 271.18 447.484C271.549 447.177 271.734 446.779 271.734 446.289C271.734 445.924 271.612 445.625 271.367 445.391C271.128 445.151 270.766 445.031 270.281 445.031C269.833 445.031 269.388 445.161 268.945 445.422C268.503 445.682 268.109 446.062 267.766 446.562C267.422 447.062 267.169 447.667 267.008 448.375ZM277.68 453L279.477 444.508H280.266L278.469 453H277.68ZM280.359 442.656C280.203 442.656 280.076 442.615 279.977 442.531C279.883 442.443 279.836 442.318 279.836 442.156C279.836 442.026 279.859 441.901 279.906 441.781C279.958 441.661 280.034 441.565 280.133 441.492C280.232 441.414 280.352 441.375 280.492 441.375C280.664 441.375 280.789 441.422 280.867 441.516C280.945 441.604 280.984 441.719 280.984 441.859C280.984 442.073 280.924 442.26 280.805 442.422C280.685 442.578 280.536 442.656 280.359 442.656ZM283.383 453.156C282.841 453.156 282.419 453.023 282.117 452.758C281.815 452.492 281.664 452.086 281.664 451.539C281.664 451.393 281.674 451.234 281.695 451.062C281.716 450.891 281.747 450.714 281.789 450.531L282.922 445.156H281.656L281.758 444.695L283.07 444.438L283.773 442.461H284.297L283.859 444.508H286.297L286.156 445.156H283.719L282.586 450.508C282.549 450.674 282.518 450.839 282.492 451C282.471 451.161 282.461 451.312 282.461 451.453C282.461 451.766 282.539 452.016 282.695 452.203C282.852 452.385 283.112 452.477 283.477 452.477C283.711 452.477 283.922 452.458 284.109 452.422C284.302 452.385 284.49 452.336 284.672 452.273V452.922C284.516 452.979 284.326 453.031 284.102 453.078C283.883 453.13 283.643 453.156 283.383 453.156ZM286.891 453.164C286.719 453.164 286.586 453.117 286.492 453.023C286.398 452.93 286.352 452.797 286.352 452.625C286.352 452.406 286.411 452.203 286.531 452.016C286.656 451.828 286.849 451.734 287.109 451.734C287.276 451.734 287.404 451.784 287.492 451.883C287.581 451.982 287.625 452.112 287.625 452.273C287.625 452.487 287.562 452.69 287.438 452.883C287.318 453.07 287.135 453.164 286.891 453.164Z" fill="black"/>
<path d="M267.286 26.0984C267.286 26.0984 206.153 4.36322 146.143 38.9699C86.1328 73.5765 55.849 142.281 29.8475 197.314C3.84608 252.346 18.8102 308.325 64.5915 333.866C110.373 359.407 141.554 321.746 205.814 319.928C270.074 318.11 287.398 327.24 340.717 290.969C394.037 254.698 403.685 168.961 361.62 105.484C319.556 42.0079 267.286 26.0984 267.286 26.0984Z" fill="#90A955"/>
<path opacity="0.7" d="M267.286 26.0984C267.286 26.0984 206.153 4.36322 146.143 38.9699C86.1328 73.5765 55.849 142.281 29.8475 197.314C3.84608 252.346 18.8102 308.325 64.5915 333.866C110.373 359.407 141.554 321.746 205.814 319.928C270.074 318.11 287.398 327.24 340.717 290.969C394.037 254.698 403.685 168.961 361.62 105.484C319.556 42.0079 267.286 26.0984 267.286 26.0984Z" fill="white"/>
<path d="M374.476 172.5C374.476 172.5 374.476 167.959 368.125 161.608C361.774 155.257 357.685 151.621 357.685 151.621C357.685 151.621 354.51 162.061 360.408 168.42C364.747 172.888 369.453 176.985 374.476 180.669V172.5Z" fill="#90A955"/>
<path d="M365.256 200.845C365.256 200.845 365.256 196.304 358.906 189.953C352.555 183.602 348.466 179.966 348.466 179.966C348.466 179.966 345.291 190.405 351.189 196.756C355.527 201.228 360.232 205.329 365.256 209.013V200.845Z" fill="#90A955"/>
<path d="M374.104 180.233C374.104 180.233 374.581 175.716 381.57 170.068C388.559 164.42 393.003 161.245 393.003 161.245C393.003 161.245 395.064 171.959 388.527 177.655C383.74 181.643 378.626 185.221 373.24 188.353L374.104 180.233Z" fill="#90A955"/>
<path d="M362.937 213.7C362.937 213.7 363.891 209.272 371.438 204.424C378.984 199.576 383.735 196.845 383.735 196.845C383.735 196.845 384.648 207.721 377.554 212.698C372.373 216.16 366.91 219.182 361.224 221.731L362.937 213.7Z" fill="#90A955"/>
<path d="M365.03 250.197C365.03 250.197 365.03 245.656 371.389 239.305C377.748 232.954 381.828 229.318 381.828 229.318C381.828 229.318 385.004 239.758 379.106 246.109C374.764 250.58 370.056 254.68 365.03 258.366V250.197Z" fill="#90A955"/>
<path d="M364.925 259.101C364.925 259.101 365.571 254.609 360.19 247.418C354.809 240.227 351.302 236.057 351.302 236.057C351.302 236.057 346.68 245.931 351.617 253.025C355.276 258.069 359.352 262.796 363.802 267.157L364.925 259.101Z" fill="#90A955"/>
<path d="M358.663 285.507C358.663 285.507 358.663 280.966 365.014 274.615C371.365 268.264 375.453 264.628 375.453 264.628C375.453 264.628 378.629 275.067 372.73 281.418C368.39 285.888 363.685 289.988 358.663 293.676V285.507Z" fill="#90A955"/>
<path d="M362.905 309.464C362.905 309.464 361.758 305.069 366.291 297.344C370.823 289.62 373.862 285.038 373.862 285.038C373.862 285.038 379.582 294.33 375.478 302.006C372.411 307.428 368.898 312.585 364.974 317.423L362.905 309.464Z" fill="#90A955"/>
<path d="M375.057 171.336C374.728 176.062 374.14 180.766 373.296 185.428C370.783 198.404 364.505 206.775 361.984 218.499C359.463 230.223 366.687 245.317 364.755 260.37C362.824 275.423 356.966 283.802 358.639 293.845C360.311 303.889 369.102 331.094 369.102 331.094" stroke="#263238" stroke-linecap="round" stroke-linejoin="round"/>
<path d="M374.015 183.246L380.867 177.994" stroke="#263238" stroke-linecap="round" stroke-linejoin="round"/>
<path d="M374.338 177.194L371.47 172.096" stroke="#263238" stroke-linecap="round" stroke-linejoin="round"/>
<path d="M362.396 217.958C362.396 217.958 368.125 213.659 374.015 209.361" stroke="#263238" stroke-linecap="round" stroke-linejoin="round"/>
<path d="M365.256 209.013C365.256 209.013 360.481 199.649 355.068 193.435" stroke="#263238" stroke-linecap="round" stroke-linejoin="round"/>
<path d="M365.256 256.653C368.53 250.621 372.661 245.096 377.522 240.251" stroke="#263238" stroke-linecap="round" stroke-linejoin="round"/>
<path d="M364.141 263.02C362.407 258.928 360.334 254.987 357.944 251.239C354.599 246.303 354.122 245.664 354.122 245.664" stroke="#263238" stroke-linecap="round" stroke-linejoin="round"/>
<path d="M358.663 293.845C360.113 290.238 361.84 286.748 363.826 283.406C365.811 280.307 368.048 277.377 370.516 274.647" stroke="#263238" stroke-linecap="round" stroke-linejoin="round"/>
<path d="M364.974 317.342C364.974 317.342 364.303 311.904 366.695 307.29C369.086 302.677 371.785 296.617 372.9 294.233" stroke="#263238" stroke-linecap="round" stroke-linejoin="round"/>
<path d="M332.896 233.132C332.896 233.132 332.403 230.28 335.7 225.61C338.996 220.94 341.162 218.217 341.162 218.217C341.162 218.217 344.289 224.414 341.275 229.044C339.041 232.316 336.535 235.395 333.785 238.247L332.896 233.132Z" fill="#90A955"/>
<path d="M341.736 249.898C341.736 249.898 341.243 247.054 344.531 242.384C347.82 237.714 349.993 234.991 349.993 234.991C349.993 234.991 353.12 241.188 350.115 245.81C347.878 249.085 345.369 252.166 342.616 255.021L341.736 249.898Z" fill="#90A955"/>
<path d="M333.963 237.932C333.963 237.932 333.155 235.152 328.177 232.373C323.2 229.593 320.049 228.082 320.049 228.082C320.049 228.082 319.92 235.023 324.638 237.883C328.074 239.863 331.668 241.552 335.385 242.933L333.963 237.932Z" fill="#90A955"/>
<path d="M344.58 257.752C344.58 257.752 343.505 255.078 338.245 252.831C332.985 250.585 329.712 249.413 329.712 249.413C329.712 249.413 330.31 256.33 335.304 258.681C338.927 260.29 342.678 261.593 346.519 262.576L344.58 257.752Z" fill="#90A955"/>
<path d="M347.23 280.828C347.23 280.828 346.737 277.976 342.067 274.688C337.397 271.399 334.431 269.557 334.431 269.557C334.431 269.557 333.575 276.449 337.962 279.794C341.173 282.122 344.57 284.182 348.119 285.951L347.23 280.828Z" fill="#90A955"/>
<path d="M348.248 286.396C348.248 286.396 347.359 283.648 349.953 278.558C352.547 273.468 354.308 270.478 354.308 270.478C354.308 270.478 358.283 276.134 355.924 281.176C354.18 284.735 352.139 288.14 349.824 291.357L348.248 286.396Z" fill="#90A955"/>
<path d="M356.239 309.351C356.239 309.351 356.57 306.482 361.047 302.927C365.523 299.372 368.367 297.344 368.367 297.344C368.367 297.344 369.62 304.172 365.426 307.759C362.36 310.271 359.09 312.522 355.649 314.49L356.239 309.351Z" fill="#90A955"/>
<path d="M355.059 302.273C355.059 302.273 354.566 299.429 349.888 296.132C345.21 292.835 342.261 291.009 342.261 291.009C342.261 291.009 341.404 297.893 345.792 301.239C348.999 303.572 352.396 305.632 355.948 307.396L355.059 302.273Z" fill="#90A955"/>
<path d="M354.995 317.746C354.995 317.746 355.237 314.862 351.553 310.474C347.868 306.087 345.469 303.574 345.469 303.574C345.469 303.574 342.899 310.038 346.277 314.369C348.79 317.438 351.555 320.292 354.542 322.901L354.995 317.746Z" fill="#90A955"/>
<path d="M332.387 232.462C333.101 235.389 333.975 238.275 335.005 241.107C337.994 248.977 342.834 253.542 345.687 260.62C348.539 267.699 345.646 277.944 348.49 287.179C351.335 296.415 355.924 301.02 355.964 307.501C356.005 313.981 353.443 331.999 353.443 331.999" stroke="#263238" stroke-linecap="round" stroke-linejoin="round"/>
<path d="M334.326 239.814L329.462 237.261" stroke="#263238" stroke-linecap="round" stroke-linejoin="round"/>
<path d="M333.47 236.057L334.714 232.551" stroke="#263238" stroke-linecap="round" stroke-linejoin="round"/>
<path d="M345.388 260.322C345.388 260.322 341.348 258.245 337.162 256.193" stroke="#263238" stroke-linecap="round" stroke-linejoin="round"/>
<path d="M342.592 255.021C343.784 251.247 345.36 247.606 347.295 244.153" stroke="#263238" stroke-linecap="round" stroke-linejoin="round"/>
<path d="M347.787 284.901C345.082 281.47 341.892 278.452 338.318 275.94" stroke="#263238" stroke-linecap="round" stroke-linejoin="round"/>
<path d="M349.177 288.771C349.825 286.01 350.701 283.308 351.795 280.691C353.355 277.233 353.589 276.78 353.589 276.78" stroke="#263238" stroke-linecap="round" stroke-linejoin="round"/>
<path d="M355.746 312.421C355.746 312.421 358.978 308.47 360.974 306.992C362.183 306.099 363.318 305.11 364.368 304.034" stroke="#263238" stroke-linecap="round" stroke-linejoin="round"/>
<path d="M355.964 307.501C354.66 305.397 353.199 303.396 351.593 301.513C350.012 299.788 348.29 298.196 346.446 296.754" stroke="#263238" stroke-linecap="round" stroke-linejoin="round"/>
<path d="M354.559 322.925C354.392 320.729 353.642 318.617 352.385 316.809C350.389 314.167 348.038 310.668 347.076 309.294" stroke="#263238" stroke-linecap="round" stroke-linejoin="round"/>
<path d="M373.813 369.563H348.676C348.151 369.563 347.648 369.355 347.276 368.983C346.905 368.612 346.697 368.109 346.697 367.583L340.467 328.856H382.03L375.793 367.583C375.793 368.109 375.584 368.612 375.213 368.983C374.842 369.355 374.338 369.563 373.813 369.563Z" fill="#263238" stroke="#263238" stroke-linecap="round" stroke-linejoin="round"/>
<path d="M381.667 334.278H340.459C339.602 334.278 338.78 333.937 338.174 333.331C337.567 332.725 337.227 331.903 337.227 331.046C337.227 330.189 337.567 329.366 338.174 328.76C338.78 328.154 339.602 327.814 340.459 327.814H381.667C382.524 327.814 383.346 328.154 383.952 328.76C384.558 329.366 384.899 330.189 384.899 331.046C384.899 331.903 384.558 332.725 383.952 333.331C383.346 333.937 382.524 334.278 381.667 334.278Z" fill="#263238" stroke="#263238" stroke-linecap="round" stroke-linejoin="round"/>
<path d="M342.099 334.423H372.019" stroke="white" stroke-linecap="round" stroke-linejoin="round"/>
<path d="M374.831 334.423H379.76" stroke="white" stroke-linecap="round" stroke-linejoin="round"/>
<path d="M206.501 145.497C206.501 145.497 204.4 147.597 204.61 149.698C204.82 151.799 222.677 189.411 224.567 192.142C226.458 194.873 231.92 195.714 234.449 194.243C236.978 192.773 246.844 182.269 246.844 182.269L246.351 128.407C246.351 128.407 237.601 153.455 235.08 157.495C232.559 161.535 231.29 163.596 231.29 163.596C231.29 163.596 225.634 147.622 224.147 144.47C223.107 142.442 221.502 140.759 219.526 139.622L206.501 145.497Z" fill="#BFBFBF" stroke="#263238" stroke-linecap="round" stroke-linejoin="round"/>
<path d="M250.706 355.52C250.706 355.52 238.093 360.287 233.326 361.984C228.559 363.681 228.842 367.874 229.399 368.715L229.965 369.523H275.1C275.768 367.129 275.669 364.585 274.817 362.251C273.419 358.065 250.706 355.52 250.706 355.52Z" fill="white" stroke="#263238" stroke-linecap="round" stroke-linejoin="round"/>
<path d="M275.528 367.317H229.108C229.081 367.803 229.181 368.288 229.399 368.723L229.965 369.531H275.1C275.332 368.813 275.476 368.069 275.528 367.317Z" fill="white" stroke="#263238" stroke-linecap="round" stroke-linejoin="round"/>
<path d="M241.172 201.628C241.172 201.628 238.093 232.187 238.093 247.886C238.093 263.586 243.701 294.71 245.365 304.244C247.03 313.779 252.637 343.772 252.637 346.01C252.637 348.248 252.637 351.06 250.957 352.183C250.391 352.531 249.934 353.03 249.637 353.624C249.34 354.218 249.215 354.883 249.276 355.544V357.225C249.276 357.225 262.729 363.956 268.62 364.238C271.231 364.445 273.854 364.445 276.465 364.238C276.465 364.238 275.908 351.617 275.908 346.293C275.908 340.968 276.191 302.838 276.465 296.948C276.74 291.058 277.871 248.727 278.994 236.954C280.117 225.182 283.479 204.998 283.479 204.998L242.271 198.267L241.172 201.628Z" fill="#90A955" stroke="#263238" stroke-linecap="round" stroke-linejoin="round"/>
<path d="M280.707 355.52C280.707 355.52 268.086 360.287 263.327 361.984C258.568 363.681 258.835 367.874 259.4 368.715L259.958 369.523H305.093C305.762 367.129 305.666 364.587 304.818 362.251C303.412 358.065 280.707 355.52 280.707 355.52Z" fill="white" stroke="#263238" stroke-linecap="round" stroke-linejoin="round"/>
<path d="M305.489 367.317H259.101C259.08 367.803 259.183 368.287 259.4 368.723L259.958 369.531H305.093C305.319 368.813 305.452 368.069 305.489 367.317Z" fill="white" stroke="#263238" stroke-linecap="round" stroke-linejoin="round"/>
<path d="M265.283 205.272C265.283 205.272 265.565 248.169 265.283 260.782C265 273.395 272.555 305.359 274.817 312.93C277.079 320.501 280.982 349.937 281.281 351.343C281.58 352.749 277.079 354.146 277.079 357.225C277.079 360.303 289.409 360.311 289.409 360.311C289.409 360.311 300.907 363.673 302.03 363.673C303.182 363.813 304.311 364.098 305.392 364.521C306.519 360.594 307.178 356.548 307.355 352.466C307.402 347.814 306.74 343.182 305.392 338.73C305.392 338.73 306.798 314.062 305.675 299.485C304.551 284.909 301.465 267.246 301.465 261.913C301.465 256.58 304.551 246.779 305.957 235.839C307.363 224.899 307.913 208.925 307.913 205.563C307.913 202.202 265.897 201.362 265.897 201.362L265.283 205.272Z" fill="#90A955" stroke="#263238" stroke-linecap="round" stroke-linejoin="round"/>
<path d="M275.94 118.089C275.94 118.089 255.191 121.733 251.547 122.291C247.902 122.848 245.632 128.472 244.824 133.223C244.016 137.974 239.216 199.948 241.172 201.628C243.127 203.309 295.841 208.9 301.731 209.199C307.622 209.498 309.585 209.765 310.143 205.555C310.7 201.346 319.265 141.174 320.881 135.687C323.677 126.161 298.37 121.143 292.48 119.77C286.59 118.396 275.94 118.089 275.94 118.089Z" fill="#BFBFBF" stroke="#263238" stroke-linecap="round" stroke-linejoin="round"/>
<path d="M303.808 122.695C303.808 122.695 293.587 153.399 291.906 157.899C290.226 162.4 290.217 163.499 290.217 163.499L255.74 156.227C255.74 156.227 259.384 138.847 260.782 134.08C262.18 129.312 265.525 119.915 265.525 119.915L263.028 120.344C263.028 120.344 254.9 146.418 252.936 153.423C250.973 160.428 241.737 182.85 241.172 189.88C240.606 196.91 237.811 222.96 236.97 240.348C236.13 257.736 237.253 275.948 237.253 275.948C237.253 275.948 270.05 282.113 279.867 281.839C289.684 281.564 295.841 281.556 295.841 281.556C295.841 281.556 295.033 248.193 296.124 237.544C297.215 226.894 300.891 207.26 300.891 207.26L309.86 206.703L310.143 205.579L299.21 204.771C299.21 204.771 293.304 166.028 293.304 164.622V162.408L305.674 123.47L303.808 122.695Z" fill="#263238" stroke="#263238" stroke-linecap="round" stroke-linejoin="round"/>
<path d="M316.914 230.547C316.914 230.547 310.45 239.798 309.973 241.342C309.496 242.885 310.999 249.316 310.999 251.369C310.999 253.421 313.569 253.429 313.569 253.429C313.569 253.429 312.284 256.766 313.827 258.059C315.37 259.352 322.053 259.085 323.337 256.766C324.622 254.447 329.801 246.488 329.801 242.626C329.655 239.424 329.225 236.242 328.517 233.116L316.914 230.547Z" fill="#828282" stroke="#263238" stroke-linecap="round" stroke-linejoin="round"/>
<path d="M313.569 253.429C313.569 253.429 315.629 251.627 315.629 249.316C315.629 247.006 317.681 243.143 317.681 243.143" stroke="#263238" stroke-linecap="round" stroke-linejoin="round"/>
<path d="M317.431 224.624C317.172 225.392 315.37 230.797 316.914 232.34C318.457 233.884 327.967 235.419 328.993 234.393C330.02 233.367 331.821 227.452 331.821 227.452L317.431 224.624Z" fill="#BFBFBF" stroke="#263238" stroke-linecap="round" stroke-linejoin="round"/>
<path d="M306.369 164.985L316.655 188.636C316.655 188.636 313.31 222.321 315.112 225.149C316.914 227.977 331.571 229.262 334.14 227.46C336.71 225.658 338.512 219.235 339.538 207.664C340.564 196.093 334.908 163.701 333.365 158.295C331.821 152.89 321.584 131.3 319.225 129.506C316.865 127.712 312.542 128.213 311.258 128.698" fill="#BFBFBF"/>
<path d="M306.369 164.985L316.655 188.636C316.655 188.636 313.31 222.321 315.112 225.149C316.914 227.977 331.571 229.262 334.14 227.46C336.71 225.658 338.512 219.235 339.538 207.664C340.564 196.093 334.908 163.701 333.365 158.295C331.821 152.89 321.584 131.3 319.225 129.506C316.865 127.712 312.542 128.213 311.258 128.698" stroke="#263238" stroke-linecap="round" stroke-linejoin="round"/>
<path d="M215.615 134.128C215.615 134.128 213.296 124.876 211.244 121.273C209.191 117.669 195.56 112.789 194.017 112.789C192.474 112.789 192.991 116.134 192.991 119.253C192.991 122.372 193.5 127.737 196.845 131.332C200.19 134.928 206.097 137.505 206.097 137.505L207.898 141.877L217.158 136.988L215.615 134.128Z" fill="#828282" stroke="#263238" stroke-linecap="round" stroke-linejoin="round"/>
<path d="M210.282 109.355L210.767 107.205C210.895 106.639 210.908 106.053 210.804 105.481C210.701 104.91 210.483 104.366 210.163 103.88C209.844 103.395 209.431 102.98 208.947 102.658C208.463 102.337 207.92 102.116 207.349 102.01V102.01C206.389 101.83 205.397 101.98 204.533 102.434C203.67 102.889 202.985 103.622 202.59 104.515L182.964 149.068" stroke="#263238" stroke-linecap="round" stroke-linejoin="round"/>
<path d="M162.602 145.917C162.708 148.6 163.848 151.137 165.784 152.998C167.719 154.859 170.3 155.898 172.985 155.898C175.67 155.898 178.25 154.859 180.186 152.998C182.121 151.137 183.262 148.6 183.368 145.917H162.602Z" fill="white" stroke="#263238" stroke-linecap="round" stroke-linejoin="round"/>
<path d="M165.963 132.593C166.068 131.778 166.266 130.979 166.553 130.209" stroke="#263238" stroke-linecap="round" stroke-linejoin="round"/>
<path d="M165.64 144.018C167.41 143.153 168.258 140.131 167.523 138.507C167.009 137.46 166.564 136.38 166.189 135.275" stroke="#263238" stroke-linecap="round" stroke-linejoin="round"/>
<path d="M171.999 144.018C173.777 143.153 174.617 140.131 173.89 138.507C172.993 136.528 172.371 135.203 172.274 133.732" stroke="#263238" stroke-linecap="round" stroke-linejoin="round"/>
<path d="M178.713 132.1C178.831 131.456 179.004 130.823 179.231 130.209" stroke="#263238" stroke-linecap="round" stroke-linejoin="round"/>
<path d="M178.342 144.018C180.111 143.153 180.96 140.131 180.224 138.507C179.747 137.522 179.326 136.51 178.964 135.477" stroke="#263238" stroke-linecap="round" stroke-linejoin="round"/>
<path d="M196.069 112.789C196.069 112.789 189.387 111.245 188.878 112.53C188.369 113.815 188.361 116.392 189.387 117.16C190.413 117.928 197.362 118.186 198.13 117.968C198.897 117.75 200.707 113.249 196.069 112.789Z" fill="#828282" stroke="#263238" stroke-linecap="round" stroke-linejoin="round"/>
<path d="M197.734 118.913C197.734 118.913 191.052 117.37 190.534 118.663C190.017 119.956 190.017 122.517 191.052 123.285C192.086 124.052 199.019 124.319 199.794 124.093C200.57 123.866 202.372 119.374 197.734 118.913Z" fill="#828282" stroke="#263238" stroke-linecap="round" stroke-linejoin="round"/>
<path d="M198.364 124.173C198.364 124.173 191.512 123.786 191.221 125.143C190.93 126.501 191.367 129.03 192.514 129.619C193.661 130.209 200.546 129.28 201.257 128.892C201.968 128.504 203.01 123.842 198.364 124.173Z" fill="#828282" stroke="#263238" stroke-linecap="round" stroke-linejoin="round"/>
<path d="M199.221 129.668C199.221 129.668 193.565 129.345 193.33 130.476C193.096 131.607 193.451 133.708 194.397 134.177C195.342 134.645 201.03 133.894 201.62 133.579C202.21 133.263 203.058 129.385 199.221 129.668Z" fill="#828282" stroke="#263238" stroke-linecap="round" stroke-linejoin="round"/>
<path d="M213.554 128.472C213.554 128.472 211.753 118.445 210.726 116.651C209.7 114.857 200.441 109.961 198.606 108.935C196.772 107.908 193.758 106.624 193.201 108.417C192.964 109.242 193.014 110.123 193.341 110.917C193.668 111.71 194.253 112.37 195.003 112.789C196.546 113.823 200.4 115.358 200.4 116.134C200.4 116.91 202.461 125.385 206.864 128.472" fill="#828282"/>
<path d="M213.554 128.472C213.554 128.472 211.753 118.445 210.726 116.651C209.7 114.857 200.441 109.961 198.606 108.935C196.772 107.908 193.758 106.624 193.201 108.417C192.964 109.242 193.014 110.123 193.341 110.917C193.668 111.71 194.253 112.37 195.003 112.789C196.546 113.823 200.4 115.358 200.4 116.134C200.4 116.91 202.461 125.385 206.864 128.472" stroke="#263238" stroke-linecap="round" stroke-linejoin="round"/>
<path d="M216.584 134.362C216.584 134.362 203.769 140.875 204.61 142.555C205.211 143.968 205.635 145.45 205.87 146.967C205.87 146.967 219.315 140.875 219.525 139.614C219.736 138.354 218.055 135.203 216.584 134.362Z" fill="#BFBFBF" stroke="#263238" stroke-linecap="round" stroke-linejoin="round"/>
<path d="M271.173 110.518C271.173 110.518 269.775 123.131 269.775 128.456C269.775 133.78 271.488 143.016 282.105 139.396C292.722 135.776 295.841 122.574 295.841 120.004C295.841 117.435 296.964 98.6971 296.964 98.6971C296.964 98.6971 289.393 106.834 283.228 108.789C279.326 109.999 275.257 110.583 271.173 110.518Z" fill="white" stroke="#263238" stroke-linecap="round" stroke-linejoin="round"/>
<path d="M283.228 108.829C279.324 110.026 275.255 110.596 271.173 110.518C271.173 110.518 270.939 112.651 270.656 115.528C273.395 116.998 277.12 117.459 279.972 117.612C287.503 118.041 292.577 110.696 296.593 105.121C296.803 101.541 296.964 98.7375 296.964 98.7375C296.964 98.7375 289.393 106.874 283.228 108.829Z" fill="#263238" stroke="#263238" stroke-linecap="round" stroke-linejoin="round"/>
<path d="M268.345 70.6273C268.345 70.6273 271.617 60.5838 275.278 56.8913C278.938 53.1987 300.608 52.625 303.606 55.2753C306.604 57.9255 309.262 63.5896 309.933 68.2517C310.603 72.9139 305.27 83.6037 305.27 83.6037L268.345 70.6273Z" fill="#263238" stroke="#263238" stroke-linecap="round" stroke-linejoin="round"/>
<path d="M267.529 76.5903C267.529 76.5903 265.008 84.1613 265.283 89.5183C265.557 94.8753 266.688 100.176 266.688 103.537C266.688 106.898 266.131 109.71 269.209 112.231C271.94 114.461 276.578 115.059 279.972 115.253C287.915 115.697 293.126 107.496 297.247 101.856C297.247 101.856 305.093 101.048 305.658 96.5317C306.224 92.015 304.939 89.9627 304.939 89.9627L305.27 83.6361C305.27 83.6361 279.027 70.7081 267.529 76.5903Z" fill="white" stroke="#263238" stroke-linecap="round" stroke-linejoin="round"/>
<path d="M296.69 83.6038C296.69 83.6038 295.001 91.4495 296.124 92.0151C297.247 92.5807 303.137 90.3264 303.396 87.8054C303.655 85.2844 300.576 83.321 296.69 83.6038Z" fill="#263238" stroke="#263238" stroke-linecap="round" stroke-linejoin="round"/>
<path d="M266.325 77.6165C266.325 77.6165 279.309 79.6122 289.628 82.9412C299.946 86.2702 304.939 89.9304 304.939 89.9304C304.939 89.9304 308.268 84.2744 307.937 81.2767C307.606 78.279 293.304 72.9543 281.637 70.6273C269.969 68.3002 267.989 68.6234 266.996 69.9566C266.002 71.2898 264.66 76.2833 266.325 77.6165Z" fill="#263238" stroke="#263238" stroke-linecap="round" stroke-linejoin="round"/>
<path d="M275.657 83.8784C275.657 83.8784 268.652 95.3763 270.333 97.0569C272.013 98.7375 275.94 99.8607 277.063 99.3031" stroke="#263238" stroke-linecap="round" stroke-linejoin="round"/>
<path d="M270.333 102.107C270.333 102.107 284.876 106.309 287.995 98.4629" stroke="#263238" stroke-linecap="round" stroke-linejoin="round"/>
<path d="M285.749 97.3397L289.959 99.0204" stroke="#263238" stroke-linecap="round" stroke-linejoin="round"/>
<path d="M284.489 88.3629C285.185 88.3629 285.749 87.4223 285.749 86.2621C285.749 85.1018 285.185 84.1613 284.489 84.1613C283.793 84.1613 283.228 85.1018 283.228 86.2621C283.228 87.4223 283.793 88.3629 284.489 88.3629Z" fill="#263238"/>
<path d="M273.274 83.4583C273.274 84.6219 272.708 85.5672 272.013 85.5672C271.318 85.5672 270.753 84.6219 270.753 83.4583C270.753 82.2948 271.318 81.3575 272.013 81.3575C272.708 81.3575 273.274 82.3029 273.274 83.4583Z" fill="#263238"/>
<path d="M283.228 79.6769C283.228 79.6769 290.234 79.9597 289.959 85.5672" stroke="#263238" stroke-linecap="round" stroke-linejoin="round"/>
<path d="M273.977 77.9962C273.977 77.9962 272.296 76.8731 268.652 80.8" stroke="#263238" stroke-linecap="round" stroke-linejoin="round"/>
<path d="M173.098 255.433H165.163V369.571H173.098V255.433Z" fill="white" stroke="#263238" stroke-linecap="round" stroke-linejoin="round"/>
<path d="M178.592 255.433H170.658V369.571H178.592V255.433Z" fill="#263238" stroke="#263238" stroke-linecap="round" stroke-linejoin="round"/>
<path d="M210.936 255.433H203.002V369.571H210.936V255.433Z" fill="white" stroke="#263238" stroke-linecap="round" stroke-linejoin="round"/>
<path d="M216.431 255.433H208.496V369.571H216.431V255.433Z" fill="#263238" stroke="#263238" stroke-linecap="round" stroke-linejoin="round"/>
<path d="M295.162 255.433H287.228V369.571H295.162V255.433Z" fill="white" stroke="#263238" stroke-linecap="round" stroke-linejoin="round"/>
<path d="M300.657 255.433H292.722V369.571H300.657V255.433Z" fill="#263238" stroke="#263238" stroke-linecap="round" stroke-linejoin="round"/>
<path d="M333.009 255.433H325.074V369.571H333.009V255.433Z" fill="white" stroke="#263238" stroke-linecap="round" stroke-linejoin="round"/>
<path d="M338.495 255.433H330.561V369.571H338.495V255.433Z" fill="#263238" stroke="#263238" stroke-linecap="round" stroke-linejoin="round"/>
<path d="M346.43 251.159H160.275V260.928H346.43V251.159Z" fill="white" stroke="#263238" stroke-linecap="round" stroke-linejoin="round"/>
<path d="M346.438 251.159H295.776V260.928H346.438V251.159Z" fill="#263238" stroke="#263238" stroke-linecap="round" stroke-linejoin="round"/>
<path d="M349.484 248.719H154.174V253.599H349.484V248.719Z" fill="white" stroke="#263238" stroke-linecap="round" stroke-linejoin="round"/>
<path d="M349.484 248.719H300.657V253.599H349.484V248.719Z" fill="#263238" stroke="#263238" stroke-linecap="round" stroke-linejoin="round"/>
<path d="M239.095 203.511H226.086V199.115H239.095C239.657 199.115 240.195 199.338 240.592 199.736C240.989 200.133 241.212 200.671 241.212 201.232V201.434C241.202 201.989 240.974 202.517 240.578 202.905C240.182 203.294 239.65 203.511 239.095 203.511Z" fill="white" stroke="#263238" stroke-linecap="round" stroke-linejoin="round"/>
<path d="M172.29 190.373H233.698V242.15C233.698 243.864 233.017 245.508 231.805 246.72C230.592 247.933 228.948 248.614 227.234 248.614H178.754C177.039 248.614 175.395 247.933 174.183 246.72C172.971 245.508 172.29 243.864 172.29 242.15V190.373Z" fill="white" stroke="#263238" stroke-linecap="round" stroke-linejoin="round"/>
<path d="M226.353 190.373V241.891C226.353 243.67 225.647 245.375 224.389 246.633C223.131 247.891 221.425 248.597 219.647 248.597H224.624C226.402 248.595 228.107 247.888 229.364 246.631C230.621 245.374 231.328 243.669 231.33 241.891V190.373H226.353Z" fill="#263238" stroke="#263238" stroke-linecap="round" stroke-linejoin="round"/>
<path d="M181.8 190.373V241.891C181.8 245.592 187.173 248.597 190.874 248.597H185.929C184.149 248.597 182.443 247.891 181.184 246.634C179.925 245.376 179.216 243.67 179.214 241.891V190.373H181.8Z" fill="#263238" stroke="#263238" stroke-linecap="round" stroke-linejoin="round"/>
<path d="M233.27 188.232H172.702C171.283 188.232 170.132 189.382 170.132 190.801V191.003C170.132 192.422 171.283 193.573 172.702 193.573H233.27C234.689 193.573 235.839 192.422 235.839 191.003V190.801C235.839 189.382 234.689 188.232 233.27 188.232Z" fill="white" stroke="#263238" stroke-linecap="round" stroke-linejoin="round"/>
<path d="M164.678 199.115H177.687V203.511H164.678C164.117 203.511 163.579 203.288 163.182 202.891C162.785 202.494 162.562 201.955 162.562 201.394V201.192C162.572 200.638 162.8 200.109 163.196 199.721C163.592 199.333 164.124 199.115 164.678 199.115Z" fill="white" stroke="#263238" stroke-linecap="round" stroke-linejoin="round"/>
<path d="M172.241 199.115H185.25V203.511H172.241C171.963 203.511 171.688 203.456 171.431 203.35C171.174 203.243 170.941 203.088 170.744 202.891C170.548 202.694 170.392 202.461 170.286 202.204C170.179 201.947 170.124 201.672 170.124 201.394V201.192C170.135 200.638 170.363 200.109 170.759 199.721C171.154 199.333 171.687 199.115 172.241 199.115Z" fill="white" stroke="#263238" stroke-linecap="round" stroke-linejoin="round"/>
<path d="M233.504 191.69H172.459V192.514H233.504V191.69Z" fill="#263238" stroke="#263238" stroke-linecap="round" stroke-linejoin="round"/>
<path d="M203.931 170.31C202.76 168.88 201.386 167.684 201.386 164.889C201.345 163.419 201.835 161.985 202.768 160.849" stroke="#263238" stroke-linecap="round" stroke-linejoin="round"/>
<path d="M201.386 184.386C201.386 179.538 205.555 179.538 205.555 174.641C205.558 174.058 205.487 173.477 205.345 172.912" stroke="#263238" stroke-linecap="round" stroke-linejoin="round"/>
<path d="M216.407 166.238C216.101 165.411 215.953 164.534 215.97 163.652" stroke="#263238" stroke-linecap="round" stroke-linejoin="round"/>
<path d="M215.97 184.386C215.97 179.206 220.132 179.206 220.132 174.019C220.132 171.126 218.839 169.85 217.708 168.363" stroke="#263238" stroke-linecap="round" stroke-linejoin="round"/>
<path d="M184.725 165.697C184.637 165.225 184.594 164.746 184.596 164.267C184.582 163.441 184.719 162.619 185 161.843" stroke="#263238" stroke-linecap="round" stroke-linejoin="round"/>
<path d="M184.596 184.386C184.596 179.36 188.765 179.36 188.765 174.334C188.77 173.409 188.592 172.493 188.241 171.637C187.89 170.781 187.374 170.004 186.721 169.349" stroke="#263238" stroke-linecap="round" stroke-linejoin="round"/>
<path d="M323.143 203.511H310.135V199.115H323.143C323.705 199.115 324.243 199.338 324.64 199.736C325.037 200.133 325.26 200.671 325.26 201.232V201.434C325.25 201.989 325.022 202.517 324.626 202.905C324.23 203.294 323.698 203.511 323.143 203.511Z" fill="white" stroke="#263238" stroke-linecap="round" stroke-linejoin="round"/>
<path d="M256.346 190.373H317.754V242.15C317.754 243.864 317.073 245.508 315.861 246.72C314.649 247.933 313.004 248.614 311.29 248.614H262.81C261.096 248.614 259.452 247.933 258.239 246.72C257.027 245.508 256.346 243.864 256.346 242.15V190.373Z" fill="white" stroke="#263238" stroke-linecap="round" stroke-linejoin="round"/>
<path d="M310.409 190.373V241.891C310.407 243.67 309.699 245.376 308.44 246.634C307.181 247.891 305.474 248.597 303.695 248.597H308.656C310.435 248.597 312.14 247.891 313.398 246.633C314.656 245.375 315.362 243.67 315.362 241.891V190.373H310.409Z" fill="#263238" stroke="#263238" stroke-linecap="round" stroke-linejoin="round"/>
<path d="M265.832 190.373V241.891C265.832 245.592 271.197 248.597 274.906 248.597H269.953C268.175 248.595 266.47 247.888 265.213 246.631C263.956 245.374 263.248 243.669 263.246 241.891V190.373H265.832Z" fill="#263238" stroke="#263238" stroke-linecap="round" stroke-linejoin="round"/>
<path d="M317.318 188.232H256.75C255.331 188.232 254.181 189.382 254.181 190.801V191.003C254.181 192.422 255.331 193.573 256.75 193.573H317.318C318.737 193.573 319.887 192.422 319.887 191.003V190.801C319.887 189.382 318.737 188.232 317.318 188.232Z" fill="white" stroke="#263238" stroke-linecap="round" stroke-linejoin="round"/>
<path d="M248.727 199.115H261.735V203.511H248.727C248.165 203.511 247.627 203.288 247.23 202.891C246.833 202.494 246.61 201.955 246.61 201.394V201.192C246.62 200.638 246.848 200.109 247.244 199.721C247.64 199.333 248.172 199.115 248.727 199.115Z" fill="white" stroke="#263238" stroke-linecap="round" stroke-linejoin="round"/>
<path d="M256.289 199.115H269.298V203.511H256.289C255.728 203.511 255.19 203.288 254.793 202.891C254.396 202.494 254.172 201.955 254.172 201.394V201.192C254.183 200.638 254.411 200.109 254.807 199.721C255.202 199.333 255.735 199.115 256.289 199.115Z" fill="white" stroke="#263238" stroke-linecap="round" stroke-linejoin="round"/>
<path d="M317.56 191.69H256.516V192.514H317.56V191.69Z" fill="#263238" stroke="#263238" stroke-linecap="round" stroke-linejoin="round"/>
<path d="M287.179 177.825H287.082C286.359 177.825 285.773 178.411 285.773 179.134V182.859C285.773 183.581 286.359 184.167 287.082 184.167H287.179C287.902 184.167 288.488 183.581 288.488 182.859V179.134C288.488 178.411 287.902 177.825 287.179 177.825Z" fill="#5C5C5C" stroke="#263238" stroke-linecap="round" stroke-linejoin="round"/>
<path d="M256.847 188.264L259.465 186.438C262.558 184.272 266.242 183.11 270.017 183.109H304.438C309.203 183.109 313.782 184.957 317.213 188.264H256.847Z" fill="#5C5C5C" stroke="#263238" stroke-linecap="round" stroke-linejoin="round"/>
<path d="M99.9173 142.604C99.9173 142.604 103.271 148.349 104.701 151.694C106.131 155.039 108.054 159.354 106.139 158.392C104.224 157.431 102.309 156.243 100.636 156.243C98.9639 156.243 98.4872 158.158 97.768 156.72C97.0489 155.281 99.9173 142.604 99.9173 142.604Z" fill="#90A955" stroke="#263238" stroke-linecap="round" stroke-linejoin="round"/>
<path d="M94.8996 348.822C94.8996 348.822 106.381 355.52 110.696 356.958C115.011 358.396 117.871 360.998 118.105 363.656L118.348 366.282L118.105 368.197H65.7066C64.9098 366.22 64.5037 364.107 64.5107 361.976C64.5107 358.388 66.4257 357.669 67.3872 355.512C68.3487 353.354 91.304 347.149 91.304 347.149L94.8996 348.822Z" fill="#90A955" stroke="#263238" stroke-linecap="round" stroke-linejoin="round"/>
<path d="M65.0117 366.024C65.1861 366.758 65.4184 367.476 65.7066 368.173H118.097L118.34 366.258L118.097 363.632C117.863 360.998 114.995 358.364 110.688 356.934V366.024H65.0117Z" fill="white" stroke="#263238" stroke-linecap="round" stroke-linejoin="round"/>
<path d="M107.811 234.708C107.811 234.708 109.492 237.576 108.054 238.748C106.616 239.919 105.896 240.428 105.896 240.428C106.892 242.431 107.147 244.72 106.616 246.892C105.662 250.246 101.356 264.353 101.356 271.052C101.356 277.75 101.832 294.257 99.1982 303.59C96.5641 312.922 91.304 333.251 92.0231 337.8C92.7422 342.35 95.3763 344.499 95.853 345.695C96.2595 347.175 96.4205 348.711 96.3298 350.244C96.3298 351.674 91.304 358.138 82.9331 361.241C74.5622 364.343 67.5811 364.836 65.9651 364.351C64.3491 363.867 62.62 361.006 62.8543 358.615C63.0886 356.223 63.832 355.762 63.832 354.082C63.832 352.401 60.0021 336.144 60.4788 327.054C60.9555 317.964 68.6154 304.083 68.6154 297.384C68.6154 290.686 66.1914 278.97 64.3087 272.029C62.4261 265.089 61.8847 263.658 61.8847 262.939C61.8847 262.22 59.2506 256.718 57.5781 252.169C55.9055 247.62 53.5381 243.321 53.5381 238.538C53.5699 235.337 53.8101 232.141 54.2572 228.971L56.4146 223.469C56.4146 223.469 105.929 230.401 106.648 230.401C107.367 230.401 107.811 234.708 107.811 234.708Z" fill="#263238" stroke="#263238" stroke-linecap="round" stroke-linejoin="round"/>
<path d="M112.037 212.69C112.037 212.69 124.666 206.379 126.719 204.157C128.771 201.935 126.719 196.821 127.397 196.821C128.076 196.821 132.173 195.116 132.52 193.589C132.868 192.062 132.173 189.492 132.859 189.492C133.546 189.492 141.392 187.618 144.462 187.787C147.533 187.957 155.726 188.296 158.457 184.377C161.188 180.459 163.216 177.033 163.216 176.007C163.216 174.98 162.408 174.69 160.671 175.861C158.934 177.033 144.616 177.372 140.689 177.372C136.762 177.372 135.235 176.855 133.522 178.18C131.809 179.505 125.337 186.034 124.48 186.034C123.624 186.034 120.901 185.695 119.366 187.399C118.15 186.616 116.711 186.255 115.269 186.373C113.217 186.713 103.836 191.835 103.836 191.835L112.037 212.69Z" fill="#9E9E9E" stroke="#263238" stroke-linecap="round" stroke-linejoin="round"/>
<path d="M99.4406 152.89C99.6502 153.192 99.8443 153.505 100.022 153.827C101.576 156.655 102.595 159.744 103.028 162.941C103.99 169.405 104.466 181.364 106.616 189.734C108.765 198.105 116.667 210.783 115.504 221.311C114.34 231.839 111.197 235.184 105.694 235.427C100.192 235.669 61.6747 227.533 55.9379 225.86C50.2011 224.188 48.9971 225.141 49.4739 219.639C49.9506 214.136 55.9379 194.275 56.1722 187.1C56.4065 179.925 51.1464 164.137 58.5962 152.655C66.0459 141.174 74.1502 133.514 78.6911 134.475C83.2321 135.437 96.3298 144.519 99.4406 152.89Z" fill="white" stroke="#263238" stroke-linecap="round" stroke-linejoin="round"/>
<path d="M88.4356 82.5614C88.4356 82.5614 96.8065 78.9739 103.505 79.9273C110.203 80.8807 116.901 86.1489 118.34 89.7364C119.778 93.3239 120.974 94.9965 120.974 97.3882C120.974 99.7799 120.974 100.499 120.731 101.218L120.497 101.937C120.497 101.937 122.921 107.682 123.123 109.589C123.325 111.496 123.123 112.465 121.45 112.465H119.778C119.778 112.465 117.621 126.816 115.738 128.488C113.855 130.161 108.086 130.403 108.086 130.403C108.086 130.403 102.584 132.827 101.388 140.455C100.192 148.082 98.7537 156.962 98.7537 156.962C98.7537 156.962 86.5529 134.71 85.1228 129.926C83.6926 125.143 82.9654 121.79 82.9654 121.79C84.3324 119.539 85.1619 117.004 85.3894 114.38C85.6318 110.34 80.3637 101.695 81.8019 93.5664C83.2401 85.4379 88.4356 82.5614 88.4356 82.5614Z" fill="#999999" stroke="#263238" stroke-linecap="round" stroke-linejoin="round"/>
<path d="M115.706 128.472C117.192 127.179 118.816 118.267 119.479 114.324C117.919 113.136 110.656 111.989 107.811 113.403C104.967 114.817 101.832 117.233 101.347 116.514C100.863 115.794 98.576 105.04 100.232 103.133C101.889 101.226 105.977 101.21 105.016 98.0992C104.054 94.9884 99.9172 96.6772 99.6829 94.0592C99.4486 91.4413 102.107 89.0335 98.9638 88.3224C96.803 87.9411 94.5813 88.1049 92.4998 88.7992C91.7888 88.7992 90.3505 87.8376 90.3505 85.446C90.3514 84.8148 90.1375 84.2021 89.744 83.7087C89.3504 83.2153 88.8006 82.8705 88.1851 82.7311C87.1266 83.4179 82.9896 86.5044 81.7211 93.5825C80.2828 101.711 85.551 110.324 85.3086 114.397C85.1139 116.808 84.4059 119.149 83.232 121.265C84.3379 121.751 85.5734 121.859 86.7468 121.572C89.1708 120.853 88.8961 118.703 89.6152 117.023C90.3344 115.342 92.726 114.873 91.5302 111.763C90.3344 108.652 93.4452 105.299 94.8753 105.541C96.3055 105.783 97.7518 108.175 97.0327 109.581C96.3136 110.987 94.6087 117.952 94.6087 121.539C94.6087 125.127 95.5621 128.238 97.7195 129.434C99.8768 130.629 102.866 131.704 104.991 132.666C105.843 131.745 106.853 130.984 107.973 130.419C107.973 130.419 113.799 130.169 115.706 128.472Z" fill="#263238" stroke="#263238" stroke-linecap="round" stroke-linejoin="round"/>
<path d="M116.425 102.891C116.425 103.82 116.102 104.571 115.706 104.571C115.31 104.571 114.995 103.82 114.995 102.891C114.995 101.961 115.31 101.218 115.706 101.218C116.102 101.218 116.425 101.97 116.425 102.891Z" fill="#263238"/>
<path d="M112.118 98.576C113.337 97.8931 114.62 97.3302 115.948 96.8954C117.144 96.661 119.059 97.6145 118.816 95.6995C118.574 93.7846 116.19 94.5037 113.314 95.2228C110.437 95.9419 110.446 97.6306 112.118 98.576Z" fill="white" stroke="#263238" stroke-linecap="round" stroke-linejoin="round"/>
<path d="M109.007 102.414C109.764 102.852 110.58 103.176 111.431 103.375" stroke="#263238" stroke-linecap="round" stroke-linejoin="round"/>
<path d="M111.399 104.329C110.988 104.621 110.517 104.815 110.02 104.898C109.523 104.98 109.013 104.949 108.531 104.806" stroke="#263238" stroke-linecap="round" stroke-linejoin="round"/>
<path d="M108.062 93.5502C108.062 93.5502 111.771 90.5848 116.409 91.3282" stroke="#263238" stroke-linecap="round" stroke-linejoin="round"/>
<path d="M110.098 88.88C110.098 88.88 114.736 87.5872 116.78 88.88" stroke="#263238" stroke-linecap="round" stroke-linejoin="round"/>
<path d="M92.7423 86.8681C92.0232 86.8681 90.593 85.9066 90.593 83.5149C90.593 81.1232 87.7165 79.693 85.5672 81.5999C83.418 83.5068 83.8947 84.7107 81.7373 85.1874C79.58 85.6642 75.039 84.234 74.3199 88.783C73.6008 93.3321 74.5623 94.5198 73.6008 95.7157C72.6392 96.9115 67.6216 99.0689 67.864 103.133C68.1064 107.197 70.9748 107.173 70.0132 109.597C69.0517 112.021 66.6681 115.1 70.2556 117.491C73.8432 119.883 79.8224 114.865 80.5415 116.78C81.2606 118.695 84.5815 120.368 87.0055 119.649C89.4295 118.93 89.1628 116.78 89.882 115.1C90.6011 113.419 92.9928 112.95 91.7969 109.84C90.6011 106.729 93.7038 103.376 95.142 103.618C96.5803 103.86 98.0104 106.252 97.2994 107.658C96.5884 109.064 94.8754 116.029 94.8754 119.616C94.8754 123.204 95.8288 126.315 97.9781 127.51C100.127 128.706 103.481 129.934 105.638 130.864C107.795 131.793 114.486 134.686 116.643 132.771C118.8 130.856 119.988 126.307 119.988 122.008C119.988 117.709 121.184 113.637 119.754 112.441C118.324 111.245 110.866 110.017 108.03 111.48C105.194 112.942 102.05 115.31 101.566 114.591C101.081 113.871 99.4083 106.22 101.081 104.305C102.753 102.39 106.826 99.9981 105.864 96.8873C104.903 93.7765 100.127 94.738 99.885 92.1039C99.6426 89.4698 102.309 87.0782 99.1659 86.3671C97.0163 85.9994 94.8089 86.1715 92.7423 86.8681Z" fill="white" stroke="#263238" stroke-linecap="round" stroke-linejoin="round"/>
<path d="M109.969 114.857C110.683 115.927 111.708 116.752 112.906 117.222C114.103 117.691 115.416 117.782 116.667 117.483" stroke="#263238" stroke-linecap="round" stroke-linejoin="round"/>
<path d="M97.6711 106.906C97.6711 106.906 97.2994 103.569 93.219 103.012C89.1386 102.454 88.7669 109.128 90.4395 112.288C92.112 115.447 94.334 113.766 94.334 113.766" fill="#999999"/>
<path d="M97.6711 106.906C97.6711 106.906 97.2994 103.569 93.219 103.012C89.1386 102.454 88.7669 109.128 90.4395 112.288C92.112 115.447 94.334 113.766 94.334 113.766" stroke="#263238" stroke-linecap="round" stroke-linejoin="round"/>
<path d="M82.4564 119.398C82.4564 119.398 91.0697 139.493 93.4614 144.761C95.8531 150.029 99.4406 153.851 99.4406 159.111C99.4406 164.371 101.598 175.861 101.598 187.343C101.598 198.824 104.466 215.332 103.505 221.788C102.543 228.244 100.192 233.035 100.192 235.669C100.192 238.303 100.426 242.133 99.2305 242.133C98.0347 242.133 80.8162 240.937 68.1306 237.827C55.445 234.716 48.0356 233.278 48.0356 231.363C48.0356 229.448 48.7547 225.86 48.7547 224.899C48.7547 223.937 45.8863 222.03 47.3246 215.574C48.7628 209.118 50.193 189.015 50.6697 174.665C51.1464 160.315 56.8913 147.63 60.7212 141.885C64.5511 136.14 71.2252 132.084 71.2252 132.084C71.2252 132.084 67.4034 127.535 71.9443 124.666C75.3074 122.642 78.8219 120.881 82.4564 119.398Z" fill="#90A955" stroke="#263238" stroke-linecap="round" stroke-linejoin="round"/>
<path d="M51.3564 224.81C65.7043 230.959 81.1323 234.192 96.7418 234.32" stroke="#263238" stroke-linecap="round" stroke-linejoin="round"/>
<path d="M56.8104 226.975L55.8328 233.544" stroke="#263238" stroke-linecap="round" stroke-linejoin="round"/>
<path d="M64.034 229.932L63.0482 235.184" stroke="#263238" stroke-linecap="round" stroke-linejoin="round"/>
<path d="M71.912 231.896L71.2576 237.148" stroke="#263238" stroke-linecap="round" stroke-linejoin="round"/>
<path d="M79.1355 233.213L78.8042 237.811" stroke="#263238" stroke-linecap="round" stroke-linejoin="round"/>
<path d="M87.3367 234.199V239.119" stroke="#263238" stroke-linecap="round" stroke-linejoin="round"/>
<path d="M93.4613 144.761C91.0373 139.493 82.4564 119.398 82.4564 119.398C78.8246 120.881 75.3128 122.642 71.9524 124.666C67.4114 127.535 71.2333 132.084 71.2333 132.084C71.2333 132.084 79.3698 144.042 82.0039 149.545C84.638 155.047 83.9189 153.851 86.3105 157.681C88.7022 161.511 89.8981 164.614 90.6172 163.418C91.3363 162.222 97.3155 156.477 98.7457 156.954C98.9153 157.01 99.0931 157.059 99.287 157.107C98.5194 152.825 95.5379 149.334 93.4613 144.761Z" fill="#90A955" stroke="#263238" stroke-linecap="round" stroke-linejoin="round"/>
<path d="M126.234 169.397H171.482C171.482 169.397 167.652 174.423 164.064 176.58C160.477 178.738 155.694 179.004 155.694 179.004H143.695C143.695 179.004 134.128 178.729 126.234 169.397Z" fill="#90A955" stroke="#263238" stroke-linecap="round" stroke-linejoin="round"/>
<path d="M124.796 181.84C126.814 180.069 128.513 177.964 129.821 175.619C130.485 174.235 131.455 173.021 132.658 172.068C133.86 171.114 135.264 170.447 136.762 170.116C139.186 169.64 147.048 168.92 148.486 168.201C149.924 167.482 150.91 170.835 150.159 172.031C149.407 173.227 146.329 174.181 144.414 174.455C143.174 174.682 142.064 175.366 141.303 176.37C142.384 177.204 143.596 177.852 144.891 178.285C147.048 179.004 150.878 179.239 152.55 178.285C154.223 177.332 160.202 173.017 160.687 175.861C161.172 178.705 158.53 179.901 157.091 181.598C155.653 183.295 153.051 186.381 152.074 186.624C151.096 186.866 143.46 186.866 138.677 187.343C133.894 187.82 128.173 191.173 128.173 191.173L123.866 181.84H124.796Z" fill="#999999" stroke="#263238" stroke-linecap="round" stroke-linejoin="round"/>
<path d="M115.948 185.428C115.948 185.428 123.6 180.402 124.796 181.84C125.991 183.279 131.736 189.492 130.298 192.126C128.86 194.76 119.536 199.067 119.536 199.067L115.948 185.428Z" fill="#90A955" stroke="#263238" stroke-linecap="round" stroke-linejoin="round"/>
<path d="M79.8224 149.787C79.8224 149.787 85.3248 155.766 87.4822 161.269C89.6396 166.771 94.6572 182.277 95.3764 183.513C96.0955 184.749 97.2913 186.866 97.2913 186.866C97.2913 186.866 109.726 183.513 112.361 183.279C114.995 183.044 117.621 185.428 119.293 188.539C120.966 191.649 126.476 200.974 124.085 203.374C121.693 205.773 100.879 216.544 94.6572 218.919C88.4356 221.295 82.214 219.873 79.3052 214.879C76.3964 209.886 64.236 182.107 61.8444 175.643C59.4527 169.179 59.687 163.919 60.6485 162.004" fill="#90A955"/>
<path d="M79.8224 149.787C79.8224 149.787 85.3248 155.766 87.4822 161.269C89.6396 166.771 94.6572 182.277 95.3764 183.513C96.0955 184.749 97.2913 186.866 97.2913 186.866C97.2913 186.866 109.726 183.513 112.361 183.279C114.995 183.044 117.621 185.428 119.293 188.539C120.966 191.649 126.476 200.974 124.085 203.374C121.693 205.773 100.879 216.544 94.6572 218.919C88.4356 221.295 82.214 219.873 79.3052 214.879C76.3964 209.886 64.236 182.107 61.8444 175.643C59.4527 169.179 59.687 163.919 60.6485 162.004" stroke="#263238" stroke-linecap="round" stroke-linejoin="round"/>
<path d="M88.4356 202.654C89.6315 194.995 97.3236 186.866 97.3236 186.866C97.3236 186.866 88.7103 191.173 85.8339 194.76" stroke="#263238" stroke-linecap="round" stroke-linejoin="round"/>
<path d="M24.2319 369.563H393.213" stroke="#263238" stroke-linecap="round" stroke-linejoin="round"/>
</svg>
