<svg width="276" height="276" viewBox="0 0 276 276" fill="none" xmlns="http://www.w3.org/2000/svg">
<path d="M248.345 219.966H230.062V220.104H248.345V219.966Z" fill="#EBEBEB"/>
<path d="M182.834 221.468H178.037V221.606H182.834V221.468Z" fill="#EBEBEB"/>
<path d="M229.511 214.844H218.918V214.982H229.511V214.844Z" fill="#EBEBEB"/>
<path d="M52.7989 215.771H28.958V215.909H52.7989V215.771Z" fill="#EBEBEB"/>
<path d="M61.2112 215.771H57.717V215.909H61.2112V215.771Z" fill="#EBEBEB"/>
<path d="M124.283 218.101H72.5715V218.239H124.283V218.101Z" fill="#EBEBEB"/>
<path d="M130.824 186.466H24.244C23.408 186.466 22.6063 186.134 22.0152 185.542C21.4241 184.951 21.092 184.15 21.092 183.314V33.4843C21.0993 32.6532 21.4346 31.8585 22.0249 31.2734C22.6152 30.6882 23.4128 30.36 24.244 30.36H130.824C131.66 30.36 132.462 30.6921 133.053 31.2832C133.644 31.8743 133.976 32.676 133.976 33.5119V183.314C133.976 184.15 133.644 184.951 133.053 185.542C132.462 186.134 131.66 186.466 130.824 186.466ZM24.244 30.4704C23.4451 30.4718 22.6793 30.7898 22.1144 31.3548C21.5495 31.9197 21.2315 32.6854 21.23 33.4843V183.314C21.2315 184.113 21.5495 184.878 22.1144 185.443C22.6793 186.008 23.4451 186.326 24.244 186.328H130.824C131.623 186.326 132.389 186.008 132.954 185.443C133.519 184.878 133.837 184.113 133.838 183.314V33.4843C133.837 32.6854 133.519 31.9197 132.954 31.3548C132.389 30.7898 131.623 30.4718 130.824 30.4704H24.244Z" fill="#EBEBEB"/>
<path d="M250.227 186.466H143.636C142.8 186.464 141.999 186.132 141.409 185.541C140.818 184.95 140.485 184.149 140.484 183.314V33.4843C140.493 32.6536 140.828 31.8598 141.418 31.275C142.008 30.6901 142.805 30.3614 143.636 30.36H250.227C251.056 30.3629 251.851 30.6924 252.439 31.2773C253.027 31.8621 253.361 32.6551 253.368 33.4843V183.314C253.368 184.148 253.037 184.948 252.449 185.538C251.86 186.129 251.061 186.463 250.227 186.466ZM143.636 30.4704C142.837 30.4718 142.071 30.7898 141.506 31.3548C140.941 31.9197 140.623 32.6854 140.622 33.4843V183.314C140.623 184.113 140.941 184.878 141.506 185.443C142.071 186.008 142.837 186.326 143.636 186.328H250.227C251.026 186.326 251.792 186.008 252.357 185.443C252.921 184.878 253.239 184.113 253.241 183.314V33.4843C253.239 32.6854 252.921 31.9197 252.357 31.3548C251.792 30.7898 251.026 30.4718 250.227 30.4704H143.636Z" fill="#EBEBEB"/>
<path d="M276 211.085H0V211.223H276V211.085Z" fill="#EBEBEB"/>
<path d="M40.009 211.134H50.2651L50.2651 154.334H40.009L40.009 211.134Z" fill="#E6E6E6"/>
<path d="M47.4611 211.134H102.799V154.334H47.4611L47.4611 211.134Z" fill="#F5F5F5"/>
<path d="M37.6078 155.576H50.3535V153.086H37.6078V155.576Z" fill="#E0E0E0"/>
<path d="M46.5004 155.576H104.698V153.086H46.5004V155.576Z" fill="#EBEBEB"/>
<path d="M79.0133 191.411C79.1399 191.412 79.2654 191.388 79.3825 191.34C79.4997 191.292 79.6062 191.221 79.696 191.132C79.7858 191.043 79.857 190.937 79.9056 190.82C79.9543 190.703 79.9793 190.578 79.9793 190.451V186.123C79.9793 185.997 79.9543 185.871 79.9056 185.754C79.857 185.638 79.7858 185.531 79.696 185.442C79.6062 185.353 79.4997 185.282 79.3825 185.234C79.2654 185.186 79.1399 185.162 79.0133 185.163C78.7585 185.163 78.5142 185.264 78.3341 185.444C78.154 185.624 78.0528 185.869 78.0528 186.123V190.44C78.0513 190.567 78.0751 190.693 78.1227 190.811C78.1703 190.929 78.2409 191.036 78.3302 191.126C78.4195 191.217 78.5259 191.288 78.6432 191.337C78.7604 191.386 78.8862 191.412 79.0133 191.411Z" fill="#E6E6E6"/>
<path d="M72.5218 191.411C72.7766 191.411 73.0209 191.31 73.201 191.13C73.3811 190.95 73.4823 190.706 73.4823 190.451V186.123C73.4823 185.869 73.3811 185.624 73.201 185.444C73.0209 185.264 72.7766 185.163 72.5218 185.163C72.2671 185.163 72.0228 185.264 71.8427 185.444C71.6625 185.624 71.5613 185.869 71.5613 186.123V190.44C71.5599 190.567 71.5836 190.693 71.6313 190.811C71.6789 190.929 71.7494 191.036 71.8387 191.126C71.9281 191.217 72.0344 191.288 72.1517 191.337C72.269 191.386 72.3948 191.412 72.5218 191.411Z" fill="#E6E6E6"/>
<path d="M102.805 166.158V167.124H76.2478V211.134H75.2874V167.124H47.4666V166.158H102.805Z" fill="#E0E0E0"/>
<path d="M212.846 131.343H226.861L215.584 67.3881H201.568L212.846 131.343Z" fill="#FAFAFA"/>
<path d="M204.687 131.343H208.468L197.191 67.3881H193.41L204.687 131.343Z" fill="#FAFAFA"/>
<path d="M163.69 132.452H167.571L155.984 66.7258H152.098L163.69 132.452Z" fill="#FAFAFA"/>
<path d="M171.424 132.452H178.743L167.157 66.7258H159.837L171.424 132.452Z" fill="#FAFAFA"/>
<path d="M191.025 66.3945H236.808V132.48H191.025V66.3945ZM233.187 70.0156H194.646V128.837H233.187V70.0156Z" fill="#E6E6E6"/>
<path d="M143.426 64.584H238.619V134.268H143.426V64.584ZM234.998 68.2051H147.047V130.647H234.998V68.2051Z" fill="#F5F5F5"/>
<path d="M106.801 131.343H120.816L109.539 67.3881H95.5237L106.801 131.343Z" fill="#FAFAFA"/>
<path d="M98.648 131.343H102.424L91.1463 67.3881H87.3706L98.648 131.343Z" fill="#FAFAFA"/>
<path d="M57.6455 132.452H61.526L49.9395 66.7258H46.0535L57.6455 132.452Z" fill="#FAFAFA"/>
<path d="M65.379 132.452H72.6985L61.112 66.7258H53.7925L65.379 132.452Z" fill="#FAFAFA"/>
<path d="M84.9749 66.3945H130.763V132.48H84.9749V66.3945ZM127.142 70.0156H88.6015V128.837H127.142V70.0156Z" fill="#E6E6E6"/>
<path d="M37.3813 64.584H132.574V134.268H37.3813V64.584ZM128.953 68.2051H41.0025V130.647H128.953V68.2051Z" fill="#F5F5F5"/>
<path d="M215.07 190.523C215.25 183.948 214.148 177.4 211.824 171.247C213.701 167.775 213.033 155.703 209.213 156.106C207.817 156.249 208.308 159.489 207.182 159.169C204.875 158.518 204.003 152.308 201.386 151.392C199.73 150.806 200.834 155.559 199.498 155.951C198.162 156.343 193.073 155.399 192.019 157.419C190.964 159.44 195.816 159.832 196.562 160.367C197.307 160.902 193.94 161.725 195.54 163.006C197.141 164.286 200.652 161.14 201.027 162.167C201.403 163.193 197.715 164.375 198.847 165.964C199.978 167.554 205.156 164.617 205.708 166.108C206.26 167.598 201.336 168.492 203.274 170.783C204.637 172.39 208.706 172.136 211.052 171.793C211.206 171.766 211.322 171.744 211.421 171.716C213.566 177.827 214.503 184.297 214.181 190.766L215.07 190.523Z" fill="#E6E6E6"/>
<path d="M216.5 187.608C215.825 181.719 216.303 175.755 217.908 170.049C215.953 167.079 215.611 156.194 219.072 156.249C220.336 156.249 220.149 159.219 221.131 158.844C223.152 158.076 223.45 152.44 225.729 151.408C227.187 150.751 226.53 155.106 227.777 155.355C229.025 155.603 233.496 154.378 234.6 156.089C235.704 157.8 231.376 158.551 230.736 159.092C230.096 159.633 233.198 160.108 231.84 161.383C230.482 162.658 227.104 160.108 226.872 161.052C226.64 161.995 230.024 162.79 229.124 164.292C228.224 165.793 223.356 163.574 222.975 164.96C222.594 166.345 227.087 166.759 225.525 168.967C224.421 170.513 220.756 170.623 218.625 170.48C218.512 170.474 218.399 170.459 218.288 170.436C216.841 176.091 216.507 181.974 217.306 187.757L216.5 187.608Z" fill="#EBEBEB"/>
<path d="M215.081 187.608C214.972 183.622 215.639 179.653 217.046 175.922C215.909 173.814 216.318 166.5 218.631 166.743C219.481 166.831 219.183 168.791 219.861 168.597C221.264 168.205 221.788 164.441 223.378 163.883C224.393 163.53 223.698 166.411 224.52 166.643C225.343 166.875 228.417 166.323 229.058 167.532C229.698 168.741 226.756 168.995 226.298 169.32C225.84 169.646 227.888 170.143 226.916 170.921C225.945 171.7 223.814 169.817 223.604 170.408C223.394 170.999 225.619 171.76 224.929 172.71C224.239 173.659 221.103 171.893 220.767 172.798C220.43 173.703 223.422 174.244 222.241 175.635C221.418 176.607 218.929 176.452 217.527 176.248L217.306 176.198C216.012 179.906 215.449 183.83 215.65 187.752L215.081 187.608Z" fill="#F5F5F5"/>
<path d="M221.148 211.134H209.009L207.088 184.302H223.063L221.148 211.134Z" fill="#EBEBEB"/>
<path d="M135.339 233.888C194.449 233.888 242.367 231.09 242.367 227.639C242.367 224.188 194.449 221.391 135.339 221.391C76.2297 221.391 28.312 224.188 28.312 227.639C28.312 231.09 76.2297 233.888 135.339 233.888Z" fill="#F5F5F5"/>
<path d="M94.7506 194.083H73.5593V197.346H94.7506V194.083Z" fill="#90A955"/>
<path d="M74.426 195.96H93.884C94.3628 195.96 94.8219 196.15 95.1604 196.489C95.4989 196.827 95.6891 197.286 95.6891 197.765V229.566H72.6155V197.771C72.6148 197.533 72.6611 197.297 72.7518 197.077C72.8426 196.857 72.9759 196.657 73.1442 196.489C73.3124 196.32 73.5123 196.187 73.7323 196.096C73.9523 196.006 74.1881 195.959 74.426 195.96Z" fill="#90A955"/>
<path opacity="0.5" d="M74.426 195.96H93.884C94.3628 195.96 94.8219 196.15 95.1604 196.489C95.4989 196.827 95.6891 197.286 95.6891 197.765V229.566H72.6155V197.771C72.6148 197.533 72.6611 197.297 72.7518 197.077C72.8426 196.857 72.9759 196.657 73.1442 196.489C73.3124 196.32 73.5123 196.187 73.7323 196.096C73.9523 196.006 74.1881 195.959 74.426 195.96Z" fill="white"/>
<path d="M93.6964 190.07H74.6082C73.5076 190.07 72.6155 190.962 72.6155 192.063V193.095C72.6155 194.196 73.5076 195.088 74.6082 195.088H93.6964C94.7969 195.088 95.6891 194.196 95.6891 193.095V192.063C95.6891 190.962 94.7969 190.07 93.6964 190.07Z" fill="#90A955"/>
<path opacity="0.7" d="M93.6964 190.07H74.6082C73.5076 190.07 72.6155 190.962 72.6155 192.063V193.095C72.6155 194.196 73.5076 195.088 74.6082 195.088H93.6964C94.7969 195.088 95.6891 194.196 95.6891 193.095V192.063C95.6891 190.962 94.7969 190.07 93.6964 190.07Z" fill="white"/>
<path d="M79.2837 229.571H68.4976V228.07L79.2837 227.065V229.571Z" fill="#90A955"/>
<path opacity="0.7" d="M79.2837 229.571H68.4976V228.07L79.2837 227.065V229.571Z" fill="white"/>
<path d="M175.84 67.2005C167.494 64.871 159.164 62.479 150.851 60.0245C142.755 62.4643 134.659 64.8563 126.563 67.2005C118.688 64.8563 110.829 62.4643 102.987 60.0245C94.4345 62.479 85.8675 64.871 77.2857 67.2005L57.9602 145.623C69.1143 143.272 80.2592 140.88 91.3948 138.447C101.82 140.883 112.259 143.275 122.71 145.623C133.382 143.283 144.054 140.891 154.726 138.447C165.622 140.894 176.532 143.286 187.454 145.623C197.666 143.272 207.867 140.88 218.057 138.447L198.72 60.0245C191.106 62.4643 183.479 64.8563 175.84 67.2005Z" fill="#90A955"/>
<path opacity="0.8" d="M175.84 67.2005C167.494 64.871 159.164 62.479 150.851 60.0245C142.755 62.4643 134.659 64.8563 126.563 67.2005C118.688 64.8563 110.829 62.4643 102.987 60.0245C94.4345 62.479 85.8675 64.871 77.2857 67.2005L57.9602 145.623C69.1143 143.272 80.2592 140.88 91.3948 138.447C101.82 140.883 112.259 143.275 122.71 145.623C133.382 143.283 144.054 140.891 154.726 138.447C165.622 140.894 176.532 143.286 187.454 145.623C197.666 143.272 207.867 140.88 218.057 138.447L198.72 60.0245C191.106 62.4643 183.479 64.8563 175.84 67.2005Z" fill="white"/>
<path d="M122.925 141.069C133.457 138.729 143.98 136.337 154.494 133.893C165.243 136.34 176.003 138.732 186.775 141.069C195.287 139.089 203.793 137.065 212.294 134.997C206.95 111.89 201.614 88.7855 196.286 65.6825C189.717 67.747 183.132 69.771 176.53 71.7545C168.036 69.4251 159.557 67.0331 151.093 64.5785C142.858 67.011 134.613 69.403 126.358 71.7545C118.336 69.4103 110.328 67.0183 102.335 64.5785C95.0268 66.6356 87.7091 68.6596 80.3823 70.6505C75.0389 93.7535 69.7029 116.857 64.3743 139.96C73.6221 137.965 82.8608 135.941 92.0902 133.888C102.346 136.32 112.625 138.714 122.925 141.069Z" fill="#90A955"/>
<path opacity="0.4" d="M122.925 141.069C133.457 138.729 143.98 136.337 154.494 133.893C165.243 136.34 176.003 138.732 186.775 141.069C195.287 139.089 203.793 137.065 212.294 134.997C206.95 111.89 201.614 88.7855 196.286 65.6825C189.717 67.747 183.132 69.771 176.53 71.7545C168.036 69.4251 159.557 67.0331 151.093 64.5785C142.858 67.011 134.613 69.403 126.358 71.7545C118.336 69.4103 110.328 67.0183 102.335 64.5785C95.0268 66.6356 87.7091 68.6596 80.3823 70.6505C75.0389 93.7535 69.7029 116.857 64.3743 139.96C73.6221 137.965 82.8608 135.941 92.0902 133.888C102.346 136.32 112.625 138.714 122.925 141.069Z" fill="white"/>
<path d="M146.793 120.43C146.379 116.014 146.043 112.001 144.309 109.682C140.445 104.554 131.199 105.647 125.392 106.707C124.747 105.603 123.091 102.528 121.274 95.1151C119.541 88.0385 111.526 84.6271 105.344 82.6344C103.599 82.0824 101.441 81.3427 101.082 80.8349C100.569 78.4999 98.3223 78.3895 96.1143 78.2901C94.3424 78.2073 92.3221 78.1135 90.7102 77.0426C89.2695 76.0821 90.9255 71.5502 93.0838 67.1839L91.2677 67.6807C91.1132 68.0174 90.9531 68.3541 90.7985 68.6964C88.2317 74.4261 86.9069 78.0804 89.0597 79.4714C91.2125 80.8625 93.5917 80.9563 95.5568 81.0501C97.5219 81.144 98.4603 81.2489 98.5817 81.8671C98.9019 83.5231 100.95 84.2573 104.295 85.284C109.997 87.0338 116.93 89.7 118.68 95.9873C121.606 106.475 123.411 108.959 123.753 109.274L124.266 109.749L124.978 109.6C130.173 108.611 138.613 107.43 141.974 111.211C143.294 112.696 143.63 116.671 143.89 120.623C144.182 125.541 144.006 131.111 145.502 135.991L149.863 134.986C147.693 130.001 147.207 124.824 146.793 120.43Z" fill="#90A955"/>
<path opacity="0.2" d="M146.793 120.43C146.379 116.014 146.043 112.001 144.309 109.682C140.445 104.554 131.199 105.647 125.392 106.707C124.747 105.603 123.091 102.528 121.274 95.1151C119.541 88.0385 111.526 84.6271 105.344 82.6344C103.599 82.0824 101.441 81.3427 101.082 80.8349C100.569 78.4999 98.3223 78.3895 96.1143 78.2901C94.3424 78.2073 92.3221 78.1135 90.7102 77.0426C89.2695 76.0821 90.9255 71.5502 93.0838 67.1839L91.2677 67.6807C91.1132 68.0174 90.9531 68.3541 90.7985 68.6964C88.2317 74.4261 86.9069 78.0804 89.0597 79.4714C91.2125 80.8625 93.5917 80.9563 95.5568 81.0501C97.5219 81.144 98.4603 81.2489 98.5817 81.8671C98.9019 83.5231 100.95 84.2573 104.295 85.284C109.997 87.0338 116.93 89.7 118.68 95.9873C121.606 106.475 123.411 108.959 123.753 109.274L124.266 109.749L124.978 109.6C130.173 108.611 138.613 107.43 141.974 111.211C143.294 112.696 143.63 116.671 143.89 120.623C144.182 125.541 144.006 131.111 145.502 135.991L149.863 134.986C147.693 130.001 147.207 124.824 146.793 120.43Z" fill="white"/>
<g opacity="0.5">
<path opacity="0.5" d="M155.267 92.9623L173.632 94.5079C174.156 98.681 174.415 100.773 174.94 104.946L162.636 103.776L162.167 98.1676L155.543 97.3341C155.421 95.5898 155.366 94.7121 155.267 92.9623Z" fill="white"/>
<path opacity="0.5" d="M154.56 98.9515L160.731 99.7905L161.201 105.863L154.919 105.377L154.56 98.9515Z" fill="white"/>
</g>
<path opacity="0.5" d="M184.368 80.5423C182.403 81.3206 181.415 81.707 179.4 82.4853L180.255 88.0826C182.314 87.4368 183.336 87.1166 185.373 86.4652C184.986 84.0972 184.782 82.9104 184.368 80.5423Z" fill="white"/>
<path opacity="0.5" d="M92.3828 115.683C88.5188 116.891 86.5592 117.493 82.6124 118.697C81.9665 122.163 81.6409 123.902 80.9895 127.368C85.0081 126.364 87.0008 125.867 90.9531 124.862C91.5217 121.192 91.8087 119.353 92.3828 115.683Z" fill="white"/>
<path d="M152.352 90.7653C161.372 91.5013 170.388 92.2373 179.4 92.9733H179.577C186.797 91.0229 194.006 89.0376 201.204 87.0173L200.652 84.7375C193.461 86.7836 186.258 88.7855 179.041 90.7433L169.21 89.9429C166.52 82.5129 163.944 75.0536 161.482 67.5648L158.722 66.7809C161.18 74.4648 163.745 82.11 166.417 89.7165L151.949 88.5297C148.085 89.9318 146.126 90.6384 142.162 92.0405H125.42C117.022 90.7157 108.628 89.3743 100.238 88.0164C103.45 80.9839 106.549 73.9054 109.533 66.7809L107.728 66.2289C104.626 73.5117 101.41 80.7392 98.0795 87.9115C90.5943 89.0155 83.1055 90.0993 75.6131 91.1628C75.4088 92.057 75.3039 92.5041 75.0997 93.3708C82.7284 92.2668 90.3588 91.1628 97.9912 90.0588C100.911 97.1023 104.14 103.98 107.491 110.831L95.2643 109.848C86.7819 112.104 78.2847 114.312 69.7729 116.472C69.4527 117.846 69.2927 118.536 68.978 119.911C77.6959 117.732 86.401 115.51 95.0932 113.243L109.004 114.347C111.521 122.903 114.259 131.393 117.284 139.777L120.193 140.44C117.024 131.928 114.159 123.267 111.504 114.557L124.051 115.572C134.086 118.233 144.146 120.84 154.229 123.394C161.383 121.094 168.52 118.739 175.641 116.328C178.55 120.684 180.057 122.859 183.137 127.214C189.239 130.747 195.386 134.204 201.579 137.586L206.139 136.482C199.239 132.71 192.381 128.866 185.566 124.951C182.806 121.087 181.448 119.133 178.821 115.252L182.8 113.889C190.672 112.464 198.542 111.024 206.409 109.566C206.095 108.22 205.94 107.546 205.631 106.199C197.579 107.708 189.526 109.198 181.47 110.67C172.318 113.832 163.144 116.919 153.947 119.933C148.383 118.513 142.825 117.072 137.271 115.611C139.402 108.446 141.391 101.242 143.239 94.0001C146.915 92.736 148.737 92.0625 152.352 90.7653ZM135.08 115.026C130.957 113.922 128.909 113.37 124.863 112.299L110.251 111.101C106.845 104.262 103.55 97.3893 100.569 90.3513C108.746 91.6614 116.923 92.9494 125.1 94.2153H140.981C139.13 101.196 137.154 108.133 135.052 115.026H135.08Z" fill="white"/>
<path opacity="0.1" d="M91.3836 138.447C80.2479 140.883 69.1031 143.275 57.949 145.623L77.269 67.2005C85.8507 64.8674 94.4178 62.4754 102.97 60.0245L91.3836 138.447Z" fill="black"/>
<path opacity="0.1" d="M154.72 138.447C144.048 140.894 133.376 143.286 122.704 145.623C123.992 119.495 125.28 93.3542 126.568 67.2005C134.664 64.8563 142.76 62.4643 150.856 60.0245C152.14 86.1672 153.428 112.308 154.72 138.447Z" fill="black"/>
<path opacity="0.1" d="M218.04 138.447C207.85 140.883 197.649 143.275 187.437 145.623L175.845 67.2005C183.485 64.8563 191.108 62.4643 198.715 60.0245L218.04 138.447Z" fill="black"/>
<path opacity="0.1" d="M186.267 86.9786C186.267 87.5913 184.732 88.0826 182.845 88.0826C180.957 88.0826 179.428 87.5913 179.428 86.9786C179.428 86.3659 180.957 85.8746 182.845 85.8746C184.732 85.8746 186.267 86.3714 186.267 86.9786Z" fill="black"/>
<path d="M183.131 86.6088C184.859 86.6088 186.267 83.2195 186.267 81.4918C186.267 80.6597 185.937 79.8617 185.349 79.2728C184.761 78.6839 183.964 78.3524 183.131 78.3509H182.579C182.167 78.3509 181.759 78.4322 181.378 78.5901C180.998 78.748 180.652 78.9794 180.36 79.2712C180.069 79.5629 179.838 79.9092 179.681 80.2902C179.524 80.6713 179.443 81.0796 179.444 81.4918C179.444 83.2195 180.846 86.6088 182.579 86.6088H183.131ZM181.878 81.4918C181.92 81.3093 182.012 81.1423 182.145 81.0099C182.277 80.8776 182.444 80.7853 182.627 80.7438C182.809 80.7022 183 80.713 183.176 80.775C183.353 80.837 183.508 80.9476 183.625 81.094C183.741 81.2405 183.814 81.4169 183.835 81.6029C183.855 81.7889 183.823 81.977 183.742 82.1455C183.66 82.3139 183.533 82.4559 183.374 82.5551C183.215 82.6543 183.032 82.7067 182.844 82.7062C182.57 82.6417 182.326 82.4868 182.151 82.2665C181.976 82.0462 181.88 81.7733 181.878 81.4918Z" fill="#263238"/>
<path d="M182.563 78.3509C182.151 78.3509 181.743 78.4322 181.362 78.5901C180.981 78.748 180.635 78.9794 180.344 79.2712C180.053 79.5629 179.822 79.9092 179.665 80.2902C179.508 80.6713 179.427 81.0796 179.428 81.4918C179.428 83.2195 180.83 86.6088 182.563 86.6088C184.296 86.6088 185.698 83.2195 185.698 81.4918C185.699 81.0796 185.619 80.6713 185.461 80.2902C185.304 79.9092 185.073 79.5629 184.782 79.2712C184.491 78.9794 184.145 78.748 183.764 78.5901C183.383 78.4322 182.975 78.3509 182.563 78.3509ZM182.563 82.7393C182.315 82.7393 182.073 82.6657 181.866 82.5277C181.66 82.3898 181.5 82.1938 181.405 81.9645C181.31 81.7352 181.286 81.483 181.335 81.2398C181.383 80.9965 181.503 80.7733 181.679 80.5983C181.855 80.4232 182.079 80.3043 182.322 80.2566C182.565 80.2089 182.818 80.2345 183.046 80.3302C183.275 80.4259 183.471 80.5873 183.608 80.7941C183.745 81.0009 183.817 81.2437 183.816 81.4918C183.816 81.6561 183.784 81.8187 183.721 81.9705C183.658 82.1222 183.565 82.2599 183.449 82.3759C183.332 82.4918 183.194 82.5835 183.042 82.6459C182.89 82.7083 182.727 82.74 182.563 82.7393Z" fill="#90A955"/>
<path opacity="0.3" d="M182.563 78.3509C182.151 78.3509 181.743 78.4322 181.362 78.5901C180.981 78.748 180.635 78.9794 180.344 79.2712C180.053 79.5629 179.822 79.9092 179.665 80.2902C179.508 80.6713 179.427 81.0796 179.428 81.4918C179.428 83.2195 180.83 86.6088 182.563 86.6088C184.296 86.6088 185.698 83.2195 185.698 81.4918C185.699 81.0796 185.619 80.6713 185.461 80.2902C185.304 79.9092 185.073 79.5629 184.782 79.2712C184.491 78.9794 184.145 78.748 183.764 78.5901C183.383 78.4322 182.975 78.3509 182.563 78.3509ZM182.563 82.7393C182.315 82.7393 182.073 82.6657 181.866 82.5277C181.66 82.3898 181.5 82.1938 181.405 81.9645C181.31 81.7352 181.286 81.483 181.335 81.2398C181.383 80.9965 181.503 80.7733 181.679 80.5983C181.855 80.4232 182.079 80.3043 182.322 80.2566C182.565 80.2089 182.818 80.2345 183.046 80.3302C183.275 80.4259 183.471 80.5873 183.608 80.7941C183.745 81.0009 183.817 81.2437 183.816 81.4918C183.816 81.6561 183.784 81.8187 183.721 81.9705C183.658 82.1222 183.565 82.2599 183.449 82.3759C183.332 82.4918 183.194 82.5835 183.042 82.6459C182.89 82.7083 182.727 82.74 182.563 82.7393Z" fill="black"/>
<path opacity="0.1" d="M161.278 115.478C161.278 116.086 159.749 116.582 157.861 116.582C155.973 116.582 154.438 116.086 154.438 115.478C154.438 114.871 155.973 114.374 157.861 114.374C159.749 114.374 161.278 114.866 161.278 115.478Z" fill="black"/>
<path d="M158.143 115.103C159.876 115.103 161.278 111.719 161.278 109.986C161.278 109.154 160.948 108.357 160.36 107.769C159.772 107.181 158.974 106.851 158.143 106.851H157.591C157.178 106.85 156.77 106.93 156.389 107.088C156.008 107.245 155.662 107.476 155.37 107.767C155.078 108.058 154.847 108.404 154.689 108.785C154.531 109.166 154.45 109.574 154.45 109.986C154.45 111.719 155.857 115.103 157.591 115.103H158.143ZM156.895 109.986C156.937 109.804 157.029 109.637 157.161 109.504C157.294 109.372 157.461 109.28 157.643 109.238C157.826 109.196 158.016 109.207 158.193 109.269C158.369 109.331 158.525 109.442 158.641 109.588C158.758 109.735 158.831 109.911 158.851 110.097C158.872 110.283 158.84 110.471 158.758 110.64C158.677 110.808 158.549 110.95 158.39 111.049C158.232 111.149 158.048 111.201 157.861 111.2C157.586 111.138 157.341 110.983 157.165 110.763C156.99 110.542 156.894 110.268 156.895 109.986Z" fill="#263238"/>
<path d="M157.579 106.851C157.167 106.85 156.759 106.93 156.378 107.088C155.997 107.245 155.65 107.476 155.359 107.767C155.067 108.058 154.836 108.404 154.678 108.785C154.52 109.166 154.438 109.574 154.438 109.986C154.438 111.719 155.846 115.103 157.579 115.103C159.313 115.103 160.715 111.719 160.715 109.986C160.715 109.574 160.634 109.167 160.476 108.786C160.318 108.406 160.088 108.06 159.796 107.769C159.505 107.478 159.16 107.247 158.779 107.089C158.399 106.932 157.991 106.851 157.579 106.851ZM157.579 111.267C157.331 111.268 157.088 111.195 156.882 111.058C156.675 110.921 156.513 110.726 156.418 110.497C156.322 110.268 156.296 110.016 156.344 109.773C156.392 109.529 156.511 109.305 156.686 109.13C156.861 108.954 157.084 108.834 157.327 108.785C157.571 108.736 157.823 108.761 158.052 108.855C158.281 108.95 158.477 109.111 158.615 109.317C158.753 109.523 158.827 109.766 158.827 110.014C158.82 110.34 158.685 110.651 158.452 110.88C158.219 111.109 157.906 111.238 157.579 111.239V111.267Z" fill="#90A955"/>
<path opacity="0.3" d="M157.579 106.851C157.167 106.85 156.759 106.93 156.378 107.088C155.997 107.245 155.65 107.476 155.359 107.767C155.067 108.058 154.836 108.404 154.678 108.785C154.52 109.166 154.438 109.574 154.438 109.986C154.438 111.719 155.846 115.103 157.579 115.103C159.313 115.103 160.715 111.719 160.715 109.986C160.715 109.574 160.634 109.167 160.476 108.786C160.318 108.406 160.088 108.06 159.796 107.769C159.505 107.478 159.16 107.247 158.779 107.089C158.399 106.932 157.991 106.851 157.579 106.851ZM157.579 111.267C157.331 111.268 157.088 111.195 156.882 111.058C156.675 110.921 156.513 110.726 156.418 110.497C156.322 110.268 156.296 110.016 156.344 109.773C156.392 109.529 156.511 109.305 156.686 109.13C156.861 108.954 157.084 108.834 157.327 108.785C157.571 108.736 157.823 108.761 158.052 108.855C158.281 108.95 158.477 109.111 158.615 109.317C158.753 109.523 158.827 109.766 158.827 110.014C158.82 110.34 158.685 110.651 158.452 110.88C158.219 111.109 157.906 111.238 157.579 111.239V111.267Z" fill="black"/>
<path opacity="0.1" d="M109.009 118.128C109.009 118.741 107.474 119.232 105.587 119.232C103.699 119.232 102.17 118.741 102.17 118.128C102.17 117.515 103.699 117.024 105.587 117.024C107.474 117.024 109.009 117.526 109.009 118.128Z" fill="black"/>
<path d="M105.874 117.764C107.601 117.764 109.009 114.374 109.009 112.647C109.009 111.815 108.679 111.016 108.091 110.428C107.503 109.839 106.706 109.507 105.874 109.506H105.322C104.909 109.506 104.501 109.587 104.121 109.745C103.74 109.903 103.394 110.134 103.103 110.426C102.811 110.718 102.581 111.064 102.423 111.445C102.266 111.826 102.186 112.234 102.186 112.647C102.186 114.374 103.588 117.764 105.322 117.764H105.874ZM104.621 112.647C104.662 112.464 104.754 112.297 104.887 112.165C105.019 112.032 105.186 111.94 105.369 111.899C105.551 111.857 105.742 111.868 105.918 111.93C106.095 111.992 106.25 112.102 106.367 112.249C106.483 112.395 106.556 112.572 106.577 112.758C106.598 112.944 106.565 113.132 106.484 113.3C106.402 113.469 106.275 113.611 106.116 113.71C105.957 113.809 105.774 113.862 105.587 113.861C105.313 113.797 105.068 113.642 104.893 113.421C104.718 113.201 104.622 112.928 104.621 112.647Z" fill="#263238"/>
<path d="M105.305 109.506C104.893 109.506 104.485 109.587 104.104 109.745C103.723 109.903 103.377 110.134 103.086 110.426C102.795 110.718 102.564 111.064 102.407 111.445C102.25 111.826 102.169 112.234 102.17 112.647C102.17 114.374 103.572 117.764 105.305 117.764C107.038 117.764 108.44 114.374 108.44 112.647C108.441 112.234 108.361 111.826 108.203 111.445C108.046 111.064 107.815 110.718 107.524 110.426C107.233 110.134 106.887 109.903 106.506 109.745C106.125 109.587 105.717 109.506 105.305 109.506ZM105.305 113.922C105.057 113.923 104.814 113.85 104.607 113.713C104.4 113.576 104.238 113.38 104.143 113.151C104.047 112.922 104.022 112.669 104.07 112.426C104.118 112.182 104.238 111.958 104.414 111.783C104.589 111.607 104.813 111.488 105.056 111.439C105.3 111.391 105.552 111.417 105.782 111.512C106.011 111.608 106.206 111.769 106.344 111.976C106.481 112.183 106.554 112.426 106.553 112.674C106.545 113 106.411 113.311 106.178 113.539C105.944 113.767 105.631 113.894 105.305 113.894V113.922Z" fill="#90A955"/>
<path opacity="0.3" d="M105.305 109.506C104.893 109.506 104.485 109.587 104.104 109.745C103.723 109.903 103.377 110.134 103.086 110.426C102.795 110.718 102.564 111.064 102.407 111.445C102.25 111.826 102.169 112.234 102.17 112.647C102.17 114.374 103.572 117.764 105.305 117.764C107.038 117.764 108.44 114.374 108.44 112.647C108.441 112.234 108.361 111.826 108.203 111.445C108.046 111.064 107.815 110.718 107.524 110.426C107.233 110.134 106.887 109.903 106.506 109.745C106.125 109.587 105.717 109.506 105.305 109.506ZM105.305 113.922C105.057 113.923 104.814 113.85 104.607 113.713C104.4 113.576 104.238 113.38 104.143 113.151C104.047 112.922 104.022 112.669 104.07 112.426C104.118 112.182 104.238 111.958 104.414 111.783C104.589 111.607 104.813 111.488 105.056 111.439C105.3 111.391 105.552 111.417 105.782 111.512C106.011 111.608 106.206 111.769 106.344 111.976C106.481 112.183 106.554 112.426 106.553 112.674C106.545 113 106.411 113.311 106.178 113.539C105.944 113.767 105.631 113.894 105.305 113.894V113.922Z" fill="black"/>
<path opacity="0.1" d="M97.7812 86.2389C97.7812 86.8517 96.2521 87.3429 94.3643 87.3429C92.4765 87.3429 90.9419 86.8517 90.9419 86.2389C90.9419 85.6262 92.4765 85.1349 94.3643 85.1349C96.2521 85.1349 97.7812 85.6317 97.7812 86.2389Z" fill="black"/>
<path d="M94.646 85.8691C96.3793 85.8691 97.7814 82.4798 97.7814 80.7521C97.7821 80.3399 97.7015 79.9316 97.5443 79.5505C97.387 79.1695 97.1562 78.8232 96.865 78.5315C96.5738 78.2397 96.2279 78.0083 95.8471 77.8504C95.4664 77.6925 95.0582 77.6112 94.646 77.6112H94.094C93.261 77.6112 92.4621 77.9421 91.8731 78.5311C91.284 79.1202 90.9531 79.9191 90.9531 80.7521C90.9531 82.4798 92.3607 85.8691 94.094 85.8691H94.646ZM93.3985 80.7521C93.4401 80.5696 93.5324 80.4026 93.6647 80.2702C93.7971 80.1379 93.9641 80.0457 94.1466 80.0041C94.3291 79.9625 94.5196 79.9734 94.6962 80.0353C94.8728 80.0973 95.0283 80.2079 95.1448 80.3543C95.2613 80.5008 95.3341 80.6772 95.3548 80.8632C95.3754 81.0493 95.3431 81.2373 95.2616 81.4058C95.18 81.5742 95.0526 81.7163 94.8939 81.8155C94.7351 81.9147 94.5516 81.967 94.3645 81.9665C94.0895 81.9038 93.844 81.7494 93.6685 81.5287C93.4929 81.308 93.3977 81.0341 93.3985 80.7521Z" fill="#263238"/>
<path d="M94.0828 77.6112C93.2498 77.6112 92.4509 77.9421 91.8618 78.5311C91.2728 79.1202 90.9419 79.9191 90.9419 80.7521C90.9419 82.4798 92.3495 85.8691 94.0828 85.8691C95.8161 85.8691 97.2181 82.4798 97.2181 80.7521C97.2181 79.92 96.888 79.122 96.3001 78.5331C95.7123 77.9442 94.9148 77.6127 94.0828 77.6112ZM94.0828 82.0272C93.8345 82.0283 93.5915 81.9556 93.3846 81.8183C93.1777 81.6811 93.0162 81.4854 92.9207 81.2562C92.8251 81.027 92.7999 80.7746 92.848 80.5311C92.8962 80.2875 93.0157 80.0637 93.1912 79.8881C93.3668 79.7126 93.5906 79.5931 93.8342 79.5449C94.0777 79.4968 94.3301 79.522 94.5593 79.6176C94.7885 79.7131 94.9842 79.8746 95.1214 80.0815C95.2587 80.2884 95.3314 80.5314 95.3303 80.7797C95.3217 81.1053 95.1866 81.4147 94.9538 81.6425C94.7209 81.8702 94.4085 81.9983 94.0828 81.9996V82.0272Z" fill="#90A955"/>
<path opacity="0.3" d="M94.0828 77.6112C93.2498 77.6112 92.4509 77.9421 91.8618 78.5311C91.2728 79.1202 90.9419 79.9191 90.9419 80.7521C90.9419 82.4798 92.3495 85.8691 94.0828 85.8691C95.8161 85.8691 97.2181 82.4798 97.2181 80.7521C97.2181 79.92 96.888 79.122 96.3001 78.5331C95.7123 77.9442 94.9148 77.6127 94.0828 77.6112ZM94.0828 82.0272C93.8345 82.0283 93.5915 81.9556 93.3846 81.8183C93.1777 81.6811 93.0162 81.4854 92.9207 81.2562C92.8251 81.027 92.7999 80.7746 92.848 80.5311C92.8962 80.2875 93.0157 80.0637 93.1912 79.8881C93.3668 79.7126 93.5906 79.5931 93.8342 79.5449C94.0777 79.4968 94.3301 79.522 94.5593 79.6176C94.7885 79.7131 94.9842 79.8746 95.1214 80.0815C95.2587 80.2884 95.3314 80.5314 95.3303 80.7797C95.3217 81.1053 95.1866 81.4147 94.9538 81.6425C94.7209 81.8702 94.4085 81.9983 94.0828 81.9996V82.0272Z" fill="black"/>
<path opacity="0.1" d="M151.325 88.0771C151.325 88.6843 149.796 89.1811 147.908 89.1811C146.021 89.1811 144.486 88.6843 144.486 88.0771C144.486 87.4699 146.021 86.9731 147.908 86.9731C149.796 86.9731 151.325 87.4644 151.325 88.0771Z" fill="black"/>
<path d="M148.19 87.7018C149.923 87.7018 151.325 84.318 151.325 82.5847C151.326 82.1725 151.245 81.7642 151.088 81.3832C150.931 81.0021 150.7 80.6559 150.409 80.3641C150.118 80.0724 149.772 79.841 149.391 79.683C149.01 79.5251 148.602 79.4438 148.19 79.4438H147.638C146.805 79.4438 146.006 79.7748 145.417 80.3638C144.828 80.9528 144.497 81.7517 144.497 82.5847C144.497 84.318 145.905 87.7018 147.638 87.7018H148.19ZM146.942 82.5847C146.984 82.4022 147.076 82.2352 147.209 82.1029C147.341 81.9706 147.508 81.8783 147.691 81.8367C147.873 81.7952 148.064 81.806 148.24 81.868C148.417 81.9299 148.572 82.0405 148.689 82.187C148.805 82.3335 148.878 82.5099 148.899 82.6959C148.919 82.8819 148.887 83.07 148.806 83.2384C148.724 83.4069 148.597 83.5489 148.438 83.6481C148.279 83.7473 148.096 83.7996 147.908 83.7991C147.633 83.7365 147.388 83.5821 147.212 83.3614C147.037 83.1406 146.942 82.8668 146.942 82.5847Z" fill="#263238"/>
<path d="M147.627 79.4438C146.794 79.4438 145.995 79.7748 145.406 80.3638C144.817 80.9528 144.486 81.7517 144.486 82.5847C144.486 84.318 145.894 87.7018 147.627 87.7018C149.36 87.7018 150.762 84.318 150.762 82.5847C150.762 81.7527 150.432 80.9546 149.844 80.3657C149.256 79.7769 148.459 79.4453 147.627 79.4438ZM147.627 83.8598C147.379 83.8609 147.136 83.7882 146.929 83.651C146.722 83.5137 146.56 83.3181 146.465 83.0889C146.369 82.8597 146.344 82.6073 146.392 82.3637C146.44 82.1201 146.56 81.8964 146.735 81.7208C146.911 81.5452 147.135 81.4258 147.378 81.3776C147.622 81.3294 147.874 81.3547 148.104 81.4502C148.333 81.5457 148.528 81.7072 148.666 81.9141C148.803 82.121 148.876 82.364 148.874 82.6123C148.866 82.9379 148.731 83.2474 148.498 83.4751C148.265 83.7028 147.953 83.8309 147.627 83.8322V83.8598Z" fill="#90A955"/>
<path opacity="0.3" d="M147.627 79.4438C146.794 79.4438 145.995 79.7748 145.406 80.3638C144.817 80.9528 144.486 81.7517 144.486 82.5847C144.486 84.318 145.894 87.7018 147.627 87.7018C149.36 87.7018 150.762 84.318 150.762 82.5847C150.762 81.7527 150.432 80.9546 149.844 80.3657C149.256 79.7769 148.459 79.4453 147.627 79.4438ZM147.627 83.8598C147.379 83.8609 147.136 83.7882 146.929 83.651C146.722 83.5137 146.56 83.3181 146.465 83.0889C146.369 82.8597 146.344 82.6073 146.392 82.3637C146.44 82.1201 146.56 81.8964 146.735 81.7208C146.911 81.5452 147.135 81.4258 147.378 81.3776C147.622 81.3294 147.874 81.3547 148.104 81.4502C148.333 81.5457 148.528 81.7072 148.666 81.9141C148.803 82.121 148.876 82.364 148.874 82.6123C148.866 82.9379 148.731 83.2474 148.498 83.4751C148.265 83.7028 147.953 83.8309 147.627 83.8322V83.8598Z" fill="black"/>
<path d="M91.8805 62.0392C92.9359 62.9665 94.3014 63.463 95.7059 63.4302H182.033C182.819 63.4302 183.598 63.2753 184.324 62.9742C185.051 62.6732 185.711 62.2319 186.266 61.6757C186.822 61.1195 187.263 60.4592 187.563 59.7326C187.863 59.006 188.018 58.2273 188.017 57.441V54.8797C188.065 53.7171 187.725 52.5715 187.051 51.6229C186.223 50.6321 185.316 49.7091 184.341 48.8629C183.364 48.1174 182.157 47.7384 180.929 47.7921H94.6019C93.0134 47.7921 91.49 48.4231 90.3669 49.5463C89.2437 50.6694 88.6127 52.1928 88.6127 53.7813V56.3425C88.5617 57.4453 88.8675 58.5351 89.4848 59.4503C90.2237 60.3666 91.0241 61.2316 91.8805 62.0392Z" fill="#90A955"/>
<path opacity="0.8" d="M180.924 47.7866H94.602C91.2943 47.7866 88.6128 50.4681 88.6128 53.7758V56.3371C88.6128 59.6448 91.2943 62.3263 94.602 62.3263H180.924C184.232 62.3263 186.913 59.6448 186.913 56.3371V53.7758C186.913 50.4681 184.232 47.7866 180.924 47.7866Z" fill="white"/>
<path d="M170.397 60.4826C170.154 60.4826 169.921 60.3861 169.749 60.2142C169.577 60.0424 169.48 59.8093 169.48 59.5663V50.5466C169.48 50.3036 169.577 50.0705 169.749 49.8987C169.921 49.7268 170.154 49.6303 170.397 49.6303C170.517 49.6303 170.636 49.654 170.747 49.7001C170.859 49.7461 170.96 49.8136 171.045 49.8987C171.13 49.9838 171.197 50.0848 171.243 50.196C171.289 50.3071 171.313 50.4263 171.313 50.5466V59.5663C171.313 59.6866 171.289 59.8058 171.243 59.917C171.197 60.0281 171.13 60.1292 171.045 60.2142C170.96 60.2993 170.859 60.3668 170.747 60.4129C170.636 60.4589 170.517 60.4826 170.397 60.4826Z" fill="#90A955"/>
<path d="M179.786 51.5679C179.341 51.1228 178.778 50.814 178.163 50.6774C177.549 50.5409 176.908 50.5823 176.316 50.7969C175.724 51.0114 175.206 51.3902 174.822 51.8889C174.437 52.3875 174.203 52.9854 174.147 53.6123C174.09 54.2393 174.213 54.8695 174.502 55.429C174.79 55.9885 175.232 56.4541 175.776 56.7713C176.32 57.0886 176.943 57.2443 177.572 57.2201C178.201 57.196 178.81 56.9931 179.328 56.6352C179.354 56.7498 179.411 56.8549 179.494 56.9388L181.867 59.3124C181.931 59.3766 182.008 59.4275 182.091 59.4622C182.175 59.4969 182.265 59.5148 182.356 59.5148C182.447 59.5148 182.536 59.4969 182.62 59.4622C182.704 59.4275 182.78 59.3766 182.844 59.3124C182.908 59.2483 182.959 59.1721 182.994 59.0883C183.029 59.0045 183.047 58.9146 183.047 58.8239C183.047 58.7332 183.029 58.6433 182.994 58.5595C182.959 58.4757 182.908 58.3995 182.844 58.3354L180.471 55.9618C180.387 55.8795 180.282 55.8222 180.167 55.7962C180.609 55.1584 180.813 54.3857 180.743 53.613C180.674 52.8402 180.335 52.1164 179.786 51.5679ZM178.953 55.4319C178.654 55.7308 178.273 55.9345 177.859 56.0172C177.444 56.0998 177.015 56.0576 176.624 55.896C176.234 55.7344 175.9 55.4606 175.665 55.1092C175.43 54.7579 175.305 54.3447 175.305 53.9221C175.305 53.4995 175.43 53.0864 175.665 52.7351C175.9 52.3837 176.234 52.1099 176.624 51.9483C177.015 51.7867 177.444 51.7445 177.859 51.8271C178.273 51.9097 178.654 52.1134 178.953 52.4124C179.349 52.8125 179.572 53.3532 179.572 53.9166C179.572 54.4801 179.349 55.0207 178.953 55.4208V55.4319Z" fill="#90A955"/>
<g opacity="0.3">
<path opacity="0.3" d="M170.397 60.4826C170.154 60.4826 169.921 60.3861 169.749 60.2142C169.577 60.0424 169.48 59.8093 169.48 59.5663V50.5466C169.48 50.3036 169.577 50.0705 169.749 49.8987C169.921 49.7268 170.154 49.6303 170.397 49.6303C170.517 49.6303 170.636 49.654 170.747 49.7001C170.859 49.7461 170.96 49.8136 171.045 49.8987C171.13 49.9838 171.197 50.0848 171.243 50.196C171.289 50.3071 171.313 50.4263 171.313 50.5466V59.5663C171.313 59.6866 171.289 59.8058 171.243 59.917C171.197 60.0281 171.13 60.1292 171.045 60.2142C170.96 60.2993 170.859 60.3668 170.747 60.4129C170.636 60.4589 170.517 60.4826 170.397 60.4826Z" fill="white"/>
<path opacity="0.3" d="M179.786 51.5679C179.341 51.1228 178.778 50.814 178.163 50.6774C177.549 50.5409 176.908 50.5823 176.316 50.7969C175.724 51.0114 175.206 51.3902 174.822 51.8889C174.437 52.3875 174.203 52.9854 174.147 53.6123C174.09 54.2393 174.213 54.8695 174.502 55.429C174.79 55.9885 175.232 56.4541 175.776 56.7713C176.32 57.0886 176.943 57.2443 177.572 57.2201C178.201 57.196 178.81 56.9931 179.328 56.6352C179.354 56.7498 179.411 56.8549 179.494 56.9388L181.867 59.3124C181.931 59.3766 182.008 59.4275 182.091 59.4622C182.175 59.4969 182.265 59.5148 182.356 59.5148C182.447 59.5148 182.536 59.4969 182.62 59.4622C182.704 59.4275 182.78 59.3766 182.844 59.3124C182.908 59.2483 182.959 59.1721 182.994 59.0883C183.029 59.0045 183.047 58.9146 183.047 58.8239C183.047 58.7332 183.029 58.6433 182.994 58.5595C182.959 58.4757 182.908 58.3995 182.844 58.3354L180.471 55.9618C180.387 55.8795 180.282 55.8222 180.167 55.7962C180.609 55.1584 180.813 54.3857 180.743 53.613C180.674 52.8402 180.335 52.1164 179.786 51.5679ZM178.953 55.4319C178.654 55.7308 178.273 55.9345 177.859 56.0172C177.444 56.0998 177.015 56.0576 176.624 55.896C176.234 55.7344 175.9 55.4606 175.665 55.1092C175.43 54.7579 175.305 54.3447 175.305 53.9221C175.305 53.4995 175.43 53.0864 175.665 52.7351C175.9 52.3837 176.234 52.1099 176.624 51.9483C177.015 51.7867 177.444 51.7445 177.859 51.8271C178.273 51.9097 178.654 52.1134 178.953 52.4124C179.349 52.8125 179.572 53.3532 179.572 53.9166C179.572 54.4801 179.349 55.0207 178.953 55.4208V55.4319Z" fill="white"/>
</g>
<path d="M185.34 174.658C180.966 175.205 176.542 175.205 172.169 174.658C167.753 174.195 164.893 170.59 165.683 167.223C165.749 166.963 165.777 166.831 165.837 166.566C166.632 163.199 170.055 161.167 173.538 161.532C177.002 161.962 180.506 161.962 183.971 161.532C187.454 161.167 190.876 163.188 191.665 166.566C191.732 166.831 191.759 166.963 191.82 167.223C192.615 170.568 189.739 174.195 185.34 174.658Z" fill="#90A955"/>
<path d="M180.278 173.047L179.781 185.157H181.768L182.265 173.047H180.278Z" fill="#263238"/>
<path d="M172.815 185.157H174.802L175.299 173.047H173.311L172.815 185.157Z" fill="#263238"/>
<g opacity="0.6">
<path opacity="0.6" d="M180.278 173.047L179.781 185.157H181.768L182.265 173.047H180.278Z" fill="white"/>
<path opacity="0.6" d="M172.815 185.157H174.802L175.299 173.047H173.311L172.815 185.157Z" fill="white"/>
</g>
<path d="M180.647 188.85H157.999L156.012 229.687H157.646L160.626 192.113H167.725L168.691 229.687H169.955L170.921 192.113H178.02L181.001 229.687H182.635L180.647 188.85Z" fill="#263238"/>
<path opacity="0.6" d="M180.647 188.85H157.999L156.012 229.687H157.646L160.626 192.113H167.725L168.691 229.687H169.955L170.921 192.113H178.02L181.001 229.687H182.635L180.647 188.85Z" fill="white"/>
<path opacity="0.2" d="M180.648 188.85H157.999L157.839 192.113H160.626H167.725H170.921H178.02H180.808L180.648 188.85Z" fill="black"/>
<path d="M184.368 174.658C179.993 175.205 175.567 175.205 171.192 174.658C166.776 174.195 163.922 170.59 164.711 167.223C164.772 166.963 164.805 166.831 164.866 166.566C165.655 163.199 169.078 161.167 172.561 161.532C176.025 161.962 179.529 161.962 182.994 161.532C186.482 161.167 189.905 163.188 190.694 166.566C190.755 166.831 190.788 166.963 190.849 167.223C191.638 170.568 188.784 174.195 184.368 174.658Z" fill="#90A955"/>
<g opacity="0.5">
<path opacity="0.5" d="M184.368 174.658C179.993 175.205 175.567 175.205 171.192 174.658C166.776 174.195 163.922 170.59 164.711 167.223C164.772 166.963 164.805 166.831 164.866 166.566C165.655 163.199 169.078 161.167 172.561 161.532C176.025 161.962 179.529 161.962 182.994 161.532C186.482 161.167 189.905 163.188 190.694 166.566C190.755 166.831 190.788 166.963 190.849 167.223C191.638 170.568 188.784 174.195 184.368 174.658Z" fill="white"/>
</g>
<g opacity="0.7">
<path opacity="0.7" d="M183.816 167.913C183.816 168.082 183.766 168.248 183.672 168.388C183.578 168.529 183.444 168.639 183.288 168.703C183.132 168.768 182.96 168.785 182.794 168.752C182.628 168.719 182.475 168.638 182.356 168.518C182.236 168.398 182.154 168.246 182.121 168.08C182.088 167.914 182.105 167.742 182.17 167.586C182.235 167.429 182.345 167.296 182.485 167.202C182.626 167.108 182.791 167.057 182.961 167.057C183.188 167.057 183.405 167.148 183.566 167.308C183.726 167.468 183.816 167.686 183.816 167.913Z" fill="white"/>
<path opacity="0.7" d="M173.483 167.913C173.484 168.084 173.434 168.251 173.34 168.393C173.246 168.536 173.111 168.647 172.954 168.713C172.796 168.779 172.623 168.796 172.455 168.763C172.287 168.73 172.133 168.648 172.013 168.527C171.892 168.407 171.81 168.253 171.777 168.085C171.744 167.918 171.761 167.744 171.827 167.586C171.893 167.429 172.004 167.294 172.147 167.2C172.289 167.106 172.456 167.056 172.627 167.057C172.74 167.057 172.851 167.079 172.955 167.122C173.058 167.165 173.153 167.228 173.232 167.308C173.312 167.387 173.375 167.482 173.418 167.585C173.461 167.689 173.483 167.801 173.483 167.913Z" fill="white"/>
</g>
<path d="M183.59 189.579H155.057C154.699 189.58 154.345 189.51 154.015 189.373C153.684 189.237 153.384 189.036 153.131 188.783C152.878 188.531 152.678 188.23 152.541 187.9C152.405 187.569 152.335 187.215 152.335 186.858C152.335 186.136 152.622 185.444 153.133 184.933C153.643 184.423 154.335 184.136 155.057 184.136H183.59C184.311 184.136 185.004 184.423 185.514 184.933C186.024 185.444 186.311 186.136 186.311 186.858C186.312 187.215 186.242 187.569 186.105 187.9C185.969 188.23 185.768 188.531 185.516 188.783C185.263 189.036 184.962 189.237 184.632 189.373C184.301 189.51 183.947 189.58 183.59 189.579Z" fill="#90A955"/>
<path opacity="0.5" d="M183.59 189.579H155.057C154.699 189.58 154.345 189.51 154.015 189.373C153.684 189.237 153.384 189.036 153.131 188.783C152.878 188.531 152.678 188.23 152.541 187.9C152.405 187.569 152.335 187.215 152.335 186.858C152.335 186.136 152.622 185.444 153.133 184.933C153.643 184.423 154.335 184.136 155.057 184.136H183.59C184.311 184.136 185.004 184.423 185.514 184.933C186.024 185.444 186.311 186.136 186.311 186.858C186.312 187.215 186.242 187.569 186.105 187.9C185.969 188.23 185.768 188.531 185.516 188.783C185.263 189.036 184.962 189.237 184.632 189.373C184.301 189.51 183.947 189.58 183.59 189.579Z" fill="white"/>
<path d="M148.151 131.586C148.151 131.586 141.334 126.303 147.434 121.098C147.434 121.098 154.207 113.436 158.419 119.028C159.153 119.999 162.349 118.984 162.835 122.892C163.287 126.458 165.771 124.548 165.523 128.561C165.313 131.972 167.885 131.155 167.841 133.28C167.786 136.04 161.217 134.688 158.032 136.427C154.472 138.375 151.375 141.726 150.613 138.083C150.158 135.796 149.326 133.6 148.151 131.586Z" fill="#263238"/>
<path d="M155.112 150.63C155.112 150.63 154.897 159.396 151.772 161.449C148.648 163.502 140.363 150.067 140.363 150.067L139.866 143.239L143.343 142.035L144.751 147.207L143.509 149.736C143.509 149.736 148.422 156.442 149.068 155.697C149.713 154.952 150.172 149.117 150.172 149.117L155.112 150.63Z" fill="#FF8B7B"/>
<path d="M152.192 140.545C149.371 142.383 149.741 146.672 148.88 151.756L155.664 152.634C155.664 152.634 157.221 137.271 152.192 140.545Z" fill="#90A955"/>
<path opacity="0.1" d="M151.745 143.029C151.745 143.029 149.653 147.086 151.745 154.659C152.305 156.493 152.675 158.38 152.849 160.29C154.207 158.253 154.742 154.726 154.952 152.562L155.631 152.65C155.631 152.65 156.21 147.025 155.554 143.31L153.544 142.123L151.745 143.029Z" fill="black"/>
<path d="M130.515 188.933L133.258 218.923L136.946 219.354L138.845 189.446L130.515 188.933Z" fill="#FF8B7B"/>
<path opacity="0.1" d="M130.515 188.933L133.258 218.923L136.946 219.354L138.845 189.446L130.515 188.933Z" fill="black"/>
<path d="M133.242 218.487L136.786 217.339C136.861 217.315 136.942 217.316 137.016 217.343C137.09 217.37 137.152 217.421 137.194 217.488L139.021 220.579C139.063 220.643 139.092 220.715 139.105 220.791C139.117 220.866 139.114 220.943 139.096 221.018C139.077 221.092 139.043 221.161 138.996 221.222C138.949 221.282 138.89 221.332 138.823 221.369C138.788 221.391 138.751 221.407 138.712 221.418C137.233 221.876 135.891 222.224 134.059 222.826C131.889 223.538 132.524 223.615 129.991 224.482C128.462 225.006 127.611 223.378 128.23 223.052C131.089 221.705 131.652 220.513 132.452 219.072C132.633 218.785 132.915 218.577 133.242 218.487Z" fill="#263238"/>
<path d="M140.059 191.235L136.112 223.842L139.016 224.587C143.027 214.809 146.088 204.668 148.157 194.304L140.059 191.235Z" fill="#FF8B7B"/>
<path d="M136.096 223.295L139.662 224.399C139.737 224.422 139.803 224.47 139.848 224.535C139.893 224.601 139.915 224.679 139.91 224.758L139.656 228.307C139.657 228.385 139.641 228.462 139.609 228.533C139.578 228.605 139.531 228.668 139.474 228.721C139.416 228.773 139.347 228.812 139.273 228.836C139.199 228.86 139.121 228.868 139.043 228.859C139.003 228.865 138.962 228.865 138.922 228.859C137.443 228.384 136.162 227.91 134.296 227.358C132.088 226.706 132.585 227.131 130.007 226.397C128.456 225.956 128.699 224.112 129.378 224.222C132.497 224.747 133.634 224.084 135.113 223.356C135.423 223.219 135.771 223.197 136.096 223.295Z" fill="#263238"/>
<path d="M175.161 166.45C175.272 167.25 175.5 168.03 175.84 168.763C178.302 174.487 181.912 188.635 150.757 185.56L148.781 196.142L129.775 190.567C129.775 190.567 129.014 175.867 132.248 173.024C136.234 169.525 157.331 169.663 157.331 169.663L157.221 167.129L175.161 166.45Z" fill="#90A955"/>
<path opacity="0.1" d="M139.926 176.27C136.162 178.975 135.621 186.272 135.908 192.367L138.806 193.217C138.756 190.578 138.806 183.871 140.462 180.521C142.565 176.259 148.571 172.025 156.221 171.076C156.216 171.048 146.832 171.302 139.926 176.27Z" fill="black"/>
<path d="M163.436 167.681C166.665 167.803 176.811 168.686 176.254 166.025C175.342 161.974 174.715 157.865 174.377 153.727C173.852 146.33 174.305 138.933 171.882 136.499C169.354 133.965 154.124 137.255 152.192 141.025C149.929 145.441 152.192 150.409 154.002 157.221C155.079 161.294 155.785 165.087 156.459 167.157C157 168.846 161.692 167.62 163.436 167.681Z" fill="#263238"/>
<path opacity="0.1" d="M175.84 168.763C175.5 168.03 175.272 167.25 175.161 166.45L157.221 167.129L157.326 169.541C158.264 169.795 159.865 169.977 162.382 169.541C166.572 168.785 171.418 170.783 176.06 169.304L175.84 168.763Z" fill="black"/>
<path opacity="0.6" d="M164.496 163.585C164.496 163.585 172.097 162.437 175.266 160.936C174.918 158.855 174.57 156.349 174.388 153.76C173.985 148.124 174.151 142.488 173.179 139.049L167.913 140.103C167.913 140.103 167.499 143.791 172.715 156.211L171.12 159.92L164.496 163.585Z" fill="black"/>
<path opacity="0.1" d="M169.873 184.539C158.098 185.146 151.281 182.132 151.281 182.132L150.757 185.56C159.727 186.438 165.81 185.897 169.873 184.539Z" fill="black"/>
<path d="M170.828 146.959C170.828 146.959 173.742 153.671 173.245 154.659C172.749 155.647 164.181 161.366 164.181 161.366C164.181 161.366 159.075 157.889 157.718 159.379C156.821 160.384 156.012 161.465 155.3 162.608L156.404 163.105L159.191 162.227C159.191 162.227 162.89 164.562 164.502 163.585C164.502 163.585 177.75 159.004 178.081 155.532C178.412 152.059 175.277 144.492 175.277 144.492L170.828 146.959Z" fill="#FF8B7B"/>
<path d="M170.016 135.792C168.619 135.853 164.595 137.547 170.987 148.488L176.767 145.695C176.767 145.695 173.88 135.599 170.016 135.792Z" fill="#90A955"/>
<path d="M157.646 130.112C158.474 132.552 159.887 135.88 162.266 136.465C162.266 136.465 163.469 138.883 158.645 144.861C154.566 142.94 155.427 138.668 155.427 138.668C156.288 138.116 156.707 137.398 155.498 136.107L157.646 130.112Z" fill="#FF8B7B"/>
<path opacity="0.1" d="M156.702 132.739L155.499 136.107C155.868 136.447 156.126 136.892 156.238 137.382C158.579 136.537 158.446 132.248 158.446 132.248L156.702 132.739Z" fill="black"/>
<path d="M158.352 124.702C159.456 128.864 159.975 130.598 158.595 133.363C156.52 137.525 151.165 137.934 148.863 134.18C146.799 130.796 145.375 124.531 148.863 121.633C149.624 120.983 150.539 120.539 151.52 120.343C152.501 120.147 153.516 120.206 154.468 120.514C155.421 120.822 156.278 121.368 156.959 122.101C157.64 122.835 158.121 123.73 158.358 124.702H158.352Z" fill="#FF8B7B"/>
<path d="M151.899 128.616C152.037 128.942 151.977 129.273 151.767 129.367C151.557 129.461 151.276 129.262 151.138 128.942C151 128.622 151.066 128.285 151.27 128.197C151.474 128.108 151.756 128.34 151.899 128.616Z" fill="#263238"/>
<path d="M148.273 130.189C148.405 130.515 148.345 130.846 148.14 130.934C147.936 131.023 147.644 130.835 147.506 130.515C147.368 130.195 147.434 129.858 147.644 129.77C147.853 129.681 148.135 129.869 148.273 130.189Z" fill="#263238"/>
<path d="M147.743 129.748L146.876 129.852C146.876 129.852 147.528 130.272 147.743 129.748Z" fill="#263238"/>
<path d="M149.642 130.272C149.664 131.129 149.57 131.985 149.36 132.817C149.574 132.863 149.796 132.862 150.01 132.816C150.224 132.769 150.426 132.677 150.602 132.546L149.642 130.272Z" fill="#FF5652"/>
<path d="M152.904 133.082C152.759 133.175 152.606 133.254 152.446 133.319C152.434 133.325 152.421 133.328 152.408 133.328C152.395 133.329 152.382 133.327 152.369 133.322C152.357 133.317 152.346 133.31 152.336 133.301C152.327 133.292 152.319 133.281 152.314 133.269C152.308 133.257 152.306 133.243 152.306 133.229C152.306 133.216 152.309 133.202 152.315 133.19C152.321 133.177 152.329 133.166 152.339 133.157C152.349 133.148 152.361 133.141 152.374 133.137C152.779 132.977 153.139 132.723 153.427 132.397C153.715 132.071 153.922 131.681 154.03 131.26C154.036 131.233 154.051 131.209 154.074 131.194C154.097 131.178 154.125 131.172 154.152 131.177C154.165 131.179 154.177 131.184 154.189 131.191C154.2 131.198 154.21 131.207 154.218 131.218C154.225 131.229 154.231 131.241 154.234 131.254C154.237 131.267 154.237 131.28 154.234 131.293C154.144 131.665 153.979 132.015 153.751 132.322C153.522 132.63 153.234 132.888 152.904 133.082Z" fill="#263238"/>
<path d="M153.053 127.291C153.018 127.316 152.975 127.33 152.932 127.33C152.888 127.33 152.846 127.316 152.81 127.291C152.53 127.11 152.215 126.989 151.885 126.936C151.555 126.882 151.218 126.898 150.895 126.982C150.842 126.996 150.786 126.988 150.739 126.962C150.691 126.935 150.656 126.891 150.641 126.839C150.633 126.813 150.631 126.787 150.634 126.76C150.637 126.734 150.645 126.708 150.658 126.685C150.67 126.662 150.688 126.642 150.709 126.626C150.729 126.609 150.753 126.597 150.779 126.59C151.167 126.488 151.572 126.47 151.968 126.539C152.363 126.607 152.739 126.76 153.07 126.988C153.088 127.006 153.103 127.028 153.113 127.052C153.123 127.076 153.128 127.102 153.128 127.128C153.128 127.155 153.123 127.18 153.113 127.205C153.103 127.229 153.088 127.251 153.07 127.269C153.065 127.277 153.06 127.285 153.053 127.291Z" fill="#263238"/>
<path d="M146.468 128.975C146.436 128.994 146.4 129.004 146.363 129.004C146.326 129.004 146.29 128.994 146.258 128.975C146.234 128.963 146.213 128.946 146.195 128.925C146.178 128.904 146.165 128.88 146.157 128.855C146.15 128.829 146.147 128.802 146.15 128.775C146.153 128.748 146.162 128.722 146.175 128.699C146.319 128.404 146.533 128.148 146.798 127.956C147.064 127.763 147.373 127.639 147.699 127.595C147.724 127.591 147.751 127.592 147.776 127.599C147.801 127.606 147.825 127.617 147.846 127.633C147.866 127.649 147.883 127.669 147.896 127.692C147.909 127.715 147.917 127.74 147.919 127.766C147.924 127.819 147.908 127.872 147.874 127.914C147.839 127.955 147.791 127.981 147.737 127.987C147.484 128.034 147.245 128.141 147.04 128.297C146.835 128.453 146.669 128.655 146.556 128.886C146.535 128.924 146.505 128.954 146.468 128.975Z" fill="#263238"/>
<path d="M151.392 128.23L150.525 128.329C150.525 128.329 151.16 128.748 151.392 128.23Z" fill="#263238"/>
<path d="M160.489 127.479C160.468 128.294 160.127 129.067 159.539 129.632C158.75 130.371 157.883 129.786 157.651 128.776C157.475 127.865 157.651 126.386 158.656 126.016C158.878 125.94 159.115 125.922 159.345 125.962C159.576 126.002 159.793 126.1 159.976 126.247C160.158 126.393 160.301 126.583 160.391 126.8C160.481 127.016 160.514 127.252 160.489 127.484V127.479Z" fill="#FF8B7B"/>
<path d="M148.527 122.699C148.558 123.394 148.827 124.058 149.29 124.578C149.752 125.099 150.379 125.445 151.066 125.558C153.578 126.055 153.567 128.737 155.349 128.804C157.132 128.87 156.591 130.896 158.005 130.526C159.418 130.156 158.656 128.108 159.418 127.324C160.494 126.22 158.419 121.418 155.896 120.424C153.373 119.431 148.03 119.469 148.527 122.699Z" fill="#263238"/>
<path d="M148.864 122.163C148.864 122.163 146.882 123.885 147.307 125.939C147.732 127.992 146.253 128.329 146.755 130.294C147.257 132.259 148.714 132.502 148.869 134.158C149.024 135.814 150.613 136.217 149.973 137.128C149.333 138.039 148.19 135.969 148.107 134.368C148.024 132.767 146.076 132.679 145.828 130.565C145.579 128.45 146.7 127.457 146.38 125.597C146.059 123.736 145.828 121.081 149.366 121.247C152.904 121.412 148.864 122.163 148.864 122.163Z" fill="#263238"/>
<path d="M148.748 120.745C148.748 120.745 146.479 124.791 148.748 126.436C151.016 128.081 147.776 124.355 148.748 120.745Z" fill="#263238"/>
<path d="M148.091 121.186C148.091 121.186 143.835 121.567 143.724 124.758C143.614 127.948 144.563 122.417 148.091 121.186Z" fill="#263238"/>
<path d="M141.864 143.393C141.853 143.718 141.906 144.042 142.02 144.346C142.134 144.65 142.307 144.929 142.529 145.166C142.751 145.404 143.018 145.595 143.314 145.729C143.61 145.864 143.929 145.938 144.254 145.949H144.381C144.618 147.053 145.595 147.158 146.76 147.158H147.263C148.609 147.158 149.697 146.777 149.697 145.43V141.146C149.697 140.963 149.624 140.787 149.495 140.657C149.366 140.526 149.19 140.452 149.007 140.451H145.016C144.832 140.452 144.657 140.526 144.528 140.657C144.398 140.787 144.326 140.963 144.326 141.146V141.422H144.254C142.791 141.411 141.864 142.14 141.864 143.393ZM142.747 143.492C142.747 142.675 143.338 142.201 144.304 142.201V145.176C143.881 145.159 143.481 144.975 143.193 144.665C142.905 144.355 142.75 143.943 142.764 143.52L142.747 143.492Z" fill="#90A955"/>
<path opacity="0.2" d="M141.864 143.393C141.853 143.718 141.906 144.042 142.02 144.346C142.134 144.65 142.307 144.929 142.529 145.166C142.751 145.404 143.018 145.595 143.314 145.729C143.61 145.864 143.929 145.938 144.254 145.949H144.381C144.618 147.053 145.595 147.158 146.76 147.158H147.263C148.609 147.158 149.697 146.777 149.697 145.43V141.146C149.697 140.963 149.624 140.787 149.495 140.657C149.366 140.526 149.19 140.452 149.007 140.451H145.016C144.832 140.452 144.657 140.526 144.528 140.657C144.398 140.787 144.326 140.963 144.326 141.146V141.422H144.254C142.791 141.411 141.864 142.14 141.864 143.393ZM142.747 143.492C142.747 142.675 143.338 142.201 144.304 142.201V145.176C143.881 145.159 143.481 144.975 143.193 144.665C142.905 144.355 142.75 143.943 142.764 143.52L142.747 143.492Z" fill="black"/>
<path opacity="0.1" d="M144.321 145.176V145.441C144.322 145.615 144.34 145.789 144.376 145.96H144.249C144.044 145.961 143.839 145.933 143.642 145.877V145.027C143.854 145.127 144.086 145.178 144.321 145.176Z" fill="black"/>
<path opacity="0.1" d="M144.271 141.411H144.342V142.195C144.12 142.194 143.899 142.224 143.686 142.284V141.456C143.879 141.425 144.075 141.41 144.271 141.411Z" fill="black"/>
<path opacity="0.1" d="M144.321 145.176V145.441C144.322 145.615 144.34 145.789 144.376 145.96H144.249C144.044 145.961 143.839 145.933 143.642 145.877V145.027C143.854 145.127 144.086 145.178 144.321 145.176Z" fill="black"/>
<path opacity="0.1" d="M144.271 141.411H144.342V142.195C144.12 142.194 143.899 142.224 143.686 142.284V141.456C143.879 141.425 144.075 141.41 144.271 141.411Z" fill="black"/>
<path d="M140.335 150.067L139.838 143.239L143.316 142.035L144.723 147.213L143.481 149.736L140.335 150.067Z" fill="#FF8B7B"/>
<path d="M110.51 151.187C110.51 151.187 107.358 154.781 106.332 150.586C105.305 146.39 104.328 142.736 104.328 142.736C104.328 142.736 121.374 147.638 110.51 151.187Z" fill="#90A955"/>
<path opacity="0.3" d="M110.51 151.187C110.51 151.187 107.358 154.781 106.332 150.586C105.305 146.39 104.328 142.736 104.328 142.736C104.328 142.736 121.374 147.638 110.51 151.187Z" fill="black"/>
<path d="M110.952 156.613C110.952 156.613 112.056 148.173 107.425 145.375C107.425 145.375 111.404 149.084 110.185 156.509L110.952 156.613Z" fill="#90A955"/>
<path opacity="0.5" d="M110.952 156.613C110.952 156.613 112.056 148.173 107.425 145.375C107.425 145.375 111.404 149.084 110.185 156.509L110.952 156.613Z" fill="white"/>
<path d="M112.901 151.618C112.901 151.618 109.257 148.08 113.419 146.098C117.582 144.116 122.053 147.936 122.053 147.936C122.053 147.936 113.188 157.828 112.901 151.618Z" fill="#90A955"/>
<path d="M111.432 156.216C111.432 156.216 111.504 148.206 117.576 147.936C117.576 147.936 112.481 148.996 111.984 156.216H111.432Z" fill="#90A955"/>
<path opacity="0.5" d="M111.432 156.216C111.432 156.216 111.504 148.206 117.576 147.936C117.576 147.936 112.481 148.996 111.984 156.216H111.432Z" fill="white"/>
<path d="M108.131 152.683C108.131 152.683 110.82 149.371 107.215 148.576C103.61 147.781 100.503 152.683 100.503 152.683C100.503 152.683 109.544 156.486 108.131 152.683Z" fill="#90A955"/>
<path opacity="0.2" d="M108.131 152.683C108.131 152.683 110.82 149.371 107.215 148.576C103.61 147.781 100.503 152.683 100.503 152.683C100.503 152.683 109.544 156.486 108.131 152.683Z" fill="white"/>
<path d="M110.002 156.216C110.002 156.216 108.512 147.583 102.49 151.557C102.49 151.557 107.706 149.012 109.257 156.216H110.002Z" fill="#90A955"/>
<path opacity="0.5" d="M110.002 156.216C110.002 156.216 108.512 147.583 102.49 151.557C102.49 151.557 107.706 149.012 109.257 156.216H110.002Z" fill="white"/>
<path d="M115.964 155.642H105.791L106.045 157.706H106.707L107.53 164.463H114.225L115.053 157.706H115.71L115.964 155.642Z" fill="#263238"/>
<path opacity="0.4" d="M114.877 159.153L115.042 157.795H106.718L106.884 159.153H114.877Z" fill="black"/>
<path d="M182.673 169.381H181.001H157.64H155.967L150.503 229.687H152.175H152.816H154.488L161.035 172.61H177.606L184.153 229.687H185.825H186.465H188.138L182.673 169.381Z" fill="#263238"/>
<path opacity="0.2" d="M182.673 169.381H181.001H157.64H155.967L150.503 229.687H152.175H152.816H154.488L161.035 172.61H177.606L184.153 229.687H185.825H186.465H188.138L182.673 169.381Z" fill="white"/>
<path opacity="0.1" d="M161.035 172.61H179.273L185.825 229.687H188.138L182.673 169.381H157.64L152.175 229.687H154.488L161.035 172.61Z" fill="white"/>
<path d="M119.442 169.381H117.769H94.4086H92.736L87.2712 229.687H88.9438H89.5841H91.2567L97.8034 172.61H114.374L120.921 229.687H122.594H123.234H124.907L119.442 169.381Z" fill="#263238"/>
<path opacity="0.2" d="M119.442 169.381H117.769H94.4086H92.736L87.2712 229.687H88.9438H89.5841H91.2567L97.8034 172.61H114.374L120.921 229.687H122.594H123.234H124.907L119.442 169.381Z" fill="white"/>
<path opacity="0.1" d="M97.8032 172.61H116.041L122.594 229.687H124.906L119.442 169.381H94.4084L88.9436 229.687H91.2565L97.8032 172.61Z" fill="white"/>
<path d="M189.811 164.667H85.2839V167.124H189.811V164.667Z" fill="#90A955"/>
<path opacity="0.5" d="M189.811 164.667H85.2839V167.124H189.811V164.667Z" fill="white"/>
<path opacity="0.2" d="M189.811 164.667H151.673V167.124H189.811V164.667Z" fill="black"/>
<path d="M187.824 166.991H87.2712V169.447H187.824V166.991Z" fill="#90A955"/>
<path opacity="0.2" d="M187.824 166.991H87.2712V169.447H187.824V166.991Z" fill="white"/>
<path opacity="0.2" d="M187.823 166.991H151.673V169.447H187.823V166.991Z" fill="black"/>
<path d="M159.147 163.122H127.451C127.246 163.122 127.05 163.203 126.905 163.348C126.76 163.493 126.678 163.689 126.678 163.894C126.678 164.099 126.76 164.296 126.905 164.441C127.05 164.586 127.246 164.667 127.451 164.667H159.147C159.352 164.667 159.549 164.586 159.694 164.441C159.838 164.296 159.92 164.099 159.92 163.894C159.92 163.689 159.838 163.493 159.694 163.348C159.549 163.203 159.352 163.122 159.147 163.122Z" fill="#1A2E35"/>
<path opacity="0.3" d="M159.147 163.122H127.451C127.246 163.122 127.05 163.203 126.905 163.348C126.76 163.493 126.678 163.689 126.678 163.894C126.678 164.099 126.76 164.296 126.905 164.441C127.05 164.586 127.246 164.667 127.451 164.667H159.147C159.352 164.667 159.549 164.586 159.694 164.441C159.838 164.296 159.92 164.099 159.92 163.894C159.92 163.689 159.838 163.493 159.694 163.348C159.549 163.203 159.352 163.122 159.147 163.122Z" fill="white"/>
<path d="M127.871 164.192H140.997C141.055 164.192 141.113 164.178 141.164 164.151C141.216 164.124 141.26 164.085 141.294 164.038C141.327 163.99 141.349 163.935 141.357 163.878C141.365 163.82 141.359 163.761 141.339 163.707L136.051 148.598C135.98 148.395 135.847 148.218 135.671 148.094C135.495 147.969 135.285 147.902 135.069 147.903H121.948C121.889 147.902 121.831 147.916 121.779 147.942C121.726 147.969 121.681 148.007 121.647 148.055C121.613 148.103 121.591 148.158 121.583 148.216C121.574 148.274 121.58 148.333 121.6 148.389L126.894 163.497C126.963 163.701 127.095 163.877 127.27 164.002C127.445 164.127 127.655 164.193 127.871 164.192Z" fill="#1A2E35"/>
<path opacity="0.5" d="M127.871 164.192H140.997C141.055 164.192 141.113 164.178 141.164 164.151C141.216 164.124 141.26 164.085 141.294 164.038C141.327 163.99 141.349 163.935 141.357 163.878C141.365 163.82 141.359 163.761 141.339 163.707L136.051 148.598C135.98 148.395 135.847 148.218 135.671 148.094C135.495 147.969 135.285 147.902 135.069 147.903H121.948C121.889 147.902 121.831 147.916 121.779 147.942C121.726 147.969 121.681 148.007 121.647 148.055C121.613 148.103 121.591 148.158 121.583 148.216C121.574 148.274 121.58 148.333 121.6 148.389L126.894 163.497C126.963 163.701 127.095 163.877 127.27 164.002C127.445 164.127 127.655 164.193 127.871 164.192Z" fill="white"/>
<path d="M127.407 164.192H140.528C140.587 164.193 140.645 164.18 140.697 164.153C140.749 164.127 140.794 164.088 140.829 164.04C140.863 163.992 140.885 163.937 140.893 163.879C140.901 163.821 140.895 163.762 140.876 163.707L135.582 148.598C135.513 148.395 135.381 148.218 135.206 148.093C135.03 147.968 134.82 147.902 134.605 147.903H121.479C121.42 147.903 121.363 147.917 121.311 147.944C121.26 147.971 121.215 148.01 121.182 148.057C121.148 148.105 121.127 148.16 121.119 148.217C121.111 148.275 121.117 148.334 121.136 148.389L126.408 163.497C126.48 163.703 126.615 163.882 126.795 164.006C126.974 164.131 127.188 164.196 127.407 164.192Z" fill="#1A2E35"/>
<path opacity="0.7" d="M127.407 164.192H140.528C140.587 164.193 140.645 164.18 140.697 164.153C140.749 164.127 140.794 164.088 140.829 164.04C140.863 163.992 140.885 163.937 140.893 163.879C140.901 163.821 140.895 163.762 140.876 163.707L135.582 148.598C135.513 148.395 135.381 148.218 135.206 148.093C135.03 147.968 134.82 147.902 134.605 147.903H121.479C121.42 147.903 121.363 147.917 121.311 147.944C121.26 147.971 121.215 148.01 121.182 148.057C121.148 148.105 121.127 148.16 121.119 148.217C121.111 148.275 121.117 148.334 121.136 148.389L126.408 163.497C126.48 163.703 126.615 163.882 126.795 164.006C126.974 164.131 127.188 164.196 127.407 164.192Z" fill="white"/>
<path d="M131.884 156.045C132.055 156.762 131.795 157.342 131.332 157.342C130.868 157.342 130.316 156.762 130.145 156.045C129.974 155.327 130.239 154.753 130.724 154.753C131.21 154.753 131.718 155.333 131.884 156.045Z" fill="white"/>
<path opacity="0.2" d="M142.234 164.667C142.029 164.667 141.832 164.586 141.687 164.441C141.542 164.296 141.461 164.099 141.461 163.894C141.461 163.689 141.542 163.493 141.687 163.348C141.832 163.203 142.029 163.122 142.234 163.122H159.147C159.352 163.122 159.549 163.203 159.693 163.348C159.838 163.493 159.92 163.689 159.92 163.894C159.92 164.099 159.838 164.296 159.693 164.441C159.549 164.586 159.352 164.667 159.147 164.667H142.234Z" fill="white"/>
<path d="M96.8612 58V52.1818H98.0714V54.3693H98.1083C98.1613 54.2519 98.238 54.1326 98.3384 54.0114C98.4407 53.8883 98.5733 53.786 98.7362 53.7045C98.9009 53.6212 99.1055 53.5795 99.3498 53.5795C99.668 53.5795 99.9615 53.6629 100.23 53.8295C100.499 53.9943 100.714 54.2434 100.875 54.5767C101.036 54.9081 101.117 55.3239 101.117 55.8239C101.117 56.3106 101.038 56.7216 100.881 57.0568C100.726 57.3902 100.514 57.643 100.245 57.8153C99.9776 57.9858 99.6784 58.071 99.3469 58.071C99.1121 58.071 98.9123 58.0322 98.7475 57.9545C98.5846 57.8769 98.4511 57.7794 98.3469 57.6619C98.2428 57.5426 98.1632 57.4223 98.1083 57.3011H98.0543V58H96.8612ZM98.0458 55.8182C98.0458 56.0777 98.0818 56.304 98.1538 56.4972C98.2257 56.6903 98.3299 56.8409 98.4663 56.9489C98.6026 57.0549 98.7683 57.108 98.9634 57.108C99.1604 57.108 99.3271 57.054 99.4634 56.946C99.5998 56.8362 99.703 56.6847 99.7731 56.4915C99.8451 56.2964 99.881 56.072 99.881 55.8182C99.881 55.5663 99.846 55.3447 99.7759 55.1534C99.7058 54.9621 99.6026 54.8125 99.4663 54.7045C99.3299 54.5966 99.1623 54.5426 98.9634 54.5426C98.7665 54.5426 98.5998 54.5947 98.4634 54.6989C98.329 54.803 98.2257 54.9508 98.1538 55.142C98.0818 55.3333 98.0458 55.5587 98.0458 55.8182ZM104.723 56.142V53.6364H105.933V58H104.771V57.2074H104.725C104.627 57.4631 104.463 57.6686 104.234 57.8239C104.007 57.9792 103.729 58.0568 103.402 58.0568C103.11 58.0568 102.853 57.9905 102.632 57.858C102.41 57.7254 102.237 57.5369 102.112 57.2926C101.989 57.0483 101.926 56.7557 101.924 56.4148V53.6364H103.135V56.1989C103.136 56.4564 103.206 56.66 103.342 56.8097C103.478 56.9593 103.661 57.0341 103.89 57.0341C104.036 57.0341 104.172 57.0009 104.299 56.9347C104.426 56.8665 104.529 56.7661 104.606 56.6335C104.686 56.5009 104.725 56.3371 104.723 56.142ZM109.222 53.6364V54.5455H106.594V53.6364H109.222ZM107.191 52.5909H108.401V56.6591C108.401 56.7708 108.418 56.858 108.452 56.9205C108.486 56.9811 108.533 57.0237 108.594 57.0483C108.657 57.0729 108.729 57.0852 108.81 57.0852C108.867 57.0852 108.924 57.0805 108.98 57.071C109.037 57.0597 109.081 57.0511 109.111 57.0455L109.301 57.946C109.241 57.965 109.156 57.9867 109.046 58.0114C108.936 58.0379 108.802 58.054 108.645 58.0597C108.354 58.071 108.098 58.0322 107.878 57.9432C107.66 57.8542 107.491 57.7159 107.37 57.5284C107.248 57.3409 107.189 57.1042 107.191 56.8182V52.5909ZM112.331 53.6364V54.5455H109.703V53.6364H112.331ZM110.3 52.5909H111.51V56.6591C111.51 56.7708 111.527 56.858 111.561 56.9205C111.596 56.9811 111.643 57.0237 111.703 57.0483C111.766 57.0729 111.838 57.0852 111.919 57.0852C111.976 57.0852 112.033 57.0805 112.09 57.071C112.147 57.0597 112.19 57.0511 112.221 57.0455L112.411 57.946C112.35 57.965 112.265 57.9867 112.155 58.0114C112.045 58.0379 111.912 58.054 111.755 58.0597C111.463 58.071 111.207 58.0322 110.988 57.9432C110.77 57.8542 110.6 57.7159 110.479 57.5284C110.358 57.3409 110.298 57.1042 110.3 56.8182V52.5909ZM115.061 58.0852C114.613 58.0852 114.226 57.9943 113.902 57.8125C113.58 57.6288 113.332 57.3693 113.158 57.0341C112.984 56.697 112.897 56.2983 112.897 55.8381C112.897 55.3892 112.984 54.9953 113.158 54.6562C113.332 54.3172 113.578 54.053 113.894 53.8636C114.212 53.6742 114.585 53.5795 115.013 53.5795C115.301 53.5795 115.569 53.6259 115.817 53.7188C116.067 53.8097 116.285 53.947 116.471 54.1307C116.658 54.3144 116.804 54.5455 116.908 54.8239C117.012 55.1004 117.064 55.4242 117.064 55.7955V56.1278H113.38V55.3778H115.925C115.925 55.2036 115.887 55.0492 115.811 54.9148C115.736 54.7803 115.631 54.6752 115.496 54.5994C115.364 54.5218 115.209 54.483 115.033 54.483C114.849 54.483 114.686 54.5256 114.544 54.6108C114.404 54.6941 114.294 54.8068 114.215 54.9489C114.135 55.089 114.095 55.2453 114.093 55.4176V56.1307C114.093 56.3466 114.132 56.5331 114.212 56.6903C114.293 56.8475 114.408 56.9688 114.556 57.054C114.703 57.1392 114.879 57.1818 115.081 57.1818C115.216 57.1818 115.339 57.1629 115.451 57.125C115.562 57.0871 115.658 57.0303 115.738 56.9545C115.817 56.8788 115.878 56.786 115.919 56.6761L117.039 56.75C116.982 57.0189 116.865 57.2538 116.689 57.4545C116.515 57.6534 116.29 57.8087 116.013 57.9205C115.739 58.0303 115.421 58.0852 115.061 58.0852ZM117.854 58V53.6364H119.027V54.3977H119.073C119.152 54.1269 119.286 53.9223 119.473 53.7841C119.661 53.6439 119.877 53.5739 120.121 53.5739C120.182 53.5739 120.247 53.5777 120.317 53.5852C120.387 53.5928 120.449 53.6032 120.502 53.6165V54.6903C120.445 54.6733 120.366 54.6581 120.266 54.6449C120.166 54.6316 120.074 54.625 119.99 54.625C119.812 54.625 119.653 54.6638 119.513 54.7415C119.375 54.8172 119.265 54.9233 119.184 55.0597C119.104 55.196 119.064 55.3532 119.064 55.5312V58H117.854Z" fill="#263238"/>
</svg>
